<?xml version="1.0" standalone="no"?>
<!DOCTYPE svg PUBLIC "-//W3C//DTD SVG 1.1//EN" "http://www.w3.org/Graphics/SVG/1.1/DTD/svg11.dtd" >
<svg xmlns="http://www.w3.org/2000/svg" xmlns:xlink="http://www.w3.org/1999/xlink" version="1.1">
<metadata>
Created by FontForge 20170731 at Mon Jul 17 14:58:47 2023
 By Aleksey,,,
Copyright (c) 2019 by Nick Losacco. All rights reserved.
</metadata>
<defs>
<font id="PPTelegraf-RegularOblique" horiz-adv-x="0" >
  <font-face 
    font-family="PP Telegraf Oblique"
    font-weight="400"
    font-style="oblique"
    font-stretch="normal"
    units-per-em="2048"
    panose-1="0 0 0 0 0 0 0 0 0 0"
    ascent="1638"
    descent="-410"
    x-height="1024"
    cap-height="1362"
    bbox="-651 -477 2773 2054"
    underline-thickness="61"
    underline-position="-255"
    slope="-30"
    unicode-range="U+0020-25CF"
  />
<missing-glyph horiz-adv-x="921" 
d="M756 1434v-1844h-584v1844h584zM307 -283h307v62h-188l129 86h59v61h-307v-61h129l-129 -86v-62zM307 -31h307v207h-307v-207zM307 287h307v209h-184v-103h62v41h61v-86h-184v148h-62v-209zM307 537h307v184h-61v-123h-246v-61zM307 641h185v129h122v61h-307v-61h123v-68
h-123v-61zM307 881h307v63h-122v129h-185v-192zM307 1120h307v62h-122v67h122v62h-305v-62h121v-67h-123v-62zM369 29v88h184v-88h-184zM369 944v66h61v-66h-61z" />
    <glyph glyph-name="f_f.liga" unicode="ff" horiz-adv-x="1351" 
d="M-80 0l518 895h-172l53 92l197 43l113 197q61 106 149.5 156.5t231.5 50.5h223l-74 -125h-330l-161 -285h465l116 203q60 106 148.5 156.5t230.5 50.5h260l-71 -125h-367l-164 -285h309l-73 -129h-299l-516 -895h-166l516 895h-453l-518 -895h-166z" />
    <glyph glyph-name="f_f_i.liga" unicode="ffi" horiz-adv-x="1736" 
d="M541 0l516 895h-453l-518 -895h-166l518 895h-172l53 92l197 43l113 197q61 106 149.5 156.5t231.5 50.5h223l-74 -125h-330l-161 -285h465l116 203q60 106 148.5 156.5t230.5 50.5h522l-73 -125h-627l-164 -285h303l-76 -129h-290l-516 -895h-166zM1159 0l592 1024h166
l-592 -1024h-166z" />
    <glyph glyph-name="f_f_j.liga" unicode="ffj" horiz-adv-x="1724" 
d="M541 0l516 895h-453l-518 -895h-166l518 895h-172l53 92l195 43l115 197q61 106 149.5 156.5t231.5 50.5h223l-74 -125h-330l-163 -285h464l119 203q60 106 148.5 156.5t230.5 50.5h522l-73 -125h-627l-166 -285h303l-74 -129h-290l-516 -895h-166zM659 -410l76 134h266
l752 1300h166l-690 -1194q-72 -126 -164.5 -183t-237.5 -57h-168z" />
    <glyph glyph-name="f_f_l.liga" unicode="ffl" horiz-adv-x="1796" 
d="M-80 0l518 895h-172l53 92l197 43l113 197q61 106 149.5 156.5t231.5 50.5h223l-74 -125h-330l-161 -285h465l116 203q60 106 148.5 156.5t230.5 50.5h557l-827 -1434h-166l756 1309h-498l-164 -285h299l-74 -129h-288l-516 -895h-166l516 895h-453l-518 -895h-166z" />
    <glyph glyph-name="f_f_t.liga" unicode="fft" horiz-adv-x="2035" 
d="M-80 0l518 895h-172l53 92l197 43l113 197q61 106 149.5 156.5t231.5 50.5h223l-74 -125h-330l-161 -285h438l29 6l114 197q60 106 148.5 156.5t230.5 50.5h205l-72 -125h-311l-164 -285h492l200 227h90l-131 -227h336l-75 -129h-336l-441 -762h324l-78 -133h-240
q-73 0 -113.5 14t-50.5 45t3.5 74t50.5 107l379 655h-473l-516 -895h-166l516 895h-453l-518 -895h-166z" />
    <glyph glyph-name="f_i.liga" unicode="fi" horiz-adv-x="1132" 
d="M-80 0l518 895h-172l53 92l195 39l115 201q61 106 149.5 156.5t231.5 50.5h520l-72 -125h-629l-161 -285h301l-74 -129h-291l-518 -895h-166zM528 0l590 1024h172l-590 -1024h-172z" />
    <glyph glyph-name="f_j.liga" unicode="fj" horiz-adv-x="1130" 
d="M-80 0l518 895h-172l53 92l195 43l115 197q61 106 149.5 156.5t231.5 50.5h546l-71 -125h-656l-163 -285h333l-71 -129h-324l-518 -895h-166zM68 -410l75 134h267l749 1300h166l-688 -1194q-72 -126 -164 -183t-237 -57h-168z" />
    <glyph glyph-name="f_l.liga" unicode="fl" horiz-adv-x="1177" 
d="M-80 0l518 895h-172l53 92l197 43l113 197q61 106 149.5 156.5t231.5 50.5h557l-828 -1434h-166l756 1309h-500l-161 -285h299l-76 -129h-287l-518 -895h-166z" />
    <glyph glyph-name="f_t.liga" unicode="ft" horiz-adv-x="1415" 
d="M-80 0l518 895h-172l53 92l197 43l113 197q61 106 149.5 156.5t231.5 50.5h204l-73 -125h-312l-161 -285h491l199 227h90l-131 -227h336l-74 -129h-336l-440 -762h321l-75 -133h-242q-73 0 -113.5 14t-50 45t4 74t50.5 107l379 655h-473l-518 -895h-166z" />
    <glyph glyph-name="t_t.liga" unicode="tt" horiz-adv-x="1439" 
d="M162 0q-73 0 -113 14t-50 45t3.5 74t50.5 107l379 655h-196l53 92l241 51l183 213h90l-129 -227h506l200 227h90l-129 -227h336l-75 -129h-336l-441 -762h322l-76 -133h-242q-58 0 -95 9.5t-54.5 27.5t-17 48t15 67t43.5 88l379 655h-502l-440 -762h321l-76 -133h-241z
" />
    <glyph glyph-name=".notdef" horiz-adv-x="921" 
d="M756 1434v-1844h-584v1844h584zM307 -283h307v62h-188l129 86h59v61h-307v-61h129l-129 -86v-62zM307 -31h307v207h-307v-207zM307 287h307v209h-184v-103h62v41h61v-86h-184v148h-62v-209zM307 537h307v184h-61v-123h-246v-61zM307 641h185v129h122v61h-307v-61h123v-68
h-123v-61zM307 881h307v63h-122v129h-185v-192zM307 1120h307v62h-122v67h122v62h-305v-62h121v-67h-123v-62zM369 29v88h184v-88h-184zM369 944v66h61v-66h-61z" />
    <glyph glyph-name=".null" 
 />
    <glyph glyph-name="nonmarkingreturn" horiz-adv-x="682" 
 />
    <glyph glyph-name="space" unicode=" " horiz-adv-x="460" 
 />
    <glyph glyph-name="space" unicode="&#xa0;" horiz-adv-x="460" 
 />
    <glyph glyph-name="exclam" unicode="!" horiz-adv-x="434" 
d="M98 399l529 963h168l-584 -963h-113zM-180 0l104 180h213l-104 -180h-213z" />
    <glyph glyph-name="quotedbl" unicode="&#x22;" horiz-adv-x="589" 
d="M565 1362h176l-268 -426h-135zM614 936l228 426h176l-268 -426h-136z" />
    <glyph glyph-name="numbersign" unicode="#" horiz-adv-x="1761" 
d="M-33 0l352 383h-286l71 125h330l359 391h-316l74 125h356l312 338h159l-311 -338h418l311 338h158l-312 -338h316l-74 -125h-356l-359 -391h344l-71 -125h-387l-353 -383h-157l352 383h-418l-352 -383h-160zM594 508h418l358 391h-418z" />
    <glyph glyph-name="dollar" unicode="$" horiz-adv-x="1241" 
d="M156 -254l129 227q-125 10 -201.5 51t-100.5 107.5t-6.5 150.5t74.5 185h166q-110 -193 -66 -279t263 -86q200 0 302.5 51.5t190.5 202.5q61 107 36 164.5t-142 83.5l-226 49q-164 35 -201 133t52 248q195 338 610 363l123 213h164l-125 -217q194 -22 250 -135.5
t-39 -301.5h-164q42 89 51 148t-16 95.5t-79.5 51.5t-145.5 15q-170 0 -278.5 -56.5t-192.5 -199.5q-24 -41 -33 -74.5t-2 -62.5t36 -50t81 -32l241 -52q115 -25 171 -76.5t52.5 -138t-73.5 -207.5q-96 -167 -238 -250.5t-370 -95.5l-130 -225h-163z" />
    <glyph glyph-name="percent" unicode="%" horiz-adv-x="1669" 
d="M-188 0l14 25l1948 1214h-600l-246 -422h-572l316 545h1192q119 0 116 -76q-3 -59 -94 -115l-1884 -1171h-190zM569 940h293l172 299h-293zM694 0l314 543h571l-313 -543h-572zM905 123h293l174 301h-295z" />
    <glyph glyph-name="ampersand" unicode="&#x26;" horiz-adv-x="1556" 
d="M1212 608q-146 -231 -288 -364l116 -207l-127 -84l-108 190q-246 -178 -576 -178q-135 0 -224 42.5t-114 129.5t52 219q74 129 201 215t329 160q-22 52 -29 101t6.5 111.5t51.5 129.5q96 165 232.5 244.5t330.5 79.5q129 0 204.5 -35t90.5 -108.5t-51 -186.5
q-65 -114 -184.5 -191.5t-303.5 -142.5l-147 -51l12 -23l178 -313q108 111 195 254q45 73 103.5 108t119.5 35h236l-78 -135h-228zM104 346q-145 -254 191 -254q247 0 453 150l-195 338l-29 49l-8 -2q-157 -56 -255.5 -119.5t-156.5 -161.5zM625 784l188 68q129 45 207.5 94
t124.5 129q35 61 44 100.5t-8.5 61.5t-52 30.5t-94.5 8.5q-128 0 -215 -47.5t-160 -173.5q-45 -81 -51.5 -148t17.5 -123z" />
    <glyph glyph-name="quotesingle" unicode="'" horiz-adv-x="315" 
d="M565 1362h176l-268 -426h-135z" />
    <glyph glyph-name="parenleft" unicode="(" horiz-adv-x="696" 
d="M160 641q344 592 1018 928l24 -82q-126 -75 -234.5 -154.5t-226.5 -188.5t-230 -251.5t-210 -312.5q-122 -211 -180.5 -396.5t-56.5 -314.5t49 -221l-78 -58q-40 46 -65.5 113.5t-33 166t9.5 211.5t71 259t143 301z" />
    <glyph glyph-name="parenright" unicode=")" horiz-adv-x="698" 
d="M610 496q-344 -592 -1018 -928l-24 82q126 75 234.5 154.5t226.5 188.5t230 251.5t210 312.5q122 211 180.5 396.5t56.5 314.5t-49 221l78 57q40 -46 65.5 -113.5t33 -165.5t-9.5 -211t-71 -259t-143 -301z" />
    <glyph glyph-name="asterisk" unicode="*" horiz-adv-x="757" 
d="M436 1149l111 92l131 -182l133 303h127l-225 -305l352 190v-108l-350 -113l215 -115l-111 -94l-131 187l-133 -306h-129l227 306l-354 -193v109l352 114z" />
    <glyph glyph-name="plus" unicode="+" horiz-adv-x="1107" 
d="M184 573h338l203 351h141l-202 -351h340l-74 -124h-338l-199 -347h-143l201 347h-340z" />
    <glyph glyph-name="comma" unicode="," horiz-adv-x="352" 
d="M-217 8l100 172h211l-172 -299q-49 -84 -108 -118.5t-148 -34.5h-45l62 106h104l100 174h-104z" />
    <glyph glyph-name="hyphen" unicode="-" horiz-adv-x="956" 
d="M111 573h819l-74 -124h-819z" />
    <glyph glyph-name="period" unicode="." horiz-adv-x="354" 
d="M-221 0l104 180h213l-104 -180h-213z" />
    <glyph glyph-name="slash" unicode="/" horiz-adv-x="614" 
d="M-270 0l1196 1362h159l-1198 -1362h-157z" />
    <glyph glyph-name="zero" unicode="0" horiz-adv-x="1415" 
d="M440 -35q-172 0 -270 51t-121 147t14.5 226.5t133.5 298.5q410 711 974 711q137 0 226.5 -37t128 -102t37.5 -156t-39 -197.5t-109 -228.5q-103 -178 -204 -305.5t-219.5 -221.5t-255 -140t-296.5 -46zM373 682q-173 -298 -148.5 -435.5t248.5 -137.5q226 0 410.5 137.5
t357.5 435.5q117 202 144 328.5t-33.5 186.5t-212.5 60q-226 0 -409 -136.5t-357 -438.5z" />
    <glyph glyph-name="one" unicode="1" horiz-adv-x="960" 
d="M-147 0l81 139h293l625 1084h-311l80 139h290q92 0 115.5 -49t-20.5 -121l-607 -1053h310l-80 -139h-776z" />
    <glyph glyph-name="two" unicode="2" horiz-adv-x="1298" 
d="M-160 0l82 139l996 568q151 86 229.5 152.5t130.5 154.5q66 117 27.5 180t-179.5 63q-200 0 -353 -106.5t-284 -329.5h-176q341 578 873 578q115 0 192.5 -32.5t108.5 -88t24.5 -127t-51.5 -150.5q-75 -128 -207 -229.5t-397 -247.5l-682 -385h803l-80 -139h-1057z" />
    <glyph glyph-name="three" unicode="3" horiz-adv-x="1286" 
d="M223 442q-51 -102 -52.5 -177t58.5 -118t177 -43q184 0 322.5 81.5t240.5 258.5q78 134 45 207.5t-174 73.5q-139 0 -297 -76l-33 119l784 455h-741l82 139h975l-82 -139l-711 -422q79 18 150 18q60 0 108.5 -14t83 -46t46.5 -78.5t-4.5 -116t-65.5 -154.5
q-42 -74 -90 -134.5t-117.5 -120t-150 -100t-190 -65.5t-235.5 -25q-131 0 -218.5 35.5t-124.5 98.5t-27.5 151t67.5 192h174z" />
    <glyph glyph-name="four" unicode="4" horiz-adv-x="1277" 
d="M522 0l199 346h-746l80 137l1157 879h269l-508 -879h227l-80 -137h-227l-199 -346h-172zM246 483h555l432 746z" />
    <glyph glyph-name="five" unicode="5" horiz-adv-x="1294" 
d="M1628 1362l-82 -139h-782l-299 -467q110 76 216 113.5t247 37.5q220 0 284 -125t-61 -346q-63 -111 -136.5 -194t-168 -147t-215.5 -97t-266 -33q-178 0 -277 52.5t-110 146t53 221.5h176q-43 -89 -42.5 -151t61.5 -95t186 -33q371 0 565 338q98 175 62.5 257.5
t-195.5 82.5q-227 0 -473 -178h-160l481 756h936z" />
    <glyph glyph-name="six" unicode="6" horiz-adv-x="1271" 
d="M360 -35q-578 0 -176 697q217 377 459 557t526 180q125 0 208 -46t107 -132t-30 -209h-170q54 124 12.5 184.5t-190.5 60.5q-209 0 -394.5 -140.5t-373.5 -463.5q117 97 260 150t287 53q128 0 203 -53.5t81 -159.5t-84 -264q-243 -414 -725 -414zM242 418
q-86 -148 -42 -230t208 -82q342 0 522 310q89 154 52.5 234.5t-198.5 80.5q-166 0 -309.5 -79t-232.5 -234z" />
    <glyph glyph-name="seven" unicode="7" horiz-adv-x="1128" 
d="M459 1223l80 139h1022l-70 -117q-201 -125 -360 -242.5t-322.5 -267.5t-309.5 -333t-276 -402h-180q124 209 259 383.5t287 321.5t313 270.5t360 247.5h-803z" />
    <glyph glyph-name="eight" unicode="8" horiz-adv-x="1273" 
d="M356 -33q-119 0 -203.5 20.5t-128.5 56.5t-58.5 86.5t-1 108t51.5 123.5q78 134 203 226t279 129q-88 37 -104 121.5t46 191.5q97 167 270.5 267t403.5 100q126 0 209.5 -28t119.5 -78t34.5 -116t-41.5 -145q-131 -261 -435 -321q55 -21 87 -52.5t43.5 -78t-7 -113
t-67.5 -150.5q-40 -69 -97 -127t-140.5 -110t-202.5 -81.5t-261 -29.5zM197 371q-48 -86 -46.5 -145.5t64 -90.5t186.5 -31q362 0 514 267q49 87 47.5 147.5t-64 93.5t-183.5 33q-359 0 -518 -274zM598 1020q-34 -56 -41.5 -101t12.5 -78t75 -51t144 -18q330 0 478 248
q139 244 -197 244q-332 0 -471 -244z" />
    <glyph glyph-name="nine" unicode="9" horiz-adv-x="1271" 
d="M1108 1399q578 0 176 -697q-217 -377 -459 -557t-526 -180q-125 0 -208 46t-107 132t30 209h170q-55 -124 -13 -185t191 -61q208 0 394 141t374 464q-117 -97 -259.5 -150t-286.5 -53q-128 0 -203 53.5t-81.5 159.5t83.5 264q243 414 725 414zM539 948
q-89 -154 -53 -234.5t198 -80.5q166 0 310 79t233 234q86 148 42 229.5t-208 81.5q-343 0 -522 -309z" />
    <glyph glyph-name="colon" unicode=":" horiz-adv-x="358" 
d="M-217 0l104 180h213l-104 -180h-213zM264 844l105 180h213l-105 -180h-213z" />
    <glyph glyph-name="semicolon" unicode=";" horiz-adv-x="354" 
d="M-215 8l100 172h211l-172 -299q-49 -84 -108 -118.5t-148 -34.5h-45l62 106h104l100 174h-104zM264 844l105 180h213l-105 -180h-213z" />
    <glyph glyph-name="less" unicode="&#x3c;" horiz-adv-x="985" 
d="M616 152l-530 266l61 108h3l40 72l840 266l-84 -145l-725 -230l459 -229z" />
    <glyph glyph-name="equal" unicode="=" horiz-adv-x="909" 
d="M272 737h641l-71 -125h-643zM10 285l74 125h641l-72 -125h-643z" />
    <glyph glyph-name="greater" unicode="&#x3e;" horiz-adv-x="958" 
d="M342 866l530 -266l-61 -108h-2l-41 -72l-840 -266l84 145l725 229l-458 230z" />
    <glyph glyph-name="question" unicode="?" horiz-adv-x="1267" 
d="M510 516l82 139h106q141 0 242.5 35t169.5 99.5t129 171.5q87 151 52.5 223.5t-193.5 72.5q-195 0 -330 -83.5t-256 -276.5h-178q315 502 811 502q104 0 177.5 -25t110 -68t46 -101.5t-8.5 -124.5t-59 -138q-126 -214 -326.5 -320t-453.5 -106h-121zM236 0l104 180h213
l-104 -180h-213z" />
    <glyph glyph-name="at" unicode="@" horiz-adv-x="2131" 
d="M651 -383q-320 0 -494.5 109t-183 313.5t157.5 497.5q238 414 611 651t821 237q301 0 463.5 -96t174 -288.5t-154.5 -481.5q-79 -136 -174.5 -236.5t-195 -158t-196.5 -84.5t-194 -27h-174l76 180q-182 -202 -451 -202q-143 0 -205.5 65t-46.5 174t99 254
q282 492 702 492q125 0 182 -48t52 -141l90 156h164l-459 -797h76q126 0 260 106t264 329q125 218 127.5 368.5t-126 230.5t-388.5 80q-263 0 -501.5 -101.5t-423 -276.5t-322.5 -414q-211 -367 -104 -562.5t515 -195.5h363l-78 -133h-326zM762 524q-80 -140 -96 -218
t25.5 -110t148.5 -32q159 0 277.5 78t236.5 282q61 105 82.5 175.5t4 110.5t-62.5 56.5t-123 16.5q-159 0 -266.5 -77t-226.5 -282z" />
    <glyph glyph-name="A" unicode="A" horiz-adv-x="1337" 
d="M1020 0h-156l68 348h-674l-334 -348h-188l1304 1362h248zM389 485h572l149 754z" />
    <glyph glyph-name="B" unicode="B" horiz-adv-x="1337" 
d="M-152 0l787 1362h598q81 0 142 -19t96.5 -53.5t50.5 -80.5t6.5 -101t-39.5 -115q-63 -123 -172.5 -196t-247.5 -92q78 -16 118 -60.5t34 -122t-66 -178.5q-200 -344 -592 -344h-715zM106 137h482q151 0 246 64t163 184q45 78 45.5 134.5t-49 89t-149.5 32.5h-447z
M471 770h430q150 0 249 56.5t165 172.5q61 100 27.5 163t-158.5 63h-451z" />
    <glyph glyph-name="C" unicode="C" horiz-adv-x="1507" 
d="M500 -35q-229 0 -340 95t-98.5 260t137.5 382q104 178 210 303.5t233.5 216t278.5 134t334 43.5q127 0 218 -28.5t139.5 -78.5t65.5 -119t2 -149t-58 -170h-170q97 212 36 307.5t-282 95.5q-108 0 -190 -13t-166.5 -49t-158.5 -100.5t-153.5 -166t-164.5 -246.5
q-75 -128 -110.5 -225t-33.5 -163.5t40 -108.5t104 -60.5t164 -18.5q172 0 294 39.5t228.5 133t222.5 264.5h172q-86 -143 -176.5 -246t-205 -180t-256.5 -114.5t-316 -37.5z" />
    <glyph glyph-name="D" unicode="D" horiz-adv-x="1443" 
d="M-152 0l787 1362h485q124 0 214 -27t140 -76.5t72.5 -116t13.5 -148t-40 -170t-84 -183.5q-66 -119 -134 -212.5t-155 -176t-184.5 -136.5t-221 -85t-264.5 -31h-629zM106 137h420q165 0 299.5 62.5t239 177.5t205.5 297q146 261 97.5 406t-296.5 145h-338z" />
    <glyph glyph-name="E" unicode="E" horiz-adv-x="1265" 
d="M393 633l-287 -496h844l-80 -137h-1022l787 1362h1016l-80 -137h-838l-262 -457h776l-78 -135h-776z" />
    <glyph glyph-name="F" unicode="F" horiz-adv-x="1239" 
d="M-152 0l787 1362h1014l-80 -137h-836l-268 -467h774l-78 -135h-774l-360 -623h-179z" />
    <glyph glyph-name="G" unicode="G" horiz-adv-x="1568" 
d="M512 -35q-233 0 -346 94.5t-99 266.5t148 405q92 158 196 278t230.5 209t279 135t328.5 46q163 0 268.5 -38t149.5 -108.5t40 -165t-54 -213.5h-174q90 211 32.5 297t-294.5 86q-109 0 -195 -15t-172 -52.5t-161.5 -102.5t-153.5 -165t-158 -240q-90 -155 -122 -266.5
t-6 -180.5t100.5 -101t201.5 -32q157 0 288 51.5t237 146t214 245.5h-612l74 127h782l-387 -670h-156l154 270q-53 -53 -92.5 -89.5t-102.5 -81t-123.5 -71.5t-142.5 -46t-172 -19z" />
    <glyph glyph-name="H" unicode="H" horiz-adv-x="1425" 
d="M-152 0l787 1362h184l-340 -590h776l340 590h185l-787 -1362h-184l367 635h-777l-366 -635h-185z" />
    <glyph glyph-name="I" unicode="I" horiz-adv-x="966" 
d="M-182 0l80 137h284l629 1088h-287l80 137h748l-80 -137h-283l-629 -1088h285l-80 -137h-747z" />
    <glyph glyph-name="J" unicode="J" horiz-adv-x="866" 
d="M-209 0l80 137h473l707 1225h178l-647 -1122q-73 -127 -163.5 -183.5t-234.5 -56.5h-393z" />
    <glyph glyph-name="K" unicode="K" horiz-adv-x="1323" 
d="M-152 0l787 1362h178l-442 -766l229 160l916 606h247l-907 -596l121 -758l-6 -8h-164l-100 668l-476 -312l-204 -356h-179z" />
    <glyph glyph-name="L" unicode="L" horiz-adv-x="1067" 
d="M-152 0l787 1362h178l-707 -1225h713l-80 -137h-891z" />
    <glyph glyph-name="M" unicode="M" horiz-adv-x="1789" 
d="M2144 1362l-786 -1362h-184l724 1233l-1185 -1233h-224l256 1245l-722 -1245h-175l787 1362h291l-234 -1190l1133 1190h319z" />
    <glyph glyph-name="N" unicode="N" horiz-adv-x="1421" 
d="M885 117l719 1245h172l-787 -1362h-264l-2 1069q3 90 16 178l-719 -1247h-172l787 1362h264v-1071q-4 -103 -14 -174z" />
    <glyph glyph-name="O" unicode="O" horiz-adv-x="1538" 
d="M498 -35q-231 0 -339.5 98.5t-92 268t144.5 393.5q96 164 200 285.5t230 210.5t276.5 133.5t325.5 44.5q173 0 278.5 -58.5t136.5 -159.5t1.5 -233.5t-117.5 -285.5q-219 -379 -460 -538t-584 -159zM375 682q-122 -210 -140 -336t57 -179.5t247 -53.5q92 0 164 9
t144.5 33t134.5 64.5t126.5 104t127.5 151.5t132 207q122 210 140 336t-57 179.5t-247 53.5q-111 0 -194.5 -13.5t-168 -49.5t-157.5 -100t-150 -163.5t-159 -242.5z" />
    <glyph glyph-name="P" unicode="P" horiz-adv-x="1259" 
d="M1184 1362q92 0 158.5 -23.5t101.5 -64t46.5 -95t-1.5 -117t-47 -128.5q-61 -116 -142 -195t-204.5 -126.5t-282.5 -47.5h-459l-327 -565h-179l787 1362h549zM432 702h412q162 0 252.5 56t175.5 207q54 97 54.5 155.5t-43 81.5t-132.5 23h-418z" />
    <glyph glyph-name="Q" unicode="Q" horiz-adv-x="1556" 
d="M217 733q93 161 195.5 280.5t228.5 208t278 133t330 44.5q229 0 341 -94t101 -256.5t-135 -376.5q-119 -205 -271 -337.5t-347 -199.5h336l-78 -135h-704q-140 0 -235 34t-140.5 97.5t-49 154t34.5 203t115 244.5zM381 692q-118 -203 -134.5 -324.5t58.5 -174t248 -52.5
q271 0 466 132t361 419q122 210 138 333.5t-60.5 174.5t-249.5 51q-111 0 -196 -14t-169 -50t-157.5 -99.5t-149 -160.5t-155.5 -235z" />
    <glyph glyph-name="R" unicode="R" horiz-adv-x="1325" 
d="M1004 217q-73 -133 -91 -217h-180q38 121 90 211l72 125q46 80 58.5 133.5t-9.5 84.5t-69.5 43.5t-126.5 12.5h-369l-352 -610h-179l787 1362h567q94 0 163.5 -21.5t107 -60t50.5 -89.5t-1 -112t-52 -127q-75 -132 -189.5 -203t-248.5 -90q40 -10 66 -33t38 -59t0 -89.5
t-49 -117.5zM453 737h374q180 0 287.5 56.5t179.5 181.5q75 137 34.5 193.5t-204.5 56.5h-391z" />
    <glyph glyph-name="S" unicode="S" horiz-adv-x="1282" 
d="M217 467q-111 -193 -63.5 -279t280.5 -86q215 0 320.5 51t193.5 203q61 107 36 166t-142 82l-267 49q-165 30 -202 130.5t53 250.5q210 365 694 365q266 0 351.5 -117t-21.5 -326h-164q42 89 50.5 148t-18.5 95.5t-85.5 51.5t-157.5 15q-185 0 -295.5 -56t-195.5 -200
q-105 -183 82 -219l282 -52q353 -67 150 -422q-69 -121 -159 -196t-224.5 -113.5t-323.5 -38.5q-161 0 -261 37.5t-135 105t-20.5 157t76.5 198.5h166z" />
    <glyph glyph-name="T" unicode="T" horiz-adv-x="1202" 
d="M215 -2l709 1227h-486l80 137h1147l-80 -137h-483l-709 -1227h-178z" />
    <glyph glyph-name="U" unicode="U" horiz-adv-x="1349" 
d="M104 487l508 875h179l-494 -854q-55 -94 -79 -162.5t-20.5 -114t35.5 -73t84.5 -38.5t131.5 -11q113 0 190.5 16t150 61t134 121t133.5 201l493 854h179l-531 -916q-102 -177 -204.5 -278t-245 -151t-345.5 -50q-145 0 -237.5 37t-127.5 105.5t-18.5 164t84.5 213.5z" />
    <glyph glyph-name="V" unicode="V" horiz-adv-x="1306" 
d="M238 0l294 1362h164l-227 -1051q-16 -75 -43 -172q62 75 152 172l989 1051h196l-1280 -1362h-245z" />
    <glyph glyph-name="W" unicode="W" horiz-adv-x="1990" 
d="M1235 123l997 1239h181l-1098 -1362h-287l385 1227l-1034 -1227h-287l475 1362h170l-434 -1239l1043 1239h276z" />
    <glyph glyph-name="X" unicode="X" horiz-adv-x="1341" 
d="M813 0l-92 551l-721 -551h-233l927 705l-110 657h172l94 -539l700 539h228l-904 -690l117 -672h-178z" />
    <glyph glyph-name="Y" unicode="Y" horiz-adv-x="1144" 
d="M471 1362h168l-12 -563q-3 -78 -13 -181q97 84 209 185l637 559h203l-1022 -885l-276 -477h-170l276 477v885z" />
    <glyph glyph-name="Z" unicode="Z" horiz-adv-x="1269" 
d="M-219 0l80 137l1523 1088h-884l80 137h1124l-80 -137l-1522 -1088h902l-80 -137h-1143z" />
    <glyph glyph-name="bracketleft" unicode="[" horiz-adv-x="997" 
d="M-371 -410l80 140l959 1656h-2l82 140h747l-80 -140h-577l-959 -1656h580l-82 -140h-748z" />
    <glyph glyph-name="backslash" unicode="\" horiz-adv-x="1400" 
d="M1081 0h-159l-410 1362h160z" />
    <glyph glyph-name="bracketright" unicode="]" horiz-adv-x="997" 
d="M1479 1526l-80 -140l-959 -1656h2l-82 -140h-747l80 140h577l959 1656h-580l82 140h748z" />
    <glyph glyph-name="asciicircum" unicode="^" horiz-adv-x="1032" 
d="M336 784l592 578h166l-74 -578h-125l59 459l-473 -459h-145z" />
    <glyph glyph-name="underscore" unicode="_" horiz-adv-x="956" 
d="M-223 0h819l-74 -125h-819z" />
    <glyph glyph-name="grave" unicode="`" horiz-adv-x="671" 
d="M526 1278l49 125l431 -191l-27 -63z" />
    <glyph glyph-name="a" unicode="a" horiz-adv-x="1120" 
d="M160 -27q-93 0 -156 39.5t-77.5 115t46.5 185.5q130 232 473 273l287 35q89 12 137.5 39t81.5 85q16 27 24.5 51.5t5.5 49.5t-19.5 43t-55 29.5t-96.5 11.5q-144 0 -244 -58t-174 -170h-164q217 357 637 357q188 0 254.5 -97.5t-20.5 -254.5l-262 -453
q-83 -149 -113 -254h-166q28 109 84 203q-37 -35 -63 -58t-76.5 -59t-97 -58t-112.5 -38.5t-134 -16.5zM127 276q-42 -91 -7 -132.5t138 -41.5q153 0 306.5 113.5t242.5 269.5l49 88q-93 -49 -223 -67l-191 -29q-125 -19 -198.5 -66.5t-116.5 -134.5z" />
    <glyph glyph-name="b" unicode="b" horiz-adv-x="1255" 
d="M975 1059q158 0 232.5 -74.5t59.5 -207t-114 -306.5q-289 -504 -737 -504q-150 0 -218 57.5t-59 168.5l-110 -193h-172l821 1419h170l-324 -559q211 199 451 199zM289 451q-53 -104 -68 -174.5t8.5 -110t73.5 -55t133 -13.5q82 1 144 16.5t131 59t138.5 126.5t147.5 212
q93 156 107.5 248.5t-39 130t-176.5 37.5q-156 0 -279.5 -77t-247.5 -271z" />
    <glyph glyph-name="c" unicode="c" horiz-adv-x="1144" 
d="M86 535q161 281 348 402.5t455 121.5q117 0 194 -32t108 -88t24.5 -129.5t-50.5 -158.5h-155q63 139 27.5 207t-185.5 68q-60 0 -106.5 -5t-99 -20t-98 -44t-95 -73.5t-99.5 -112.5t-102 -159q-83 -146 -96.5 -236.5t37.5 -130.5t167 -41q167 -2 281 62t221 225h156
q-95 -153 -191.5 -244t-218.5 -135.5t-284 -44.5q-261 0 -324 155.5t86 412.5z" />
    <glyph glyph-name="d" unicode="d" horiz-adv-x="1265" 
d="M834 1057q158 0 231.5 -58t64.5 -172l351 607h174l-828 -1434h-165l102 176q-212 -209 -473 -209q-160 0 -237 75.5t-63.5 208t111.5 304.5q286 502 732 502zM266 522q-91 -154 -105 -248t40 -134t176 -40q163 0 289 78t252 281l59 100q45 86 62.5 150t10 105t-38.5 66
t-76.5 35t-109.5 9q-66 -1 -116.5 -9.5t-107 -33t-107.5 -68t-108.5 -116t-119.5 -175.5z" />
    <glyph glyph-name="e" unicode="e" horiz-adv-x="1130" 
d="M309 -33q-166 0 -249.5 75t-75.5 203.5t102 289.5q154 264 342.5 393t421.5 129q111 0 185.5 -39.5t103.5 -107.5t14 -162.5t-76 -200.5q-21 -36 -45 -70h-813q-110 -201 -81 -292t198 -91q113 0 190 22.5t132.5 66t121.5 126.5h158q-41 -58 -81 -103t-98 -92t-121 -77.5
t-148 -50t-181 -19.5zM291 598h645q65 120 69.5 195t-44.5 108t-152 33q-58 0 -105 -7t-101 -28t-102 -57.5t-102 -97.5t-108 -146z" />
    <glyph glyph-name="f" unicode="f" horiz-adv-x="731" 
d="M-82 0l518 897h-170l53 90l193 43l109 187q60 103 149.5 152.5t230.5 49.5h259l-72 -123h-363l-157 -272h307l-74 -127h-295l-516 -897h-172z" />
    <glyph glyph-name="g" unicode="g" horiz-adv-x="1241" 
d="M92 -432q-98 0 -170.5 22.5t-112 59.5t-57 84.5t-12 97.5t30.5 98h159q-35 -75 -32 -125.5t56.5 -76t164.5 -25.5q81 0 132 5t106.5 21t97 48t86 85.5t90.5 133.5l110 192q-187 -170 -450 -170q-158 0 -232.5 67.5t-62 187.5t105.5 282q148 258 330.5 381t419.5 123
q140 0 207 -55.5t59 -163.5l99 170h169l-587 -1016q-92 -160 -181 -248.5t-215 -133t-311 -44.5zM258 518q-51 -88 -73.5 -153t-20.5 -107t29 -67.5t69.5 -35.5t106.5 -10q84 0 150.5 14.5t136 52.5t135.5 109.5t131 178.5l39 65q46 83 65.5 145.5t15.5 104.5t-31.5 67.5
t-71.5 36.5t-108 11q-91 0 -159.5 -16.5t-138 -61.5t-136 -126t-139.5 -208z" />
    <glyph glyph-name="h" unicode="h" horiz-adv-x="1198" 
d="M-135 0l819 1434h172l-340 -596q221 221 451 221q133 0 199.5 -52t62 -143t-73.5 -211l-377 -653h-168l371 643q91 160 72.5 220.5t-154.5 60.5q-107 0 -188.5 -30.5t-174 -118t-198.5 -247.5l-301 -528h-172z" />
    <glyph glyph-name="i" unicode="i" horiz-adv-x="438" 
d="M-158 0l590 1024h172l-590 -1024h-172zM506 1192l98 170h211l-98 -170h-211z" />
    <glyph glyph-name="j" unicode="j" horiz-adv-x="430" 
d="M-651 -410l76 134h258l749 1300h174l-690 -1194q-72 -126 -163.5 -183t-235.5 -57h-168zM510 1192l98 170h211l-98 -170h-211z" />
    <glyph glyph-name="k" unicode="k" horiz-adv-x="1134" 
d="M641 0l-104 489l-353 -219l-155 -270h-172l827 1434h172l-541 -938q66 48 129 86l719 442h232l-2 -4l-715 -442l145 -578h-182z" />
    <glyph glyph-name="l" unicode="l" horiz-adv-x="466" 
d="M-143 0l827 1434h172l-827 -1434h-172z" />
    <glyph glyph-name="m" unicode="m" horiz-adv-x="1880" 
d="M1659 643q91 160 72 220.5t-156 60.5q-83 0 -147 -20.5t-136 -77.5t-148 -159.5t-173 -265.5l-232 -401h-170l371 643q91 160 71.5 220.5t-155.5 60.5q-77 0 -137 -18t-127 -67.5t-138 -139.5t-157 -230l-270 -469h-170l589 1024h170l-96 -168q194 203 412 203
q143 0 207 -62t45 -170q204 232 469 232q130 0 195 -52t60.5 -143.5t-73.5 -212.5l-375 -651h-170z" />
    <glyph glyph-name="n" unicode="n" horiz-adv-x="1196" 
d="M-143 0l589 1024h172l-106 -186q221 221 451 221q133 0 199.5 -52t62 -143t-73.5 -211l-377 -653h-168l371 643q91 160 72.5 220.5t-154.5 60.5q-82 0 -146 -17t-133.5 -62t-141.5 -128t-155 -211l-290 -506h-172z" />
    <glyph glyph-name="o" unicode="o" horiz-adv-x="1185" 
d="M324 -33q-170 0 -257.5 71.5t-82 199.5t101.5 294q161 278 349 402.5t444 124.5q157 0 240.5 -70.5t78.5 -202t-104 -303.5q-70 -120 -147.5 -211t-171.5 -161.5t-207.5 -107t-243.5 -36.5zM252 512q-90 -156 -106 -245.5t34 -127t172 -37.5q92 0 159 15t138 58t139 125
t144 212q90 156 106 247.5t-34.5 130t-172.5 38.5q-70 0 -123 -8t-113 -33.5t-112 -70.5t-111 -120.5t-120 -183.5z" />
    <glyph glyph-name="p" unicode="p" horiz-adv-x="1269" 
d="M424 -33q-153 0 -223.5 58t-61.5 168l-348 -603h-172l827 1434h166l-100 -174q210 207 467 207q161 0 237.5 -73t62.5 -205.5t-114 -309.5q-286 -502 -741 -502zM301 475q-49 -91 -69.5 -157.5t-16 -108.5t35 -67t77 -34t116.5 -8q67 1 116.5 10t107 34t108 69.5
t109 118.5t121.5 180q57 96 84 166.5t27.5 117.5t-27.5 75.5t-75.5 40.5t-121.5 12q-166 0 -292 -80.5t-255 -292.5z" />
    <glyph glyph-name="q" unicode="q" horiz-adv-x="1265" 
d="M291 -33q-160 0 -237 75.5t-63.5 208t111.5 304.5q286 502 732 502q157 0 230 -59.5t64 -174.5l117 201h174l-827 -1434h-174l330 572q-207 -195 -457 -195zM266 522q-91 -154 -105 -248t40 -134t176 -40q168 0 296.5 82t256.5 295l31 53q51 93 72.5 162t16 113.5
t-36 71.5t-76.5 37.5t-112 9.5t-116.5 -9.5t-107 -33t-107.5 -68t-108.5 -116t-119.5 -175.5z" />
    <glyph glyph-name="r" unicode="r" horiz-adv-x="772" 
d="M-143 0l589 1024h168l-104 -180q204 192 483 192h37l-92 -162h-55q-69 2 -127 -7t-105 -24.5t-91 -48t-79 -67t-76 -92t-75 -112t-82 -138.5l-223 -385h-168z" />
    <glyph glyph-name="s" unicode="s" horiz-adv-x="1032" 
d="M125 342q-69 -129 -30.5 -189.5t210.5 -60.5q140 0 216.5 36.5t137.5 141.5q44 73 18.5 115.5t-132.5 63.5l-156 28q-131 25 -166 107.5t37 210.5q151 264 543 264q200 0 271 -88t-7 -240h-162q53 104 17 153.5t-174 49.5q-135 0 -212 -37t-133 -133q-17 -29 -21.5 -51.5
t3.5 -44t39 -37.5t84 -27l139 -26q318 -62 150 -351q-81 -139 -210.5 -199.5t-336.5 -60.5q-124 0 -202.5 26.5t-109.5 76t-22 118t57 154.5h152z" />
    <glyph glyph-name="t" unicode="t" horiz-adv-x="788" 
d="M154 0q-57 0 -94 17t-50 46t-7.5 66t28.5 78l399 690h-192l51 90l237 51l172 195h97l-121 -209h323l-73 -127h-324l-442 -768h352l-76 -129h-280z" />
    <glyph glyph-name="u" unicode="u" horiz-adv-x="1200" 
d="M233 -35q-196 0 -245.5 114.5t57.5 293.5l379 651h168l-373 -643q-90 -160 -70.5 -219.5t152.5 -59.5q88 0 157 20t145 74.5t155.5 154t175.5 255.5l244 418h165l-591 -1024h-154l139 244q-245 -279 -504 -279z" />
    <glyph glyph-name="v" unicode="v" horiz-adv-x="1054" 
d="M317 1024h162l-160 -844l816 844h190l-987 -1024h-213z" />
    <glyph glyph-name="w" unicode="w" horiz-adv-x="1742" 
d="M53 0l277 1024h162l-250 -891l831 891h178l-194 -889l776 889h176l-901 -1024h-234l185 829l-772 -829h-234z" />
    <glyph glyph-name="x" unicode="x" horiz-adv-x="1085" 
d="M-258 0l723 545l-105 479h185l67 -387l529 387h207l-699 -514l115 -510h-184l-76 414l-557 -414h-205z" />
    <glyph glyph-name="y" unicode="y" horiz-adv-x="1097" 
d="M-430 -410l76 134h268l279 276h-56l187 1024h161l-141 -788l-25 -101l93 101l772 788h186l-1171 -1194q-67 -70 -109.5 -108t-94.5 -72t-105 -47t-121 -13h-199z" />
    <glyph glyph-name="z" unicode="z" horiz-adv-x="1073" 
d="M-205 0l72 125l1112 774h-668l72 125h891l-72 -125l-1110 -774h674l-72 -125h-899z" />
    <glyph glyph-name="braceleft" unicode="{" horiz-adv-x="792" 
d="M88 516l74 127h59q86 0 148 43.5t118 140.5l220 381q115 197 262.5 286t378.5 89l-41 -70q-136 -5 -243 -81t-204 -242l-223 -385q-68 -118 -127.5 -165.5t-155.5 -57.5l-16 -27q64 -24 72.5 -81t-31.5 -120l-223 -385q-96 -169 -76.5 -243.5t149.5 -79.5l-41 -70
q-91 0 -151 22.5t-85.5 60.5t-27 91t18 111t57.5 123l201 348q57 95 45 139.5t-99 44.5h-59z" />
    <glyph glyph-name="bar" unicode="|" horiz-adv-x="503" 
d="M-365 -410l1119 1936h176l-1118 -1936h-177z" />
    <glyph glyph-name="braceright" unicode="}" horiz-adv-x="794" 
d="M791 641l-74 -127h-60q-86 0 -148 -43.5t-118 -140.5l-219 -381q-115 -197 -262.5 -286t-378.5 -89l41 70q136 5 242.5 81t203.5 242l224 385q68 118 127 165.5t155 57.5l17 27q-64 24 -72.5 81t31.5 120l223 385q96 169 76 243.5t-150 79.5l41 70q91 0 151 -22.5
t86 -60.5t27.5 -90.5t-18 -110.5t-57.5 -123l-201 -349q-57 -95 -45.5 -139.5t98.5 -44.5h60z" />
    <glyph glyph-name="asciitilde" unicode="~" horiz-adv-x="1013" 
d="M633 362q-41 0 -73.5 18.5t-54 45t-40 52.5t-41.5 44.5t-49 18.5q-60 0 -103 -76l-55 -98h-119l68 125q52 89 103.5 125t115.5 36q44 0 77.5 -18.5t54 -44.5t38.5 -52t41 -44.5t51 -18.5q55 0 101 76l53 98h121l-70 -125q-92 -162 -219 -162z" />
    <glyph glyph-name="exclamdown" unicode="&#xa1;" horiz-adv-x="434" 
d="M346 627l-528 -963h-168l583 963h113zM307 846l105 180h213l-105 -180h-213z" />
    <glyph glyph-name="cent" unicode="&#xa2;" horiz-adv-x="1060" 
d="M164 -35l155 262q-175 25 -209.5 150t80.5 323q130 227 277.5 329.5t353.5 111.5l148 258h145l-149 -262q95 -15 144 -64t47 -120t-44 -160h-133q54 121 23.5 179t-158.5 58q-64 0 -109 -6t-99 -26t-99.5 -57t-97.5 -102t-105 -157q-104 -189 -78.5 -264.5t176.5 -75.5
q142 -2 239.5 53t188.5 191h133q-111 -182 -232.5 -266.5t-299.5 -94.5l-152 -260h-145z" />
    <glyph glyph-name="sterling" unicode="&#xa3;" horiz-adv-x="1140" 
d="M471 659l-307 -530h473l-74 -129h-813l74 129h168l307 530h-145l73 127h146l235 408q72 126 164 183t236 57h340l-78 -134h-430l-295 -514h327l-73 -127h-328z" />
    <glyph glyph-name="yen" unicode="&#xa5;" horiz-adv-x="1144" 
d="M195 0l139 242h-322l66 112h321l72 123h-324l64 111h260v774h168l-12 -563q-3 -78 -13 -181q97 84 209 185l637 559h203l-895 -774h262l-63 -111h-326l-72 -123h328l-66 -112h-327l-139 -242h-170z" />
    <glyph glyph-name="brokenbar" unicode="&#xa6;" horiz-adv-x="503" 
d="M289 721l465 805h176l-465 -805h-176zM-365 -410l465 805h176l-464 -805h-177z" />
    <glyph glyph-name="section" unicode="&#xa7;" horiz-adv-x="1148" 
d="M-68 -66q-43 -75 -53.5 -127t12.5 -81.5t68.5 -42.5t118.5 -13q148 0 225.5 34t138.5 142q39 62 22.5 100.5t-97.5 59.5l-183 51q-126 32 -154.5 105.5t40.5 195.5q82 141 197.5 193.5t344.5 64.5q151 11 232.5 47t132.5 123q37 61 20 100t-98 62l-182 47
q-127 34 -155 108t42 197q146 250 506 250q90 0 153.5 -18.5t101.5 -57t35.5 -104t-48.5 -153.5h-133q32 66 36.5 110.5t-17 68.5t-60 34t-99.5 10q-129 0 -210.5 -37t-141.5 -139q-33 -62 -17.5 -96.5t83.5 -51.5l182 -47q140 -35 172.5 -110.5t-37.5 -192.5
q-32 -55 -63.5 -94.5t-71 -68.5t-77.5 -47t-96.5 -30.5t-114 -19.5t-142.5 -14q-154 -13 -224.5 -42.5t-123.5 -121.5q-36 -63 -21.5 -98t82.5 -54l182 -47q140 -36 172 -113t-37 -192q-87 -148 -204 -206t-324 -58q-104 0 -175 21t-109.5 64.5t-30 116.5t66.5 172h133z" />
    <glyph glyph-name="dieresis" unicode="&#xa8;" horiz-adv-x="696" 
d="M831 1192l99 170h196l-98 -170h-197zM455 1192l98 170h199l-99 -170h-198z" />
    <glyph glyph-name="copyright" unicode="&#xa9;" horiz-adv-x="1800" 
d="M662 -37q-205 0 -335.5 94t-149.5 266t116 414q175 305 458.5 483.5t594.5 178.5q203 0 332.5 -94.5t148 -265t-114.5 -408.5q-178 -312 -458.5 -490t-591.5 -178zM434 702q-103 -183 -97 -314.5t101 -205t256 -73.5q254 0 489 144t388 409q102 182 96.5 313.5
t-100 204.5t-254.5 73q-256 0 -491.5 -143.5t-387.5 -407.5zM627 692q119 204 263.5 301t323.5 97q84 0 142 -16.5t91.5 -53t28.5 -100t-51 -150.5h-139q30 64 37.5 104.5t-9 62t-47 29t-83.5 7.5q-131 0 -224.5 -62t-189.5 -229q-66 -115 -76 -179.5t27 -88t123 -23.5
q112 0 194 45.5t164 169.5h137q-102 -173 -232.5 -252.5t-297.5 -79.5q-91 0 -152 24.5t-91 73.5t-15.5 130.5t76.5 189.5z" />
    <glyph glyph-name="guillemotleft" unicode="&#xab;" horiz-adv-x="1327" 
d="M614 518l670 506h236l-742 -545l152 -479h-166l-158 506zM117 506l8 12l670 506h235l-741 -545l151 -479h-166z" />
    <glyph glyph-name="logicalnot" unicode="&#xac;" horiz-adv-x="1167" 
d="M215 573h819l-196 -340h-144l125 216h-678z" />
    <glyph glyph-name="registered" unicode="&#xae;" horiz-adv-x="1183" 
d="M604 471q-131 0 -210 57t-87.5 168t82.5 273q112 193 300.5 311.5t381.5 118.5q132 0 212.5 -57.5t90 -167t-79.5 -267.5q-76 -131 -189.5 -230.5t-243.5 -152.5t-257 -53zM479 938q-95 -169 -50 -268t202 -99q102 0 206.5 41.5t202.5 126t164 199.5q93 169 48.5 265.5
t-199.5 96.5q-104 0 -209.5 -41t-202 -124.5t-162.5 -196.5zM524 696l277 478h225q74 0 95.5 -34.5t-13.5 -97.5q-59 -96 -160 -114q71 -14 19 -103l-25 -43q-31 -56 -41 -86h-88q12 39 37 84l24 41q46 76 -34 76h-107l-117 -201h-92zM774 969h117q72 0 113 65q36 64 -33 64
h-121z" />
    <glyph glyph-name="macron" unicode="&#xaf;" horiz-adv-x="808" 
d="M553 1362h686l-74 -125h-686z" />
    <glyph glyph-name="degree" unicode="&#xb0;" horiz-adv-x="827" 
d="M639 836q-154 0 -203.5 99t35.5 251q73 126 195.5 203t269.5 77q153 0 204.5 -97.5t-30.5 -242.5q-76 -132 -199 -211t-272 -79zM596 1153q-54 -100 -30.5 -149.5t106.5 -49.5q84 0 169.5 51.5t143.5 147.5q40 69 36.5 113t-34.5 64t-86 20q-84 0 -167 -49t-138 -148z
" />
    <glyph glyph-name="plusminus" unicode="&#xb1;" horiz-adv-x="1091" 
d="M170 621l72 124h336l141 244h143l-141 -244h334l-72 -124h-334l-143 -248h-144l144 248h-336zM-104 143l71 127h813l-71 -127h-813z" />
    <glyph glyph-name="acute" unicode="&#xb4;" horiz-adv-x="565" 
d="M946 1278l-452 -129l-27 63l430 191z" />
    <glyph glyph-name="uni00B5" unicode="&#xb5;" horiz-adv-x="1200" 
d="M240 -35q-155 0 -220 90l-272 -465h-156l598 1024l230 396h164l-365 -629q-62 -107 -70 -167.5t32.5 -86t137.5 -25.5q84 0 150.5 20.5t142 76.5t156.5 159.5t178 264.5l225 387h166l-583 -1010h-154l137 240q-244 -275 -497 -275z" />
    <glyph glyph-name="paragraph" unicode="&#xb6;" horiz-adv-x="1353" 
d="M616 565q-140 0 -211.5 56t-68.5 151t74 217q45 77 102 141t131.5 118t170 84t202.5 30h368l-1024 -1772h-178l563 975h-129zM489 -410l1024 1772h179l-1024 -1772h-179z" />
    <glyph glyph-name="periodcentered" unicode="&#xb7;" horiz-adv-x="354" 
d="M16 414l105 180h213l-105 -180h-213z" />
    <glyph glyph-name="cedilla" unicode="&#xb8;" horiz-adv-x="413" 
d="M-426 -334l68 115h159l84 266h129l-71 -231q-24 -74 -77 -112t-118 -38h-174z" />
    <glyph glyph-name="guillemotright" unicode="&#xbb;" horiz-adv-x="1327" 
d="M721 506l-670 -506h-235l741 545l-151 479h165l158 -506zM305 0l742 545l-152 479h166l158 -506l-9 -12l-669 -506h-236z" />
    <glyph glyph-name="questiondown" unicode="&#xbf;" horiz-adv-x="1288" 
d="M758 508l-82 -139h-107q-141 0 -242 -35t-169 -99.5t-129 -171.5q-87 -151 -52.5 -223.5t193.5 -72.5q195 0 330 83.5t256 276.5h178q-315 -502 -811 -502q-104 0 -177.5 25t-110 68t-46 101.5t8.5 124.5t59 138q126 214 326.5 320t453.5 106h121zM715 844l104 180h213
l-104 -180h-213z" />
    <glyph glyph-name="Agrave" unicode="&#xc0;" horiz-adv-x="1337" 
d="M1020 0h-156l68 348h-674l-334 -348h-188l1304 1362h248zM389 485h572l149 754zM1065 1610l49 125l430 -191l-26 -63z" />
    <glyph glyph-name="Aacute" unicode="&#xc1;" horiz-adv-x="1337" 
d="M1020 0h-156l68 348h-674l-334 -348h-188l1304 1362h248zM389 485h572l149 754zM1083 1544l430 191l50 -125l-453 -129z" />
    <glyph glyph-name="Acircumflex" unicode="&#xc2;" horiz-adv-x="1337" 
d="M1020 0h-156l68 348h-674l-334 -348h-188l1304 1362h248zM389 485h572l149 754zM1016 1581l321 162h136l131 -164l-105 -82l-121 162l-315 -162z" />
    <glyph glyph-name="Atilde" unicode="&#xc3;" horiz-adv-x="1337" 
d="M1020 0h-156l68 348h-674l-334 -348h-188l1304 1362h248zM389 485h572l149 754zM993 1540l29 53q36 67 94 99t121 32q40 0 77 -14.5t60.5 -31.5t50.5 -31.5t48 -14.5q47 0 67 45l23 43h123l-31 -53q-36 -67 -94 -99t-121 -32q-39 0 -85.5 23t-86.5 46t-64 23
q-45 0 -65 -45l-25 -43h-121z" />
    <glyph glyph-name="Adieresis" unicode="&#xc4;" horiz-adv-x="1337" 
d="M1020 0h-156l68 348h-674l-334 -348h-188l1304 1362h248zM389 485h572l149 754zM995 1511l99 170h198l-98 -170h-199zM1343 1511l99 170h198l-98 -170h-199z" />
    <glyph glyph-name="Aring" unicode="&#xc5;" horiz-adv-x="1337" 
d="M1020 0h-156l68 348h-674l-334 -348h-188l1304 1362h248zM389 485h572l149 754zM1171 1622q33 60 96.5 101.5t137.5 41.5q76 0 99 -46.5t-17 -116.5q-35 -60 -98 -101t-136 -41q-77 0 -99.5 46t17.5 116zM1253 1614q-19 -35 -9.5 -55.5t42.5 -20.5t66 20.5t53 55.5
q20 34 10 54t-43 20t-66 -20.5t-53 -53.5z" />
    <glyph glyph-name="AE" unicode="&#xc6;" horiz-adv-x="2082" 
d="M676 0l201 348h-562l-419 -348h-181l4 8l1639 1354h1110l-80 -137h-836l-262 -457h774l-77 -135h-777l-284 -496h841l-79 -137h-1012zM483 487h473l435 752z" />
    <glyph glyph-name="Ccedilla" unicode="&#xc7;" horiz-adv-x="1507" 
d="M123 -334l67 115h160l60 188q-191 19 -278 118t-68 256t135 359q104 178 210 303.5t233.5 216t278.5 134t334 43.5q127 0 218 -28.5t139.5 -78.5t65.5 -119t2 -149t-58 -170h-170q97 212 36 307.5t-282 95.5q-108 0 -190 -13t-166.5 -49t-158.5 -100.5t-153.5 -166
t-164.5 -246.5q-75 -128 -110.5 -225t-33.5 -163.5t40 -108.5t104 -60.5t164 -18.5q172 0 294 39.5t228.5 133t222.5 264.5h172q-83 -139 -171 -239.5t-198 -177.5t-246 -117t-300 -44l-47 -149q-24 -74 -77 -112t-118 -38h-174z" />
    <glyph glyph-name="Egrave" unicode="&#xc8;" horiz-adv-x="1265" 
d="M393 633l-287 -496h844l-80 -137h-1022l787 1362h1016l-80 -137h-838l-262 -457h776l-78 -135h-776zM1012 1610l49 125l430 -191l-27 -63z" />
    <glyph glyph-name="Eacute" unicode="&#xc9;" horiz-adv-x="1265" 
d="M393 633l-287 -496h844l-80 -137h-1022l787 1362h1016l-80 -137h-838l-262 -457h776l-78 -135h-776zM1030 1544l430 191l49 -125l-452 -129z" />
    <glyph glyph-name="Ecircumflex" unicode="&#xca;" horiz-adv-x="1265" 
d="M393 633l-287 -496h844l-80 -137h-1022l787 1362h1016l-80 -137h-838l-262 -457h776l-78 -135h-776zM963 1581l321 162h135l131 -164l-104 -82l-121 162l-315 -162z" />
    <glyph glyph-name="Edieresis" unicode="&#xcb;" horiz-adv-x="1265" 
d="M393 633l-287 -496h844l-80 -137h-1022l787 1362h1016l-80 -137h-838l-262 -457h776l-78 -135h-776zM942 1511l98 170h199l-98 -170h-199zM1290 1511l99 170h198l-98 -170h-199z" />
    <glyph glyph-name="Igrave" unicode="&#xcc;" horiz-adv-x="966" 
d="M-182 0l80 137h284l629 1088h-287l80 137h748l-80 -137h-283l-629 -1088h285l-80 -137h-747zM858 1610l49 125l430 -191l-26 -63z" />
    <glyph glyph-name="Iacute" unicode="&#xcd;" horiz-adv-x="966" 
d="M-182 0l80 137h284l629 1088h-287l80 137h748l-80 -137h-283l-629 -1088h285l-80 -137h-747zM877 1544l430 191l49 -125l-453 -129z" />
    <glyph glyph-name="Icircumflex" unicode="&#xce;" horiz-adv-x="966" 
d="M-182 0l80 137h284l629 1088h-287l80 137h748l-80 -137h-283l-629 -1088h285l-80 -137h-747zM809 1581l321 162h136l131 -164l-105 -82l-121 162l-315 -162z" />
    <glyph glyph-name="Idieresis" unicode="&#xcf;" horiz-adv-x="966" 
d="M-182 0l80 137h284l629 1088h-287l80 137h748l-80 -137h-283l-629 -1088h285l-80 -137h-747zM788 1511l99 170h198l-98 -170h-199zM1137 1511l98 170h199l-99 -170h-198z" />
    <glyph glyph-name="Eth" unicode="&#xd0;" horiz-adv-x="1685" 
d="M127 606l80 137h313l357 619h485q124 0 214 -27t140 -76.5t72 -116t13 -148t-40 -169.5t-84 -184q-83 -151 -171.5 -261.5t-203.5 -199.5t-261 -134.5t-322 -45.5h-629l350 606h-313zM348 137h420q244 0 417.5 131t325.5 406q146 261 98 406t-296 145h-338l-277 -482h328
l-80 -137h-328z" />
    <glyph glyph-name="Ntilde" unicode="&#xd1;" horiz-adv-x="1421" 
d="M885 117l719 1245h172l-787 -1362h-264l-2 1069q3 90 16 178l-719 -1247h-172l787 1362h264v-1071q-4 -103 -14 -174zM1028 1540l29 53q36 67 94 99t121 32q50 0 94.5 -23t79.5 -46t61 -23q48 0 68 45l22 43h123l-30 -53q-36 -67 -94 -99t-121 -32q-39 0 -85.5 23
t-86.5 46t-64 23q-45 0 -65 -45l-25 -43h-121z" />
    <glyph glyph-name="Ograve" unicode="&#xd2;" horiz-adv-x="1538" 
d="M498 -35q-231 0 -339.5 98.5t-92 268t144.5 393.5q96 164 200 285.5t230 210.5t276.5 133.5t325.5 44.5q173 0 278.5 -58.5t136.5 -159.5t1.5 -233.5t-117.5 -285.5q-219 -379 -460 -538t-584 -159zM375 682q-122 -210 -140 -336t57 -179.5t247 -53.5q92 0 164 9
t144.5 33t134.5 64.5t126.5 104t127.5 151.5t132 207q122 210 140 336t-57 179.5t-247 53.5q-111 0 -194.5 -13.5t-168 -49.5t-157.5 -100t-150 -163.5t-159 -242.5zM1102 1610l49 125l430 -191l-27 -63z" />
    <glyph glyph-name="Oacute" unicode="&#xd3;" horiz-adv-x="1538" 
d="M498 -35q-231 0 -339.5 98.5t-92 268t144.5 393.5q96 164 200 285.5t230 210.5t276.5 133.5t325.5 44.5q173 0 278.5 -58.5t136.5 -159.5t1.5 -233.5t-117.5 -285.5q-219 -379 -460 -538t-584 -159zM375 682q-122 -210 -140 -336t57 -179.5t247 -53.5q92 0 164 9
t144.5 33t134.5 64.5t126.5 104t127.5 151.5t132 207q122 210 140 336t-57 179.5t-247 53.5q-111 0 -194.5 -13.5t-168 -49.5t-157.5 -100t-150 -163.5t-159 -242.5zM1120 1544l430 191l49 -125l-452 -129z" />
    <glyph glyph-name="Ocircumflex" unicode="&#xd4;" horiz-adv-x="1538" 
d="M498 -35q-231 0 -339.5 98.5t-92 268t144.5 393.5q96 164 200 285.5t230 210.5t276.5 133.5t325.5 44.5q173 0 278.5 -58.5t136.5 -159.5t1.5 -233.5t-117.5 -285.5q-219 -379 -460 -538t-584 -159zM375 682q-122 -210 -140 -336t57 -179.5t247 -53.5q92 0 164 9
t144.5 33t134.5 64.5t126.5 104t127.5 151.5t132 207q122 210 140 336t-57 179.5t-247 53.5q-111 0 -194.5 -13.5t-168 -49.5t-157.5 -100t-150 -163.5t-159 -242.5zM1053 1581l321 162h135l131 -164l-104 -82l-121 162l-315 -162z" />
    <glyph glyph-name="Otilde" unicode="&#xd5;" horiz-adv-x="1538" 
d="M498 -35q-231 0 -339.5 98.5t-92 268t144.5 393.5q96 164 200 285.5t230 210.5t276.5 133.5t325.5 44.5q173 0 278.5 -58.5t136.5 -159.5t1.5 -233.5t-117.5 -285.5q-219 -379 -460 -538t-584 -159zM375 682q-122 -210 -140 -336t57 -179.5t247 -53.5q92 0 164 9
t144.5 33t134.5 64.5t126.5 104t127.5 151.5t132 207q122 210 140 336t-57 179.5t-247 53.5q-111 0 -194.5 -13.5t-168 -49.5t-157.5 -100t-150 -163.5t-159 -242.5zM1030 1540l29 53q36 67 94 99t121 32q50 0 94.5 -23t79.5 -46t61 -23q48 0 68 45l22 43h123l-30 -53
q-36 -67 -94 -99t-121 -32q-39 0 -85.5 23t-86.5 46t-64 23q-45 0 -65 -45l-25 -43h-121z" />
    <glyph glyph-name="Odieresis" unicode="&#xd6;" horiz-adv-x="1538" 
d="M498 -35q-231 0 -339.5 98.5t-92 268t144.5 393.5q96 164 200 285.5t230 210.5t276.5 133.5t325.5 44.5q173 0 278.5 -58.5t136.5 -159.5t1.5 -233.5t-117.5 -285.5q-219 -379 -460 -538t-584 -159zM375 682q-122 -210 -140 -336t57 -179.5t247 -53.5q92 0 164 9
t144.5 33t134.5 64.5t126.5 104t127.5 151.5t132 207q122 210 140 336t-57 179.5t-247 53.5q-111 0 -194.5 -13.5t-168 -49.5t-157.5 -100t-150 -163.5t-159 -242.5zM1032 1511l98 170h199l-98 -170h-199zM1380 1511l99 170h198l-98 -170h-199z" />
    <glyph glyph-name="multiply" unicode="&#xd7;" horiz-adv-x="1179" 
d="M506 948l137 -321l531 334l59 -105l-545 -340l150 -352l-127 -64l-144 338l-540 -338l-58 103l551 346l-141 336z" />
    <glyph glyph-name="Oslash" unicode="&#xd8;" horiz-adv-x="1538" 
d="M-215 -322l373 385q-106 96 -91 266.5t144 395.5q96 164 200 285.5t230 210.5t276.5 133.5t325.5 44.5q104 0 191 -23l249 256l95 -84l-224 -229q85 -59 110 -160t-6.5 -227t-115.5 -270q-219 -379 -460 -538t-584 -159q-129 0 -226 33l-393 -404zM274 182l1035 1063
q-49 6 -105 6q-111 0 -194.5 -13.5t-168 -49.5t-157.5 -100t-150 -163.5t-159 -242.5q-115 -197 -139 -319t38 -181zM395 125q61 -12 144 -12q92 0 164 9t144.5 33t134.5 64.5t126.5 104t127.5 151.5t132 207q125 215 142.5 341.5t-68.5 178.5z" />
    <glyph glyph-name="Ugrave" unicode="&#xd9;" horiz-adv-x="1349" 
d="M104 487l508 875h179l-494 -854q-55 -94 -79 -162.5t-20.5 -114t35.5 -73t84.5 -38.5t131.5 -11q113 0 190.5 16t150 61t134 121t133.5 201l493 854h179l-531 -916q-102 -177 -204.5 -278t-245 -151t-345.5 -50q-145 0 -237.5 37t-127.5 105.5t-18.5 164t84.5 213.5z
M1055 1610l49 125l430 -191l-27 -63z" />
    <glyph glyph-name="Uacute" unicode="&#xda;" horiz-adv-x="1349" 
d="M104 487l508 875h179l-494 -854q-55 -94 -79 -162.5t-20.5 -114t35.5 -73t84.5 -38.5t131.5 -11q113 0 190.5 16t150 61t134 121t133.5 201l493 854h179l-531 -916q-102 -177 -204.5 -278t-245 -151t-345.5 -50q-145 0 -237.5 37t-127.5 105.5t-18.5 164t84.5 213.5z
M1073 1544l430 191l49 -125l-452 -129z" />
    <glyph glyph-name="Ucircumflex" unicode="&#xdb;" horiz-adv-x="1349" 
d="M104 487l508 875h179l-494 -854q-55 -94 -79 -162.5t-20.5 -114t35.5 -73t84.5 -38.5t131.5 -11q113 0 190.5 16t150 61t134 121t133.5 201l493 854h179l-531 -916q-102 -177 -204.5 -278t-245 -151t-345.5 -50q-145 0 -237.5 37t-127.5 105.5t-18.5 164t84.5 213.5z
M1006 1581l321 162h135l131 -164l-104 -82l-121 162l-315 -162z" />
    <glyph glyph-name="Udieresis" unicode="&#xdc;" horiz-adv-x="1349" 
d="M104 487l508 875h179l-494 -854q-55 -94 -79 -162.5t-20.5 -114t35.5 -73t84.5 -38.5t131.5 -11q113 0 190.5 16t150 61t134 121t133.5 201l493 854h179l-531 -916q-102 -177 -204.5 -278t-245 -151t-345.5 -50q-145 0 -237.5 37t-127.5 105.5t-18.5 164t84.5 213.5z
M985 1511l98 170h199l-98 -170h-199zM1333 1511l99 170h198l-98 -170h-199z" />
    <glyph glyph-name="Yacute" unicode="&#xdd;" horiz-adv-x="1144" 
d="M471 1362h168l-12 -563q-3 -78 -13 -181q97 84 209 185l637 559h203l-1022 -885l-276 -477h-170l276 477v885zM950 1544l430 191l50 -125l-453 -129z" />
    <glyph glyph-name="Thorn" unicode="&#xde;" horiz-adv-x="1241" 
d="M-152 0l787 1362h172l-164 -283h453q105 0 168 -31t79.5 -86t0 -125.5t-65.5 -154.5q-230 -399 -649 -399h-445l-164 -283h-172zM262 420h412q148 0 250 65t176 197q78 129 51 194.5t-172 65.5h-414z" />
    <glyph glyph-name="germandbls" unicode="&#xdf;" horiz-adv-x="1288" 
d="M373 907q140 242 339.5 360.5t481.5 118.5q102 0 174 -19t109.5 -51.5t49.5 -78t-1 -98t-47 -111.5q-83 -142 -201 -221.5t-240 -95.5q53 -8 88 -33t50.5 -66.5t1 -106t-61.5 -143.5q-207 -362 -627 -362h-256l80 137h240q137 0 231 61.5t166 186.5q78 133 46.5 196.5
t-183.5 63.5h-207l80 137h201q143 0 238 55t163 173q71 123 28 180t-202 57q-194 0 -330 -80t-237 -254l-527 -913h-172z" />
    <glyph glyph-name="agrave" unicode="&#xe0;" horiz-adv-x="1255" 
d="M283 -33q-156 0 -231 76.5t-61 209.5t111 302q286 504 727 504q154 0 227 -58.5t64 -173.5l113 197h166l-590 -1024h-160l105 180q-216 -213 -471 -213zM264 522q-133 -230 -105 -327t210 -97q160 0 287.5 81.5t252.5 283.5l54 94q59 111 75.5 186t-9 115.5t-75.5 56.5
t-131 15q-67 -1 -116 -9.5t-106 -33t-107 -68.5t-108.5 -117.5t-121.5 -179.5zM741 1278l50 125l430 -191l-27 -63z" />
    <glyph glyph-name="aacute" unicode="&#xe1;" horiz-adv-x="1255" 
d="M283 -33q-156 0 -231 76.5t-61 209.5t111 302q286 504 727 504q154 0 227 -58.5t64 -173.5l113 197h166l-590 -1024h-160l105 180q-216 -213 -471 -213zM264 522q-133 -230 -105 -327t210 -97q160 0 287.5 81.5t252.5 283.5l54 94q59 111 75.5 186t-9 115.5t-75.5 56.5
t-131 15q-67 -1 -116 -9.5t-106 -33t-107 -68.5t-108.5 -117.5t-121.5 -179.5zM743 1212l431 191l49 -125l-453 -129z" />
    <glyph glyph-name="acircumflex" unicode="&#xe2;" horiz-adv-x="1255" 
d="M283 -33q-156 0 -231 76.5t-61 209.5t111 302q286 504 727 504q154 0 227 -58.5t64 -173.5l113 197h166l-590 -1024h-160l105 180q-216 -213 -471 -213zM264 522q-133 -230 -105 -327t210 -97q160 0 287.5 81.5t252.5 283.5l54 94q59 111 75.5 186t-9 115.5t-75.5 56.5
t-131 15q-67 -1 -116 -9.5t-106 -33t-107 -68.5t-108.5 -117.5t-121.5 -179.5zM680 1204l311 158h135l131 -166l-104 -80l-121 160l-301 -162z" />
    <glyph glyph-name="atilde" unicode="&#xe3;" horiz-adv-x="1255" 
d="M283 -33q-156 0 -231 76.5t-61 209.5t111 302q286 504 727 504q154 0 227 -58.5t64 -173.5l113 197h166l-590 -1024h-160l105 180q-216 -213 -471 -213zM264 522q-133 -230 -105 -327t210 -97q160 0 287.5 81.5t252.5 283.5l54 94q59 111 75.5 186t-9 115.5t-75.5 56.5
t-131 15q-67 -1 -116 -9.5t-106 -33t-107 -68.5t-108.5 -117.5t-121.5 -179.5zM662 1184l28 51q36 68 93.5 99.5t121.5 31.5q40 0 77 -14.5t60.5 -31.5t50.5 -31.5t48 -14.5q47 0 67 45l23 43h123l-31 -53q-36 -67 -93.5 -98t-121.5 -31q-39 0 -85.5 22.5t-86.5 45t-64 22.5
q-44 0 -65 -43l-25 -43h-120z" />
    <glyph glyph-name="adieresis" unicode="&#xe4;" horiz-adv-x="1255" 
d="M283 -33q-156 0 -231 76.5t-61 209.5t111 302q286 504 727 504q154 0 227 -58.5t64 -173.5l113 197h166l-590 -1024h-160l105 180q-216 -213 -471 -213zM264 522q-133 -230 -105 -327t210 -97q160 0 287.5 81.5t252.5 283.5l54 94q59 111 75.5 186t-9 115.5t-75.5 56.5
t-131 15q-67 -1 -116 -9.5t-106 -33t-107 -68.5t-108.5 -117.5t-121.5 -179.5zM672 1192l98 170h199l-99 -170h-198zM1049 1192l98 170h196l-98 -170h-196z" />
    <glyph glyph-name="aring" unicode="&#xe5;" horiz-adv-x="1255" 
d="M283 -33q-156 0 -231 76.5t-61 209.5t111 302q286 504 727 504q154 0 227 -58.5t64 -173.5l113 197h166l-590 -1024h-160l105 180q-216 -213 -471 -213zM264 522q-133 -230 -105 -327t210 -97q160 0 287.5 81.5t252.5 283.5l54 94q59 111 75.5 186t-9 115.5t-75.5 56.5
t-131 15q-67 -1 -116 -9.5t-106 -33t-107 -68.5t-108.5 -117.5t-121.5 -179.5zM854 1290q33 60 96 102t135 42q77 0 100.5 -47t-16.5 -117q-35 -60 -98 -101t-137 -41q-76 0 -98 46t18 116zM934 1282q-18 -35 -9 -55.5t42 -20.5t66.5 21t51.5 55q20 34 10.5 54t-42.5 20
t-66 -20.5t-53 -53.5z" />
    <glyph glyph-name="ae" unicode="&#xe6;" horiz-adv-x="1878" 
d="M137 -27q-104 0 -164.5 34t-69.5 101t48 168q144 250 487 302l285 43q92 14 142 40.5t83 83.5q27 45 34 77.5t-6.5 57.5t-56.5 37.5t-116 12.5q-145 0 -244.5 -57.5t-173.5 -170.5h-164q103 171 269.5 264t381.5 93q148 0 213 -45.5t56 -130.5q225 174 487 174
q151 0 225.5 -64t66 -179t-96.5 -267q-13 -25 -43 -72h-826q-74 -137 -78 -223.5t49.5 -123t159.5 -36.5q273 0 453 223h152q-244 -348 -682 -348q-168 0 -240.5 68.5t-56.5 193.5q-123 -115 -273 -185.5t-301 -70.5zM117 276q-98 -174 106 -174q171 0 327.5 112t248.5 271
l49 88q-84 -43 -223 -69l-191 -35q-119 -22 -193.5 -66.5t-123.5 -126.5zM1028 598h664q181 334 -129 334q-152 0 -285 -79t-250 -255z" />
    <glyph glyph-name="ccedilla" unicode="&#xe7;" horiz-adv-x="1144" 
d="M86 535q161 281 348 402.5t455 121.5q117 0 194 -32t108 -88t24.5 -129.5t-50.5 -158.5h-155q63 139 27.5 207t-185.5 68q-60 0 -106.5 -5t-99 -20t-98 -44t-95 -73.5t-99.5 -112.5t-102 -159q-83 -146 -96.5 -236.5t37.5 -130.5t167 -41q167 -2 281 62t221 225h156
q-133 -215 -278 -313.5t-357 -108.5l-47 -153q-24 -74 -77 -112t-118 -38h-174l68 115h160l59 190q-217 22 -261.5 174t93.5 390z" />
    <glyph glyph-name="egrave" unicode="&#xe8;" horiz-adv-x="1130" 
d="M309 -33q-166 0 -249.5 75t-75.5 203.5t102 289.5q154 264 342.5 393t421.5 129q111 0 185.5 -39.5t103.5 -107.5t14 -162.5t-76 -200.5q-21 -36 -45 -70h-813q-110 -201 -81 -292t198 -91q113 0 190 22.5t132.5 66t121.5 126.5h158q-41 -58 -81 -103t-98 -92t-121 -77.5
t-148 -50t-181 -19.5zM291 598h645q65 120 69.5 195t-44.5 108t-152 33q-58 0 -105 -7t-101 -28t-102 -57.5t-102 -97.5t-108 -146zM715 1278l49 125l430 -191l-27 -63z" />
    <glyph glyph-name="eacute" unicode="&#xe9;" horiz-adv-x="1130" 
d="M309 -33q-166 0 -249.5 75t-75.5 203.5t102 289.5q154 264 342.5 393t421.5 129q111 0 185.5 -39.5t103.5 -107.5t14 -162.5t-76 -200.5q-21 -36 -45 -70h-813q-110 -201 -81 -292t198 -91q113 0 190 22.5t132.5 66t121.5 126.5h158q-41 -58 -81 -103t-98 -92t-121 -77.5
t-148 -50t-181 -19.5zM291 598h645q65 120 69.5 195t-44.5 108t-152 33q-58 0 -105 -7t-101 -28t-102 -57.5t-102 -97.5t-108 -146zM717 1212l430 191l49 -125l-453 -129z" />
    <glyph glyph-name="ecircumflex" unicode="&#xea;" horiz-adv-x="1130" 
d="M309 -33q-166 0 -249.5 75t-75.5 203.5t102 289.5q154 264 342.5 393t421.5 129q111 0 185.5 -39.5t103.5 -107.5t14 -162.5t-76 -200.5q-21 -36 -45 -70h-813q-110 -201 -81 -292t198 -91q113 0 190 22.5t132.5 66t121.5 126.5h158q-41 -58 -81 -103t-98 -92t-121 -77.5
t-148 -50t-181 -19.5zM291 598h645q65 120 69.5 195t-44.5 108t-152 33q-58 0 -105 -7t-101 -28t-102 -57.5t-102 -97.5t-108 -146zM653 1204l312 158h135l131 -166l-105 -80l-120 160l-301 -162z" />
    <glyph glyph-name="edieresis" unicode="&#xeb;" horiz-adv-x="1130" 
d="M309 -33q-166 0 -249.5 75t-75.5 203.5t102 289.5q154 264 342.5 393t421.5 129q111 0 185.5 -39.5t103.5 -107.5t14 -162.5t-76 -200.5q-21 -36 -45 -70h-813q-110 -201 -81 -292t198 -91q113 0 190 22.5t132.5 66t121.5 126.5h158q-41 -58 -81 -103t-98 -92t-121 -77.5
t-148 -50t-181 -19.5zM291 598h645q65 120 69.5 195t-44.5 108t-152 33q-58 0 -105 -7t-101 -28t-102 -57.5t-102 -97.5t-108 -146zM645 1192l98 170h199l-98 -170h-199zM1022 1192l98 170h197l-98 -170h-197z" />
    <glyph glyph-name="igrave" unicode="&#xec;" horiz-adv-x="438" 
d="M-158 0l590 1024h172l-590 -1024h-172zM393 1278l49 125l430 -191l-26 -63z" />
    <glyph glyph-name="iacute" unicode="&#xed;" horiz-adv-x="438" 
d="M-158 0l590 1024h172l-590 -1024h-172zM395 1212l430 191l49 -125l-452 -129z" />
    <glyph glyph-name="icircumflex" unicode="&#xee;" horiz-adv-x="438" 
d="M-158 0l590 1024h172l-590 -1024h-172zM332 1204l311 158h135l131 -166l-104 -80l-121 160l-301 -162z" />
    <glyph glyph-name="idieresis" unicode="&#xef;" horiz-adv-x="438" 
d="M-158 0l590 1024h172l-590 -1024h-172zM324 1192l98 170h199l-99 -170h-198zM700 1192l99 170h196l-98 -170h-197z" />
    <glyph glyph-name="eth" unicode="&#xf0;" horiz-adv-x="1175" 
d="M80 518q144 250 346.5 394.5t427.5 144.5q148 0 212 -56t56 -163q136 250 49 411l-184 -127l-61 88l178 123q-44 38 -109 68l84 115q99 -49 150 -97l190 129l62 -88l-183 -125q70 -118 38 -292t-171 -414q-204 -354 -418.5 -508t-467.5 -154q-171 0 -248.5 69.5
t-62.5 191.5t112 290zM246 512q-125 -218 -101.5 -315t197.5 -97q172 0 319.5 97t272.5 315q65 111 87 191.5t2 128.5t-71 70t-135 22q-175 0 -310.5 -97t-260.5 -315z" />
    <glyph glyph-name="ntilde" unicode="&#xf1;" horiz-adv-x="1228" 
d="M-133 0l590 1024h172l-111 -190q225 225 457 225q133 0 199.5 -52t62 -143t-73.5 -211l-377 -653h-168l371 643q91 160 72.5 220.5t-154.5 60.5q-84 0 -149.5 -18t-137 -66.5t-145.5 -137t-162 -227.5l-274 -475h-172zM684 1184l29 51q36 68 93.5 99.5t121.5 31.5
q50 0 94.5 -23t79.5 -46t61 -23q48 0 68 45l22 43h123l-30 -53q-36 -67 -94 -98t-122 -31q-39 0 -85.5 22.5t-86 45t-63.5 22.5q-45 0 -66 -43l-24 -43h-121z" />
    <glyph glyph-name="ograve" unicode="&#xf2;" horiz-adv-x="1185" 
d="M324 -33q-170 0 -257.5 71.5t-82 199.5t101.5 294q161 278 349 402.5t444 124.5q157 0 240.5 -70.5t78.5 -202t-104 -303.5q-70 -120 -147.5 -211t-171.5 -161.5t-207.5 -107t-243.5 -36.5zM252 512q-90 -156 -106 -245.5t34 -127t172 -37.5q92 0 159 15t138 58t139 125
t144 212q90 156 106 247.5t-34.5 130t-172.5 38.5q-70 0 -123 -8t-113 -33.5t-112 -70.5t-111 -120.5t-120 -183.5zM760 1278l49 125l430 -191l-27 -63z" />
    <glyph glyph-name="oacute" unicode="&#xf3;" horiz-adv-x="1185" 
d="M324 -33q-170 0 -257.5 71.5t-82 199.5t101.5 294q161 278 349 402.5t444 124.5q157 0 240.5 -70.5t78.5 -202t-104 -303.5q-70 -120 -147.5 -211t-171.5 -161.5t-207.5 -107t-243.5 -36.5zM252 512q-90 -156 -106 -245.5t34 -127t172 -37.5q92 0 159 15t138 58t139 125
t144 212q90 156 106 247.5t-34.5 130t-172.5 38.5q-70 0 -123 -8t-113 -33.5t-112 -70.5t-111 -120.5t-120 -183.5zM762 1212l430 191l49 -125l-453 -129z" />
    <glyph glyph-name="ocircumflex" unicode="&#xf4;" horiz-adv-x="1185" 
d="M324 -33q-170 0 -257.5 71.5t-82 199.5t101.5 294q161 278 349 402.5t444 124.5q157 0 240.5 -70.5t78.5 -202t-104 -303.5q-70 -120 -147.5 -211t-171.5 -161.5t-207.5 -107t-243.5 -36.5zM252 512q-90 -156 -106 -245.5t34 -127t172 -37.5q92 0 159 15t138 58t139 125
t144 212q90 156 106 247.5t-34.5 130t-172.5 38.5q-70 0 -123 -8t-113 -33.5t-112 -70.5t-111 -120.5t-120 -183.5zM698 1204l312 158h135l131 -166l-105 -80l-120 160l-301 -162z" />
    <glyph glyph-name="otilde" unicode="&#xf5;" horiz-adv-x="1185" 
d="M324 -33q-170 0 -257.5 71.5t-82 199.5t101.5 294q161 278 349 402.5t444 124.5q157 0 240.5 -70.5t78.5 -202t-104 -303.5q-70 -120 -147.5 -211t-171.5 -161.5t-207.5 -107t-243.5 -36.5zM252 512q-90 -156 -106 -245.5t34 -127t172 -37.5q92 0 159 15t138 58t139 125
t144 212q90 156 106 247.5t-34.5 130t-172.5 38.5q-70 0 -123 -8t-113 -33.5t-112 -70.5t-111 -120.5t-120 -183.5zM680 1184l29 51q36 68 93.5 99.5t121.5 31.5q50 0 94.5 -23t79.5 -46t61 -23q48 0 68 45l22 43h123l-31 -53q-36 -67 -93.5 -98t-121.5 -31
q-39 0 -85.5 22.5t-86 45t-63.5 22.5q-45 0 -66 -43l-24 -43h-121z" />
    <glyph glyph-name="odieresis" unicode="&#xf6;" horiz-adv-x="1185" 
d="M324 -33q-170 0 -257.5 71.5t-82 199.5t101.5 294q161 278 349 402.5t444 124.5q157 0 240.5 -70.5t78.5 -202t-104 -303.5q-70 -120 -147.5 -211t-171.5 -161.5t-207.5 -107t-243.5 -36.5zM252 512q-90 -156 -106 -245.5t34 -127t172 -37.5q92 0 159 15t138 58t139 125
t144 212q90 156 106 247.5t-34.5 130t-172.5 38.5q-70 0 -123 -8t-113 -33.5t-112 -70.5t-111 -120.5t-120 -183.5zM690 1192l98 170h199l-98 -170h-199zM1067 1192l98 170h197l-98 -170h-197z" />
    <glyph glyph-name="divide" unicode="&#xf7;" horiz-adv-x="1161" 
d="M737 764q-56 0 -72.5 38t13.5 85q28 48 75.5 80t102.5 32t72.5 -37t-10.5 -83q-29 -49 -78.5 -82t-102.5 -33zM111 449l77 124h883l-78 -124h-882zM252 152q29 49 77.5 80.5t102.5 31.5q56 0 72.5 -37.5t-12.5 -83.5q-27 -49 -76 -81.5t-103 -32.5q-56 0 -73 38t12 85z
" />
    <glyph glyph-name="oslash" unicode="&#xf8;" horiz-adv-x="1185" 
d="M-256 -213l295 276q-64 72 -52 194t99 275q161 278 349 402.5t444 124.5q109 0 184 -35l227 213l78 -84l-215 -203q56 -70 42 -192.5t-101 -274.5q-70 -120 -147.5 -211t-171.5 -161.5t-207.5 -107t-243.5 -36.5q-111 0 -187 31l-315 -295zM154 170l794 745
q-54 13 -117 13q-70 0 -123 -8t-113 -33.5t-112 -70.5t-111 -120.5t-120 -183.5q-146 -254 -98 -342zM256 111q40 -9 96 -9q92 0 159 15t138 58t139 125t144 212q137 241 104 330z" />
    <glyph glyph-name="ugrave" unicode="&#xf9;" horiz-adv-x="1200" 
d="M233 -35q-196 0 -245.5 114.5t57.5 293.5l379 651h168l-373 -643q-90 -160 -70.5 -219.5t152.5 -59.5q88 0 157 20t145 74.5t155.5 154t175.5 255.5l244 418h165l-591 -1024h-154l139 244q-245 -279 -504 -279zM760 1278l49 125l430 -191l-27 -63z" />
    <glyph glyph-name="uacute" unicode="&#xfa;" horiz-adv-x="1200" 
d="M233 -35q-196 0 -245.5 114.5t57.5 293.5l379 651h168l-373 -643q-90 -160 -70.5 -219.5t152.5 -59.5q88 0 157 20t145 74.5t155.5 154t175.5 255.5l244 418h165l-591 -1024h-154l139 244q-245 -279 -504 -279zM762 1212l430 191l49 -125l-453 -129z" />
    <glyph glyph-name="ucircumflex" unicode="&#xfb;" horiz-adv-x="1200" 
d="M233 -35q-196 0 -245.5 114.5t57.5 293.5l379 651h168l-373 -643q-90 -160 -70.5 -219.5t152.5 -59.5q88 0 157 20t145 74.5t155.5 154t175.5 255.5l244 418h165l-591 -1024h-154l139 244q-245 -279 -504 -279zM698 1204l312 158h135l131 -166l-105 -80l-120 160
l-301 -162z" />
    <glyph glyph-name="udieresis" unicode="&#xfc;" horiz-adv-x="1200" 
d="M233 -35q-196 0 -245.5 114.5t57.5 293.5l379 651h168l-373 -643q-90 -160 -70.5 -219.5t152.5 -59.5q88 0 157 20t145 74.5t155.5 154t175.5 255.5l244 418h165l-591 -1024h-154l139 244q-245 -279 -504 -279zM690 1192l98 170h199l-98 -170h-199zM1067 1192l98 170h197
l-98 -170h-197z" />
    <glyph glyph-name="yacute" unicode="&#xfd;" horiz-adv-x="1097" 
d="M-430 -410l76 134h268l279 276h-56l187 1024h161l-141 -788l-25 -101l93 101l772 788h186l-1171 -1194q-67 -70 -109.5 -108t-94.5 -72t-105 -47t-121 -13h-199zM723 1212l430 191l49 -125l-452 -129z" />
    <glyph glyph-name="thorn" unicode="&#xfe;" horiz-adv-x="1263" 
d="M418 -33q-155 0 -225 59t-58 173l-352 -609h-164l1065 1844h164l-332 -574q209 197 457 197q243 0 291.5 -161.5t-105.5 -426.5q-286 -502 -741 -502zM317 512q-58 -100 -84 -173t-24.5 -119.5t31.5 -73.5t77.5 -37t120.5 -9q67 1 116.5 10t106.5 34t107.5 69.5
t109 118.5t121.5 180q57 96 84 166.5t28 117.5t-26.5 75.5t-75 40.5t-122.5 12q-85 0 -154.5 -18.5t-140 -64t-138 -127t-137.5 -202.5z" />
    <glyph glyph-name="ydieresis" unicode="&#xff;" horiz-adv-x="1097" 
d="M-430 -410l76 134h268l279 276h-56l187 1024h161l-141 -788l-25 -101l93 101l772 788h186l-1171 -1194q-67 -70 -109.5 -108t-94.5 -72t-105 -47t-121 -13h-199zM651 1192l99 170h198l-98 -170h-199zM1028 1192l98 170h197l-98 -170h-197z" />
    <glyph glyph-name="Amacron" unicode="&#x100;" horiz-adv-x="1337" 
d="M1020 0h-156l68 348h-674l-334 -348h-188l1304 1362h248zM389 485h572l149 754zM954 1563l74 125h686l-74 -125h-686z" />
    <glyph glyph-name="amacron" unicode="&#x101;" horiz-adv-x="1255" 
d="M283 -33q-156 0 -231 76.5t-61 209.5t111 302q286 504 727 504q154 0 227 -58.5t64 -173.5l113 197h166l-590 -1024h-160l105 180q-216 -213 -471 -213zM264 522q-133 -230 -105 -327t210 -97q160 0 287.5 81.5t252.5 283.5l54 94q59 111 75.5 186t-9 115.5t-75.5 56.5
t-131 15q-67 -1 -116 -9.5t-106 -33t-107 -68.5t-108.5 -117.5t-121.5 -179.5zM641 1237l74 125h686l-74 -125h-686z" />
    <glyph glyph-name="Abreve" unicode="&#x102;" horiz-adv-x="1337" 
d="M1020 0h-156l68 348h-674l-334 -348h-188l1304 1362h248zM389 485h572l149 754zM1151 1720h98q-26 -51 -6.5 -81.5t82.5 -30.5q130 0 207 112h98q-103 -211 -327 -211q-53 0 -91 13t-56.5 34t-25 48.5t-0.5 56.5t21 59z" />
    <glyph glyph-name="abreve" unicode="&#x103;" horiz-adv-x="1255" 
d="M283 -33q-156 0 -231 76.5t-61 209.5t111 302q286 504 727 504q154 0 227 -58.5t64 -173.5l113 197h166l-590 -1024h-160l105 180q-216 -213 -471 -213zM264 522q-133 -230 -105 -327t210 -97q160 0 287.5 81.5t252.5 283.5l54 94q59 111 75.5 186t-9 115.5t-75.5 56.5
t-131 15q-67 -1 -116 -9.5t-106 -33t-107 -68.5t-108.5 -117.5t-121.5 -179.5zM1135 1362h98q-25 -51 -5.5 -82t83.5 -31q71 0 119 29t86 84h100q-103 -211 -330 -211q-65 0 -107 19t-55.5 50t-10.5 67.5t22 74.5z" />
    <glyph glyph-name="Aogonek" unicode="&#x104;" horiz-adv-x="1337" 
d="M1020 0h-137q-35 -32 -54 -68q-31 -63 -8.5 -104t78.5 -41q52 0 109 16l-60 -114q-57 -23 -121 -23q-107 0 -148.5 81t15.5 179q60 102 187 158l51 264h-674l-334 -348h-188l1304 1362h248zM389 485h572l149 754z" />
    <glyph glyph-name="aogonek" unicode="&#x105;" horiz-adv-x="1255" 
d="M283 -33h-17q-12 -15 -22 -35q-31 -63 -9 -104t78 -41q52 0 109 16l-60 -114q-58 -23 -120 -23q-107 0 -148.5 81t15.5 179q15 28 43 60q-148 45 -161 200.5t111 368.5q286 504 727 504q154 0 227 -58.5t64 -173.5l113 197h166l-590 -1024h-160l105 180
q-216 -213 -471 -213zM264 522q-126 -218 -107.5 -315.5t175.5 -106.5q52 18 84 25v-25q141 9 258.5 92t234.5 271l54 94q59 111 75.5 186t-9 115.5t-75.5 56.5t-131 15q-67 -1 -116 -9.5t-106 -33t-107 -68.5t-108.5 -117.5t-121.5 -179.5z" />
    <glyph glyph-name="Cacute" unicode="&#x106;" horiz-adv-x="1507" 
d="M500 -35q-229 0 -340 95t-98.5 260t137.5 382q104 178 210 303.5t233.5 216t278.5 134t334 43.5q127 0 218 -28.5t139.5 -78.5t65.5 -119t2 -149t-58 -170h-170q97 212 36 307.5t-282 95.5q-108 0 -190 -13t-166.5 -49t-158.5 -100.5t-153.5 -166t-164.5 -246.5
q-75 -128 -110.5 -225t-33.5 -163.5t40 -108.5t104 -60.5t164 -18.5q172 0 294 39.5t228.5 133t222.5 264.5h172q-86 -143 -176.5 -246t-205 -180t-256.5 -114.5t-316 -37.5zM1147 1544l430 191l49 -125l-452 -129z" />
    <glyph glyph-name="cacute" unicode="&#x107;" horiz-adv-x="1144" 
d="M86 535q161 281 348 402.5t455 121.5q117 0 194 -32t108 -88t24.5 -129.5t-50.5 -158.5h-155q63 139 27.5 207t-185.5 68q-60 0 -106.5 -5t-99 -20t-98 -44t-95 -73.5t-99.5 -112.5t-102 -159q-83 -146 -96.5 -236.5t37.5 -130.5t167 -41q167 -2 281 62t221 225h156
q-95 -153 -191.5 -244t-218.5 -135.5t-284 -44.5q-261 0 -324 155.5t86 412.5zM760 1212l430 191l49 -125l-453 -129z" />
    <glyph glyph-name="Cdotaccent" unicode="&#x10a;" horiz-adv-x="1507" 
d="M500 -35q-229 0 -340 95t-98.5 260t137.5 382q104 178 210 303.5t233.5 216t278.5 134t334 43.5q127 0 218 -28.5t139.5 -78.5t65.5 -119t2 -149t-58 -170h-170q97 212 36 307.5t-282 95.5q-108 0 -190 -13t-166.5 -49t-158.5 -100.5t-153.5 -166t-164.5 -246.5
q-75 -128 -110.5 -225t-33.5 -163.5t40 -108.5t104 -60.5t164 -18.5q172 0 294 39.5t228.5 133t222.5 264.5h172q-86 -143 -176.5 -246t-205 -180t-256.5 -114.5t-316 -37.5zM1227 1511l98 170h211l-98 -170h-211z" />
    <glyph glyph-name="cdotaccent" unicode="&#x10b;" horiz-adv-x="1144" 
d="M86 535q161 281 348 402.5t455 121.5q117 0 194 -32t108 -88t24.5 -129.5t-50.5 -158.5h-155q63 139 27.5 207t-185.5 68q-60 0 -106.5 -5t-99 -20t-98 -44t-95 -73.5t-99.5 -112.5t-102 -159q-83 -146 -96.5 -236.5t37.5 -130.5t167 -41q167 -2 281 62t221 225h156
q-95 -153 -191.5 -244t-218.5 -135.5t-284 -44.5q-261 0 -324 155.5t86 412.5zM870 1192l99 170h211l-99 -170h-211z" />
    <glyph glyph-name="Ccaron" unicode="&#x10c;" horiz-adv-x="1507" 
d="M500 -35q-229 0 -340 95t-98.5 260t137.5 382q104 178 210 303.5t233.5 216t278.5 134t334 43.5q127 0 218 -28.5t139.5 -78.5t65.5 -119t2 -149t-58 -170h-170q97 212 36 307.5t-282 95.5q-108 0 -190 -13t-166.5 -49t-158.5 -100.5t-153.5 -166t-164.5 -246.5
q-75 -128 -110.5 -225t-33.5 -163.5t40 -108.5t104 -60.5t164 -18.5q172 0 294 39.5t228.5 133t222.5 264.5h172q-86 -143 -176.5 -246t-205 -180t-256.5 -114.5t-316 -37.5zM1128 1665l105 80l121 -162l315 162l47 -82l-321 -164h-135z" />
    <glyph glyph-name="ccaron" unicode="&#x10d;" horiz-adv-x="1144" 
d="M86 535q161 281 348 402.5t455 121.5q117 0 194 -32t108 -88t24.5 -129.5t-50.5 -158.5h-155q63 139 27.5 207t-185.5 68q-60 0 -106.5 -5t-99 -20t-98 -44t-95 -73.5t-99.5 -112.5t-102 -159q-83 -146 -96.5 -236.5t37.5 -130.5t167 -41q167 -2 281 62t221 225h156
q-95 -153 -191.5 -244t-218.5 -135.5t-284 -44.5q-261 0 -324 155.5t86 412.5zM741 1311l107 80l119 -160l315 162l47 -84l-321 -164h-136z" />
    <glyph glyph-name="Dcaron" unicode="&#x10e;" horiz-adv-x="1443" 
d="M-152 0l787 1362h485q124 0 214 -27t140 -76.5t72.5 -116t13.5 -148t-40 -170t-84 -183.5q-66 -119 -134 -212.5t-155 -176t-184.5 -136.5t-221 -85t-264.5 -31h-629zM106 137h420q165 0 299.5 62.5t239 177.5t205.5 297q146 261 97.5 406t-296.5 145h-338zM1040 1665
l105 80l121 -162l315 162l47 -82l-321 -164h-136z" />
    <glyph glyph-name="dcaron" unicode="&#x10f;" horiz-adv-x="1527" 
d="M834 1057q158 0 231.5 -58t64.5 -172l351 607h174l-828 -1434h-165l102 176q-212 -209 -473 -209q-160 0 -237 75.5t-63.5 208t111.5 304.5q286 502 732 502zM266 522q-91 -154 -105 -248t40 -134t176 -40q163 0 289 78t252 281l59 100q45 86 62.5 150t10 105t-38.5 66
t-76.5 35t-109.5 9q-66 -1 -116.5 -9.5t-107 -33t-107.5 -68t-108.5 -116t-119.5 -175.5zM1591 1008l228 426h176l-269 -426h-135z" />
    <glyph glyph-name="Dcroat" unicode="&#x110;" horiz-adv-x="1685" 
d="M127 606l80 137h313l357 619h485q124 0 214 -27t140 -76.5t72 -116t13 -148t-40 -169.5t-84 -184q-83 -151 -171.5 -261.5t-203.5 -199.5t-261 -134.5t-322 -45.5h-629l350 606h-313zM348 137h420q244 0 417.5 131t325.5 406q146 261 98 406t-296 145h-338l-277 -482h328
l-80 -137h-328z" />
    <glyph glyph-name="dcroat" unicode="&#x111;" horiz-adv-x="1314" 
d="M1044 1300h361l76 134h174l-78 -134h197l-70 -120h-197l-680 -1180h-165l102 176q-212 -209 -473 -209q-160 0 -237 75.5t-63.5 208t111.5 304.5q286 502 732 502q158 0 231.5 -58t64.5 -172l205 353h-362zM266 522q-91 -154 -105 -248t40 -134t176 -40q163 0 289 78
t252 281l59 100q45 86 62.5 150t10 105t-38.5 66t-76.5 35t-109.5 9q-66 -1 -116.5 -9.5t-107 -33t-107.5 -68t-108.5 -116t-119.5 -175.5z" />
    <glyph glyph-name="Emacron" unicode="&#x112;" horiz-adv-x="1265" 
d="M393 633l-287 -496h844l-80 -137h-1022l787 1362h1016l-80 -137h-838l-262 -457h776l-78 -135h-776zM901 1563l74 125h686l-74 -125h-686z" />
    <glyph glyph-name="emacron" unicode="&#x113;" horiz-adv-x="1130" 
d="M309 -33q-166 0 -249.5 75t-75.5 203.5t102 289.5q154 264 342.5 393t421.5 129q111 0 185.5 -39.5t103.5 -107.5t14 -162.5t-76 -200.5q-21 -36 -45 -70h-813q-110 -201 -81 -292t198 -91q113 0 190 22.5t132.5 66t121.5 126.5h158q-41 -58 -81 -103t-98 -92t-121 -77.5
t-148 -50t-181 -19.5zM291 598h645q65 120 69.5 195t-44.5 108t-152 33q-58 0 -105 -7t-101 -28t-102 -57.5t-102 -97.5t-108 -146zM616 1237l74 125h686l-73 -125h-687z" />
    <glyph glyph-name="Edotaccent" unicode="&#x116;" horiz-adv-x="1265" 
d="M393 633l-287 -496h844l-80 -137h-1022l787 1362h1016l-80 -137h-838l-262 -457h776l-78 -135h-776zM1110 1511l98 170h211l-98 -170h-211z" />
    <glyph glyph-name="edotaccent" unicode="&#x117;" horiz-adv-x="1130" 
d="M309 -33q-166 0 -249.5 75t-75.5 203.5t102 289.5q154 264 342.5 393t421.5 129q111 0 185.5 -39.5t103.5 -107.5t14 -162.5t-76 -200.5q-21 -36 -45 -70h-813q-110 -201 -81 -292t198 -91q113 0 190 22.5t132.5 66t121.5 126.5h158q-41 -58 -81 -103t-98 -92t-121 -77.5
t-148 -50t-181 -19.5zM291 598h645q65 120 69.5 195t-44.5 108t-152 33q-58 0 -105 -7t-101 -28t-102 -57.5t-102 -97.5t-108 -146zM827 1192l99 170h211l-99 -170h-211z" />
    <glyph glyph-name="Eogonek" unicode="&#x118;" horiz-adv-x="1265" 
d="M393 633l-287 -496h844l-80 -137h-211q-33 -30 -53 -68q-31 -63 -8.5 -104t78.5 -41q51 0 108 16l-59 -114q-57 -23 -121 -23q-107 0 -148.5 81t15.5 179q21 38 57 74h-680l787 1362h1016l-80 -137h-838l-262 -457h776l-78 -135h-776z" />
    <glyph glyph-name="eogonek" unicode="&#x119;" horiz-adv-x="1130" 
d="M309 -33q-166 0 -249.5 75t-75.5 203.5t102 289.5q154 264 342.5 393t421.5 129q111 0 185.5 -39.5t103.5 -107.5t14 -162.5t-76 -200.5q-21 -36 -45 -70h-813q-110 -201 -81 -292t198 -91q113 0 190 22.5t132.5 66t121.5 126.5h158q-77 -109 -167 -186.5t-214 -118.5
q-30 -24 -57 -72q-31 -63 -9 -104t78 -41q52 0 109 16l-60 -114q-57 -23 -120 -23q-107 0 -148.5 81t15.5 179q15 24 30 45q-54 -4 -86 -4zM291 598h645q65 120 69.5 195t-44.5 108t-152 33q-58 0 -105 -7t-101 -28t-102 -57.5t-102 -97.5t-108 -146z" />
    <glyph glyph-name="Ecaron" unicode="&#x11a;" horiz-adv-x="1265" 
d="M393 633l-287 -496h844l-80 -137h-1022l787 1362h1016l-80 -137h-838l-262 -457h776l-78 -135h-776zM1012 1665l104 80l121 -162l315 162l47 -82l-321 -164h-135z" />
    <glyph glyph-name="ecaron" unicode="&#x11b;" horiz-adv-x="1130" 
d="M309 -33q-166 0 -249.5 75t-75.5 203.5t102 289.5q154 264 342.5 393t421.5 129q111 0 185.5 -39.5t103.5 -107.5t14 -162.5t-76 -200.5q-21 -36 -45 -70h-813q-110 -201 -81 -292t198 -91q113 0 190 22.5t132.5 66t121.5 126.5h158q-41 -58 -81 -103t-98 -92t-121 -77.5
t-148 -50t-181 -19.5zM291 598h645q65 120 69.5 195t-44.5 108t-152 33q-58 0 -105 -7t-101 -28t-102 -57.5t-102 -97.5t-108 -146zM700 1311l107 80l119 -160l315 162l47 -84l-321 -164h-136z" />
    <glyph glyph-name="Gbreve" unicode="&#x11e;" horiz-adv-x="1568" 
d="M512 -35q-233 0 -346 94.5t-99 266.5t148 405q92 158 196 278t230.5 209t279 135t328.5 46q163 0 268.5 -38t149.5 -108.5t40 -165t-54 -213.5h-174q90 211 32.5 297t-294.5 86q-109 0 -195 -15t-172 -52.5t-161.5 -102.5t-153.5 -165t-158 -240q-90 -155 -122 -266.5
t-6 -180.5t100.5 -101t201.5 -32q157 0 288 51.5t237 146t214 245.5h-612l74 127h782l-387 -670h-156l154 270q-53 -53 -92.5 -89.5t-102.5 -81t-123.5 -71.5t-142.5 -46t-172 -19zM1235 1720h98q-26 -51 -6.5 -81.5t82.5 -30.5q130 0 207 112h98q-103 -211 -328 -211
q-53 0 -90.5 13t-56.5 34t-25 48.5t0 56.5t21 59z" />
    <glyph glyph-name="gbreve" unicode="&#x11f;" horiz-adv-x="1241" 
d="M92 -432q-98 0 -170.5 22.5t-112 59.5t-57 84.5t-12 97.5t30.5 98h159q-35 -75 -32 -125.5t56.5 -76t164.5 -25.5q81 0 132 5t106.5 21t97 48t86 85.5t90.5 133.5l110 192q-187 -170 -450 -170q-158 0 -232.5 67.5t-62 187.5t105.5 282q148 258 330.5 381t419.5 123
q140 0 207 -55.5t59 -163.5l99 170h169l-587 -1016q-92 -160 -181 -248.5t-215 -133t-311 -44.5zM258 518q-51 -88 -73.5 -153t-20.5 -107t29 -67.5t69.5 -35.5t106.5 -10q84 0 150.5 14.5t136 52.5t135.5 109.5t131 178.5l39 65q46 83 65.5 145.5t15.5 104.5t-31.5 67.5
t-71.5 36.5t-108 11q-91 0 -159.5 -16.5t-138 -61.5t-136 -126t-139.5 -208zM860 1362h98q-25 -51 -5.5 -82t83.5 -31q71 0 119 29t86 84h100q-103 -211 -329 -211q-65 0 -107 19t-56 50t-11 67.5t22 74.5z" />
    <glyph glyph-name="Gdotaccent" unicode="&#x120;" horiz-adv-x="1568" 
d="M512 -35q-233 0 -346 94.5t-99 266.5t148 405q92 158 196 278t230.5 209t279 135t328.5 46q163 0 268.5 -38t149.5 -108.5t40 -165t-54 -213.5h-174q90 211 32.5 297t-294.5 86q-109 0 -195 -15t-172 -52.5t-161.5 -102.5t-153.5 -165t-158 -240q-90 -155 -122 -266.5
t-6 -180.5t100.5 -101t201.5 -32q157 0 288 51.5t237 146t214 245.5h-612l74 127h782l-387 -670h-156l154 270q-53 -53 -92.5 -89.5t-102.5 -81t-123.5 -71.5t-142.5 -46t-172 -19zM1247 1511l99 170h210l-98 -170h-211z" />
    <glyph glyph-name="gdotaccent" unicode="&#x121;" horiz-adv-x="1241" 
d="M92 -432q-98 0 -170.5 22.5t-112 59.5t-57 84.5t-12 97.5t30.5 98h159q-35 -75 -32 -125.5t56.5 -76t164.5 -25.5q81 0 132 5t106.5 21t97 48t86 85.5t90.5 133.5l110 192q-187 -170 -450 -170q-158 0 -232.5 67.5t-62 187.5t105.5 282q148 258 330.5 381t419.5 123
q140 0 207 -55.5t59 -163.5l99 170h169l-587 -1016q-92 -160 -181 -248.5t-215 -133t-311 -44.5zM258 518q-51 -88 -73.5 -153t-20.5 -107t29 -67.5t69.5 -35.5t106.5 -10q84 0 150.5 14.5t136 52.5t135.5 109.5t131 178.5l39 65q46 83 65.5 145.5t15.5 104.5t-31.5 67.5
t-71.5 36.5t-108 11q-91 0 -159.5 -16.5t-138 -61.5t-136 -126t-139.5 -208zM897 1192l98 170h211l-98 -170h-211z" />
    <glyph glyph-name="uni0122" unicode="&#x122;" horiz-adv-x="1568" 
d="M512 -35q-233 0 -346 94.5t-99 266.5t148 405q92 158 196 278t230.5 209t279 135t328.5 46q163 0 268.5 -38t149.5 -108.5t40 -165t-54 -213.5h-174q90 211 32.5 297t-294.5 86q-109 0 -195 -15t-172 -52.5t-161.5 -102.5t-153.5 -165t-158 -240q-90 -155 -122 -266.5
t-6 -180.5t100.5 -101t201.5 -32q157 0 288 51.5t237 146t214 245.5h-612l74 127h782l-387 -670h-156l154 270q-53 -53 -92.5 -89.5t-102.5 -81t-123.5 -71.5t-142.5 -46t-172 -19zM104 -477l62 106h104l68 117h-105l80 137h211l-125 -217q-46 -81 -103 -112t-146 -31h-46z
" />
    <glyph glyph-name="uni0123" unicode="&#x123;" horiz-adv-x="1241" 
d="M92 -432q-98 0 -170.5 22.5t-112 59.5t-57 84.5t-12 97.5t30.5 98h159q-35 -75 -32 -125.5t56.5 -76t164.5 -25.5q81 0 132 5t106.5 21t97 48t86 85.5t90.5 133.5l110 192q-187 -170 -450 -170q-158 0 -232.5 67.5t-62 187.5t105.5 282q148 258 330.5 381t419.5 123
q140 0 207 -55.5t59 -163.5l99 170h169l-587 -1016q-92 -160 -181 -248.5t-215 -133t-311 -44.5zM258 518q-51 -88 -73.5 -153t-20.5 -107t29 -67.5t69.5 -35.5t106.5 -10q84 0 150.5 14.5t136 52.5t135.5 109.5t131 178.5l39 65q46 83 65.5 145.5t15.5 104.5t-31.5 67.5
t-71.5 36.5t-108 11q-91 0 -159.5 -16.5t-138 -61.5t-136 -126t-139.5 -208zM895 1178l119 206q49 84 109 119t149 35h43l-62 -106h-104l-66 -117h105l-80 -137h-213z" />
    <glyph glyph-name="Hbar" unicode="&#x126;" horiz-adv-x="1677" 
d="M444 1153h197l121 209h184l-121 -209h777l120 209h185l-121 -209h196l-79 -137h-197l-586 -1016h-184l367 635h-777l-366 -635h-185l586 1016h-196zM606 772h776l140 244h-777z" />
    <glyph glyph-name="hbar" unicode="&#x127;" horiz-adv-x="1257" 
d="M461 1300h211l76 134h172l-76 -134h348l-72 -120h-346l-194 -342q221 221 450 221q133 0 199.5 -52t62.5 -143t-73 -211l-377 -653h-168l370 643q91 160 73 220.5t-154 60.5q-80 0 -143 -16t-131 -59.5t-137.5 -121.5t-150.5 -199l-301 -528h-172l674 1180h-213z" />
    <glyph glyph-name="Imacron" unicode="&#x12a;" horiz-adv-x="966" 
d="M-182 0l80 137h284l629 1088h-287l80 137h748l-80 -137h-283l-629 -1088h285l-80 -137h-747zM750 1563l73 125h686l-73 -125h-686z" />
    <glyph glyph-name="imacron" unicode="&#x12b;" horiz-adv-x="438" 
d="M-158 0l590 1024h172l-590 -1024h-172zM293 1237l74 125h686l-74 -125h-686z" />
    <glyph glyph-name="Iogonek" unicode="&#x12e;" horiz-adv-x="966" 
d="M-182 0l80 137h284l629 1088h-287l80 137h748l-80 -137h-283l-629 -1088h285l-80 -137h-182q-33 -30 -53 -68q-31 -63 -9 -104t78 -41q52 0 109 16l-59 -114q-57 -23 -121 -23q-107 0 -148.5 81t15.5 179q21 38 57 74h-434z" />
    <glyph glyph-name="iogonek" unicode="&#x12f;" horiz-adv-x="438" 
d="M506 1192l98 170h211l-98 -170h-211zM-264 -74q50 84 143 137l553 961h172l-590 -1024h-90q-33 -30 -53 -68q-31 -63 -8.5 -104t78.5 -41q51 0 108 16l-59 -114q-58 -23 -121 -23q-107 0 -148.5 81t15.5 179z" />
    <glyph glyph-name="Idotaccent" unicode="&#x130;" horiz-adv-x="966" 
d="M-182 0l80 137h284l629 1088h-287l80 137h748l-80 -137h-283l-629 -1088h285l-80 -137h-747zM958 1511l99 170h211l-99 -170h-211z" />
    <glyph glyph-name="dotlessi" unicode="&#x131;" horiz-adv-x="438" 
d="M-158 0l590 1024h172l-590 -1024h-172z" />
    <glyph glyph-name="uni0136" unicode="&#x136;" horiz-adv-x="1323" 
d="M-152 0l787 1362h178l-442 -766l229 160l916 606h247l-907 -596l121 -758l-6 -8h-164l-100 668l-476 -312l-204 -356h-179zM25 -477l61 106h104l68 117h-104l79 137h211l-125 -217q-46 -81 -103 -112t-146 -31h-45z" />
    <glyph glyph-name="uni0137" unicode="&#x137;" horiz-adv-x="1134" 
d="M641 0l-104 489l-353 -219l-155 -270h-172l827 1434h172l-541 -938q66 48 129 86l719 442h232l-2 -4l-715 -442l145 -578h-182zM-80 -477l62 106h104l68 117h-105l80 137h211l-125 -217q-46 -81 -103 -112t-147 -31h-45z" />
    <glyph glyph-name="Lacute" unicode="&#x139;" horiz-adv-x="1067" 
d="M-152 0l787 1362h178l-707 -1225h713l-80 -137h-891zM629 1544l430 191l49 -125l-453 -129z" />
    <glyph glyph-name="lacute" unicode="&#x13a;" horiz-adv-x="466" 
d="M-143 0l827 1434h172l-827 -1434h-172zM674 1616l430 190l49 -125l-453 -129z" />
    <glyph glyph-name="uni013B" unicode="&#x13b;" horiz-adv-x="1067" 
d="M-152 0l787 1362h178l-707 -1225h713l-80 -137h-891zM-104 -477l61 106h104l68 117h-104l79 137h211l-125 -217q-46 -81 -103 -112t-146 -31h-45z" />
    <glyph glyph-name="uni013C" unicode="&#x13c;" horiz-adv-x="466" 
d="M-143 0l827 1434h172l-827 -1434h-172zM-430 -477l61 106h105l67 117h-104l80 137h211l-125 -217q-46 -81 -103 -112t-147 -31h-45z" />
    <glyph glyph-name="Lcaron" unicode="&#x13d;" horiz-adv-x="1067" 
d="M-152 0l787 1362h178l-707 -1225h713l-80 -137h-891zM934 1151l227 426h176l-268 -426h-135z" />
    <glyph glyph-name="lcaron" unicode="&#x13e;" horiz-adv-x="720" 
d="M-143 0l827 1434h172l-827 -1434h-172zM784 1008l228 426h176l-268 -426h-136z" />
    <glyph glyph-name="Lslash" unicode="&#x141;" horiz-adv-x="1308" 
d="M125 602l383 121l369 639h178l-330 -569l401 127l-82 -142l-399 -125l-297 -516h713l-80 -137h-891l338 584l-385 -121z" />
    <glyph glyph-name="lslash" unicode="&#x142;" horiz-adv-x="804" 
d="M137 623l332 110l403 701h172l-362 -629l283 94l-82 -141l-283 -94l-383 -664h-172l342 594l-332 -111z" />
    <glyph glyph-name="Nacute" unicode="&#x143;" horiz-adv-x="1421" 
d="M885 117l719 1245h172l-787 -1362h-264l-2 1069q3 90 16 178l-719 -1247h-172l787 1362h264v-1071q-4 -103 -14 -174zM1118 1544l430 191l49 -125l-452 -129z" />
    <glyph glyph-name="nacute" unicode="&#x144;" horiz-adv-x="1228" 
d="M-133 0l590 1024h172l-111 -190q225 225 457 225q133 0 199.5 -52t62 -143t-73.5 -211l-377 -653h-168l371 643q91 160 72.5 220.5t-154.5 60.5q-84 0 -149.5 -18t-137 -66.5t-145.5 -137t-162 -227.5l-274 -475h-172zM768 1212l430 191l49 -125l-452 -129z" />
    <glyph glyph-name="uni0145" unicode="&#x145;" horiz-adv-x="1421" 
d="M885 117l719 1245h172l-787 -1362h-264l-2 1069q3 90 16 178l-719 -1247h-172l787 1362h264v-1071q-4 -103 -14 -174zM55 -477l62 106h104l68 117h-105l80 137h211l-125 -217q-46 -81 -103 -112t-147 -31h-45z" />
    <glyph glyph-name="uni0146" unicode="&#x146;" horiz-adv-x="1228" 
d="M-133 0l590 1024h172l-111 -190q225 225 457 225q133 0 199.5 -52t62 -143t-73.5 -211l-377 -653h-168l371 643q91 160 72.5 220.5t-154.5 60.5q-84 0 -149.5 -18t-137 -66.5t-145.5 -137t-162 -227.5l-274 -475h-172zM-55 -477l61 106h105l67 117h-104l80 137h211
l-125 -217q-46 -81 -103 -112t-147 -31h-45z" />
    <glyph glyph-name="Ncaron" unicode="&#x147;" horiz-adv-x="1421" 
d="M885 117l719 1245h172l-787 -1362h-264l-2 1069q3 90 16 178l-719 -1247h-172l787 1362h264v-1071q-4 -103 -14 -174zM1100 1665l104 80l121 -162l315 162l48 -82l-322 -164h-135z" />
    <glyph glyph-name="ncaron" unicode="&#x148;" horiz-adv-x="1228" 
d="M-133 0l590 1024h172l-111 -190q225 225 457 225q133 0 199.5 -52t62 -143t-73.5 -211l-377 -653h-168l371 643q91 160 72.5 220.5t-154.5 60.5q-84 0 -149.5 -18t-137 -66.5t-145.5 -137t-162 -227.5l-274 -475h-172zM750 1311l106 80l119 -160l315 162l47 -84
l-321 -164h-135z" />
    <glyph glyph-name="Eng" unicode="&#x14a;" horiz-adv-x="1466" 
d="M915 117l719 1245h172l-884 -1532q-75 -128 -161 -184t-229 -56h-239l76 134h319l160 276h-109l-2 1069q3 105 17 178l-719 -1247h-172l786 1362h281l2 -1071q-3 -71 -17 -174z" />
    <glyph glyph-name="eng" unicode="&#x14b;" horiz-adv-x="1198" 
d="M51 -410l76 134h326l526 911q84 152 58.5 218.5t-150.5 66.5q-163 0 -317.5 -118.5t-315.5 -395.5l-234 -406h-163l589 1024h164l-143 -250q264 283 512 283q128 0 191 -55t57 -145.5t-72 -203.5l-475 -823q-73 -128 -159 -184t-228 -56h-242z" />
    <glyph glyph-name="Omacron" unicode="&#x14c;" horiz-adv-x="1538" 
d="M498 -35q-231 0 -339.5 98.5t-92 268t144.5 393.5q96 164 200 285.5t230 210.5t276.5 133.5t325.5 44.5q173 0 278.5 -58.5t136.5 -159.5t1.5 -233.5t-117.5 -285.5q-219 -379 -460 -538t-584 -159zM375 682q-122 -210 -140 -336t57 -179.5t247 -53.5q92 0 164 9
t144.5 33t134.5 64.5t126.5 104t127.5 151.5t132 207q122 210 140 336t-57 179.5t-247 53.5q-111 0 -194.5 -13.5t-168 -49.5t-157.5 -100t-150 -163.5t-159 -242.5zM991 1563l74 125h686l-74 -125h-686z" />
    <glyph glyph-name="omacron" unicode="&#x14d;" horiz-adv-x="1185" 
d="M324 -33q-170 0 -257.5 71.5t-82 199.5t101.5 294q161 278 349 402.5t444 124.5q157 0 240.5 -70.5t78.5 -202t-104 -303.5q-70 -120 -147.5 -211t-171.5 -161.5t-207.5 -107t-243.5 -36.5zM252 512q-90 -156 -106 -245.5t34 -127t172 -37.5q92 0 159 15t138 58t139 125
t144 212q90 156 106 247.5t-34.5 130t-172.5 38.5q-70 0 -123 -8t-113 -33.5t-112 -70.5t-111 -120.5t-120 -183.5zM662 1237l73 125h686l-73 -125h-686z" />
    <glyph glyph-name="Ohungarumlaut" unicode="&#x150;" horiz-adv-x="1538" 
d="M498 -35q-231 0 -339.5 98.5t-92 268t144.5 393.5q96 164 200 285.5t230 210.5t276.5 133.5t325.5 44.5q173 0 278.5 -58.5t136.5 -159.5t1.5 -233.5t-117.5 -285.5q-219 -379 -460 -538t-584 -159zM375 682q-122 -210 -140 -336t57 -179.5t247 -53.5q92 0 164 9
t144.5 33t134.5 64.5t126.5 104t127.5 151.5t132 207q122 210 140 336t-57 179.5t-247 53.5q-111 0 -194.5 -13.5t-168 -49.5t-157.5 -100t-150 -163.5t-159 -242.5zM1077 1544l254 238l88 -101l-297 -184zM1450 1544l252 238l90 -101l-299 -184z" />
    <glyph glyph-name="ohungarumlaut" unicode="&#x151;" horiz-adv-x="1185" 
d="M324 -33q-170 0 -257.5 71.5t-82 199.5t101.5 294q161 278 349 402.5t444 124.5q157 0 240.5 -70.5t78.5 -202t-104 -303.5q-70 -120 -147.5 -211t-171.5 -161.5t-207.5 -107t-243.5 -36.5zM252 512q-90 -156 -106 -245.5t34 -127t172 -37.5q92 0 159 15t138 58t139 125
t144 212q90 156 106 247.5t-34.5 130t-172.5 38.5q-70 0 -123 -8t-113 -33.5t-112 -70.5t-111 -120.5t-120 -183.5zM715 1200l254 238l88 -101l-299 -184zM1085 1200l254 238l88 -101l-297 -184z" />
    <glyph glyph-name="OE" unicode="&#x152;" horiz-adv-x="2385" 
d="M1513 633l-284 -496h844l-80 -137h-1016l133 233q-256 -268 -672 -268q-169 0 -267 52.5t-122.5 148.5t10.5 225.5t129 290.5q197 339 469.5 528t608.5 189q198 0 288.5 -69t75.5 -200l133 232h1010l-80 -137h-838l-262 -457h777l-80 -135h-777zM367 682
q-175 -302 -135.5 -439t300.5 -137t460.5 137t373.5 439t134 438.5t-302 136.5t-460 -137t-371 -438z" />
    <glyph glyph-name="oe" unicode="&#x153;" horiz-adv-x="1990" 
d="M274 -33q-169 0 -245.5 71t-62.5 192.5t108 283.5q152 261 363.5 402t467.5 141q155 0 225 -59.5t62 -168.5q249 228 551 228q151 0 224.5 -64t64.5 -178.5t-97 -267.5q-13 -25 -43 -72h-829q-58 -106 -75 -182t5.5 -119t71 -62.5t125.5 -19.5q151 0 260.5 56t198.5 167
h153q-244 -348 -684 -348q-154 0 -225.5 58t-65.5 165q-243 -223 -553 -223zM242 512q-88 -151 -101 -243t39.5 -130.5t171.5 -38.5q179 0 318 94t270 318q88 152 100.5 244t-41 130t-172.5 38q-179 0 -317 -93.5t-268 -318.5zM1137 598h665q65 119 68 194.5t-46 107.5
t-147 32q-154 0 -286 -75.5t-254 -258.5z" />
    <glyph glyph-name="Racute" unicode="&#x154;" horiz-adv-x="1325" 
d="M1004 217q-73 -133 -91 -217h-180q38 121 90 211l72 125q46 80 58.5 133.5t-9.5 84.5t-69.5 43.5t-126.5 12.5h-369l-352 -610h-179l787 1362h567q94 0 163.5 -21.5t107 -60t50.5 -89.5t-1 -112t-52 -127q-75 -132 -189.5 -203t-248.5 -90q40 -10 66 -33t38 -59t0 -89.5
t-49 -117.5zM453 737h374q180 0 287.5 56.5t179.5 181.5q75 137 34.5 193.5t-204.5 56.5h-391zM1061 1544l430 191l49 -125l-453 -129z" />
    <glyph glyph-name="racute" unicode="&#x155;" horiz-adv-x="772" 
d="M-143 0l589 1024h168l-104 -180q204 192 483 192h37l-92 -162h-55q-69 2 -127 -7t-105 -24.5t-91 -48t-79 -67t-76 -92t-75 -112t-82 -138.5l-223 -385h-168zM580 1212l430 191l49 -125l-453 -129z" />
    <glyph glyph-name="uni0156" unicode="&#x156;" horiz-adv-x="1325" 
d="M1004 217q-73 -133 -91 -217h-180q38 121 90 211l72 125q46 80 58.5 133.5t-9.5 84.5t-69.5 43.5t-126.5 12.5h-369l-352 -610h-179l787 1362h567q94 0 163.5 -21.5t107 -60t50.5 -89.5t-1 -112t-52 -127q-75 -132 -189.5 -203t-248.5 -90q40 -10 66 -33t38 -59t0 -89.5
t-49 -117.5zM-2 -477l61 106h105l67 117h-104l80 137h211l-125 -217q-46 -81 -103 -112t-147 -31h-45zM453 737h374q180 0 287.5 56.5t179.5 181.5q75 137 34.5 193.5t-204.5 56.5h-391z" />
    <glyph glyph-name="uni0157" unicode="&#x157;" horiz-adv-x="772" 
d="M-143 0l589 1024h168l-104 -180q204 192 483 192h37l-92 -162h-55q-69 2 -127 -7t-105 -24.5t-91 -48t-79 -67t-76 -92t-75 -112t-82 -138.5l-223 -385h-168zM-430 -477l61 106h105l67 117h-104l80 137h211l-125 -217q-46 -81 -103 -112t-147 -31h-45z" />
    <glyph glyph-name="Rcaron" unicode="&#x158;" horiz-adv-x="1325" 
d="M1004 217q-73 -133 -91 -217h-180q38 121 90 211l72 125q46 80 58.5 133.5t-9.5 84.5t-69.5 43.5t-126.5 12.5h-369l-352 -610h-179l787 1362h567q94 0 163.5 -21.5t107 -60t50.5 -89.5t-1 -112t-52 -127q-75 -132 -189.5 -203t-248.5 -90q40 -10 66 -33t38 -59t0 -89.5
t-49 -117.5zM453 737h374q180 0 287.5 56.5t179.5 181.5q75 137 34.5 193.5t-204.5 56.5h-391zM1044 1665l105 80l121 -162l315 162l47 -82l-321 -164h-135z" />
    <glyph glyph-name="rcaron" unicode="&#x159;" horiz-adv-x="772" 
d="M-143 0l589 1024h168l-104 -180q204 192 483 192h37l-92 -162h-55q-69 2 -127 -7t-105 -24.5t-91 -48t-79 -67t-76 -92t-75 -112t-82 -138.5l-223 -385h-168zM561 1311l107 80l118 -160l316 162l47 -84l-322 -164h-135z" />
    <glyph glyph-name="Sacute" unicode="&#x15a;" horiz-adv-x="1282" 
d="M217 467q-111 -193 -63.5 -279t280.5 -86q215 0 320.5 51t193.5 203q61 107 36 166t-142 82l-267 49q-165 30 -202 130.5t53 250.5q210 365 694 365q266 0 351.5 -117t-21.5 -326h-164q42 89 50.5 148t-18.5 95.5t-85.5 51.5t-157.5 15q-185 0 -295.5 -56t-195.5 -200
q-105 -183 82 -219l282 -52q353 -67 150 -422q-69 -121 -159 -196t-224.5 -113.5t-323.5 -38.5q-161 0 -261 37.5t-135 105t-20.5 157t76.5 198.5h166zM1038 1544l430 191l50 -125l-453 -129z" />
    <glyph glyph-name="sacute" unicode="&#x15b;" horiz-adv-x="1032" 
d="M125 342q-69 -129 -30.5 -189.5t210.5 -60.5q140 0 216.5 36.5t137.5 141.5q44 73 18.5 115.5t-132.5 63.5l-156 28q-131 25 -166 107.5t37 210.5q151 264 543 264q200 0 271 -88t-7 -240h-162q53 104 17 153.5t-174 49.5q-135 0 -212 -37t-133 -133q-17 -29 -21.5 -51.5
t3.5 -44t39 -37.5t84 -27l139 -26q318 -62 150 -351q-81 -139 -210.5 -199.5t-336.5 -60.5q-124 0 -202.5 26.5t-109.5 76t-22 118t57 154.5h152zM680 1212l430 191l49 -125l-452 -129z" />
    <glyph glyph-name="Scedilla" unicode="&#x15e;" horiz-adv-x="1282" 
d="M217 467q-111 -193 -63.5 -279t280.5 -86q215 0 320.5 51t193.5 203q61 107 36 166t-142 82l-267 49q-165 30 -202 130.5t53 250.5q210 365 694 365q266 0 351.5 -117t-21.5 -326h-164q42 89 50.5 148t-18.5 95.5t-85.5 51.5t-157.5 15q-185 0 -295.5 -56t-195.5 -200
q-105 -183 82 -219l282 -52q353 -67 150 -422q-101 -176 -254.5 -259t-413.5 -89l-47 -153q-24 -74 -77 -112t-118 -38h-174l68 115h160l61 192q-132 10 -212 51t-105.5 107.5t-8.5 150.5t74 185h166z" />
    <glyph glyph-name="scedilla" unicode="&#x15f;" horiz-adv-x="1032" 
d="M125 342q-69 -129 -30.5 -189.5t210.5 -60.5q140 0 216.5 36.5t137.5 141.5q44 73 18.5 115.5t-132.5 63.5l-156 28q-131 25 -166 107.5t37 210.5q151 264 543 264q200 0 271 -88t-7 -240h-162q53 104 17 153.5t-174 49.5q-135 0 -212 -37t-133 -133q-17 -29 -21.5 -51.5
t3.5 -44t39 -37.5t84 -27l139 -26q318 -62 150 -351q-73 -126 -186 -187.5t-285 -70.5l-47 -153q-24 -74 -77 -112t-118 -38h-174l67 115h160l60 188q-142 7 -213.5 55t-70.5 128.5t60 189.5h152z" />
    <glyph glyph-name="Scaron" unicode="&#x160;" horiz-adv-x="1282" 
d="M217 467q-111 -193 -63.5 -279t280.5 -86q215 0 320.5 51t193.5 203q61 107 36 166t-142 82l-267 49q-165 30 -202 130.5t53 250.5q210 365 694 365q266 0 351.5 -117t-21.5 -326h-164q42 89 50.5 148t-18.5 95.5t-85.5 51.5t-157.5 15q-185 0 -295.5 -56t-195.5 -200
q-105 -183 82 -219l282 -52q353 -67 150 -422q-69 -121 -159 -196t-224.5 -113.5t-323.5 -38.5q-161 0 -261 37.5t-135 105t-20.5 157t76.5 198.5h166zM1020 1665l104 80l121 -162l316 162l47 -82l-322 -164h-135z" />
    <glyph glyph-name="scaron" unicode="&#x161;" horiz-adv-x="1032" 
d="M125 342q-69 -129 -30.5 -189.5t210.5 -60.5q140 0 216.5 36.5t137.5 141.5q44 73 18.5 115.5t-132.5 63.5l-156 28q-131 25 -166 107.5t37 210.5q151 264 543 264q200 0 271 -88t-7 -240h-162q53 104 17 153.5t-174 49.5q-135 0 -212 -37t-133 -133q-17 -29 -21.5 -51.5
t3.5 -44t39 -37.5t84 -27l139 -26q318 -62 150 -351q-81 -139 -210.5 -199.5t-336.5 -60.5q-124 0 -202.5 26.5t-109.5 76t-22 118t57 154.5h152zM662 1311l106 80l119 -160l315 162l47 -84l-321 -164h-135z" />
    <glyph glyph-name="uni0162" unicode="&#x162;" horiz-adv-x="1202" 
d="M215 -2l709 1227h-486l80 137h1147l-80 -137h-483l-709 -1227h-22l-56 -176q-24 -75 -76.5 -112.5t-117.5 -37.5h-174l67 115h160l66 211h-25z" />
    <glyph glyph-name="uni0163" unicode="&#x163;" horiz-adv-x="788" 
d="M-211 -334l68 115h159l72 227q-71 17 -84.5 74t27.5 125l399 690h-192l51 90l237 51l172 195h97l-121 -209h323l-73 -127h-324l-442 -768h352l-76 -129h-219l-57 -184q-24 -74 -77 -112t-118 -38h-174z" />
    <glyph glyph-name="Tcaron" unicode="&#x164;" horiz-adv-x="1202" 
d="M215 -2l709 1227h-486l80 137h1147l-80 -137h-483l-709 -1227h-178zM975 1665l104 80l121 -162l316 162l47 -82l-322 -164h-135z" />
    <glyph glyph-name="tcaron" unicode="&#x165;" horiz-adv-x="788" 
d="M154 0q-57 0 -94 17t-50 46t-7.5 66t28.5 78l399 690h-192l51 90l237 51l172 195h97l-121 -209h323l-73 -127h-324l-442 -768h352l-76 -129h-280zM836 1122l159 312h172l-198 -312h-133z" />
    <glyph glyph-name="Tbar" unicode="&#x166;" horiz-adv-x="1202" 
d="M90 621l80 139h485l269 465h-486l80 137h1147l-80 -137h-483l-268 -465h483l-80 -139h-483l-361 -623h-178l360 623h-485z" />
    <glyph glyph-name="tbar" unicode="&#x167;" horiz-adv-x="784" 
d="M162 0q-73 0 -113 14t-50 45t3.5 74t50.5 107l201 346h-197l74 129h197l104 180h-196l53 92l241 51l183 213h90l-129 -227h336l-76 -129h-336l-104 -180h335l-73 -129h-336l-262 -453h336l-76 -133h-256z" />
    <glyph glyph-name="Umacron" unicode="&#x16a;" horiz-adv-x="1349" 
d="M104 487l508 875h179l-494 -854q-55 -94 -79 -162.5t-20.5 -114t35.5 -73t84.5 -38.5t131.5 -11q113 0 190.5 16t150 61t134 121t133.5 201l493 854h179l-531 -916q-102 -177 -204.5 -278t-245 -151t-345.5 -50q-145 0 -237.5 37t-127.5 105.5t-18.5 164t84.5 213.5z
M944 1563l74 125h686l-74 -125h-686z" />
    <glyph glyph-name="umacron" unicode="&#x16b;" horiz-adv-x="1200" 
d="M233 -35q-196 0 -245.5 114.5t57.5 293.5l379 651h168l-373 -643q-90 -160 -70.5 -219.5t152.5 -59.5q88 0 157 20t145 74.5t155.5 154t175.5 255.5l244 418h165l-591 -1024h-154l139 244q-245 -279 -504 -279zM662 1237l73 125h686l-73 -125h-686z" />
    <glyph glyph-name="Uring" unicode="&#x16e;" horiz-adv-x="1349" 
d="M104 487l508 875h179l-494 -854q-55 -94 -79 -162.5t-20.5 -114t35.5 -73t84.5 -38.5t131.5 -11q113 0 190.5 16t150 61t134 121t133.5 201l493 854h179l-531 -916q-102 -177 -204.5 -278t-245 -151t-345.5 -50q-145 0 -237.5 37t-127.5 105.5t-18.5 164t84.5 213.5z
M1161 1622q33 60 96.5 101.5t137.5 41.5q76 0 99 -46.5t-17 -116.5q-35 -60 -98 -101t-136 -41q-77 0 -99.5 46t17.5 116zM1243 1614q-19 -35 -9.5 -55.5t42.5 -20.5t66 20.5t53 55.5q20 34 10 54t-43 20t-66 -20.5t-53 -53.5z" />
    <glyph glyph-name="uring" unicode="&#x16f;" horiz-adv-x="1200" 
d="M233 -35q-196 0 -245.5 114.5t57.5 293.5l379 651h168l-373 -643q-90 -160 -70.5 -219.5t152.5 -59.5q88 0 157 20t145 74.5t155.5 154t175.5 255.5l244 418h165l-591 -1024h-154l139 244q-245 -279 -504 -279zM872 1290q33 60 96.5 102t135.5 42q78 0 101 -47t-17 -117
q-35 -60 -98.5 -101t-137.5 -41q-76 0 -98 46t18 116zM952 1282q-18 -35 -9 -55.5t42 -20.5t67 21t52 55q20 34 10 54t-43 20t-66 -20.5t-53 -53.5z" />
    <glyph glyph-name="Uhungarumlaut" unicode="&#x170;" horiz-adv-x="1349" 
d="M104 487l508 875h179l-494 -854q-55 -94 -79 -162.5t-20.5 -114t35.5 -73t84.5 -38.5t131.5 -11q113 0 190.5 16t150 61t134 121t133.5 201l493 854h179l-531 -916q-102 -177 -204.5 -278t-245 -151t-345.5 -50q-145 0 -237.5 37t-127.5 105.5t-18.5 164t84.5 213.5z
M1030 1544l254 238l88 -101l-297 -184zM1403 1544l252 238l90 -101l-299 -184z" />
    <glyph glyph-name="uhungarumlaut" unicode="&#x171;" horiz-adv-x="1200" 
d="M233 -35q-196 0 -245.5 114.5t57.5 293.5l379 651h168l-373 -643q-90 -160 -70.5 -219.5t152.5 -59.5q88 0 157 20t145 74.5t155.5 154t175.5 255.5l244 418h165l-591 -1024h-154l139 244q-245 -279 -504 -279zM715 1200l254 238l88 -101l-299 -184zM1085 1200l254 238
l88 -101l-297 -184z" />
    <glyph glyph-name="Uogonek" unicode="&#x172;" horiz-adv-x="1349" 
d="M104 487l508 875h179l-494 -854q-55 -94 -79 -162.5t-20.5 -114t35.5 -73t84.5 -38.5t131.5 -11q113 0 190.5 16t150 61t134 121t133.5 201l493 854h179l-531 -916q-108 -188 -220 -293t-265 -149q-32 -25 -58 -72q-31 -63 -8.5 -104t78.5 -41q52 0 109 16l-60 -114
q-58 -23 -121 -23q-107 0 -148.5 81t15.5 179q5 9 35 49q-63 -8 -152 -8q-145 0 -237.5 37t-127.5 105.5t-18.5 164t84.5 213.5z" />
    <glyph glyph-name="uogonek" unicode="&#x173;" horiz-adv-x="1200" 
d="M233 -35q-196 0 -245.5 114.5t57.5 293.5l379 651h168l-373 -643q-90 -160 -70.5 -219.5t152.5 -59.5q88 0 157 20t145 74.5t155.5 154t175.5 255.5l244 418h165l-591 -1024h-78q-33 -30 -53 -68q-31 -63 -9 -104t78 -41q52 0 109 16l-60 -114q-57 -23 -121 -23
q-107 0 -148.5 81t15.5 179q49 86 152 142l100 176q-245 -279 -504 -279z" />
    <glyph glyph-name="Wcircumflex" unicode="&#x174;" horiz-adv-x="1990" 
d="M1235 123l997 1239h181l-1098 -1362h-287l385 1227l-1034 -1227h-287l475 1362h170l-434 -1239l1043 1239h276zM1319 1581l321 162h136l131 -164l-105 -82l-121 162l-315 -162z" />
    <glyph glyph-name="wcircumflex" unicode="&#x175;" horiz-adv-x="1742" 
d="M53 0l277 1024h162l-250 -891l831 891h178l-194 -889l776 889h176l-901 -1024h-234l185 829l-772 -829h-234zM987 1204l311 158h136l131 -166l-105 -80l-121 160l-301 -162z" />
    <glyph glyph-name="Ycircumflex" unicode="&#x176;" horiz-adv-x="1144" 
d="M471 1362h168l-12 -563q-3 -78 -13 -181q97 84 209 185l637 559h203l-1022 -885l-276 -477h-170l276 477v885zM883 1581l321 162h135l131 -164l-104 -82l-121 162l-315 -162z" />
    <glyph glyph-name="ycircumflex" unicode="&#x177;" horiz-adv-x="1097" 
d="M-430 -410l76 134h268l279 276h-56l187 1024h161l-141 -788l-25 -101l93 101l772 788h186l-1171 -1194q-67 -70 -109.5 -108t-94.5 -72t-105 -47t-121 -13h-199zM659 1204l312 158h135l131 -166l-104 -80l-121 160l-301 -162z" />
    <glyph glyph-name="Ydieresis" unicode="&#x178;" horiz-adv-x="1144" 
d="M471 1362h168l-12 -563q-3 -78 -13 -181q97 84 209 185l637 559h203l-1022 -885l-276 -477h-170l276 477v885zM862 1511l99 170h198l-98 -170h-199zM1210 1511l99 170h198l-98 -170h-199z" />
    <glyph glyph-name="Zacute" unicode="&#x179;" horiz-adv-x="1269" 
d="M-219 0l80 137l1523 1088h-884l80 137h1124l-80 -137l-1522 -1088h902l-80 -137h-1143zM1034 1544l430 191l49 -125l-452 -129z" />
    <glyph glyph-name="zacute" unicode="&#x17a;" horiz-adv-x="1073" 
d="M-205 0l72 125l1112 774h-668l72 125h891l-72 -125l-1110 -774h674l-72 -125h-899zM684 1212l430 191l49 -125l-452 -129z" />
    <glyph glyph-name="Zdotaccent" unicode="&#x17b;" horiz-adv-x="1269" 
d="M-219 0l80 137l1523 1088h-884l80 137h1124l-80 -137l-1522 -1088h902l-80 -137h-1143zM1114 1511l98 170h211l-98 -170h-211z" />
    <glyph glyph-name="zdotaccent" unicode="&#x17c;" horiz-adv-x="1073" 
d="M-205 0l72 125l1112 774h-668l72 125h891l-72 -125l-1110 -774h674l-72 -125h-899zM795 1192l98 170h211l-98 -170h-211z" />
    <glyph glyph-name="Zcaron" unicode="&#x17d;" horiz-adv-x="1269" 
d="M-219 0l80 137l1523 1088h-884l80 137h1124l-80 -137l-1522 -1088h902l-80 -137h-1143zM1016 1665l104 80l121 -162l315 162l48 -82l-322 -164h-135z" />
    <glyph glyph-name="zcaron" unicode="&#x17e;" horiz-adv-x="1073" 
d="M-205 0l72 125l1112 774h-668l72 125h891l-72 -125l-1110 -774h674l-72 -125h-899zM666 1311l106 80l119 -160l315 162l47 -84l-321 -164h-135z" />
    <glyph glyph-name="florin" unicode="&#x192;" horiz-adv-x="1021" 
d="M-369 -410l78 134h262l516 892h-225l74 127h225l260 451q72 126 164.5 183t237.5 57h168l-76 -134h-262l-322 -557h225l-71 -127h-228l-452 -786q-74 -126 -167.5 -183t-238.5 -57h-168z" />
    <glyph glyph-name="uni01CD" unicode="&#x1cd;" horiz-adv-x="1337" 
d="M1020 0h-156l68 348h-674l-334 -348h-188l1304 1362h248zM389 485h572l149 754zM1065 1665l104 80l121 -162l316 162l47 -82l-322 -164h-135z" />
    <glyph glyph-name="uni01CE" unicode="&#x1ce;" horiz-adv-x="1255" 
d="M283 -33q-156 0 -231 76.5t-61 209.5t111 302q286 504 727 504q154 0 227 -58.5t64 -173.5l113 197h166l-590 -1024h-160l105 180q-216 -213 -471 -213zM264 522q-133 -230 -105 -327t210 -97q160 0 287.5 81.5t252.5 283.5l54 94q59 111 75.5 186t-9 115.5t-75.5 56.5
t-131 15q-67 -1 -116 -9.5t-106 -33t-107 -68.5t-108.5 -117.5t-121.5 -179.5zM1059 1311l106 80l119 -160l315 162l48 -84l-322 -164h-135z" />
    <glyph glyph-name="uni01CF" unicode="&#x1cf;" horiz-adv-x="966" 
d="M-182 0l80 137h284l629 1088h-287l80 137h748l-80 -137h-283l-629 -1088h285l-80 -137h-747zM860 1665l105 80l120 -162l316 162l47 -82l-322 -164h-135z" />
    <glyph glyph-name="uni01D0" unicode="&#x1d0;" horiz-adv-x="438" 
d="M-158 0l590 1024h172l-590 -1024h-172zM377 1311l106 80l119 -160l316 162l47 -84l-322 -164h-135z" />
    <glyph glyph-name="uni01D1" unicode="&#x1d1;" horiz-adv-x="1538" 
d="M498 -35q-231 0 -339.5 98.5t-92 268t144.5 393.5q96 164 200 285.5t230 210.5t276.5 133.5t325.5 44.5q173 0 278.5 -58.5t136.5 -159.5t1.5 -233.5t-117.5 -285.5q-219 -379 -460 -538t-584 -159zM375 682q-122 -210 -140 -336t57 -179.5t247 -53.5q92 0 164 9
t144.5 33t134.5 64.5t126.5 104t127.5 151.5t132 207q122 210 140 336t-57 179.5t-247 53.5q-111 0 -194.5 -13.5t-168 -49.5t-157.5 -100t-150 -163.5t-159 -242.5zM1102 1665l104 80l121 -162l315 162l48 -82l-322 -164h-135z" />
    <glyph glyph-name="uni01D2" unicode="&#x1d2;" horiz-adv-x="1185" 
d="M324 -33q-170 0 -257.5 71.5t-82 199.5t101.5 294q161 278 349 402.5t444 124.5q157 0 240.5 -70.5t78.5 -202t-104 -303.5q-70 -120 -147.5 -211t-171.5 -161.5t-207.5 -107t-243.5 -36.5zM252 512q-90 -156 -106 -245.5t34 -127t172 -37.5q92 0 159 15t138 58t139 125
t144 212q90 156 106 247.5t-34.5 130t-172.5 38.5q-70 0 -123 -8t-113 -33.5t-112 -70.5t-111 -120.5t-120 -183.5zM745 1311l107 80l119 -160l315 162l47 -84l-321 -164h-135z" />
    <glyph glyph-name="uni01D3" unicode="&#x1d3;" horiz-adv-x="1349" 
d="M104 487l508 875h179l-494 -854q-55 -94 -79 -162.5t-20.5 -114t35.5 -73t84.5 -38.5t131.5 -11q113 0 190.5 16t150 61t134 121t133.5 201l493 854h179l-531 -916q-102 -177 -204.5 -278t-245 -151t-345.5 -50q-145 0 -237.5 37t-127.5 105.5t-18.5 164t84.5 213.5z
M1055 1665l104 80l121 -162l315 162l47 -82l-321 -164h-135z" />
    <glyph glyph-name="uni01D4" unicode="&#x1d4;" horiz-adv-x="1200" 
d="M233 -35q-196 0 -245.5 114.5t57.5 293.5l379 651h168l-373 -643q-90 -160 -70.5 -219.5t152.5 -59.5q88 0 157 20t145 74.5t155.5 154t175.5 255.5l244 418h165l-591 -1024h-154l139 244q-245 -279 -504 -279zM745 1311l107 80l119 -160l315 162l47 -84l-321 -164h-135z
" />
    <glyph glyph-name="uni01D5" unicode="&#x1d5;" horiz-adv-x="1349" 
d="M104 487l508 875h179l-494 -854q-55 -94 -79 -162.5t-20.5 -114t35.5 -73t84.5 -38.5t131.5 -11q113 0 190.5 16t150 61t134 121t133.5 201l493 854h179l-531 -916q-102 -177 -204.5 -278t-245 -151t-345.5 -50q-145 0 -237.5 37t-127.5 105.5t-18.5 164t84.5 213.5z
M985 1511l98 170h199l-98 -170h-199zM1122 1872l74 125h686l-74 -125h-686zM1333 1511l99 170h198l-98 -170h-199z" />
    <glyph glyph-name="uni01D6" unicode="&#x1d6;" horiz-adv-x="1200" 
d="M233 -35q-196 0 -245.5 114.5t57.5 293.5l379 651h168l-373 -643q-90 -160 -70.5 -219.5t152.5 -59.5q88 0 157 20t145 74.5t155.5 154t175.5 255.5l244 418h165l-591 -1024h-154l139 244q-245 -279 -504 -279zM690 1192l98 170h199l-98 -170h-199zM856 1575l74 125h686
l-74 -125h-686zM1067 1192l98 170h197l-98 -170h-197z" />
    <glyph glyph-name="uni01D7" unicode="&#x1d7;" horiz-adv-x="1349" 
d="M104 487l508 875h179l-494 -854q-55 -94 -79 -162.5t-20.5 -114t35.5 -73t84.5 -38.5t131.5 -11q113 0 190.5 16t150 61t134 121t133.5 201l493 854h179l-531 -916q-102 -177 -204.5 -278t-245 -151t-345.5 -50q-145 0 -237.5 37t-127.5 105.5t-18.5 164t84.5 213.5z
M985 1511l98 170h199l-98 -170h-199zM1251 1853l430 191l50 -125l-453 -129zM1333 1511l99 170h198l-98 -170h-199z" />
    <glyph glyph-name="uni01D8" unicode="&#x1d8;" horiz-adv-x="1200" 
d="M233 -35q-196 0 -245.5 114.5t57.5 293.5l379 651h168l-373 -643q-90 -160 -70.5 -219.5t152.5 -59.5q88 0 157 20t145 74.5t155.5 154t175.5 255.5l244 418h165l-591 -1024h-154l139 244q-245 -279 -504 -279zM690 1192l98 170h199l-98 -170h-199zM958 1550l431 191
l49 -125l-453 -129zM1067 1192l98 170h197l-98 -170h-197z" />
    <glyph glyph-name="uni01D9" unicode="&#x1d9;" horiz-adv-x="1349" 
d="M104 487l508 875h179l-494 -854q-55 -94 -79 -162.5t-20.5 -114t35.5 -73t84.5 -38.5t131.5 -11q113 0 190.5 16t150 61t134 121t133.5 201l493 854h179l-531 -916q-102 -177 -204.5 -278t-245 -151t-345.5 -50q-145 0 -237.5 37t-127.5 105.5t-18.5 164t84.5 213.5z
M985 1511l98 170h199l-98 -170h-199zM1233 1974l104 80l121 -162l316 162l47 -82l-322 -164h-135zM1333 1511l99 170h198l-98 -170h-199z" />
    <glyph glyph-name="uni01DA" unicode="&#x1da;" horiz-adv-x="1200" 
d="M233 -35q-196 0 -245.5 114.5t57.5 293.5l379 651h168l-373 -643q-90 -160 -70.5 -219.5t152.5 -59.5q88 0 157 20t145 74.5t155.5 154t175.5 255.5l244 418h165l-591 -1024h-154l139 244q-245 -279 -504 -279zM690 1192l98 170h199l-98 -170h-199zM940 1649l107 80
l118 -160l316 162l47 -84l-322 -164h-135zM1067 1192l98 170h197l-98 -170h-197z" />
    <glyph glyph-name="uni01DB" unicode="&#x1db;" horiz-adv-x="1349" 
d="M104 487l508 875h179l-494 -854q-55 -94 -79 -162.5t-20.5 -114t35.5 -73t84.5 -38.5t131.5 -11q113 0 190.5 16t150 61t134 121t133.5 201l493 854h179l-531 -916q-102 -177 -204.5 -278t-245 -151t-345.5 -50q-145 0 -237.5 37t-127.5 105.5t-18.5 164t84.5 213.5z
M985 1511l98 170h199l-98 -170h-199zM1233 1919l49 125l430 -191l-26 -63zM1333 1511l99 170h198l-98 -170h-199z" />
    <glyph glyph-name="uni01DC" unicode="&#x1dc;" horiz-adv-x="1200" 
d="M233 -35q-196 0 -245.5 114.5t57.5 293.5l379 651h168l-373 -643q-90 -160 -70.5 -219.5t152.5 -59.5q88 0 157 20t145 74.5t155.5 154t175.5 255.5l244 418h165l-591 -1024h-154l139 244q-245 -279 -504 -279zM690 1192l98 170h199l-98 -170h-199zM954 1616l50 125
l430 -191l-27 -63zM1067 1192l98 170h197l-98 -170h-197z" />
    <glyph glyph-name="uni0218" unicode="&#x218;" horiz-adv-x="1282" 
d="M217 467q-111 -193 -63.5 -279t280.5 -86q215 0 320.5 51t193.5 203q61 107 36 166t-142 82l-267 49q-165 30 -202 130.5t53 250.5q210 365 694 365q266 0 351.5 -117t-21.5 -326h-164q42 89 50.5 148t-18.5 95.5t-85.5 51.5t-157.5 15q-185 0 -295.5 -56t-195.5 -200
q-105 -183 82 -219l282 -52q353 -67 150 -422q-69 -121 -159 -196t-224.5 -113.5t-323.5 -38.5q-161 0 -261 37.5t-135 105t-20.5 157t76.5 198.5h166zM-25 -477l62 106h104l68 117h-105l80 137h211l-125 -217q-46 -81 -103 -112t-147 -31h-45z" />
    <glyph glyph-name="uni0219" unicode="&#x219;" horiz-adv-x="1032" 
d="M125 342q-69 -129 -30.5 -189.5t210.5 -60.5q140 0 216.5 36.5t137.5 141.5q44 73 18.5 115.5t-132.5 63.5l-156 28q-131 25 -166 107.5t37 210.5q151 264 543 264q200 0 271 -88t-7 -240h-162q53 104 17 153.5t-174 49.5q-135 0 -212 -37t-133 -133q-17 -29 -21.5 -51.5
t3.5 -44t39 -37.5t84 -27l139 -26q318 -62 150 -351q-81 -139 -210.5 -199.5t-336.5 -60.5q-124 0 -202.5 26.5t-109.5 76t-22 118t57 154.5h152zM-129 -477l61 106h105l67 117h-104l80 137h211l-125 -217q-46 -81 -103 -112t-147 -31h-45z" />
    <glyph glyph-name="uni021A" unicode="&#x21a;" horiz-adv-x="1202" 
d="M215 -2l709 1227h-486l80 137h1147l-80 -137h-483l-709 -1227h-178zM-92 -471l61 106h105l67 117h-104l80 137h211l-125 -217q-46 -81 -103 -112t-147 -31h-45z" />
    <glyph glyph-name="uni021B" unicode="&#x21b;" horiz-adv-x="788" 
d="M154 0q-57 0 -94 17t-50 46t-7.5 66t28.5 78l399 690h-192l51 90l237 51l172 195h97l-121 -209h323l-73 -127h-324l-442 -768h352l-76 -129h-280zM-252 -477l62 106h104l68 117h-105l80 137h211l-125 -217q-46 -81 -103 -112t-147 -31h-45z" />
    <glyph glyph-name="uni0237" unicode="&#x237;" horiz-adv-x="430" 
d="M-651 -410l76 134h258l749 1300h174l-690 -1194q-72 -126 -163.5 -183t-235.5 -57h-168z" />
    <glyph glyph-name="circumflex" unicode="&#x2c6;" horiz-adv-x="704" 
d="M461 1204l311 158h135l131 -166l-104 -80l-121 160l-301 -162z" />
    <glyph glyph-name="caron" unicode="&#x2c7;" horiz-adv-x="710" 
d="M522 1311l107 80l119 -160l315 162l47 -84l-322 -164h-135z" />
    <glyph glyph-name="breve" unicode="&#x2d8;" horiz-adv-x="606" 
d="M651 1362q-25 -51 -5.5 -82t83.5 -31q71 0 119 29t86 84h100q-103 -211 -329 -211q-65 0 -107 19t-56 50t-11 67.5t22 74.5h98z" />
    <glyph glyph-name="dotaccent" unicode="&#x2d9;" horiz-adv-x="333" 
d="M455 1192l98 170h211l-98 -170h-211z" />
    <glyph glyph-name="ring" unicode="&#x2da;" horiz-adv-x="450" 
d="M592 1128q-76 0 -98 46t18 116q33 60 96 102t135 42q77 0 100.5 -47t-16.5 -117q-35 -60 -98 -101t-137 -41zM592 1282q-18 -35 -9 -55.5t42 -20.5t66.5 21t51.5 55q20 34 10.5 54t-42.5 20t-66 -20.5t-53 -53.5z" />
    <glyph glyph-name="ogonek" unicode="&#x2db;" horiz-adv-x="514" 
d="M-143 -334q-107 0 -148.5 81t15.5 179q27 46 65 81.5t82.5 58t80 35.5t79.5 24l-2 -53q-63 -28 -102.5 -59t-67.5 -81q-31 -63 -9 -104t78 -41q52 0 109 16l-60 -114q-57 -23 -120 -23z" />
    <glyph glyph-name="tilde" unicode="&#x2dc;" horiz-adv-x="714" 
d="M897 1180q-39 0 -85.5 22.5t-86 45t-63.5 22.5q-45 0 -66 -43l-25 -43h-120l28 51q36 68 93.5 99.5t121.5 31.5q40 0 77 -14.5t60.5 -31.5t50.5 -31.5t48 -14.5q47 0 67 45l23 43h123l-31 -53q-36 -67 -93.5 -98t-121.5 -31z" />
    <glyph glyph-name="hungarumlaut" unicode="&#x2dd;" horiz-adv-x="757" 
d="M801 1337l-299 -184l-43 47l254 238zM829 1200l254 238l88 -101l-297 -184z" />
    <glyph glyph-name="gravecomb" unicode="&#x300;" 
d="M526 1278l49 125l431 -191l-27 -63z" />
    <glyph glyph-name="acutecomb" unicode="&#x301;" 
d="M946 1278l-452 -129l-27 63l430 191z" />
    <glyph glyph-name="uni0302" unicode="&#x302;" 
d="M461 1204l311 158h135l131 -166l-104 -80l-121 160l-301 -162z" />
    <glyph glyph-name="tildecomb" unicode="&#x303;" 
d="M897 1180q-39 0 -85.5 22.5t-86 45t-63.5 22.5q-45 0 -66 -43l-25 -43h-120l28 51q36 68 93.5 99.5t121.5 31.5q40 0 77 -14.5t60.5 -31.5t50.5 -31.5t48 -14.5q47 0 67 45l23 43h123l-31 -53q-36 -67 -93.5 -98t-121.5 -31z" />
    <glyph glyph-name="uni0304" unicode="&#x304;" 
d="M553 1362h686l-74 -125h-686z" />
    <glyph glyph-name="uni0306" unicode="&#x306;" 
d="M651 1362q-25 -51 -5.5 -82t83.5 -31q71 0 119 29t86 84h100q-103 -211 -329 -211q-65 0 -107 19t-56 50t-11 67.5t22 74.5h98z" />
    <glyph glyph-name="uni0307" unicode="&#x307;" 
d="M455 1192l98 170h211l-98 -170h-211z" />
    <glyph glyph-name="uni0308" unicode="&#x308;" 
d="M831 1192l99 170h196l-98 -170h-197zM455 1192l98 170h199l-99 -170h-198z" />
    <glyph glyph-name="uni030A" unicode="&#x30a;" 
d="M592 1128q-76 0 -98 46t18 116q33 60 96 102t135 42q77 0 100.5 -47t-16.5 -117q-35 -60 -98 -101t-137 -41zM592 1282q-18 -35 -9 -55.5t42 -20.5t66.5 21t51.5 55q20 34 10.5 54t-42.5 20t-66 -20.5t-53 -53.5z" />
    <glyph glyph-name="uni030B" unicode="&#x30b;" 
d="M801 1337l-299 -184l-43 47l254 238zM829 1200l254 238l88 -101l-297 -184z" />
    <glyph glyph-name="uni030C" unicode="&#x30c;" 
d="M522 1311l107 80l119 -160l315 162l47 -84l-322 -164h-135z" />
    <glyph glyph-name="uni0312" unicode="&#x312;" 
d="M739 1315l-80 -137h-213l119 206q49 84 109 119t149 35h43l-61 -106h-105l-65 -117h104z" />
    <glyph glyph-name="uni0326" unicode="&#x326;" 
d="M-381 -254l80 137h211l-125 -217q-46 -81 -103 -112t-147 -31h-45l61 106h105l68 117h-105z" />
    <glyph glyph-name="uni0327" unicode="&#x327;" 
d="M-426 -334l68 115h159l84 266h129l-71 -231q-24 -74 -77 -112t-118 -38h-174z" />
    <glyph glyph-name="uni0328" unicode="&#x328;" 
d="M-143 -334q-107 0 -148.5 81t15.5 179q27 46 65 81.5t82.5 58t80 35.5t79.5 24l-2 -53q-63 -28 -102.5 -59t-67.5 -81q-31 -63 -9 -104t78 -41q52 0 109 16l-60 -114q-57 -23 -120 -23z" />
    <glyph glyph-name="uni0394" unicode="&#x394;" horiz-adv-x="1439" 
d="M-188 0l82 141l1208 1221h225l-201 -1221l-82 -141h-1232zM84 137h881l182 1077z" />
    <glyph glyph-name="uni03A9" unicode="&#x3a9;" horiz-adv-x="1632" 
d="M-215 0l78 135h364q-93 37 -129.5 113t-9 203t126.5 297q380 651 1030 651q356 0 437 -183.5t-119 -529.5q-133 -230 -297 -365.5t-375 -185.5h393l-78 -135h-1421zM379 709q-119 -205 -136 -328.5t61 -178.5t257 -55q266 0 460.5 129.5t369.5 432.5q118 205 134 327.5
t-62.5 176t-258.5 53.5q-267 0 -459 -127t-366 -430z" />
    <glyph glyph-name="pi" unicode="&#x3c0;" horiz-adv-x="1413" 
d="M317 895l74 129h1229l-74 -129h-270l-440 -762h256l-76 -133h-180q-122 0 -148 66.5t39 173.5l379 655h-322l-516 -895h-170l516 895h-297z" />
    <glyph glyph-name="Wgrave" unicode="&#x1e80;" horiz-adv-x="1990" 
d="M1235 123l997 1239h181l-1098 -1362h-287l385 1227l-1034 -1227h-287l475 1362h170l-434 -1239l1043 1239h276zM1368 1610l49 125l430 -191l-26 -63z" />
    <glyph glyph-name="wgrave" unicode="&#x1e81;" horiz-adv-x="1742" 
d="M53 0l277 1024h162l-250 -891l831 891h178l-194 -889l776 889h176l-901 -1024h-234l185 829l-772 -829h-234zM1049 1278l49 125l430 -191l-27 -63z" />
    <glyph glyph-name="Wacute" unicode="&#x1e82;" horiz-adv-x="1990" 
d="M1235 123l997 1239h181l-1098 -1362h-287l385 1227l-1034 -1227h-287l475 1362h170l-434 -1239l1043 1239h276zM1386 1544l431 191l49 -125l-453 -129z" />
    <glyph glyph-name="wacute" unicode="&#x1e83;" horiz-adv-x="1742" 
d="M53 0l277 1024h162l-250 -891l831 891h178l-194 -889l776 889h176l-901 -1024h-234l185 829l-772 -829h-234zM1051 1212l430 191l49 -125l-453 -129z" />
    <glyph glyph-name="Wdieresis" unicode="&#x1e84;" horiz-adv-x="1990" 
d="M1235 123l997 1239h181l-1098 -1362h-287l385 1227l-1034 -1227h-287l475 1362h170l-434 -1239l1043 1239h276zM1298 1511l99 170h198l-98 -170h-199zM1647 1511l98 170h199l-99 -170h-198z" />
    <glyph glyph-name="wdieresis" unicode="&#x1e85;" horiz-adv-x="1742" 
d="M53 0l277 1024h162l-250 -891l831 891h178l-194 -889l776 889h176l-901 -1024h-234l185 829l-772 -829h-234zM979 1192l98 170h199l-98 -170h-199zM1356 1192l98 170h197l-99 -170h-196z" />
    <glyph glyph-name="Ygrave" unicode="&#x1ef2;" horiz-adv-x="1144" 
d="M471 1362h168l-12 -563q-3 -78 -13 -181q97 84 209 185l637 559h203l-1022 -885l-276 -477h-170l276 477v885zM932 1610l49 125l430 -191l-27 -63z" />
    <glyph glyph-name="ygrave" unicode="&#x1ef3;" horiz-adv-x="1097" 
d="M-430 -410l76 134h268l279 276h-56l187 1024h161l-141 -788l-25 -101l93 101l772 788h186l-1171 -1194q-67 -70 -109.5 -108t-94.5 -72t-105 -47t-121 -13h-199zM721 1278l49 125l430 -191l-26 -63z" />
    <glyph glyph-name="endash" unicode="&#x2013;" horiz-adv-x="1163" 
d="M109 573h1024l-70 -124h-1024z" />
    <glyph glyph-name="emdash" unicode="&#x2014;" horiz-adv-x="1570" 
d="M111 573h1433l-74 -124h-1433z" />
    <glyph glyph-name="quoteleft" unicode="&#x2018;" horiz-adv-x="352" 
d="M614 1081l-100 -172h-211l172 299q49 84 108 119t148 35h45l-61 -107h-105l-100 -174h104z" />
    <glyph glyph-name="quoteright" unicode="&#x2019;" horiz-adv-x="352" 
d="M465 1190l100 172h211l-172 -299q-49 -84 -108 -119t-148 -35h-45l62 107h104l100 174h-104z" />
    <glyph glyph-name="quotesinglbase" unicode="&#x201a;" horiz-adv-x="352" 
d="M-217 8l100 172h211l-172 -299q-49 -84 -108 -118.5t-148 -34.5h-45l62 106h104l100 174h-104z" />
    <glyph glyph-name="quotedblleft" unicode="&#x201c;" horiz-adv-x="649" 
d="M614 1081l-100 -172h-211l172 299q49 84 108 119t148 35h45l-61 -107h-105l-100 -174h104zM600 909l172 299q49 84 108 119t148 35h45l-61 -107h-105l-100 -174h104l-100 -172h-211z" />
    <glyph glyph-name="quotedblright" unicode="&#x201d;" horiz-adv-x="649" 
d="M762 1190l100 172h211l-172 -299q-49 -84 -108 -119t-148 -35h-45l62 107h104l100 174h-104zM303 909l62 107h104l100 174h-104l100 172h211l-172 -299q-49 -84 -108 -119t-148 -35h-45z" />
    <glyph glyph-name="quotedblbase" unicode="&#x201e;" horiz-adv-x="702" 
d="M-217 8l100 172h211l-172 -299q-49 -84 -108 -118.5t-148 -34.5h-45l62 106h104l100 174h-104zM-27 -272l62 106h104l101 174h-105l101 172h210l-172 -299q-49 -84 -108 -118.5t-148 -34.5h-45z" />
    <glyph glyph-name="dagger" unicode="&#x2020;" horiz-adv-x="1134" 
d="M418 393l381 662h-307l83 147h308l186 324h172l-186 -324h307l-84 -147h-309l-381 -662h-170z" />
    <glyph glyph-name="daggerdbl" unicode="&#x2021;" horiz-adv-x="1136" 
d="M420 393l164 285h-310l86 147h308l155 269h-309l86 147h307l164 285h172l-164 -285h307l-86 -147h-307l-153 -269h307l-86 -147h-307l-164 -285h-170z" />
    <glyph glyph-name="bullet" unicode="&#x2022;" horiz-adv-x="743" 
d="M348 344q-75 0 -115.5 47t-25.5 127q9 71 61 115.5t125 44.5q76 0 116.5 -47t27.5 -125q-11 -72 -62.5 -117t-126.5 -45z" />
    <glyph glyph-name="ellipsis" unicode="&#x2026;" horiz-adv-x="1173" 
d="M-221 0l104 180h213l-104 -180h-213zM188 0l105 180h213l-105 -180h-213zM598 0l104 180h213l-104 -180h-213z" />
    <glyph glyph-name="perthousand" unicode="&#x2030;" horiz-adv-x="2387" 
d="M1421 0l316 543h571l-315 -543h-572zM-188 0l14 25l1948 1214h-600l-246 -422h-572l316 545h1192q119 0 116 -76q-3 -59 -94 -115l-1884 -1171h-190zM569 940h293l172 299h-293zM694 0l314 543h571l-313 -543h-572zM905 123h293l174 301h-295zM1626 123h305l174 301h-303
z" />
    <glyph glyph-name="guilsinglleft" unicode="&#x2039;" horiz-adv-x="839" 
d="M125 518l670 506h235l-741 -545l151 -479h-166l-157 506z" />
    <glyph glyph-name="guilsinglright" unicode="&#x203a;" horiz-adv-x="837" 
d="M721 506l-670 -506h-235l741 545l-151 479h165l158 -506z" />
    <glyph glyph-name="Euro" unicode="&#x20ac;" horiz-adv-x="1824" 
d="M717 -35q-296 0 -407 131t-21 379h-174l71 125h996l-72 -125h-639q-39 -102 -41.5 -172.5t33 -114t102.5 -63t172 -19.5q233 0 411 105t325 332h180q-94 -146 -187 -249.5t-205.5 -179.5t-247 -112.5t-296.5 -36.5zM260 729l74 127h168q194 269 419.5 406t514.5 137
q652 0 391 -545h-180q54 112 65 189t-21 124.5t-101.5 68.5t-182.5 21q-219 0 -391.5 -94t-329.5 -307h643l-74 -127h-995z" />
    <glyph glyph-name="trademark" unicode="&#x2122;" horiz-adv-x="1079" 
d="M1438 1372l-273 -475h-90l203 354l-326 -354h-108l82 354l-205 -354h-90l229 397h-133l-229 -397h-90l229 397h-156l43 78h512l-84 -368l340 368h146z" />
    <glyph glyph-name="arrowleft" unicode="&#x2190;" horiz-adv-x="1589" 
d="M838 1149l-478 -473h1127v-133h-1125l476 -471l-99 -101l-637 639l637 637z" />
    <glyph glyph-name="arrowup" unicode="&#x2191;" horiz-adv-x="1480" 
d="M741 1384l637 -636l-98 -97l-467 471v-1122h-145v1120l-467 -469l-99 97z" />
    <glyph glyph-name="arrowright" unicode="&#x2192;" horiz-adv-x="1589" 
d="M752 1149l98 98l637 -637l-637 -639l-98 101l475 471h-1125v133h1127z" />
    <glyph glyph-name="arrowdown" unicode="&#x2193;" horiz-adv-x="1480" 
d="M741 -51l-639 637l99 96l467 -469v1120h145v-1122l467 471l98 -96z" />
    <glyph glyph-name="uni2196" unicode="&#x2196;" horiz-adv-x="1234" 
d="M1004 887l-664 2l793 -793l-103 -102l-792 792l2 -663h-138v901h902v-137z" />
    <glyph glyph-name="uni2197" unicode="&#x2197;" horiz-adv-x="1234" 
d="M231 887v137h902v-901h-138l2 663l-792 -792l-103 102l793 793z" />
    <glyph glyph-name="uni2198" unicode="&#x2198;" horiz-adv-x="1234" 
d="M231 137l664 -2l-793 793l103 102l792 -792l-2 663h138v-901h-902v137z" />
    <glyph glyph-name="uni2199" unicode="&#x2199;" horiz-adv-x="1234" 
d="M1004 137v-137h-902v901h138l-2 -663l792 792l103 -102l-793 -793z" />
    <glyph glyph-name="partialdiff" unicode="&#x2202;" horiz-adv-x="1171" 
d="M80 518q144 250 346.5 394.5t427.5 144.5q148 0 212 -56t56 -163q55 100 76.5 181.5t11 153.5t-64 129t-150.5 99l84 115q174 -74 238 -187.5t26 -282.5t-182 -417q-205 -355 -417 -508.5t-465 -153.5q-171 0 -248.5 69.5t-62.5 191.5t112 290zM246 512
q-125 -218 -101.5 -315t197.5 -97q172 0 319.5 97t272.5 315q65 111 87 191.5t2 128.5t-71 70t-135 22q-175 0 -310.5 -97t-260.5 -315z" />
    <glyph glyph-name="product" unicode="&#x220f;" horiz-adv-x="1556" 
d="M1966 1526l-84 -148h-250l-1032 -1788h-172l1032 1788h-370l-1033 -1788h-172l1033 1788h-250l84 148h1214z" />
    <glyph glyph-name="summation" unicode="&#x2211;" horiz-adv-x="1314" 
d="M676 1378l84 148h975l-86 -148h-801l86 -819l-991 -821h757l-84 -148h-974l86 148l1036 866z" />
    <glyph glyph-name="minus" unicode="&#x2212;" horiz-adv-x="1169" 
d="M217 573h819l-73 -124h-820z" />
    <glyph glyph-name="radical" unicode="&#x221a;" horiz-adv-x="1949" 
d="M20 -410l164 938h150l-144 -823l1647 1821h533l-86 -148h-400l-1618 -1788h-246z" />
    <glyph glyph-name="infinity" unicode="&#x221e;" horiz-adv-x="1656" 
d="M336 246q-154 0 -201.5 92t39.5 252q69 121 192 202.5t267 81.5q155 0 204 -92t-34 -241q-75 -130 -197.5 -212.5t-269.5 -82.5zM293 563q-29 -50 -36 -89t6 -63t40.5 -36.5t67.5 -12.5q84 0 169 51.5t142 149.5q39 67 37 110.5t-33 64t-86 20.5q-84 0 -168 -49.5
t-139 -145.5zM862 590q67 120 190.5 202t266.5 82q156 0 205 -92.5t-35 -240.5q-75 -130 -197 -212.5t-268 -82.5q-156 0 -203.5 92t41.5 252zM981 563q-29 -50 -36.5 -89t5.5 -63t40 -36.5t67 -12.5q84 0 169 51.5t142 149.5q39 66 37 109.5t-33 64.5t-86 21
q-83 0 -166 -50t-139 -145z" />
    <glyph glyph-name="integral" unicode="&#x222b;" horiz-adv-x="1243" 
d="M-358 -410l86 148h264l1089 1548q95 132 180 186t224 54h178l-86 -148h-264l-1092 -1548q-63 -89 -114 -137t-121.5 -75.5t-167.5 -27.5h-176z" />
    <glyph glyph-name="approxequal" unicode="&#x2248;" horiz-adv-x="1015" 
d="M506 139q-41 0 -73.5 18.5t-54 44.5t-40 52t-41.5 44.5t-49 18.5q-60 0 -103 -75l-55 -99h-119l68 125q52 89 103.5 125.5t115.5 36.5q44 0 77.5 -18.5t54 -44.5t38.5 -52t41 -44.5t51 -18.5q55 0 101 76l53 98h121l-70 -125q-92 -162 -219 -162zM229 594l68 125
q52 89 103.5 125.5t115.5 36.5q44 0 77.5 -18.5t54 -44.5t38.5 -52.5t41 -45t51 -18.5q55 0 101 76l53 99h121l-70 -125q-92 -162 -219 -162q-41 0 -73.5 18.5t-54 44.5t-40 52t-41.5 44.5t-49 18.5q-60 0 -103 -76l-55 -98h-119z" />
    <glyph glyph-name="notequal" unicode="&#x2260;" horiz-adv-x="991" 
d="M27 76l194 209h-170l74 125h213l190 202h-288l73 125h332l186 201h134l-189 -201h178l-71 -125h-224l-188 -202h295l-72 -125h-342l-194 -209h-131z" />
    <glyph glyph-name="lessequal" unicode="&#x2264;" horiz-adv-x="1093" 
d="M1198 926l-72 -127l-800 -137l641 -138l-68 -116l-727 155l47 80h-2l74 125zM-70 143l72 127h817l-71 -127h-818z" />
    <glyph glyph-name="greaterequal" unicode="&#x2265;" horiz-adv-x="1093" 
d="M381 926l727 -158l-66 -115l-53 -90l-909 -155l78 129l790 137l-633 137zM-70 143l72 127h817l-71 -127h-818z" />
    <glyph glyph-name="filledbox" unicode="&#x25a0;" horiz-adv-x="1568" 
d="M102 1362h1364v-1362h-1364v1362z" />
    <glyph glyph-name="triagup" unicode="&#x25b2;" horiz-adv-x="1728" 
d="M864 1362l762 -1362h-1524z" />
    <glyph glyph-name="lozenge" unicode="&#x25ca;" horiz-adv-x="1265" 
d="M510 0l-346 682l346 680h248l344 -680l-344 -682h-248zM332 682l301 -596l303 596l-303 596z" />
    <glyph glyph-name="uni25CF" unicode="&#x25cf;" horiz-adv-x="1640" 
d="M823 -37q-197 0 -363 96t-262 262t-96 363q0 146 56.5 278t153 228t230 152.5t281.5 56.5q146 0 278 -56.5t228 -152.5t152.5 -228t56.5 -278q0 -148 -56.5 -281.5t-152.5 -230t-228 -153t-278 -56.5z" />
    <glyph glyph-name="G.ss03" horiz-adv-x="1568" 
d="M512 -35q-233 0 -346 94.5t-99 266.5t148 405q92 158 196 278t230.5 209t279 135t328.5 46q163 0 268.5 -38t149.5 -108.5t40 -165t-54 -213.5h-174q90 211 32.5 297t-294.5 86q-109 0 -195 -15t-172 -52.5t-161.5 -102.5t-153.5 -165t-158 -240q-90 -155 -122 -266.5
t-6 -180.5t100.5 -101t201.5 -32q157 0 288 51.5t237 146t214 245.5h-612l74 127h610q38 0 63 -8t38.5 -27t7 -53.5t-34.5 -83.5l-289 -498h-156l154 270q-53 -53 -92.5 -89.5t-102.5 -81t-123.5 -71.5t-142.5 -46t-172 -19z" />
    <glyph glyph-name="Gbreve.ss03" horiz-adv-x="1568" 
d="M512 -35q-233 0 -346 94.5t-99 266.5t148 405q92 158 196 278t230.5 209t279 135t328.5 46q163 0 268.5 -38t149.5 -108.5t40 -165t-54 -213.5h-174q90 211 32.5 297t-294.5 86q-109 0 -195 -15t-172 -52.5t-161.5 -102.5t-153.5 -165t-158 -240q-90 -155 -122 -266.5
t-6 -180.5t100.5 -101t201.5 -32q157 0 288 51.5t237 146t214 245.5h-612l74 127h610q38 0 63 -8t38.5 -27t7 -53.5t-34.5 -83.5l-289 -498h-156l154 270q-53 -53 -92.5 -89.5t-102.5 -81t-123.5 -71.5t-142.5 -46t-172 -19zM1237 1720h98q-26 -51 -6.5 -81.5t82.5 -30.5
q130 0 207 112h98q-103 -211 -327 -211q-53 0 -91 13t-56.5 34t-25 48.5t-0.5 56.5t21 59z" />
    <glyph glyph-name="uni0122.ss03" horiz-adv-x="1568" 
d="M512 -35q-233 0 -346 94.5t-99 266.5t148 405q92 158 196 278t230.5 209t279 135t328.5 46q163 0 268.5 -38t149.5 -108.5t40 -165t-54 -213.5h-174q90 211 32.5 297t-294.5 86q-109 0 -195 -15t-172 -52.5t-161.5 -102.5t-153.5 -165t-158 -240q-90 -155 -122 -266.5
t-6 -180.5t100.5 -101t201.5 -32q157 0 288 51.5t237 146t214 245.5h-612l74 127h610q38 0 63 -8t38.5 -27t7 -53.5t-34.5 -83.5l-289 -498h-156l154 270q-53 -53 -92.5 -89.5t-102.5 -81t-123.5 -71.5t-142.5 -46t-172 -19zM106 -477l62 106h104l68 117h-104l79 137h211
l-125 -217q-46 -81 -103 -112t-146 -31h-46z" />
    <glyph glyph-name="Gdotaccent.ss03" horiz-adv-x="1568" 
d="M512 -35q-233 0 -346 94.5t-99 266.5t148 405q92 158 196 278t230.5 209t279 135t328.5 46q163 0 268.5 -38t149.5 -108.5t40 -165t-54 -213.5h-174q90 211 32.5 297t-294.5 86q-109 0 -195 -15t-172 -52.5t-161.5 -102.5t-153.5 -165t-158 -240q-90 -155 -122 -266.5
t-6 -180.5t100.5 -101t201.5 -32q157 0 288 51.5t237 146t214 245.5h-612l74 127h610q38 0 63 -8t38.5 -27t7 -53.5t-34.5 -83.5l-289 -498h-156l154 270q-53 -53 -92.5 -89.5t-102.5 -81t-123.5 -71.5t-142.5 -46t-172 -19zM1249 1511l99 170h211l-99 -170h-211z" />
    <glyph glyph-name="Q.ss03" horiz-adv-x="1529" 
d="M467 -35q-164 0 -265.5 52.5t-134 147.5t-3 227t121.5 290q198 342 467.5 529.5t614.5 187.5q154 0 252.5 -55t132.5 -151t8 -228t-113 -283q-141 -242 -301.5 -401.5t-355.5 -239.5l22 -191l-168 -49l-24 189q-125 -25 -254 -25zM367 682q-167 -287 -133 -431.5
t274 -144.5q93 0 197 17l-39 311l170 51l38 -309q139 62 257 184.5t237 321.5q118 200 136 328t-58.5 187.5t-245.5 59.5q-262 0 -460.5 -136.5t-372.5 -438.5z" />
    <glyph glyph-name="R.ss03" horiz-adv-x="1333" 
d="M-152 0l787 1362h575q205 0 277.5 -115.5t-25.5 -285.5q-100 -174 -252.5 -262.5t-378.5 -88.5h-18l-78 -471h273l-82 -139h-256q-67 0 -91 22t-14 82l90 506h-282l-353 -610h-172zM446 737h377q182 0 290.5 60t182.5 190q137 238 -178 238h-391z" />
    <glyph glyph-name="Racute.ss03" horiz-adv-x="1333" 
d="M-152 0l787 1362h575q205 0 277.5 -115.5t-25.5 -285.5q-100 -174 -252.5 -262.5t-378.5 -88.5h-18l-78 -471h273l-82 -139h-256q-67 0 -91 22t-14 82l90 506h-282l-353 -610h-172zM446 737h377q182 0 290.5 60t182.5 190q137 238 -178 238h-391zM1065 1544l430 191
l49 -125l-452 -129z" />
    <glyph glyph-name="Rcaron.ss03" horiz-adv-x="1333" 
d="M-152 0l787 1362h575q205 0 277.5 -115.5t-25.5 -285.5q-100 -174 -252.5 -262.5t-378.5 -88.5h-18l-78 -471h273l-82 -139h-256q-67 0 -91 22t-14 82l90 506h-282l-353 -610h-172zM446 737h377q182 0 290.5 60t182.5 190q137 238 -178 238h-391zM1047 1665l104 80
l121 -162l315 162l47 -82l-321 -164h-135z" />
    <glyph glyph-name="uni0156.ss03" horiz-adv-x="1333" 
d="M-152 0l787 1362h575q205 0 277.5 -115.5t-25.5 -285.5q-100 -174 -252.5 -262.5t-378.5 -88.5h-18l-78 -471h273l-82 -139h-256q-67 0 -91 22t-14 82l90 506h-282l-353 -610h-172zM2 -477l61 106h105l68 117h-105l80 137h211l-125 -217q-46 -81 -103 -112t-147 -31h-45z
M446 737h377q182 0 290.5 60t182.5 190q137 238 -178 238h-391z" />
    <glyph glyph-name="i.loclTRK" horiz-adv-x="438" 
d="M-158 0l590 1024h172l-590 -1024h-172zM506 1192l98 170h211l-98 -170h-211z" />
    <glyph glyph-name="uni01CE.ss001" horiz-adv-x="1255" 
d="M283 -33q-156 0 -231 76.5t-61 209.5t111 302q286 504 727 504q154 0 227 -58.5t64 -173.5l113 197h166l-590 -1024h-160l105 180q-216 -213 -471 -213zM264 522q-133 -230 -105 -327t210 -97q160 0 287.5 81.5t252.5 283.5l54 94q59 111 75.5 186t-9 115.5t-75.5 56.5
t-131 15q-67 -1 -116 -9.5t-106 -33t-107 -68.5t-108.5 -117.5t-121.5 -179.5zM725 1311l106 80l119 -160l316 162l47 -84l-322 -164h-135z" />
    <glyph glyph-name="a.ss01" horiz-adv-x="1255" 
d="M283 -33q-156 0 -231 76.5t-61 209.5t111 302q286 504 727 504q154 0 227 -58.5t64 -173.5l113 197h166l-590 -1024h-160l105 180q-216 -213 -471 -213zM264 522q-133 -230 -105 -327t210 -97q160 0 287.5 81.5t252.5 283.5l54 94q59 111 75.5 186t-9 115.5t-75.5 56.5
t-131 15q-67 -1 -116 -9.5t-106 -33t-107 -68.5t-108.5 -117.5t-121.5 -179.5z" />
    <glyph glyph-name="aacute.ss01" horiz-adv-x="1255" 
d="M283 -33q-156 0 -231 76.5t-61 209.5t111 302q286 504 727 504q154 0 227 -58.5t64 -173.5l113 197h166l-590 -1024h-160l105 180q-216 -213 -471 -213zM264 522q-133 -230 -105 -327t210 -97q160 0 287.5 81.5t252.5 283.5l54 94q59 111 75.5 186t-9 115.5t-75.5 56.5
t-131 15q-67 -1 -116 -9.5t-106 -33t-107 -68.5t-108.5 -117.5t-121.5 -179.5zM743 1212l431 191l49 -125l-453 -129z" />
    <glyph glyph-name="abreve.ss01" horiz-adv-x="1255" 
d="M283 -33q-156 0 -231 76.5t-61 209.5t111 302q286 504 727 504q154 0 227 -58.5t64 -173.5l113 197h166l-590 -1024h-160l105 180q-216 -213 -471 -213zM264 522q-133 -230 -105 -327t210 -97q160 0 287.5 81.5t252.5 283.5l54 94q59 111 75.5 186t-9 115.5t-75.5 56.5
t-131 15q-67 -1 -116 -9.5t-106 -33t-107 -68.5t-108.5 -117.5t-121.5 -179.5zM817 1362h98q-25 -51 -5.5 -82t83.5 -31q71 0 119 29t86 84h100q-103 -211 -329 -211q-65 0 -107 19t-56 50t-11 67.5t22 74.5z" />
    <glyph glyph-name="acircumflex.ss01" horiz-adv-x="1255" 
d="M283 -33q-156 0 -231 76.5t-61 209.5t111 302q286 504 727 504q154 0 227 -58.5t64 -173.5l113 197h166l-590 -1024h-160l105 180q-216 -213 -471 -213zM264 522q-133 -230 -105 -327t210 -97q160 0 287.5 81.5t252.5 283.5l54 94q59 111 75.5 186t-9 115.5t-75.5 56.5
t-131 15q-67 -1 -116 -9.5t-106 -33t-107 -68.5t-108.5 -117.5t-121.5 -179.5zM680 1204l311 158h135l131 -166l-104 -80l-121 160l-301 -162z" />
    <glyph glyph-name="adieresis.ss01" horiz-adv-x="1255" 
d="M283 -33q-156 0 -231 76.5t-61 209.5t111 302q286 504 727 504q154 0 227 -58.5t64 -173.5l113 197h166l-590 -1024h-160l105 180q-216 -213 -471 -213zM264 522q-133 -230 -105 -327t210 -97q160 0 287.5 81.5t252.5 283.5l54 94q59 111 75.5 186t-9 115.5t-75.5 56.5
t-131 15q-67 -1 -116 -9.5t-106 -33t-107 -68.5t-108.5 -117.5t-121.5 -179.5zM672 1192l98 170h199l-99 -170h-198zM1049 1192l98 170h196l-98 -170h-196z" />
    <glyph glyph-name="agrave.ss01" horiz-adv-x="1255" 
d="M283 -33q-156 0 -231 76.5t-61 209.5t111 302q286 504 727 504q154 0 227 -58.5t64 -173.5l113 197h166l-590 -1024h-160l105 180q-216 -213 -471 -213zM264 522q-133 -230 -105 -327t210 -97q160 0 287.5 81.5t252.5 283.5l54 94q59 111 75.5 186t-9 115.5t-75.5 56.5
t-131 15q-67 -1 -116 -9.5t-106 -33t-107 -68.5t-108.5 -117.5t-121.5 -179.5zM741 1278l50 125l430 -191l-27 -63z" />
    <glyph glyph-name="amacron.ss01" horiz-adv-x="1255" 
d="M283 -33q-156 0 -231 76.5t-61 209.5t111 302q286 504 727 504q154 0 227 -58.5t64 -173.5l113 197h166l-590 -1024h-160l105 180q-216 -213 -471 -213zM264 522q-133 -230 -105 -327t210 -97q160 0 287.5 81.5t252.5 283.5l54 94q59 111 75.5 186t-9 115.5t-75.5 56.5
t-131 15q-67 -1 -116 -9.5t-106 -33t-107 -68.5t-108.5 -117.5t-121.5 -179.5zM641 1237l74 125h686l-74 -125h-686z" />
    <glyph glyph-name="aogonek.ss01" horiz-adv-x="1255" 
d="M283 -33q-156 0 -231 76.5t-61 209.5t111 302q286 504 727 504q154 0 227 -58.5t64 -173.5l113 197h166l-590 -1024h-78q-33 -30 -53 -68q-31 -63 -8.5 -104t78.5 -41q51 0 108 16l-59 -114q-58 -23 -121 -23q-107 0 -148.5 81t15.5 179q50 84 143 137l68 117
q-216 -213 -471 -213zM264 522q-133 -230 -105 -327t210 -97q160 0 287.5 81.5t252.5 283.5l54 94q59 111 75.5 186t-9 115.5t-75.5 56.5t-131 15q-67 -1 -116 -9.5t-106 -33t-107 -68.5t-108.5 -117.5t-121.5 -179.5z" />
    <glyph glyph-name="aring.ss01" horiz-adv-x="1255" 
d="M283 -33q-156 0 -231 76.5t-61 209.5t111 302q286 504 727 504q154 0 227 -58.5t64 -173.5l113 197h166l-590 -1024h-160l105 180q-216 -213 -471 -213zM264 522q-133 -230 -105 -327t210 -97q160 0 287.5 81.5t252.5 283.5l54 94q59 111 75.5 186t-9 115.5t-75.5 56.5
t-131 15q-67 -1 -116 -9.5t-106 -33t-107 -68.5t-108.5 -117.5t-121.5 -179.5zM854 1290q33 60 96 102t135 42q77 0 100.5 -47t-16.5 -117q-35 -60 -98 -101t-137 -41q-76 0 -98 46t18 116zM934 1282q-18 -35 -9 -55.5t42 -20.5t66.5 21t51.5 55q20 34 10.5 54t-42.5 20
t-66 -20.5t-53 -53.5z" />
    <glyph glyph-name="atilde.ss01" horiz-adv-x="1255" 
d="M283 -33q-156 0 -231 76.5t-61 209.5t111 302q286 504 727 504q154 0 227 -58.5t64 -173.5l113 197h166l-590 -1024h-160l105 180q-216 -213 -471 -213zM264 522q-133 -230 -105 -327t210 -97q160 0 287.5 81.5t252.5 283.5l54 94q59 111 75.5 186t-9 115.5t-75.5 56.5
t-131 15q-67 -1 -116 -9.5t-106 -33t-107 -68.5t-108.5 -117.5t-121.5 -179.5zM662 1184l28 51q36 68 93.5 99.5t121.5 31.5q40 0 77 -14.5t60.5 -31.5t50.5 -31.5t48 -14.5q47 0 67 45l23 43h123l-31 -53q-36 -67 -93.5 -98t-121.5 -31q-39 0 -85.5 22.5t-86.5 45t-64 22.5
q-44 0 -65 -43l-25 -43h-120z" />
    <glyph glyph-name="g.ss02" horiz-adv-x="1081" 
d="M416 295h-176q-130 0 -185 -94q-24 -41 -8.5 -64.5t62.5 -23.5h385q151 0 193 -74t-30 -197q-49 -85 -125 -143.5t-212.5 -95.5t-325.5 -37q-116 0 -194 19t-114.5 55t-36.5 87t38 117q37 68 108.5 119.5t141.5 71.5q-38 19 -43 60t26 95q45 79 120.5 124t158.5 51
q-150 87 -21 309q209 362 627 362q129 0 188 -46.5t56 -119.5l90 154h147l-209 -360q0 -1 -1 -2.5t-1 -2.5q-211 -364 -659 -364zM-160 -150q-55 -92 -3 -133t220 -41q185 0 287.5 41t151.5 127q39 68 17 104t-101 36h-361q-57 0 -116 -34.5t-95 -99.5zM326 664
q-42 -73 -50.5 -122t16 -76t70.5 -38.5t121 -11.5q153 0 257.5 56t183.5 194q52 88 46 144t-56 82t-142 26q-95 0 -172 -22.5t-148.5 -80.5t-125.5 -151z" />
    <glyph glyph-name="gbreve.ss02" horiz-adv-x="1081" 
d="M416 295h-176q-130 0 -185 -94q-24 -41 -8.5 -64.5t62.5 -23.5h385q151 0 193 -74t-30 -197q-49 -85 -125 -143.5t-212.5 -95.5t-325.5 -37q-116 0 -194 19t-114.5 55t-36.5 87t38 117q37 68 108.5 119.5t141.5 71.5q-38 19 -43 60t26 95q45 79 120.5 124t158.5 51
q-150 87 -21 309q209 362 627 362q129 0 188 -46.5t56 -119.5l90 154h147l-209 -360q0 -1 -1 -2.5t-1 -2.5q-211 -364 -659 -364zM-160 -150q-55 -92 -3 -133t220 -41q185 0 287.5 41t151.5 127q39 68 17 104t-101 36h-361q-57 0 -116 -34.5t-95 -99.5zM326 664
q-42 -73 -50.5 -122t16 -76t70.5 -38.5t121 -11.5q153 0 257.5 56t183.5 194q52 88 46 144t-56 82t-142 26q-95 0 -172 -22.5t-148.5 -80.5t-125.5 -151zM774 1362h98q-25 -51 -5.5 -82t83.5 -31q71 0 119 29t86 84h100q-103 -211 -329 -211q-65 0 -107 19t-56 50t-11 67.5
t22 74.5z" />
    <glyph glyph-name="uni0123.ss02" horiz-adv-x="1081" 
d="M416 295h-176q-130 0 -185 -94q-24 -41 -8.5 -64.5t62.5 -23.5h385q151 0 193 -74t-30 -197q-49 -85 -125 -143.5t-212.5 -95.5t-325.5 -37q-116 0 -194 19t-114.5 55t-36.5 87t38 117q37 68 108.5 119.5t141.5 71.5q-38 19 -43 60t26 95q45 79 120.5 124t158.5 51
q-150 87 -21 309q209 362 627 362q129 0 188 -46.5t56 -119.5l90 154h147l-209 -360q0 -1 -1 -2.5t-1 -2.5q-211 -364 -659 -364zM-160 -150q-55 -92 -3 -133t220 -41q185 0 287.5 41t151.5 127q39 68 17 104t-101 36h-361q-57 0 -116 -34.5t-95 -99.5zM326 664
q-42 -73 -50.5 -122t16 -76t70.5 -38.5t121 -11.5q153 0 257.5 56t183.5 194q52 88 46 144t-56 82t-142 26q-95 0 -172 -22.5t-148.5 -80.5t-125.5 -151zM809 1178l119 206q49 84 109 119t149 35h43l-62 -106h-104l-66 -117h105l-80 -137h-213z" />
    <glyph glyph-name="gdotaccent.ss02" horiz-adv-x="1081" 
d="M416 295h-176q-130 0 -185 -94q-24 -41 -8.5 -64.5t62.5 -23.5h385q151 0 193 -74t-30 -197q-49 -85 -125 -143.5t-212.5 -95.5t-325.5 -37q-116 0 -194 19t-114.5 55t-36.5 87t38 117q37 68 108.5 119.5t141.5 71.5q-38 19 -43 60t26 95q45 79 120.5 124t158.5 51
q-150 87 -21 309q209 362 627 362q129 0 188 -46.5t56 -119.5l90 154h147l-209 -360q0 -1 -1 -2.5t-1 -2.5q-211 -364 -659 -364zM-160 -150q-55 -92 -3 -133t220 -41q185 0 287.5 41t151.5 127q39 68 17 104t-101 36h-361q-57 0 -116 -34.5t-95 -99.5zM326 664
q-42 -73 -50.5 -122t16 -76t70.5 -38.5t121 -11.5q153 0 257.5 56t183.5 194q52 88 46 144t-56 82t-142 26q-95 0 -172 -22.5t-148.5 -80.5t-125.5 -151zM811 1192l98 170h211l-98 -170h-211z" />
    <glyph glyph-name="r_t.dlig" horiz-adv-x="1404" 
d="M782 0q-73 0 -113.5 14t-50.5 45t3.5 74t50.5 107l444 770l217 241h90l-131 -227h350l-75 -129h-350l-441 -762h336l-76 -133h-254zM-143 0l589 1024h168l-104 -180q204 192 483 192h37l-92 -162h-55q-69 2 -127 -7t-105 -24.5t-91 -48t-79 -67t-76 -92t-75 -112
t-82 -138.5l-223 -385h-168z" />
    <glyph glyph-name="r_t_t.dlig" horiz-adv-x="2058" 
d="M782 0q-73 0 -113.5 14t-50.5 45t3.5 74t50.5 107l444 770l217 241h90l-131 -227h506l203 227h90l-131 -227h336l-76 -129h-336l-440 -762h323l-77 -133h-240q-143 0 -164.5 58.5t55.5 181.5l377 655h-501l-441 -762h324l-78 -133h-240zM-143 0l589 1024h168l-104 -180
q204 192 483 192h37l-92 -162h-55q-69 2 -127 -7t-105 -24.5t-91 -48t-79 -67t-76 -92t-75 -112t-82 -138.5l-223 -385h-168z" />
    <glyph glyph-name="asterisk.case" horiz-adv-x="1562" 
d="M416 0l100 174l324 463l-500 -365l-195 -122l-49 112l193 123l540 281l-491 -50h-174l76 129h174l444 -49l-201 295l-53 123l129 70l51 -121l101 -348l217 473l100 174h148l-101 -174l-329 -469l507 366l195 123l51 -108l-192 -123l-549 -281l495 49h175l-76 -129h-174
l-443 50l207 -293l53 -123l-133 -80l-51 123l-106 358l-215 -477l-101 -174h-147z" />
    <glyph glyph-name="sterling.ss01" horiz-adv-x="1140" 
d="M391 522l-227 -393h473l-74 -129h-813l74 129h168l227 393h-143l74 129h145l88 152h-145l73 129h146l151 262q72 126 164 183t236 57h340l-78 -134h-430l-213 -368h329l-73 -129h-330l-86 -152h328l-76 -129h-328z" />
    <glyph glyph-name="percent.ss04" horiz-adv-x="1597" 
d="M-135 0l12 25l1843 1337h178l-14 -25l-1835 -1337h-184zM467 1137q65 112 169.5 187t242.5 75q148 0 188.5 -88.5t-39.5 -225.5q-67 -114 -170.5 -188t-241.5 -74q-148 0 -189 88t40 226zM598 1112q-49 -89 -35.5 -126.5t90.5 -37.5t135.5 38.5t108.5 125.5
q50 91 36 127.5t-91 36.5q-76 0 -134.5 -38t-109.5 -126zM788 303q63 110 168.5 185t243.5 75q147 0 187.5 -88t-37.5 -223q-68 -115 -172 -189.5t-242 -74.5q-149 0 -189.5 88t41.5 227zM920 276q-50 -89 -36.5 -126t89.5 -37q77 0 137 38t111 125q49 91 34 127.5t-92 36.5
q-76 0 -135 -38t-108 -126z" />
    <glyph glyph-name="uni2197.case" horiz-adv-x="1234" 
d="M231 1225v137h902v-901h-138l2 663l-792 -792l-103 102l793 793z" />
    <glyph glyph-name="uni2196.case" horiz-adv-x="1234" 
d="M1004 1225l-664 2l793 -793l-103 -102l-792 792l2 -663h-138v901h902v-137z" />
    <glyph glyph-name="uni0308.case" 
d="M987 1511l98 170h199l-98 -170h-199zM639 1511l98 170h199l-98 -170h-199z" />
    <glyph glyph-name="uni0307.case" 
d="M639 1511l98 170h211l-98 -170h-211z" />
    <glyph glyph-name="gravecomb.case" 
d="M717 1610l49 125l430 -191l-27 -63z" />
    <glyph glyph-name="acutecomb.case" 
d="M1137 1610l-453 -129l-27 63l430 191z" />
    <glyph glyph-name="uni030B.case" 
d="M999 1681l-297 -184l-45 47l254 238zM1030 1544l252 238l90 -101l-299 -184z" />
    <glyph glyph-name="uni0302.case" 
d="M678 1581l321 162h136l131 -164l-105 -82l-121 162l-315 -162z" />
    <glyph glyph-name="uni030C.case" 
d="M727 1665l104 80l121 -162l316 162l47 -82l-322 -164h-135z" />
    <glyph glyph-name="uni0306.case" 
d="M858 1720q-26 -51 -6.5 -81.5t82.5 -30.5q130 0 207 112h98q-103 -211 -328 -211q-53 0 -90.5 13t-56.5 34t-25 48.5t0 56.5t21 59h98z" />
    <glyph glyph-name="uni030A.case" 
d="M784 1460q-77 0 -99.5 46t17.5 116q33 60 96.5 101.5t137.5 41.5q76 0 99 -46.5t-17 -116.5q-35 -60 -98 -101t-136 -41zM784 1614q-19 -35 -9.5 -55.5t42.5 -20.5t66 20.5t53 55.5q20 34 10 54t-43 20t-66 -20.5t-53 -53.5z" />
    <glyph glyph-name="tildecomb.case" 
d="M1104 1536q-39 0 -85.5 23t-86.5 46t-64 23q-45 0 -65 -45l-25 -43h-121l29 53q36 67 94 99t121 32q40 0 77 -14.5t60.5 -31.5t50.5 -31.5t48 -14.5q47 0 67 45l23 43h123l-31 -53q-36 -67 -94 -99t-121 -32z" />
    <glyph glyph-name="uni0304.case" 
d="M741 1688h686l-73 -125h-686z" />
    <glyph glyph-name="uni0312.case" 
d="M928 1645l-101 -172h-211l146 251q49 84 109 119t149 35h43l-62 -106h-104l-74 -127h105z" />
    </font>
</defs>
</svg>
