<?xml version="1.0" standalone="no"?>
<!DOCTYPE svg PUBLIC "-//W3C//DTD SVG 1.1//EN" "http://www.w3.org/Graphics/SVG/1.1/DTD/svg11.dtd" >
<svg xmlns="http://www.w3.org/2000/svg" xmlns:xlink="http://www.w3.org/1999/xlink" version="1.1">
<metadata>
Created by FontForge 20170731 at Mon Jul 17 14:58:49 2023
 By Aleksey,,,
Copyright (c) 2019 by Nick Losacco. All rights reserved.
</metadata>
<defs>
<font id="PPTelegraf-UltraboldSlanted" horiz-adv-x="0" >
  <font-face 
    font-family="PP Telegraf Ultrabold"
    font-weight="800"
    font-style="oblique"
    font-stretch="normal"
    units-per-em="2048"
    panose-1="0 0 0 0 0 0 0 0 0 0"
    ascent="1638"
    descent="-410"
    x-height="1024"
    cap-height="1362"
    bbox="-451 -610 2515 2079"
    underline-thickness="61"
    underline-position="-255"
    slope="-15"
    unicode-range="U+0020-25CF"
  />
<missing-glyph horiz-adv-x="921" 
d="M756 1434v-1844h-584v1844h584zM307 -283h307v62h-188l129 86h59v61h-307v-61h129l-129 -86v-62zM307 -31h307v207h-307v-207zM307 287h307v209h-184v-103h62v41h61v-86h-184v148h-62v-209zM307 537h307v184h-61v-123h-246v-61zM307 641h185v129h122v61h-307v-61h123v-68
h-123v-61zM307 881h307v63h-122v129h-185v-192zM307 1120h307v62h-122v67h122v62h-305v-62h121v-67h-123v-62zM369 29v88h184v-88h-184zM369 944v66h61v-66h-61z" />
    <glyph glyph-name="f_f.liga" unicode="ff" horiz-adv-x="1568" 
d="M59 0l220 760h-187l49 164l215 102l19 68q46 161 160 250.5t301 89.5h223l-72 -254h-289l-45 -156h422l15 53q102 357 464 357h281l-74 -254h-344l-45 -156h295l-78 -264h-237l-219 -760h-353l219 760h-368l-219 -760h-353z" />
    <glyph glyph-name="f_f_i.liga" unicode="ffi" horiz-adv-x="2058" 
d="M780 0l219 760h-368l-219 -760h-353l220 760h-187l49 164l215 102l19 68q46 161 160 250.5t301 89.5h223l-72 -254h-289l-45 -156h422l15 53q102 357 464 357h674l-71 -254h-740l-45 -156h268l-75 -264h-213l-219 -760h-353zM1466 0l295 1024h353l-295 -1024h-353z" />
    <glyph glyph-name="f_f_j.liga" unicode="ffj" horiz-adv-x="2064" 
d="M780 0l219 760h-368l-217 -760h-353l218 760h-187l49 164l215 102l19 68q46 161 160 250.5t301 89.5h225l-74 -254h-289l-45 -156h424l15 53q102 357 464 357h674l-73 -254h-740l-45 -156h268l-75 -264h-213l-219 -760h-353zM1051 -410l79 279h308l331 1155h353
l-297 -1030q-59 -206 -182.5 -305t-350.5 -99h-241z" />
    <glyph glyph-name="f_f_l.liga" unicode="ffl" horiz-adv-x="2105" 
d="M59 0l220 760h-187l49 164l215 102l19 68q46 161 160 250.5t301 89.5h223l-72 -254h-289l-45 -156h422l17 53q102 357 464 357h711l-414 -1434h-352l340 1180h-422l-45 -156h268l-75 -264h-215l-219 -760h-353l219 760h-368l-219 -760h-353z" />
    <glyph glyph-name="f_f_t.liga" unicode="fft" horiz-adv-x="2273" 
d="M59 0l220 760h-187l49 164l215 102l19 68q46 161 160 250.5t301 89.5h223l-72 -254h-289l-45 -156h418l4 2l21 68q45 161 158 250.5t300 89.5h211l-71 -254h-277l-45 -156h397l211 248h181l-72 -248h278l-75 -264h-279l-139 -481h246l-80 -279h-189q-153 0 -231.5 46
t-90 135.5t26.5 221.5l109 371h-309l-223 -774h-353l224 774h-367l-225 -774h-353z" />
    <glyph glyph-name="f_i.liga" unicode="fi" horiz-adv-x="1363" 
d="M59 0l220 760h-187l49 164l215 102l15 51q102 357 465 357h673l-73 -254h-738l-45 -156h269l-76 -264h-215l-219 -760h-353zM750 0l294 1024h355l-295 -1024h-354z" />
    <glyph glyph-name="f_j.liga" unicode="fj" horiz-adv-x="1409" 
d="M61 0l218 760h-187l49 164l215 102l19 68q46 161 160 250.5t301 89.5h739l-74 -254h-803l-45 -156h338l-78 -264h-282l-217 -760h-353zM395 -410l80 279h307l332 1155h352l-297 -1030q-59 -206 -182 -305t-350 -99h-242z" />
    <glyph glyph-name="f_l.liga" unicode="fl" horiz-adv-x="1384" 
d="M59 0l220 760h-187l49 164l215 102l15 51q102 357 465 357h710l-413 -1434h-353l340 1180h-422l-45 -156h269l-76 -264h-215l-219 -760h-353z" />
    <glyph glyph-name="f_t.liga" unicode="ft" horiz-adv-x="1554" 
d="M59 0l220 760h-187l49 164l215 102l19 68q46 161 160 250.5t301 89.5h211l-74 -254h-275l-45 -156h398l211 248h180l-72 -248h279l-78 -264h-279l-139 -481h246l-80 -279h-186q-154 0 -232.5 46t-89.5 135.5t27 221.5l108 371h-309l-225 -774h-353z" />
    <glyph glyph-name="t_t.liga" unicode="tt" horiz-adv-x="1613" 
d="M455 0q-154 0 -232.5 46t-89.5 135.5t27 221.5l102 357h-180l47 164l236 92l219 256h180l-72 -248h418l211 248h180l-71 -248h278l-78 -264h-278l-140 -481h246l-80 -279h-186q-154 0 -232.5 46t-89.5 135.5t27 221.5l107 371h-386l-143 -495h246l-80 -279h-186z" />
    <glyph glyph-name=".notdef" horiz-adv-x="921" 
d="M756 1434v-1844h-584v1844h584zM307 -283h307v62h-188l129 86h59v61h-307v-61h129l-129 -86v-62zM307 -31h307v207h-307v-207zM307 287h307v209h-184v-103h62v41h61v-86h-184v148h-62v-209zM307 537h307v184h-61v-123h-246v-61zM307 641h185v129h122v61h-307v-61h123v-68
h-123v-61zM307 881h307v63h-122v129h-185v-192zM307 1120h307v62h-122v67h122v62h-305v-62h121v-67h-123v-62zM369 29v88h184v-88h-184zM369 944v66h61v-66h-61z" />
    <glyph glyph-name=".null" 
 />
    <glyph glyph-name="nonmarkingreturn" horiz-adv-x="682" 
 />
    <glyph glyph-name="space" unicode=" " horiz-adv-x="526" 
 />
    <glyph glyph-name="space" unicode="&#xa0;" horiz-adv-x="526" 
 />
    <glyph glyph-name="exclam" unicode="!" horiz-adv-x="550" 
d="M145 461l199 901h356l-321 -901h-234zM-37 0l88 307h332l-88 -307h-332z" />
    <glyph glyph-name="quotedbl" unicode="&#x22;" horiz-adv-x="821" 
d="M326 1362h286l-192 -569h-232zM563 793l137 569h287l-192 -569h-232z" />
    <glyph glyph-name="numbersign" unicode="#" horiz-adv-x="1898" 
d="M78 0l233 348h-256l64 219h338l159 240h-280l63 217h363l225 338h309l-225 -338h295l225 338h310l-226 -338h269l-64 -217h-350l-160 -240h295l-63 -219h-377l-234 -348h-309l233 348h-294l-234 -348h-309zM766 567h295l160 240h-295z" />
    <glyph glyph-name="dollar" unicode="$" horiz-adv-x="1318" 
d="M311 -256l68 231q-89 15 -156 48t-106 77.5t-61.5 100t-22 116t13.5 125.5h350q-24 -102 22.5 -158.5t170.5 -56.5q119 0 177.5 35t86.5 121q20 66 -9 103t-106 49l-225 36q-380 61 -278 414q44 162 174.5 269t339.5 135l65 229h336l-70 -240q182 -40 252.5 -153.5
t36.5 -270.5h-354q35 181 -178 181q-193 0 -244 -146q-32 -113 108 -135l193 -31q225 -33 298.5 -139t16.5 -297q-45 -169 -163.5 -273.5t-329.5 -136.5l-68 -233h-338z" />
    <glyph glyph-name="percent" unicode="%" horiz-adv-x="1775" 
d="M-59 0l6 25l1470 1144h-454l-115 -397h-625l170 590h1295q59 0 88.5 -23t27.5 -65q0 -63 -100 -144l-1421 -1130h-342zM487 967h211l58 202h-211zM899 0l170 588h627l-170 -588h-627zM1163 195h211l60 202h-211z" />
    <glyph glyph-name="ampersand" unicode="&#x26;" horiz-adv-x="1509" 
d="M1227 551q-59 -136 -140 -246l175 -194l-205 -170l-158 174q-206 -148 -473 -148q-225 0 -342 107t-66 286q61 230 349 369q-87 154 -39 309q52 178 193 268.5t356 90.5q202 0 300 -91.5t54 -242.5q-59 -211 -338 -336l-133 -59l176 -195q37 71 45 94q87 205 289 205h203
l-64 -221h-182zM309 367q-25 -82 23.5 -127t163.5 -45q140 0 258 81l-252 277q-164 -81 -193 -186zM612 1024q-27 -93 17 -184l112 47q93 39 141 73.5t64 86.5q41 127 -117 127q-170 0 -217 -150z" />
    <glyph glyph-name="quotesingle" unicode="'" horiz-adv-x="446" 
d="M326 1362h286l-192 -569h-232z" />
    <glyph glyph-name="parenleft" unicode="(" horiz-adv-x="899" 
d="M119 610q45 158 125 303t172 252.5t201 201t205 154.5t192 107l100 -143q-520 -367 -674 -901q-42 -150 -51 -291t13.5 -258t62 -212.5t96.5 -176.5l-153 -113q-51 39 -99 94t-95 129.5t-80 167.5t-50.5 197.5t-9.5 231t45 257.5z" />
    <glyph glyph-name="parenright" unicode=")" horiz-adv-x="899" 
d="M815 541q-45 -158 -125 -303t-172 -252.5t-201 -201t-205 -154.5t-192 -107l-100 143q520 367 674 901q42 150 51 291t-13.5 258t-62 212.5t-96.5 176.5l153 113q51 -39 99 -94t95 -129.5t80 -167.5t50.5 -197.5t9.5 -231t-45 -257.5z" />
    <glyph glyph-name="asterisk" unicode="*" horiz-adv-x="854" 
d="M246 1118l100 117l186 -174l66 301h147l-118 -301l299 174l37 -125l-308 -131l230 -131l-101 -115l-190 174l-64 -303h-149l121 303l-301 -178l-35 129l307 131z" />
    <glyph glyph-name="plus" unicode="+" horiz-adv-x="1230" 
d="M215 649h307l94 326h267l-95 -326h308l-68 -233h-307l-92 -324h-269l95 324h-308z" />
    <glyph glyph-name="comma" unicode="," horiz-adv-x="477" 
d="M-63 16l83 291h318l-127 -444q-33 -111 -100.5 -169.5t-204.5 -58.5h-78l51 181h123l57 200h-122z" />
    <glyph glyph-name="hyphen" unicode="-" horiz-adv-x="989" 
d="M94 649h881l-68 -233h-880z" />
    <glyph glyph-name="period" unicode="." horiz-adv-x="493" 
d="M-66 0l89 307h331l-88 -307h-332z" />
    <glyph glyph-name="slash" unicode="/" horiz-adv-x="892" 
d="M-127 0l899 1362h350l-899 -1362h-350z" />
    <glyph glyph-name="zero" unicode="0" horiz-adv-x="1484" 
d="M614 -33q-140 0 -246 39.5t-168 107.5t-92 161t-25 199t40 222q33 114 81 213.5t121.5 190.5t163.5 155.5t213 103t265 38.5q141 0 246.5 -41t167 -111.5t90.5 -164.5t24.5 -199.5t-37.5 -218.5q-34 -117 -81 -215t-119.5 -188.5t-162 -153.5t-212.5 -100.5t-269 -37.5z
M489 680q-72 -218 -34 -318t215 -100q90 0 155 23.5t113.5 77.5t83 127.5t70.5 189.5q73 220 34 321t-215 101q-90 0 -154 -23.5t-113 -78.5t-83.5 -129t-71.5 -191z" />
    <glyph glyph-name="one" unicode="1" horiz-adv-x="1093" 
d="M-35 0l82 281h289l229 800h-274l82 281h266q179 0 247.5 -85t24.5 -230l-217 -766h277l-80 -281h-926z" />
    <glyph glyph-name="two" unicode="2" horiz-adv-x="1449" 
d="M-23 0l80 281l822 460q171 97 206 220q25 77 -12.5 120t-140.5 43q-154 0 -236.5 -74.5t-140.5 -234.5h-362q28 92 72 173t113 157.5t156 131t206.5 87.5t258.5 33q96 0 175 -16t132 -44t91.5 -67t54 -85.5t18.5 -98t-14 -105.5q-25 -90 -85.5 -169t-183.5 -169
t-317 -190l-309 -172h723l-80 -281h-1227z" />
    <glyph glyph-name="three" unicode="3" horiz-adv-x="1378" 
d="M414 444q-25 -108 20.5 -161.5t167.5 -53.5q229 0 297 213q30 104 -13 159.5t-147 55.5q-63 0 -112.5 -13t-110.5 -40l-65 221l491 256h-643l80 281h1079l-82 -281l-538 -270q70 12 129 12q42 0 83 -8t84 -26.5t74.5 -49t54 -75.5t22.5 -106t-19 -140
q-126 -451 -709 -451q-291 0 -426.5 129t-79.5 348h363z" />
    <glyph glyph-name="four" unicode="4" horiz-adv-x="1427" 
d="M651 0l80 279h-743l82 280l804 803h531l-234 -803h218l-80 -280h-217l-80 -279h-361zM379 559h432l170 584z" />
    <glyph glyph-name="five" unicode="5" horiz-adv-x="1382" 
d="M1489 1362l-82 -281h-774l-111 -305q160 117 391 117q139 0 236 -54t135 -156.5t-2 -250.5q-129 -465 -735 -465q-100 0 -182.5 16.5t-138.5 46t-97.5 69.5t-60 87t-25 98t7.5 103h379q-13 -74 31.5 -114t159.5 -40q130 0 202.5 52t110.5 174q36 113 -5.5 164t-158.5 51
q-93 0 -157 -30t-117 -83h-353l283 801h1063z" />
    <glyph glyph-name="six" unicode="6" horiz-adv-x="1372" 
d="M569 -33q-113 0 -202 24t-155.5 78t-101 136t-32.5 203t45 274q54 189 140 328.5t196 223t233.5 123.5t265.5 40q239 0 364.5 -118t98.5 -292h-358q11 72 -28.5 109t-137.5 37q-154 0 -245.5 -91t-149.5 -282l-6 -25q79 70 185 107t224 37q125 0 217.5 -51.5
t133.5 -153.5t-3 -254q-55 -208 -235 -330.5t-449 -122.5zM428 442q-66 -213 176 -213q127 0 197.5 53.5t101.5 159.5q33 107 -7 161t-163 54q-125 0 -198.5 -54.5t-106.5 -160.5z" />
    <glyph glyph-name="seven" unicode="7" horiz-adv-x="1206" 
d="M215 1081l82 281h1108l-59 -207q-76 -58 -129.5 -101.5t-125.5 -110t-126 -129t-118.5 -150.5t-117.5 -182.5t-108 -218t-103 -263.5h-360q213 618 786 1081h-729z" />
    <glyph glyph-name="eight" unicode="8" horiz-adv-x="1347" 
d="M541 -33q-106 0 -192.5 16t-145 44.5t-100 68t-58.5 86t-20 98t16 105.5q65 224 334 315q-180 101 -117 318q21 73 68.5 138t124 120t193.5 87t261 32q98 0 177.5 -15t133.5 -42t92.5 -63.5t54 -80t19 -91.5t-13.5 -97q-64 -218 -295 -306q109 -46 148.5 -141t-0.5 -217
q-14 -56 -43.5 -107t-84 -101t-128 -86t-183 -58.5t-241.5 -22.5zM401 399q-29 -97 14.5 -143.5t168.5 -46.5q131 0 196.5 46.5t93.5 143.5q28 96 -15 143.5t-167 47.5q-130 0 -196.5 -48t-94.5 -143zM582 977q-28 -90 13 -134t159 -44q126 0 187 43.5t87 134.5
q27 91 -13.5 133.5t-158.5 42.5q-126 0 -187.5 -43t-86.5 -133z" />
    <glyph glyph-name="nine" unicode="9" horiz-adv-x="1372" 
d="M901 1397q113 0 202 -24t156 -78t101.5 -136t32.5 -203t-45 -274q-54 -189 -140.5 -328.5t-196 -223t-233.5 -123.5t-266 -40q-239 0 -364.5 118t-98.5 292h359q-11 -72 28.5 -109t136.5 -37q155 0 246.5 91.5t149.5 281.5l6 25q-79 -70 -185.5 -107t-224.5 -37
q-125 0 -217.5 51.5t-133.5 153.5t3 254q55 208 235 330.5t449 122.5zM567 922q-33 -107 7 -161t163 -54q125 0 198.5 54.5t106.5 160.5q66 213 -176 213q-127 0 -197.5 -53.5t-101.5 -159.5z" />
    <glyph glyph-name="colon" unicode=":" horiz-adv-x="493" 
d="M-63 0l88 307h331l-88 -307h-331zM141 717l88 307h332l-88 -307h-332z" />
    <glyph glyph-name="semicolon" unicode=";" horiz-adv-x="493" 
d="M-63 16l83 291h318l-127 -444q-33 -111 -100.5 -169.5t-204.5 -58.5h-78l51 181h123l57 200h-122zM141 717l88 307h332l-88 -307h-332z" />
    <glyph glyph-name="less" unicode="&#x3c;" horiz-adv-x="1091" 
d="M799 94l-664 283l17 61h-2l18 62l22 82l3 -2l28 92l826 282l-72 -235l-615 -209l492 -209z" />
    <glyph glyph-name="equal" unicode="=" horiz-adv-x="1157" 
d="M274 852h803l-65 -234h-803zM88 199l64 233h804l-65 -233h-803z" />
    <glyph glyph-name="greater" unicode="&#x3e;" horiz-adv-x="1091" 
d="M301 954l664 -282l-17 -62h2l-18 -61l-23 -82l-2 2l-28 -92l-826 -283l72 236l614 209l-491 209z" />
    <glyph glyph-name="question" unicode="?" horiz-adv-x="1394" 
d="M520 473l64 219h116q152 0 229.5 54.5t114.5 168.5q66 197 -157 197q-131 0 -209 -57.5t-129 -190.5h-363q31 87 68 156.5t100.5 143t142.5 123t196.5 81t260.5 31.5q99 0 179.5 -18.5t135 -51.5t91.5 -78t52.5 -99.5t15 -114.5t-18.5 -124q-131 -440 -659 -440h-230z
M389 0l88 307h332l-88 -307h-332z" />
    <glyph glyph-name="at" unicode="@" horiz-adv-x="2228" 
d="M940 -410q-514 0 -733 253t-84 708q52 198 154.5 360.5t253 285.5t359 191t456.5 68q234 0 408 -53.5t284 -163.5t134.5 -277.5t-38.5 -396.5q-160 -549 -696 -549h-254l35 172q-142 -180 -377 -180q-111 0 -185 40.5t-105.5 111.5t-32 160t29.5 192q36 116 82.5 205.5
t113.5 161t159 109.5t206 38q123 0 191.5 -40t95.5 -120l37 129h329l-221 -770h35q98 0 188.5 90t145.5 277q105 350 -51 516t-555 166q-379 0 -619 -192t-344 -547q-73 -251 -16 -417.5t220 -249.5t421 -83h417l-55 -195h-389zM883 516q-32 -97 -26 -152.5t42.5 -76.5
t116.5 -21q116 0 177.5 52t104.5 198q23 75 25.5 124t-16.5 77.5t-54 39.5t-94 11q-115 0 -173.5 -52t-102.5 -200z" />
    <glyph glyph-name="A" unicode="A" horiz-adv-x="1501" 
d="M1348 0h-355l-14 256h-586l-162 -256h-372l858 1362h559zM565 528h400l-33 580z" />
    <glyph glyph-name="B" unicode="B" horiz-adv-x="1404" 
d="M-37 0l393 1362h766q201 0 287 -105t43 -260q-35 -133 -127 -201.5t-238 -93.5q280 -56 207 -340q-101 -362 -544 -362h-787zM403 270h324q166 0 209 152q44 153 -129 153h-315zM559 811h315q154 0 195 141q18 65 -9.5 102.5t-101.5 37.5h-317z" />
    <glyph glyph-name="C" unicode="C" horiz-adv-x="1546" 
d="M657 -33q-150 0 -263.5 39.5t-181 108t-101 161.5t-30.5 200t38 224q37 121 86.5 220.5t125 190.5t170 152.5t225.5 97.5t288 36q337 0 475.5 -156.5t89.5 -429.5h-371q36 155 -18.5 223t-228.5 68q-96 0 -164.5 -20t-126 -69t-102 -129t-85.5 -204q-68 -226 -14 -323
t238 -97q126 0 205 30t130.5 92.5t98.5 178.5h375q-43 -125 -93 -216.5t-120 -165.5t-160 -119t-210.5 -69t-275.5 -24z" />
    <glyph glyph-name="D" unicode="D" horiz-adv-x="1505" 
d="M-37 0l393 1362h631q133 0 236 -38.5t165.5 -106t94.5 -157.5t30.5 -192.5t-32.5 -212.5q-28 -104 -71.5 -196t-112.5 -177.5t-156 -147t-206 -98t-257 -36.5h-715zM408 285h256q189 0 290 91.5t164 305.5q60 212 1 303.5t-242 91.5h-240z" />
    <glyph glyph-name="E" unicode="E" horiz-adv-x="1294" 
d="M487 561l-79 -276h735l-82 -285h-1098l393 1362h1092l-82 -285h-729l-72 -252h666l-76 -264h-668z" />
    <glyph glyph-name="F" unicode="F" horiz-adv-x="1263" 
d="M-37 0l393 1362h1082l-82 -285h-719l-82 -282h645l-76 -265h-645l-153 -530h-363z" />
    <glyph glyph-name="G" unicode="G" horiz-adv-x="1583" 
d="M580 -33q-123 0 -220.5 36t-160 101.5t-95 155.5t-29.5 200.5t40 233.5q34 119 86 221t131.5 192.5t179.5 153.5t234.5 99.5t291.5 36.5q114 0 207.5 -18t157.5 -50.5t110.5 -77t67.5 -98.5t27.5 -115.5t-9.5 -126.5h-360q18 102 -41.5 154.5t-210.5 52.5
q-95 0 -168 -21.5t-136 -72t-111.5 -135.5t-86.5 -209q-67 -220 -15 -327t235 -107q168 0 269.5 67t166.5 207h-441l68 228h782l-215 -748h-299l60 229q-30 -51 -73 -94.5t-105 -83t-149 -62t-189 -22.5z" />
    <glyph glyph-name="H" unicode="H" horiz-adv-x="1517" 
d="M-37 0l393 1362h367l-154 -531h564l153 531h367l-393 -1362h-367l160 551h-564l-159 -551h-367z" />
    <glyph glyph-name="I" unicode="I" horiz-adv-x="1036" 
d="M-49 0l82 285h239l230 792h-240l82 285h840l-82 -285h-240l-227 -792h237l-81 -285h-840z" />
    <glyph glyph-name="J" unicode="J" horiz-adv-x="954" 
d="M-80 0l82 285h422l311 1077h363l-250 -866q-77 -268 -223 -382t-414 -114h-291z" />
    <glyph glyph-name="K" unicode="K" horiz-adv-x="1452" 
d="M-37 0l393 1362h363l-174 -600l125 117l536 483h480l-691 -580l299 -764l-6 -18h-403l-185 535l-290 -246l-84 -289h-363z" />
    <glyph glyph-name="L" unicode="L" horiz-adv-x="1138" 
d="M-37 0l393 1362h367l-311 -1077h612l-82 -285h-979z" />
    <glyph glyph-name="M" unicode="M" horiz-adv-x="2004" 
d="M2142 1362l-393 -1362h-363l328 1128l-657 -1128h-402l-2 1137l-329 -1137h-361l393 1362h615l16 -930l524 930h631z" />
    <glyph glyph-name="N" unicode="N" horiz-adv-x="1579" 
d="M1061 291l309 1071h344l-393 -1362h-569l-121 889q-13 96 -13 184l-311 -1073h-344l393 1362h570l123 -907q9 -70 12 -164z" />
    <glyph glyph-name="O" unicode="O" horiz-adv-x="1576" 
d="M664 -33q-150 0 -264.5 39.5t-183.5 108.5t-103 163t-31 202t39 225q210 692 893 692q151 0 266 -41t183 -111.5t102 -165t31 -200.5t-37 -220q-39 -124 -89 -224t-125.5 -189.5t-170 -149.5t-224 -94.5t-286.5 -34.5zM483 680q-70 -212 -20 -315t248 -103q109 0 185 23
t131.5 77t92 128t72.5 190q44 142 41.5 235.5t-66.5 139t-198 45.5q-109 0 -185.5 -23t-132.5 -77.5t-94 -128.5t-74 -191z" />
    <glyph glyph-name="P" unicode="P" horiz-adv-x="1359" 
d="M1059 1362q95 0 168.5 -25t118.5 -68.5t68.5 -103t23 -129.5t-22.5 -147q-24 -96 -67 -174t-109.5 -140t-163.5 -96.5t-217 -34.5h-399l-129 -444h-367l393 1362h703zM539 723h274q99 0 153.5 44.5t84.5 141.5q57 176 -127 176h-281z" />
    <glyph glyph-name="Q" unicode="Q" horiz-adv-x="1597" 
d="M127 717q27 104 71.5 197t118.5 183.5t168.5 155t228.5 104.5t292 40q110 0 201 -21.5t155 -58.5t111.5 -88.5t73.5 -110t37 -123t6 -128.5t-23 -126q-58 -193 -160 -306t-254 -167h332l-78 -268h-739q-154 0 -269.5 39t-182.5 106.5t-99 159t-28 195t38 217.5zM487 696
q-43 -136 -40.5 -225t69 -132.5t207.5 -43.5q87 0 152 16t111.5 45t83.5 81t63 111t55 148q41 134 39.5 224t-67 135t-206.5 45q-106 0 -181 -23.5t-128 -77.5t-87.5 -123t-70.5 -180z" />
    <glyph glyph-name="R" unicode="R" horiz-adv-x="1402" 
d="M1214 246q-16 -52 -25 -98t-11.5 -71.5t-6.5 -76.5h-366q-3 90 45 246l16 55q30 97 -11.5 145t-135.5 48h-248l-141 -494h-367l393 1362h703q95 0 170.5 -21.5t122.5 -60t75.5 -90.5t29.5 -113t-17 -129q-35 -131 -137 -214t-240 -109q244 -50 174 -303zM547 752h278
q100 0 157 41t83 131q25 84 -8 122.5t-129 38.5h-285z" />
    <glyph glyph-name="S" unicode="S" horiz-adv-x="1359" 
d="M397 442q-51 -215 213 -215q130 0 193.5 35.5t91.5 120.5q39 130 -115 152l-266 36q-189 26 -258.5 133t-19.5 281q52 190 221.5 301t453.5 111q103 0 186.5 -16t141.5 -45t99.5 -69.5t60 -90t23 -106t-10.5 -116.5h-354q18 95 -32 138t-167 43q-108 0 -172.5 -34
t-91.5 -112q-34 -118 108 -135l234 -31q224 -27 298 -135.5t17 -300.5q-27 -100 -77.5 -174.5t-133 -131.5t-206 -86.5t-285.5 -29.5q-94 0 -172 13.5t-134 38t-97.5 59.5t-65.5 76t-35.5 89t-10.5 97.5t13 103.5h350z" />
    <glyph glyph-name="T" unicode="T" horiz-adv-x="1277" 
d="M309 0l314 1077h-439l82 285h1237l-82 -285h-436l-311 -1077h-365z" />
    <glyph glyph-name="U" unicode="U" horiz-adv-x="1458" 
d="M106 535l236 827h363l-232 -797q-26 -89 -28.5 -147t21 -93t69 -49t122.5 -14q61 0 104.5 7.5t82.5 26t68.5 53t55.5 87t50 129.5l229 797h363l-250 -852q-86 -287 -260.5 -415t-491.5 -128q-316 0 -447.5 149.5t-54.5 418.5z" />
    <glyph glyph-name="V" unicode="V" horiz-adv-x="1458" 
d="M315 0l-49 1362h361l32 -858q3 -108 0 -213q48 90 121 213l529 858h377l-836 -1362h-535z" />
    <glyph glyph-name="W" unicode="W" horiz-adv-x="2185" 
d="M1509 225l525 1137h356l-627 -1362h-612l100 1063l-512 -1063h-610l158 1362h354l-131 -1137l559 1137h537z" />
    <glyph glyph-name="X" unicode="X" horiz-adv-x="1562" 
d="M954 0l-204 416l-406 -416h-459l725 696l-329 666h413l209 -418l412 418h452l-727 -694l334 -668h-420z" />
    <glyph glyph-name="Y" unicode="Y" horiz-adv-x="1298" 
d="M205 1362h381l73 -447q20 -128 25 -231q58 88 162 231l328 447h413l-790 -969l-113 -393h-360l112 393z" />
    <glyph glyph-name="Z" unicode="Z" horiz-adv-x="1337" 
d="M-90 0l82 285l971 792h-721l82 285h1208l-82 -285l-975 -792h752l-82 -285h-1235z" />
    <glyph glyph-name="bracketleft" unicode="[" horiz-adv-x="1142" 
d="M-92 -410l80 279l415 1442l80 276h879l-80 -276h-510l-416 -1442h510l-80 -279h-878z" />
    <glyph glyph-name="backslash" unicode="\" horiz-adv-x="1202" 
d="M1034 0h-329l-443 1362h330z" />
    <glyph glyph-name="bracketright" unicode="]" horiz-adv-x="1142" 
d="M1288 1583l-80 -278l-415 -1442l-80 -277h-879l80 277h510l416 1442h-510l80 278h878z" />
    <glyph glyph-name="asciicircum" unicode="^" horiz-adv-x="1183" 
d="M238 729l464 633h273l98 -633h-217l-68 432l-317 -432h-233z" />
    <glyph glyph-name="underscore" unicode="_" horiz-adv-x="989" 
d="M-92 0h880l-69 -233h-881z" />
    <glyph glyph-name="grave" unicode="`" horiz-adv-x="778" 
d="M287 1180l59 213l563 -172l-22 -84z" />
    <glyph glyph-name="a" unicode="a" horiz-adv-x="1183" 
d="M279 -27q-100 0 -173.5 41.5t-101.5 114t0 172.5q25 86 66.5 138.5t128.5 91t233 61.5l244 39q71 10 101.5 31t43.5 63q12 46 -15.5 72t-109.5 26q-94 0 -146.5 -32t-78.5 -107h-342q58 170 211 271.5t387 101.5q242 0 349.5 -101.5t47.5 -293.5l-102 -379
q-44 -154 -53 -283h-305q0 89 30 209q-72 -116 -169.5 -176t-245.5 -60zM346 311q-13 -54 15.5 -81t87.5 -27q100 0 183 72t120 206l10 39q-40 -25 -77.5 -38t-100.5 -27l-64 -13q-82 -19 -120.5 -48t-53.5 -83z" />
    <glyph glyph-name="b" unicode="b" horiz-adv-x="1343" 
d="M954 1057q125 0 208 -46.5t118 -127t34 -182.5t-36 -218q-143 -516 -596 -516q-259 0 -324 180l-43 -147h-356l412 1432h356l-154 -535q150 160 381 160zM451 471q-33 -127 8.5 -179t165.5 -50q130 0 196 57t113 211q26 79 29 131t-17.5 83.5t-61.5 44.5t-108 13
q-131 0 -198.5 -60t-114.5 -210l-2 -8z" />
    <glyph glyph-name="c" unicode="c" horiz-adv-x="1226" 
d="M55 528q33 116 89 209.5t140 166.5t204.5 113t269.5 40q91 0 167.5 -18t129 -50t91 -76t55 -95.5t21 -109t-11.5 -116.5h-346q22 97 -14 143.5t-139 46.5q-59 0 -101 -10.5t-82 -39t-71.5 -82.5t-57.5 -138q-22 -77 -23 -129.5t20 -83t57.5 -43.5t93.5 -14q107 0 170 46
t104 146h346q-37 -106 -87.5 -187t-127.5 -146t-187.5 -99.5t-252.5 -34.5q-102 0 -184.5 20.5t-138.5 58.5t-93.5 89.5t-52.5 114.5t-12 132.5t24 145.5z" />
    <glyph glyph-name="d" unicode="d" horiz-adv-x="1341" 
d="M659 1057q263 0 328 -183l164 560h352l-413 -1434h-340l38 141q-153 -174 -397 -174q-126 0 -209.5 46.5t-118 127t-33.5 182t36 218.5q142 516 593 516zM410 516q-47 -157 -10.5 -215.5t169.5 -58.5q121 0 187 48t110 167l37 129q21 106 -23 151t-159 45
q-132 0 -198 -56.5t-113 -209.5z" />
    <glyph glyph-name="e" unicode="e" horiz-adv-x="1208" 
d="M483 -33q-117 0 -206.5 30t-143.5 82.5t-81 125t-24 157.5t33 179q151 516 676 516q117 0 205.5 -30t140.5 -82t78 -122.5t24.5 -149.5t-26.5 -165q-6 -19 -17.5 -50.5t-13.5 -35.5h-766q-22 -119 20.5 -169t145.5 -50q88 0 138.5 25.5t87.5 80.5h342
q-30 -60 -63.5 -107.5t-85.5 -93t-115 -75.5t-152 -48t-197 -18zM424 625h436q24 104 -15 152t-143 48q-101 0 -164.5 -42t-113.5 -158z" />
    <glyph glyph-name="f" unicode="f" horiz-adv-x="847" 
d="M59 0l220 760h-187l49 164l215 102l19 66q45 161 158.5 250.5t300.5 89.5h280l-74 -254h-344l-43 -154h293l-76 -264h-237l-219 -760h-355z" />
    <glyph glyph-name="g" unicode="g" horiz-adv-x="1323" 
d="M397 -432q-136 0 -237.5 32t-157.5 87t-77 125t-5 149h342q-10 -74 29.5 -111.5t157.5 -37.5q121 0 184 39.5t98 152.5l45 158q-134 -131 -352 -131q-95 0 -169 27.5t-120.5 77.5t-70 117t-20.5 149t32 171q140 484 583 484q257 0 326 -168l39 133h354l-278 -963
q-54 -179 -133.5 -283t-217 -156t-352.5 -52zM414 535q-32 -94 -20 -148.5t56.5 -76t131.5 -21.5q124 0 188.5 49.5t106.5 173.5l22 74q23 107 -16 152.5t-156 45.5q-134 0 -201.5 -52.5t-111.5 -196.5z" />
    <glyph glyph-name="h" unicode="h" horiz-adv-x="1290" 
d="M-41 0l412 1434h354l-166 -578q157 201 391 201q98 0 167.5 -33.5t103 -92t41 -138t-18.5 -170.5l-180 -623h-352l161 563q35 113 8.5 161t-124.5 48q-110 0 -179 -62.5t-124 -226.5l-140 -483h-354z" />
    <glyph glyph-name="i" unicode="i" horiz-adv-x="546" 
d="M-49 0l295 1024h352l-295 -1024h-352zM274 1149l62 213h366l-61 -213h-367z" />
    <glyph glyph-name="j" unicode="j" horiz-adv-x="569" 
d="M-451 -410l80 279h305l332 1155h355l-297 -1030q-59 -206 -182.5 -305t-350.5 -99h-242zM297 1149l61 213h367l-61 -213h-367z" />
    <glyph glyph-name="k" unicode="k" horiz-adv-x="1288" 
d="M741 0l-161 365l-211 -164l-58 -201h-352l414 1434h352l-250 -867q99 103 150 148l352 309h440l-2 -8l-565 -441l287 -575h-396z" />
    <glyph glyph-name="l" unicode="l" horiz-adv-x="563" 
d="M-41 0l414 1434h352l-414 -1434h-352z" />
    <glyph glyph-name="m" unicode="m" horiz-adv-x="1966" 
d="M1548 567q35 109 9 157t-121 48q-104 0 -164 -61t-115 -228h-2l-139 -483h-350l163 567q35 109 9 157t-121 48q-103 0 -163 -61t-116 -228l-139 -483h-352l295 1024h352l-47 -160q145 193 364 193q133 0 208 -60t93 -166q162 226 412 226q100 0 170.5 -33.5t103.5 -92
t39.5 -138t-20.5 -170.5l-178 -623h-355z" />
    <glyph glyph-name="n" unicode="n" horiz-adv-x="1277" 
d="M-55 0l295 1024h354l-49 -170q162 203 393 203q98 0 167.5 -33.5t103 -92t41 -138t-18.5 -170.5l-180 -623h-353l162 563q35 113 8 161t-125 48q-110 0 -179 -62.5t-124 -226.5h-2l-139 -483h-354z" />
    <glyph glyph-name="o" unicode="o" horiz-adv-x="1275" 
d="M520 -33q-103 0 -186 21.5t-139.5 60t-94 91t-53 116t-12.5 134t24 145.5q24 88 61 163t96 142.5t135 114.5t180.5 74.5t228.5 27.5q101 0 183 -21t138.5 -59.5t94 -91t53 -116t13 -135t-24.5 -147.5q-22 -84 -58 -157t-94.5 -141t-134 -116t-181 -77t-229.5 -29z
M406 512q-24 -80 -27 -131.5t17 -82.5t59 -43.5t104 -12.5q132 0 198 56t113 214q24 80 27 131.5t-17 82.5t-59 43.5t-104 12.5q-132 0 -198.5 -56t-112.5 -214z" />
    <glyph glyph-name="p" unicode="p" horiz-adv-x="1329" 
d="M668 -33q-262 0 -328 187l-160 -564h-354l414 1434h342l-50 -152q158 185 408 185q125 0 208 -46t118 -126.5t34 -182t-36 -219.5q-144 -516 -596 -516zM446 512q-47 -154 -9 -212t173 -58q131 0 197 57t113 211q26 79 29 131.5t-18 83.5t-61.5 44t-107.5 13
q-135 0 -202.5 -59t-113.5 -211z" />
    <glyph glyph-name="q" unicode="q" horiz-adv-x="1329" 
d="M391 -33q-101 0 -175 30.5t-115.5 84t-59 126.5t-10.5 156.5t35 176.5q141 516 593 516q262 0 330 -185l43 152h352l-413 -1434h-353l154 535q-152 -158 -381 -158zM410 516q-47 -157 -10.5 -215.5t169.5 -58.5q130 0 198.5 57.5t113.5 200.5l16 57q30 123 -12.5 174
t-163.5 51q-132 0 -198 -56.5t-113 -209.5z" />
    <glyph glyph-name="r" unicode="r" horiz-adv-x="851" 
d="M-55 0l297 1024h342l-60 -207q62 112 147.5 167.5t209.5 55.5h86l-99 -344h-127q-136 0 -202.5 -59.5t-116.5 -224.5l-119 -412h-358z" />
    <glyph glyph-name="s" unicode="s" horiz-adv-x="1112" 
d="M299 330q-15 -72 26 -112t138 -40q91 0 134.5 23t55.5 73q11 44 -12 75t-104 42l-193 29q-146 21 -199 107.5t-14 222.5q20 80 69.5 140t122.5 96t161.5 53.5t193.5 17.5q223 0 337 -81.5t89 -254.5h-318q12 67 -22.5 97t-120.5 30q-88 0 -133.5 -23t-58.5 -75
q-9 -40 13.5 -67.5t90.5 -35.5l186 -24q172 -23 230.5 -110t17.5 -234q-15 -57 -41 -102t-70 -85.5t-105 -67t-149.5 -42t-199.5 -15.5q-92 0 -166 14t-123.5 38.5t-85.5 58.5t-51.5 74.5t-21.5 85.5t4 92h319z" />
    <glyph glyph-name="t" unicode="t" horiz-adv-x="884" 
d="M453 0q-400 0 -316 362l125 398h-180l47 164l246 92l207 254h180l-70 -246h277l-78 -264h-275l-141 -481h273l-80 -279h-215z" />
    <glyph glyph-name="u" unicode="u" horiz-adv-x="1277" 
d="M342 -33q-193 0 -268.5 122t-26.5 312l180 623h355l-164 -563q-35 -113 -7.5 -161t126.5 -48q98 0 164 51t118 180l160 541h354l-297 -1024h-342l47 180q-162 -213 -399 -213z" />
    <glyph glyph-name="v" unicode="v" horiz-adv-x="1193" 
d="M150 1024h346l26 -750l459 750h360l-634 -1024h-514z" />
    <glyph glyph-name="w" unicode="w" horiz-adv-x="1861" 
d="M115 0l43 1024h346l-47 -739l436 739h379l10 -737l373 737h346l-547 -1024h-487l12 662l-375 -662h-489z" />
    <glyph glyph-name="x" unicode="x" horiz-adv-x="1150" 
d="M-152 0l539 510l-250 514h379l117 -283l260 283h397l-532 -526l254 -498h-377l-117 276l-260 -276h-410z" />
    <glyph glyph-name="y" unicode="y" horiz-adv-x="1202" 
d="M-197 -410l80 279h424l101 160h-209l-43 995h348l28 -594l7 -170l96 170l360 594h353l-621 -1024q-64 -107 -121.5 -177.5t-131.5 -126t-165 -81t-209 -25.5h-297z" />
    <glyph glyph-name="z" unicode="z" horiz-adv-x="1118" 
d="M-80 0l76 256l698 512h-544l73 256h971l-74 -256l-690 -512h547l-74 -256h-983z" />
    <glyph glyph-name="braceleft" unicode="{" horiz-adv-x="952" 
d="M61 440l82 279h60q86 0 135.5 43.5t77.5 140.5l73 268q82 237 263 340t465 103l-54 -189q-70 -2 -118.5 -16.5t-92.5 -50t-78 -97.5t-65 -159l-66 -225q-43 -131 -106.5 -189t-187.5 -78l-19 -63q208 -43 137 -275l-59 -215q-95 -313 166 -323l-53 -189q-118 0 -209 23
t-147 65t-87.5 100.5t-31.5 129t22 151.5l59 242q29 95 4.5 139.5t-110.5 44.5h-60z" />
    <glyph glyph-name="bar" unicode="|" horiz-adv-x="696" 
d="M-111 -410l578 1997h354l-575 -1997h-357z" />
    <glyph glyph-name="braceright" unicode="}" horiz-adv-x="954" 
d="M932 719l-82 -279h-59q-86 0 -135.5 -43.5t-77.5 -140.5l-74 -268q-82 -237 -262.5 -340t-464.5 -103l53 189q70 2 118.5 16.5t92.5 50t78 97.5t65 159l66 226q43 131 107 188.5t188 77.5l18 63q-208 43 -137 275l59 215q95 313 -166 323l54 189q99 0 178.5 -16t135 -46
t92.5 -72t53.5 -94.5t14.5 -113t-22 -127.5l-59 -242q-29 -95 -4.5 -139.5t110.5 -44.5h60z" />
    <glyph glyph-name="asciitilde" unicode="~" horiz-adv-x="1140" 
d="M731 334q-56 0 -107 23.5t-82 52t-66 52t-64 23.5q-30 0 -53 -21.5t-33 -60.5l-11 -57h-184l31 139q25 98 90.5 146.5t155.5 48.5q57 0 107 -24t79.5 -52t64.5 -52t66 -24q64 0 88 84l10 56h183l-27 -129q-25 -98 -94.5 -151.5t-153.5 -53.5z" />
    <glyph glyph-name="exclamdown" unicode="&#xa1;" horiz-adv-x="550" 
d="M408 563l-199 -901h-356l321 901h234zM170 717l88 307h332l-88 -307h-332z" />
    <glyph glyph-name="cent" unicode="&#xa2;" horiz-adv-x="1132" 
d="M299 -35l78 271q-87 20 -147 65t-87 106t-31 136.5t21 156.5q51 181 170.5 299t314.5 146l74 252h266l-75 -260q150 -37 210 -144t29 -239h-295q18 83 -12.5 123.5t-118.5 40.5q-51 0 -87.5 -9t-70.5 -33.5t-61 -71t-49 -118.5q-28 -88 -17.5 -138.5t45 -70.5t101.5 -20
q91 0 145 40t89 126h296q-27 -80 -63 -143t-88.5 -116.5t-127 -87.5t-167.5 -47l-76 -264h-266z" />
    <glyph glyph-name="sterling" unicode="&#xa3;" horiz-adv-x="1288" 
d="M688 612l-106 -362h483l-72 -250h-1022l72 250h186l105 362h-152l58 205h153l62 215q30 102 69.5 174t100 124.5t146 78t200.5 25.5h368l-79 -279h-416l-99 -338h306l-58 -205h-305z" />
    <glyph glyph-name="yen" unicode="&#xa5;" horiz-adv-x="1298" 
d="M324 0l57 201h-326l54 182h325l2 10l-18 74h-285l53 182h189l-170 713h389l65 -447q16 -109 19 -251q86 142 168 251l328 447h413l-581 -713h190l-53 -182h-287l-59 -74l-2 -10h323l-53 -182h-324l-57 -201h-360z" />
    <glyph glyph-name="brokenbar" unicode="&#xa6;" horiz-adv-x="696" 
d="M225 756l242 831h354l-239 -831h-357zM-111 -410l242 832h354l-239 -832h-357z" />
    <glyph glyph-name="section" unicode="&#xa7;" horiz-adv-x="1296" 
d="M258 -63q-18 -77 21.5 -121.5t142.5 -44.5q97 0 149 27t72 91q29 98 -88 113l-190 25q-154 20 -216.5 112.5t-19.5 235.5q49 161 179 233.5t378 81.5q100 3 147.5 30.5t65.5 86.5q26 98 -90 113l-197 26q-147 19 -210.5 108.5t-18.5 233.5q37 145 176 232.5t361 87.5
q232 0 329 -96.5t62 -254.5h-287q13 71 -26 105.5t-126 34.5q-167 0 -204 -111q-27 -88 84 -102l170 -19q176 -20 242 -112.5t18 -247.5q-48 -168 -178 -246.5t-394 -85.5q-93 -5 -137 -27.5t-59 -76.5q-26 -90 82 -101l172 -20q171 -20 236.5 -116.5t21.5 -246.5
q-29 -106 -89.5 -176t-176 -110.5t-285.5 -40.5q-97 0 -173.5 19.5t-124 54.5t-77.5 83t-33.5 104t8.5 118h283z" />
    <glyph glyph-name="dieresis" unicode="&#xa8;" horiz-adv-x="866" 
d="M690 1149l62 213h299l-62 -213h-299zM246 1149l61 213h299l-61 -213h-299z" />
    <glyph glyph-name="copyright" unicode="&#xa9;" horiz-adv-x="1828" 
d="M793 -37q-159 0 -288 56t-205.5 155.5t-100.5 235.5t26 297q39 142 123.5 267.5t201.5 220t270 149.5t319 55q158 0 287 -56.5t204.5 -156t99.5 -235.5t-26 -294q-40 -144 -124.5 -270t-201 -220.5t-268.5 -149t-317 -54.5zM461 702q-74 -232 32 -375t338 -143
q227 0 400 132t237 348q74 229 -32 371.5t-338 142.5q-226 0 -399.5 -131.5t-237.5 -344.5zM594 686q21 72 58 133t93 110.5t136.5 78t177.5 28.5q174 0 248 -84.5t36 -220.5h-227q17 67 -6.5 94t-87.5 27q-76 0 -121 -35.5t-74 -132.5q-24 -66 -16.5 -103.5t33.5 -51
t78 -13.5q64 0 104 28t66 93h229q-43 -135 -154 -220t-282 -85q-79 0 -139 18.5t-96 51t-54.5 77.5t-18.5 97t17 110z" />
    <glyph glyph-name="guillemotleft" unicode="&#xab;" horiz-adv-x="1611" 
d="M754 535l520 489h383l-586 -530l291 -494h-342l-279 487zM100 487l13 48l520 489h383l-586 -530l291 -494h-342z" />
    <glyph glyph-name="logicalnot" unicode="&#xac;" horiz-adv-x="1228" 
d="M215 649h881l-131 -454h-265l64 221h-617z" />
    <glyph glyph-name="registered" unicode="&#xae;" horiz-adv-x="1310" 
d="M633 338q-150 0 -258 72.5t-145 195t8 283.5q62 217 247.5 363.5t405.5 146.5q149 0 256 -72t142.5 -192.5t-7.5 -276.5q-31 -111 -96 -207.5t-150.5 -165t-190.5 -108t-212 -39.5zM416 872q-43 -152 23.5 -255t217.5 -103q148 0 274 103t171 255q45 150 -23.5 252.5
t-216.5 102.5q-150 0 -275.5 -102t-170.5 -253zM481 627l142 489h264q84 0 119.5 -38t13.5 -105q-13 -50 -55.5 -80.5t-106.5 -38.5q58 -4 78 -30t6 -79l-4 -22q-14 -54 -16 -96h-150q-4 39 14 98l7 18q18 52 -39 52h-72l-49 -168h-152zM715 907h80q51 0 65 47q11 41 -39 41
h-82z" />
    <glyph glyph-name="macron" unicode="&#xaf;" horiz-adv-x="907" 
d="M307 1362h785l-56 -191h-784z" />
    <glyph glyph-name="degree" unicode="&#xb0;" horiz-adv-x="958" 
d="M549 711q-71 0 -128.5 21t-94 57t-58.5 85.5t-22 106.5t16 119q46 159 175 262.5t304 103.5q89 0 156.5 -31t102 -83t46 -120t-11.5 -142q-49 -165 -178.5 -272t-306.5 -107zM479 1092q-25 -81 9.5 -127.5t107.5 -46.5q72 0 133 46t86 128q25 83 -10.5 124t-110.5 41
q-73 0 -131.5 -41t-83.5 -124z" />
    <glyph glyph-name="plusminus" unicode="&#xb1;" horiz-adv-x="1230" 
d="M197 604l57 203h319l64 217h244l-64 -217h320l-58 -203h-319l-62 -213h-243l61 213h-319zM47 90l59 203h883l-57 -203h-885z" />
    <glyph glyph-name="acute" unicode="&#xb4;" horiz-adv-x="757" 
d="M889 1180l-600 -43l-23 84l563 172z" />
    <glyph glyph-name="uni00B5" unicode="&#xb5;" horiz-adv-x="1277" 
d="M346 -33q-41 0 -86 10l-113 -387h-333l217 746q0 66 18 137l178 549h353l-162 -561q-35 -113 -6.5 -161t129.5 -48q96 0 161 51t117 180l160 539h352l-295 -1022h-334l60 205q-165 -238 -416 -238z" />
    <glyph glyph-name="paragraph" unicode="&#xb6;" horiz-adv-x="1792" 
d="M578 444q-227 0 -311.5 133t-18.5 349q19 73 49.5 135.5t79 118.5t110 96t146 63t184.5 23h547l-512 -1772h-367l248 854h-155zM997 -410l512 1772h367l-512 -1772h-367z" />
    <glyph glyph-name="periodcentered" unicode="&#xb7;" horiz-adv-x="493" 
d="M37 358l88 308h332l-88 -308h-332z" />
    <glyph glyph-name="cedilla" unicode="&#xb8;" horiz-adv-x="530" 
d="M-199 -391l62 213h164l14 264h244l-21 -270q-6 -89 -69 -148t-160 -59h-234z" />
    <glyph glyph-name="guillemotright" unicode="&#xbb;" horiz-adv-x="1611" 
d="M858 489l-520 -489h-383l586 530l-291 494h342l278 -487zM598 0l586 530l-291 494h342l278 -487l-12 -48l-520 -489h-383z" />
    <glyph glyph-name="questiondown" unicode="&#xbf;" horiz-adv-x="1415" 
d="M874 551l-63 -219h-117q-152 0 -229.5 -54.5t-114.5 -168.5q-66 -197 158 -197q131 0 209 57.5t129 190.5h362q-31 -87 -68 -156.5t-100.5 -143t-142.5 -123t-196.5 -81t-260.5 -31.5q-99 0 -179 18.5t-134.5 51.5t-91.5 78t-53 99.5t-15 114.5t19 124q131 440 659 440
h229zM586 717l88 307h332l-88 -307h-332z" />
    <glyph glyph-name="Agrave" unicode="&#xc0;" horiz-adv-x="1501" 
d="M1348 0h-355l-14 256h-586l-162 -256h-372l858 1362h559zM565 528h400l-33 580zM750 1520l61 215l561 -172l-20 -86z" />
    <glyph glyph-name="Aacute" unicode="&#xc1;" horiz-adv-x="1501" 
d="M1348 0h-355l-14 256h-586l-162 -256h-372l858 1362h559zM565 528h400l-33 580zM745 1563l562 172l61 -215l-602 -43z" />
    <glyph glyph-name="Acircumflex" unicode="&#xc2;" horiz-adv-x="1501" 
d="M1348 0h-355l-14 256h-586l-162 -256h-372l858 1362h559zM565 528h400l-33 580zM717 1599l309 142h158l217 -137l-121 -121l-201 129l-280 -137z" />
    <glyph glyph-name="Atilde" unicode="&#xc3;" horiz-adv-x="1501" 
d="M1348 0h-355l-14 256h-586l-162 -256h-372l858 1362h559zM565 528h400l-33 580zM655 1477l17 59q54 184 252 184q52 0 96.5 -15.5t69.5 -34.5t55.5 -34.5t58.5 -15.5q55 0 74 72l8 24h209l-16 -53q-27 -96 -94.5 -143t-159.5 -47q-62 0 -115 25t-93 50t-71 25
q-54 0 -76 -72l-6 -24h-209z" />
    <glyph glyph-name="Adieresis" unicode="&#xc4;" horiz-adv-x="1501" 
d="M1348 0h-355l-14 256h-586l-162 -256h-372l858 1362h559zM565 528h400l-33 580zM686 1491l59 215h299l-59 -215h-299zM1104 1491l61 215h299l-61 -215h-299z" />
    <glyph glyph-name="Aring" unicode="&#xc5;" horiz-adv-x="1501" 
d="M1348 0h-355l-14 256h-586l-162 -256h-372l858 1362h559zM565 528h400l-33 580zM852 1675q27 94 107.5 160t193.5 66q117 0 166.5 -69.5t17.5 -172.5q-26 -96 -107 -162.5t-194 -66.5q-117 0 -166.5 69.5t-17.5 175.5zM1010 1667q-11 -41 6.5 -62.5t54.5 -21.5
q36 0 67 21.5t42 62.5t-6.5 61.5t-55.5 20.5q-36 0 -66.5 -21t-41.5 -61z" />
    <glyph glyph-name="AE" unicode="&#xc6;" horiz-adv-x="2244" 
d="M915 0l74 256h-530l-234 -256h-362l-4 12l1235 1350h1304l-84 -285h-727l-74 -252h668l-76 -264h-667l-80 -276h735l-82 -285h-1096zM709 528h358l166 572z" />
    <glyph glyph-name="Ccedilla" unicode="&#xc7;" horiz-adv-x="1546" 
d="M309 -391l62 213h164l8 151q-122 14 -214 60.5t-146.5 115t-80 157t-20.5 188t37 206.5q37 121 86.5 220.5t125 190.5t170 152.5t225.5 97.5t288 36q337 0 475.5 -156.5t89.5 -429.5h-371q36 155 -18.5 223t-228.5 68q-96 0 -164.5 -20t-126 -69t-102 -129t-85.5 -204
q-68 -226 -14 -323t238 -97q126 0 205 30t130.5 92.5t98.5 178.5h375q-50 -144 -109 -244t-144.5 -176t-203 -117t-275.5 -53l-12 -155q-6 -89 -69 -148t-160 -59h-234z" />
    <glyph glyph-name="Egrave" unicode="&#xc8;" horiz-adv-x="1294" 
d="M487 561l-79 -276h735l-82 -285h-1098l393 1362h1092l-82 -285h-729l-72 -252h666l-76 -264h-668zM641 1520l61 215l562 -172l-21 -86z" />
    <glyph glyph-name="Eacute" unicode="&#xc9;" horiz-adv-x="1294" 
d="M487 561l-79 -276h735l-82 -285h-1098l393 1362h1092l-82 -285h-729l-72 -252h666l-76 -264h-668zM637 1563l561 172l62 -215l-603 -43z" />
    <glyph glyph-name="Ecircumflex" unicode="&#xca;" horiz-adv-x="1294" 
d="M487 561l-79 -276h735l-82 -285h-1098l393 1362h1092l-82 -285h-729l-72 -252h666l-76 -264h-668zM608 1599l310 142h157l217 -137l-121 -121l-200 129l-281 -137z" />
    <glyph glyph-name="Edieresis" unicode="&#xcb;" horiz-adv-x="1294" 
d="M487 561l-79 -276h735l-82 -285h-1098l393 1362h1092l-82 -285h-729l-72 -252h666l-76 -264h-668zM580 1491l59 215h299l-59 -215h-299zM997 1491l62 215h299l-62 -215h-299z" />
    <glyph glyph-name="Igrave" unicode="&#xcc;" horiz-adv-x="1036" 
d="M-49 0l82 285h239l230 792h-240l82 285h840l-82 -285h-240l-227 -792h237l-81 -285h-840zM506 1520l61 215l561 -172l-20 -86z" />
    <glyph glyph-name="Iacute" unicode="&#xcd;" horiz-adv-x="1036" 
d="M-49 0l82 285h239l230 792h-240l82 285h840l-82 -285h-240l-227 -792h237l-81 -285h-840zM504 1563l561 172l61 -215l-602 -43z" />
    <glyph glyph-name="Icircumflex" unicode="&#xce;" horiz-adv-x="1036" 
d="M-49 0l82 285h239l230 792h-240l82 285h840l-82 -285h-240l-227 -792h237l-81 -285h-840zM473 1599l309 142h158l217 -137l-121 -121l-200 129l-281 -137z" />
    <glyph glyph-name="Idieresis" unicode="&#xcf;" horiz-adv-x="1036" 
d="M-49 0l82 285h239l230 792h-240l82 285h840l-82 -285h-240l-227 -792h237l-81 -285h-840zM444 1491l60 215h299l-60 -215h-299zM862 1491l62 215h299l-62 -215h-299z" />
    <glyph glyph-name="Eth" unicode="&#xd0;" horiz-adv-x="1683" 
d="M68 561l69 238h238l162 563h630q133 0 236 -38.5t165.5 -106t94.5 -157.5t30.5 -192.5t-32.5 -212.5q-28 -104 -71.5 -196t-112.5 -177.5t-156 -147t-206 -98t-257 -36.5h-715l162 561h-237zM588 285h256q189 0 290 91.5t164 305.5q60 212 1 303.5t-242 91.5h-240
l-80 -278h281l-70 -238h-280z" />
    <glyph glyph-name="Ntilde" unicode="&#xd1;" horiz-adv-x="1579" 
d="M1061 291l309 1071h344l-393 -1362h-569l-121 889q-13 96 -13 184l-311 -1073h-344l393 1362h570l123 -907q9 -70 12 -164zM696 1477l17 59q54 184 252 184q52 0 96.5 -15.5t69.5 -34.5t55.5 -34.5t58.5 -15.5q55 0 74 72l8 24h209l-16 -53q-27 -96 -94.5 -143
t-159.5 -47q-62 0 -115 25t-93 50t-71 25q-54 0 -76 -72l-6 -24h-209z" />
    <glyph glyph-name="Ograve" unicode="&#xd2;" horiz-adv-x="1576" 
d="M664 -33q-150 0 -264.5 39.5t-183.5 108.5t-103 163t-31 202t39 225q210 692 893 692q151 0 266 -41t183 -111.5t102 -165t31 -200.5t-37 -220q-39 -124 -89 -224t-125.5 -189.5t-170 -149.5t-224 -94.5t-286.5 -34.5zM483 680q-70 -212 -20 -315t248 -103q109 0 185 23
t131.5 77t92 128t72.5 190q44 142 41.5 235.5t-66.5 139t-198 45.5q-109 0 -185.5 -23t-132.5 -77.5t-94 -128.5t-74 -191zM770 1520l61 215l562 -172l-21 -86z" />
    <glyph glyph-name="Oacute" unicode="&#xd3;" horiz-adv-x="1576" 
d="M664 -33q-150 0 -264.5 39.5t-183.5 108.5t-103 163t-31 202t39 225q210 692 893 692q151 0 266 -41t183 -111.5t102 -165t31 -200.5t-37 -220q-39 -124 -89 -224t-125.5 -189.5t-170 -149.5t-224 -94.5t-286.5 -34.5zM483 680q-70 -212 -20 -315t248 -103q109 0 185 23
t131.5 77t92 128t72.5 190q44 142 41.5 235.5t-66.5 139t-198 45.5q-109 0 -185.5 -23t-132.5 -77.5t-94 -128.5t-74 -191zM766 1563l561 172l62 -215l-603 -43z" />
    <glyph glyph-name="Ocircumflex" unicode="&#xd4;" horiz-adv-x="1576" 
d="M664 -33q-150 0 -264.5 39.5t-183.5 108.5t-103 163t-31 202t39 225q210 692 893 692q151 0 266 -41t183 -111.5t102 -165t31 -200.5t-37 -220q-39 -124 -89 -224t-125.5 -189.5t-170 -149.5t-224 -94.5t-286.5 -34.5zM483 680q-70 -212 -20 -315t248 -103q109 0 185 23
t131.5 77t92 128t72.5 190q44 142 41.5 235.5t-66.5 139t-198 45.5q-109 0 -185.5 -23t-132.5 -77.5t-94 -128.5t-74 -191zM737 1599l310 142h157l217 -137l-121 -121l-200 129l-281 -137z" />
    <glyph glyph-name="Otilde" unicode="&#xd5;" horiz-adv-x="1576" 
d="M664 -33q-150 0 -264.5 39.5t-183.5 108.5t-103 163t-31 202t39 225q210 692 893 692q151 0 266 -41t183 -111.5t102 -165t31 -200.5t-37 -220q-39 -124 -89 -224t-125.5 -189.5t-170 -149.5t-224 -94.5t-286.5 -34.5zM483 680q-70 -212 -20 -315t248 -103q109 0 185 23
t131.5 77t92 128t72.5 190q44 142 41.5 235.5t-66.5 139t-198 45.5q-109 0 -185.5 -23t-132.5 -77.5t-94 -128.5t-74 -191zM676 1477l16 59q54 184 252 184q52 0 96.5 -15.5t69.5 -34.5t56 -34.5t59 -15.5q54 0 73 72l9 24h209l-17 -53q-27 -96 -94.5 -143t-159.5 -47
q-49 0 -93.5 15.5t-71 34.5t-57.5 34.5t-56 15.5q-54 0 -76 -72l-6 -24h-209z" />
    <glyph glyph-name="Odieresis" unicode="&#xd6;" horiz-adv-x="1576" 
d="M664 -33q-150 0 -264.5 39.5t-183.5 108.5t-103 163t-31 202t39 225q210 692 893 692q151 0 266 -41t183 -111.5t102 -165t31 -200.5t-37 -220q-39 -124 -89 -224t-125.5 -189.5t-170 -149.5t-224 -94.5t-286.5 -34.5zM483 680q-70 -212 -20 -315t248 -103q109 0 185 23
t131.5 77t92 128t72.5 190q44 142 41.5 235.5t-66.5 139t-198 45.5q-109 0 -185.5 -23t-132.5 -77.5t-94 -128.5t-74 -191zM707 1491l59 215h299l-59 -215h-299zM1124 1491l62 215h299l-62 -215h-299z" />
    <glyph glyph-name="multiply" unicode="&#xd7;" horiz-adv-x="1312" 
d="M481 1001l213 -299l400 312l135 -176l-406 -316l219 -305l-194 -145l-215 301l-397 -310l-138 177l404 315l-215 301z" />
    <glyph glyph-name="Oslash" unicode="&#xd8;" horiz-adv-x="1576" 
d="M59 -291l236 346q-103 62 -157 165t-55 224.5t38 260.5q210 692 893 692q98 0 188 -19l180 264l189 -88l-174 -256q97 -65 148 -168.5t51 -221.5t-37 -249q-39 -124 -89 -224t-125.5 -189.5t-170 -149.5t-224 -94.5t-286.5 -34.5q-92 0 -168 15l-246 -361zM483 680
q-79 -257 2 -348l525 766q-12 2 -41 2q-109 0 -185.5 -23t-132.5 -77.5t-94 -128.5t-74 -191zM688 262h23q109 0 185 23t131.5 77t92 128t72.5 190q38 123 42 202t-30 136z" />
    <glyph glyph-name="Ugrave" unicode="&#xd9;" horiz-adv-x="1458" 
d="M106 535l236 827h363l-232 -797q-26 -89 -28.5 -147t21 -93t69 -49t122.5 -14q61 0 104.5 7.5t82.5 26t68.5 53t55.5 87t50 129.5l229 797h363l-250 -852q-86 -287 -260.5 -415t-491.5 -128q-316 0 -447.5 149.5t-54.5 418.5zM719 1520l61 215l561 -172l-20 -86z" />
    <glyph glyph-name="Uacute" unicode="&#xda;" horiz-adv-x="1458" 
d="M106 535l236 827h363l-232 -797q-26 -89 -28.5 -147t21 -93t69 -49t122.5 -14q61 0 104.5 7.5t82.5 26t68.5 53t55.5 87t50 129.5l229 797h363l-250 -852q-86 -287 -260.5 -415t-491.5 -128q-316 0 -447.5 149.5t-54.5 418.5zM715 1563l561 172l61 -215l-602 -43z" />
    <glyph glyph-name="Ucircumflex" unicode="&#xdb;" horiz-adv-x="1458" 
d="M106 535l236 827h363l-232 -797q-26 -89 -28.5 -147t21 -93t69 -49t122.5 -14q61 0 104.5 7.5t82.5 26t68.5 53t55.5 87t50 129.5l229 797h363l-250 -852q-86 -287 -260.5 -415t-491.5 -128q-316 0 -447.5 149.5t-54.5 418.5zM686 1599l309 142h158l217 -137l-121 -121
l-200 129l-281 -137z" />
    <glyph glyph-name="Udieresis" unicode="&#xdc;" horiz-adv-x="1458" 
d="M106 535l236 827h363l-232 -797q-26 -89 -28.5 -147t21 -93t69 -49t122.5 -14q61 0 104.5 7.5t82.5 26t68.5 53t55.5 87t50 129.5l229 797h363l-250 -852q-86 -287 -260.5 -415t-491.5 -128q-316 0 -447.5 149.5t-54.5 418.5zM655 1491l60 215h299l-60 -215h-299z
M1073 1491l62 215h299l-62 -215h-299z" />
    <glyph glyph-name="Yacute" unicode="&#xdd;" horiz-adv-x="1298" 
d="M205 1362h381l73 -447q20 -128 25 -231q58 88 162 231l328 447h413l-790 -969l-113 -393h-360l112 393zM625 1563l561 172l61 -215l-602 -43z" />
    <glyph glyph-name="Thorn" unicode="&#xde;" horiz-adv-x="1355" 
d="M-37 0l393 1362h365l-64 -221h353q93 0 165 -24.5t115.5 -67.5t65.5 -102t20.5 -128.5t-24.5 -146.5q-26 -97 -70.5 -175.5t-111 -141.5t-163.5 -97.5t-216 -34.5h-400l-63 -223h-365zM471 500h279q95 0 150.5 46.5t84.5 139.5q55 176 -127 176h-280z" />
    <glyph glyph-name="germandbls" unicode="&#xdf;" horiz-adv-x="1398" 
d="M217 883q84 273 265 392.5t503 119.5q98 0 178 -14.5t134.5 -40.5t93.5 -62.5t55 -79.5t19 -92t-15 -100q-31 -122 -130.5 -201t-236.5 -103q282 -53 199 -348q-103 -354 -545 -354h-260l80 270h168q162 0 205 152q50 153 -127 153h-158l76 263h147q83 0 133.5 39
t69.5 102q22 76 -16.5 110.5t-143.5 34.5q-126 0 -209 -58.5t-124 -193.5l-252 -872h-363z" />
    <glyph glyph-name="agrave" unicode="&#xe0;" horiz-adv-x="1312" 
d="M379 -33q-125 0 -206.5 47t-114 128t-30.5 182t38 217q24 89 55.5 161.5t80.5 140t110.5 113.5t147.5 73.5t189 27.5q259 0 322 -185l45 152h352l-295 -1024h-340l39 145q-154 -178 -393 -178zM408 516q-25 -80 -28.5 -132.5t16.5 -84t59 -44.5t104 -13q112 0 176.5 43
t106.5 151l45 150q22 112 -21.5 155t-154.5 41q-127 0 -191.5 -55.5t-111.5 -210.5zM535 1180l59 213l563 -172l-22 -84z" />
    <glyph glyph-name="aacute" unicode="&#xe1;" horiz-adv-x="1312" 
d="M379 -33q-125 0 -206.5 47t-114 128t-30.5 182t38 217q24 89 55.5 161.5t80.5 140t110.5 113.5t147.5 73.5t189 27.5q259 0 322 -185l45 152h352l-295 -1024h-340l39 145q-154 -178 -393 -178zM408 516q-25 -80 -28.5 -132.5t16.5 -84t59 -44.5t104 -13q112 0 176.5 43
t106.5 151l45 150q22 112 -21.5 155t-154.5 41q-127 0 -191.5 -55.5t-111.5 -210.5zM520 1221l563 172l60 -213l-600 -43z" />
    <glyph glyph-name="acircumflex" unicode="&#xe2;" horiz-adv-x="1312" 
d="M379 -33q-125 0 -206.5 47t-114 128t-30.5 182t38 217q24 89 55.5 161.5t80.5 140t110.5 113.5t147.5 73.5t189 27.5q259 0 322 -185l45 152h352l-295 -1024h-340l39 145q-154 -178 -393 -178zM408 516q-25 -80 -28.5 -132.5t16.5 -84t59 -44.5t104 -13q112 0 176.5 43
t106.5 151l45 150q22 112 -21.5 155t-154.5 41q-127 0 -191.5 -55.5t-111.5 -210.5zM508 1235l285 149h157l221 -151l-108 -117l-209 133l-262 -133z" />
    <glyph glyph-name="atilde" unicode="&#xe3;" horiz-adv-x="1312" 
d="M379 -33q-125 0 -206.5 47t-114 128t-30.5 182t38 217q24 89 55.5 161.5t80.5 140t110.5 113.5t147.5 73.5t189 27.5q259 0 322 -185l45 152h352l-295 -1024h-340l39 145q-154 -178 -393 -178zM408 516q-25 -80 -28.5 -132.5t16.5 -84t59 -44.5t104 -13q112 0 176.5 43
t106.5 151l45 150q22 112 -21.5 155t-154.5 41q-127 0 -191.5 -55.5t-111.5 -210.5zM438 1139l19 59q51 184 252 184q52 0 96 -15.5t68.5 -34.5t55 -34.5t58.5 -15.5q54 0 76 72l6 24h209l-14 -53q-28 -96 -95 -143t-159 -47q-50 0 -95 15.5t-72 34.5t-58 34.5t-56 15.5
q-55 0 -74 -72l-8 -24h-209z" />
    <glyph glyph-name="adieresis" unicode="&#xe4;" horiz-adv-x="1312" 
d="M379 -33q-125 0 -206.5 47t-114 128t-30.5 182t38 217q24 89 55.5 161.5t80.5 140t110.5 113.5t147.5 73.5t189 27.5q259 0 322 -185l45 152h352l-295 -1024h-340l39 145q-154 -178 -393 -178zM408 516q-25 -80 -28.5 -132.5t16.5 -84t59 -44.5t104 -13q112 0 176.5 43
t106.5 151l45 150q22 112 -21.5 155t-154.5 41q-127 0 -191.5 -55.5t-111.5 -210.5zM453 1149l61 213h299l-61 -213h-299zM897 1149l61 213h299l-61 -213h-299z" />
    <glyph glyph-name="aring" unicode="&#xe5;" horiz-adv-x="1312" 
d="M379 -33q-125 0 -206.5 47t-114 128t-30.5 182t38 217q24 89 55.5 161.5t80.5 140t110.5 113.5t147.5 73.5t189 27.5q259 0 322 -185l45 152h352l-295 -1024h-340l39 145q-154 -178 -393 -178zM408 516q-25 -80 -28.5 -132.5t16.5 -84t59 -44.5t104 -13q112 0 176.5 43
t106.5 151l45 150q22 112 -21.5 155t-154.5 41q-127 0 -191.5 -55.5t-111.5 -210.5zM680 1321q18 72 83.5 123t154.5 51q90 0 132 -59t17 -140q-20 -72 -85.5 -122t-154.5 -50q-91 0 -131.5 57t-15.5 140zM805 1311q-9 -34 5.5 -52t43.5 -18t53 18t33 52q10 32 -3.5 48.5
t-43.5 16.5t-54 -16.5t-34 -48.5z" />
    <glyph glyph-name="ae" unicode="&#xe6;" horiz-adv-x="1923" 
d="M301 -27q-160 0 -251 91t-50 231q25 87 67 140.5t129.5 92.5t233.5 62l244 41q72 12 102.5 32.5t42.5 61.5q14 49 -14 73.5t-113 24.5q-93 0 -145 -32t-78 -107h-342q58 170 212 271.5t388 101.5q238 0 322 -113q163 113 409 113q118 0 206 -30t139 -81t76 -121.5
t23 -150t-28 -166.5q-15 -49 -31 -86h-768q-22 -120 22 -169.5t146 -49.5q158 0 227 106h342q-38 -76 -85 -133t-119 -106.5t-177.5 -76t-240.5 -26.5q-165 0 -270 56t-148 155q-92 -98 -215 -151.5t-256 -53.5zM344 311q-14 -52 14 -80t84 -28q102 0 186.5 72.5
t121.5 205.5l10 39q-64 -39 -178 -65l-64 -15q-79 -19 -118 -47.5t-56 -81.5zM1139 627h438q23 103 -16 150.5t-142 47.5q-102 0 -166.5 -43t-113.5 -155z" />
    <glyph glyph-name="ccedilla" unicode="&#xe7;" horiz-adv-x="1226" 
d="M55 528q33 116 89 209.5t140 166.5t204.5 113t269.5 40q91 0 167.5 -18t129 -50t91 -76t55 -95.5t21 -109t-11.5 -116.5h-346q22 97 -14 143.5t-139 46.5q-59 0 -101 -10.5t-82 -39t-71.5 -82.5t-57.5 -138q-22 -77 -23 -129.5t20 -83t57.5 -43.5t93.5 -14q107 0 170 46
t104 146h346q-32 -94 -75.5 -167.5t-105.5 -136t-149.5 -102t-197.5 -53.5l-12 -159q-6 -89 -69.5 -148t-160.5 -59h-233l61 213h164l8 153q-96 13 -168 48.5t-115.5 87t-64.5 118.5t-19 142t25 157z" />
    <glyph glyph-name="egrave" unicode="&#xe8;" horiz-adv-x="1208" 
d="M483 -33q-117 0 -206.5 30t-143.5 82.5t-81 125t-24 157.5t33 179q151 516 676 516q117 0 205.5 -30t140.5 -82t78 -122.5t24.5 -149.5t-26.5 -165q-6 -19 -17.5 -50.5t-13.5 -35.5h-766q-22 -119 20.5 -169t145.5 -50q88 0 138.5 25.5t87.5 80.5h342
q-30 -60 -63.5 -107.5t-85.5 -93t-115 -75.5t-152 -48t-197 -18zM424 625h436q24 104 -15 152t-143 48q-101 0 -164.5 -42t-113.5 -158zM467 1180l59 213l564 -172l-23 -84z" />
    <glyph glyph-name="eacute" unicode="&#xe9;" horiz-adv-x="1208" 
d="M483 -33q-117 0 -206.5 30t-143.5 82.5t-81 125t-24 157.5t33 179q151 516 676 516q117 0 205.5 -30t140.5 -82t78 -122.5t24.5 -149.5t-26.5 -165q-6 -19 -17.5 -50.5t-13.5 -35.5h-766q-22 -119 20.5 -169t145.5 -50q88 0 138.5 25.5t87.5 80.5h342
q-30 -60 -63.5 -107.5t-85.5 -93t-115 -75.5t-152 -48t-197 -18zM424 625h436q24 104 -15 152t-143 48q-101 0 -164.5 -42t-113.5 -158zM453 1221l563 172l59 -213l-600 -43z" />
    <glyph glyph-name="ecircumflex" unicode="&#xea;" horiz-adv-x="1208" 
d="M483 -33q-117 0 -206.5 30t-143.5 82.5t-81 125t-24 157.5t33 179q151 516 676 516q117 0 205.5 -30t140.5 -82t78 -122.5t24.5 -149.5t-26.5 -165q-6 -19 -17.5 -50.5t-13.5 -35.5h-766q-22 -119 20.5 -169t145.5 -50q88 0 138.5 25.5t87.5 80.5h342
q-30 -60 -63.5 -107.5t-85.5 -93t-115 -75.5t-152 -48t-197 -18zM424 625h436q24 104 -15 152t-143 48q-101 0 -164.5 -42t-113.5 -158zM438 1235l285 149h158l221 -151l-109 -117l-209 133l-262 -133z" />
    <glyph glyph-name="edieresis" unicode="&#xeb;" horiz-adv-x="1208" 
d="M483 -33q-117 0 -206.5 30t-143.5 82.5t-81 125t-24 157.5t33 179q151 516 676 516q117 0 205.5 -30t140.5 -82t78 -122.5t24.5 -149.5t-26.5 -165q-6 -19 -17.5 -50.5t-13.5 -35.5h-766q-22 -119 20.5 -169t145.5 -50q88 0 138.5 25.5t87.5 80.5h342
q-30 -60 -63.5 -107.5t-85.5 -93t-115 -75.5t-152 -48t-197 -18zM385 1149l61 213h299l-61 -213h-299zM424 625h436q24 104 -15 152t-143 48q-101 0 -164.5 -42t-113.5 -158zM829 1149l62 213h299l-62 -213h-299z" />
    <glyph glyph-name="igrave" unicode="&#xec;" horiz-adv-x="546" 
d="M-49 0l295 1024h352l-295 -1024h-352zM166 1180l59 213l563 -172l-22 -84z" />
    <glyph glyph-name="iacute" unicode="&#xed;" horiz-adv-x="546" 
d="M-49 0l295 1024h352l-295 -1024h-352zM152 1221l563 172l59 -213l-600 -43z" />
    <glyph glyph-name="icircumflex" unicode="&#xee;" horiz-adv-x="546" 
d="M-49 0l295 1024h352l-295 -1024h-352zM137 1235l285 149h158l221 -151l-109 -117l-209 133l-262 -133z" />
    <glyph glyph-name="idieresis" unicode="&#xef;" horiz-adv-x="546" 
d="M-49 0l295 1024h352l-295 -1024h-352zM84 1149l61 213h299l-61 -213h-299zM528 1149l62 213h299l-62 -213h-299z" />
    <glyph glyph-name="eth" unicode="&#xf0;" horiz-adv-x="1275" 
d="M55 524q155 510 598 510q262 0 324 -176q48 175 -31 316l-131 -93l-88 119l121 86q-48 39 -105 68l175 209q101 -47 172 -107l137 96l88 -120l-121 -84q189 -258 74 -699q-114 -366 -297 -524t-490 -158q-118 0 -207.5 29t-143.5 80t-80.5 121t-24.5 152.5t30 174.5z
M401 512q-44 -148 -9 -209t165 -61q133 0 205.5 63t114.5 207q43 141 6.5 205.5t-168.5 64.5q-131 0 -201 -60.5t-113 -209.5z" />
    <glyph glyph-name="ntilde" unicode="&#xf1;" horiz-adv-x="1288" 
d="M-53 0l295 1024h354l-49 -170q162 203 393 203q98 0 167.5 -33.5t103 -92t41 -138t-18.5 -170.5l-180 -623h-353l162 563q35 113 8 161t-125 48q-110 0 -179 -62.5t-124 -226.5h-2l-139 -483h-354zM416 1139l18 59q51 184 252 184q52 0 96 -15.5t69 -34.5t55.5 -34.5
t58.5 -15.5q53 0 75 72l7 24h208l-14 -53q-28 -96 -95 -143t-159 -47q-50 0 -94.5 15.5t-71.5 34.5t-58 34.5t-56 15.5q-55 0 -74 -72l-8 -24h-209z" />
    <glyph glyph-name="ograve" unicode="&#xf2;" horiz-adv-x="1275" 
d="M520 -33q-103 0 -186 21.5t-139.5 60t-94 91t-53 116t-12.5 134t24 145.5q24 88 61 163t96 142.5t135 114.5t180.5 74.5t228.5 27.5q101 0 183 -21t138.5 -59.5t94 -91t53 -116t13 -135t-24.5 -147.5q-22 -84 -58 -157t-94.5 -141t-134 -116t-181 -77t-229.5 -29z
M406 512q-24 -80 -27 -131.5t17 -82.5t59 -43.5t104 -12.5q132 0 198 56t113 214q24 80 27 131.5t-17 82.5t-59 43.5t-104 12.5q-132 0 -198.5 -56t-112.5 -214zM498 1180l59 213l563 -172l-22 -84z" />
    <glyph glyph-name="oacute" unicode="&#xf3;" horiz-adv-x="1275" 
d="M520 -33q-103 0 -186 21.5t-139.5 60t-94 91t-53 116t-12.5 134t24 145.5q24 88 61 163t96 142.5t135 114.5t180.5 74.5t228.5 27.5q101 0 183 -21t138.5 -59.5t94 -91t53 -116t13 -135t-24.5 -147.5q-22 -84 -58 -157t-94.5 -141t-134 -116t-181 -77t-229.5 -29z
M406 512q-24 -80 -27 -131.5t17 -82.5t59 -43.5t104 -12.5q132 0 198 56t113 214q24 80 27 131.5t-17 82.5t-59 43.5t-104 12.5q-132 0 -198.5 -56t-112.5 -214zM483 1221l564 172l59 -213l-600 -43z" />
    <glyph glyph-name="ocircumflex" unicode="&#xf4;" horiz-adv-x="1275" 
d="M520 -33q-103 0 -186 21.5t-139.5 60t-94 91t-53 116t-12.5 134t24 145.5q24 88 61 163t96 142.5t135 114.5t180.5 74.5t228.5 27.5q101 0 183 -21t138.5 -59.5t94 -91t53 -116t13 -135t-24.5 -147.5q-22 -84 -58 -157t-94.5 -141t-134 -116t-181 -77t-229.5 -29z
M406 512q-24 -80 -27 -131.5t17 -82.5t59 -43.5t104 -12.5q132 0 198 56t113 214q24 80 27 131.5t-17 82.5t-59 43.5t-104 12.5q-132 0 -198.5 -56t-112.5 -214zM471 1235l285 149h157l222 -151l-109 -117l-209 133l-262 -133z" />
    <glyph glyph-name="otilde" unicode="&#xf5;" horiz-adv-x="1275" 
d="M520 -33q-103 0 -186 21.5t-139.5 60t-94 91t-53 116t-12.5 134t24 145.5q24 88 61 163t96 142.5t135 114.5t180.5 74.5t228.5 27.5q101 0 183 -21t138.5 -59.5t94 -91t53 -116t13 -135t-24.5 -147.5q-22 -84 -58 -157t-94.5 -141t-134 -116t-181 -77t-229.5 -29z
M401 1139l19 59q51 184 252 184q52 0 96 -15.5t68.5 -34.5t55 -34.5t58.5 -15.5q54 0 76 72l6 24h209l-14 -53q-28 -96 -95 -143t-159 -47q-50 0 -95 15.5t-72 34.5t-58 34.5t-56 15.5q-55 0 -74 -72l-8 -24h-209zM406 512q-24 -80 -27 -131.5t17 -82.5t59 -43.5t104 -12.5
q132 0 198 56t113 214q24 80 27 131.5t-17 82.5t-59 43.5t-104 12.5q-132 0 -198.5 -56t-112.5 -214z" />
    <glyph glyph-name="odieresis" unicode="&#xf6;" horiz-adv-x="1275" 
d="M520 -33q-103 0 -186 21.5t-139.5 60t-94 91t-53 116t-12.5 134t24 145.5q24 88 61 163t96 142.5t135 114.5t180.5 74.5t228.5 27.5q101 0 183 -21t138.5 -59.5t94 -91t53 -116t13 -135t-24.5 -147.5q-22 -84 -58 -157t-94.5 -141t-134 -116t-181 -77t-229.5 -29z
M406 512q-24 -80 -27 -131.5t17 -82.5t59 -43.5t104 -12.5q132 0 198 56t113 214q24 80 27 131.5t-17 82.5t-59 43.5t-104 12.5q-132 0 -198.5 -56t-112.5 -214zM416 1149l61 213h299l-61 -213h-299zM860 1149l62 213h299l-62 -213h-299z" />
    <glyph glyph-name="divide" unicode="&#xf7;" horiz-adv-x="1351" 
d="M752 760q-71 0 -101 44.5t-12 110.5q20 63 74.5 107.5t124.5 44.5q71 0 101.5 -45.5t10.5 -108.5q-18 -64 -72.5 -108.5t-125.5 -44.5zM152 418l65 233h997l-65 -233h-997zM420 156q20 63 74 107t124 44q71 0 101.5 -45.5t11.5 -107.5q-18 -64 -73 -109t-126 -45
t-100.5 45t-11.5 111z" />
    <glyph glyph-name="oslash" unicode="&#xf8;" horiz-adv-x="1275" 
d="M-2 -236l207 279q-119 73 -155.5 207.5t9.5 284.5q24 88 61 163t96 142.5t135 114.5t180.5 74.5t228.5 27.5q88 0 184 -21l176 238l127 -74l-166 -223q113 -75 147 -207.5t-11 -282.5q-22 -84 -58 -157t-94.5 -141t-134 -116t-181 -77t-229.5 -29q-95 0 -176 19
l-219 -293zM395 299l359 481q-12 2 -37 2q-132 0 -198.5 -56t-112.5 -214q-46 -155 -11 -213zM535 242h24q132 0 198 56t113 214q43 143 17 203z" />
    <glyph glyph-name="ugrave" unicode="&#xf9;" horiz-adv-x="1277" 
d="M342 -33q-193 0 -268.5 122t-26.5 312l180 623h355l-164 -563q-35 -113 -7.5 -161t126.5 -48q98 0 164 51t118 180l160 541h354l-297 -1024h-342l47 180q-162 -213 -399 -213zM524 1180l60 213l563 -172l-23 -84z" />
    <glyph glyph-name="uacute" unicode="&#xfa;" horiz-adv-x="1277" 
d="M342 -33q-193 0 -268.5 122t-26.5 312l180 623h355l-164 -563q-35 -113 -7.5 -161t126.5 -48q98 0 164 51t118 180l160 541h354l-297 -1024h-342l47 180q-162 -213 -399 -213zM510 1221l563 172l60 -213l-601 -43z" />
    <glyph glyph-name="ucircumflex" unicode="&#xfb;" horiz-adv-x="1277" 
d="M342 -33q-193 0 -268.5 122t-26.5 312l180 623h355l-164 -563q-35 -113 -7.5 -161t126.5 -48q98 0 164 51t118 180l160 541h354l-297 -1024h-342l47 180q-162 -213 -399 -213zM498 1235l284 149h158l221 -151l-108 -117l-209 133l-262 -133z" />
    <glyph glyph-name="udieresis" unicode="&#xfc;" horiz-adv-x="1277" 
d="M342 -33q-193 0 -268.5 122t-26.5 312l180 623h355l-164 -563q-35 -113 -7.5 -161t126.5 -48q98 0 164 51t118 180l160 541h354l-297 -1024h-342l47 180q-162 -213 -399 -213zM442 1149l62 213h299l-62 -213h-299zM887 1149l61 213h299l-61 -213h-299z" />
    <glyph glyph-name="yacute" unicode="&#xfd;" horiz-adv-x="1202" 
d="M-197 -410l80 279h424l101 160h-209l-43 995h348l28 -594l7 -170l96 170l360 594h353l-621 -1024q-64 -107 -121.5 -177.5t-131.5 -126t-165 -81t-209 -25.5h-297zM479 1221l563 172l60 -213l-600 -43z" />
    <glyph glyph-name="thorn" unicode="&#xfe;" horiz-adv-x="1329" 
d="M668 -33q-262 0 -328 185l-162 -562h-352l532 1844h353l-156 -537q154 160 383 160q101 0 175 -30.5t116 -83t59.5 -125.5t10.5 -157t-35 -178q-144 -516 -596 -516zM446 512q-48 -154 -10 -212t172 -58q130 0 196 57t116 211q25 79 28 131.5t-18 83.5t-62 44t-108 13
q-133 0 -200.5 -59t-113.5 -211z" />
    <glyph glyph-name="ydieresis" unicode="&#xff;" horiz-adv-x="1202" 
d="M-197 -410l80 279h424l101 160h-209l-43 995h348l28 -594l7 -170l96 170l360 594h353l-621 -1024q-64 -107 -121.5 -177.5t-131.5 -126t-165 -81t-209 -25.5h-297zM412 1149l61 213h299l-61 -213h-299zM856 1149l62 213h299l-62 -213h-299z" />
    <glyph glyph-name="Amacron" unicode="&#x100;" horiz-adv-x="1501" 
d="M1348 0h-355l-14 256h-586l-162 -256h-372l858 1362h559zM565 528h400l-33 580zM623 1501l59 205h848l-60 -205h-847z" />
    <glyph glyph-name="amacron" unicode="&#x101;" horiz-adv-x="1312" 
d="M379 -33q-125 0 -206.5 47t-114 128t-30.5 182t38 217q24 89 55.5 161.5t80.5 140t110.5 113.5t147.5 73.5t189 27.5q259 0 322 -185l45 152h352l-295 -1024h-340l39 145q-154 -178 -393 -178zM408 516q-25 -80 -28.5 -132.5t16.5 -84t59 -44.5t104 -13q112 0 176.5 43
t106.5 151l45 150q22 112 -21.5 155t-154.5 41q-127 0 -191.5 -55.5t-111.5 -210.5zM442 1171l56 191h784l-55 -191h-785z" />
    <glyph glyph-name="Abreve" unicode="&#x102;" horiz-adv-x="1501" 
d="M1348 0h-355l-14 256h-586l-162 -256h-372l858 1362h559zM565 528h400l-33 580zM784 1696h193q-8 -42 18 -68t82 -26q117 0 152 94h194q-13 -46 -35 -81.5t-62 -69t-107.5 -52t-157.5 -18.5q-73 0 -128 13.5t-85.5 35.5t-49.5 51t-19 59.5t5 61.5z" />
    <glyph glyph-name="abreve" unicode="&#x103;" horiz-adv-x="1312" 
d="M379 -33q-125 0 -206.5 47t-114 128t-30.5 182t38 217q24 89 55.5 161.5t80.5 140t110.5 113.5t147.5 73.5t189 27.5q259 0 322 -185l45 152h352l-295 -1024h-340l39 145q-154 -178 -393 -178zM408 516q-25 -80 -28.5 -132.5t16.5 -84t59 -44.5t104 -13q112 0 176.5 43
t106.5 151l45 150q22 112 -21.5 155t-154.5 41q-127 0 -191.5 -55.5t-111.5 -210.5zM643 1362h195q-9 -42 16.5 -68t81.5 -26q115 0 154 94h192q-13 -46 -35 -81.5t-62 -69t-107.5 -52t-157.5 -18.5q-73 0 -128 13.5t-85.5 35.5t-49.5 51t-19 59.5t5 61.5z" />
    <glyph glyph-name="Aogonek" unicode="&#x104;" horiz-adv-x="1501" 
d="M1348 0h-291q-28 -40 -35 -70q-16 -58 11.5 -91.5t78.5 -33.5q52 0 105 15l-58 -211q-61 -25 -145 -25q-132 0 -197.5 80.5t-30.5 200.5q43 141 201 237l-8 154h-586l-162 -256h-372l858 1362h559zM565 528h400l-33 580z" />
    <glyph glyph-name="aogonek" unicode="&#x105;" horiz-adv-x="1312" 
d="M379 -33q-125 0 -206.5 47t-114 128t-30.5 182t38 217q24 89 55.5 161.5t80.5 140t110.5 113.5t147.5 73.5t189 27.5q259 0 322 -185l45 152h352l-295 -1024h-340l29 111q-127 -83 -154 -181q-16 -58 11.5 -91.5t78.5 -33.5q52 0 105 15l-58 -211q-61 -25 -145 -25
q-132 0 -197 80.5t-30 200.5q14 50 51 104q-14 -2 -45 -2zM408 516q-25 -80 -28.5 -132.5t16.5 -84t59 -44.5t104 -13q112 0 176.5 43t106.5 151l45 150q22 112 -21.5 155t-154.5 41q-127 0 -191.5 -55.5t-111.5 -210.5zM764 137l4 -4l4 12z" />
    <glyph glyph-name="Cacute" unicode="&#x106;" horiz-adv-x="1546" 
d="M657 -33q-150 0 -263.5 39.5t-181 108t-101 161.5t-30.5 200t38 224q37 121 86.5 220.5t125 190.5t170 152.5t225.5 97.5t288 36q337 0 475.5 -156.5t89.5 -429.5h-371q36 155 -18.5 223t-228.5 68q-96 0 -164.5 -20t-126 -69t-102 -129t-85.5 -204q-68 -226 -14 -323
t238 -97q126 0 205 30t130.5 92.5t98.5 178.5h375q-43 -125 -93 -216.5t-120 -165.5t-160 -119t-210.5 -69t-275.5 -24zM758 1563l561 172l61 -215l-602 -43z" />
    <glyph glyph-name="cacute" unicode="&#x107;" horiz-adv-x="1226" 
d="M55 528q33 116 89 209.5t140 166.5t204.5 113t269.5 40q91 0 167.5 -18t129 -50t91 -76t55 -95.5t21 -109t-11.5 -116.5h-346q22 97 -14 143.5t-139 46.5q-59 0 -101 -10.5t-82 -39t-71.5 -82.5t-57.5 -138q-22 -77 -23 -129.5t20 -83t57.5 -43.5t93.5 -14q107 0 170 46
t104 146h346q-37 -106 -87.5 -187t-127.5 -146t-187.5 -99.5t-252.5 -34.5q-102 0 -184.5 20.5t-138.5 58.5t-93.5 89.5t-52.5 114.5t-12 132.5t24 145.5zM477 1221l563 172l60 -213l-600 -43z" />
    <glyph glyph-name="Cdotaccent" unicode="&#x10a;" horiz-adv-x="1546" 
d="M657 -33q-150 0 -263.5 39.5t-181 108t-101 161.5t-30.5 200t38 224q37 121 86.5 220.5t125 190.5t170 152.5t225.5 97.5t288 36q337 0 475.5 -156.5t89.5 -429.5h-371q36 155 -18.5 223t-228.5 68q-96 0 -164.5 -20t-126 -69t-102 -129t-85.5 -204q-68 -226 -14 -323
t238 -97q126 0 205 30t130.5 92.5t98.5 178.5h375q-43 -125 -93 -216.5t-120 -165.5t-160 -119t-210.5 -69t-275.5 -24zM874 1491l60 215h366l-61 -215h-365z" />
    <glyph glyph-name="cdotaccent" unicode="&#x10b;" horiz-adv-x="1226" 
d="M55 528q33 116 89 209.5t140 166.5t204.5 113t269.5 40q91 0 167.5 -18t129 -50t91 -76t55 -95.5t21 -109t-11.5 -116.5h-346q22 97 -14 143.5t-139 46.5q-59 0 -101 -10.5t-82 -39t-71.5 -82.5t-57.5 -138q-22 -77 -23 -129.5t20 -83t57.5 -43.5t93.5 -14q107 0 170 46
t104 146h346q-37 -106 -87.5 -187t-127.5 -146t-187.5 -99.5t-252.5 -34.5q-102 0 -184.5 20.5t-138.5 58.5t-93.5 89.5t-52.5 114.5t-12 132.5t24 145.5zM600 1149l62 213h366l-61 -213h-367z" />
    <glyph glyph-name="Ccaron" unicode="&#x10c;" horiz-adv-x="1546" 
d="M657 -33q-150 0 -263.5 39.5t-181 108t-101 161.5t-30.5 200t38 224q37 121 86.5 220.5t125 190.5t170 152.5t225.5 97.5t288 36q337 0 475.5 -156.5t89.5 -429.5h-371q36 155 -18.5 223t-228.5 68q-96 0 -164.5 -20t-126 -69t-102 -129t-85.5 -204q-68 -226 -14 -323
t238 -97q126 0 205 30t130.5 92.5t98.5 178.5h375q-43 -125 -93 -216.5t-120 -165.5t-160 -119t-210.5 -69t-275.5 -24zM752 1616l108 117l201 -131l272 131l82 -117l-287 -152h-157z" />
    <glyph glyph-name="ccaron" unicode="&#x10d;" horiz-adv-x="1226" 
d="M55 528q33 116 89 209.5t140 166.5t204.5 113t269.5 40q91 0 167.5 -18t129 -50t91 -76t55 -95.5t21 -109t-11.5 -116.5h-346q22 97 -14 143.5t-139 46.5q-59 0 -101 -10.5t-82 -39t-71.5 -82.5t-57.5 -138q-22 -77 -23 -129.5t20 -83t57.5 -43.5t93.5 -14q107 0 170 46
t104 146h346q-37 -106 -87.5 -187t-127.5 -146t-187.5 -99.5t-252.5 -34.5q-102 0 -184.5 20.5t-138.5 58.5t-93.5 89.5t-52.5 114.5t-12 132.5t24 145.5zM485 1292l109 115l201 -131l272 131l82 -117l-287 -149h-157z" />
    <glyph glyph-name="Dcaron" unicode="&#x10e;" horiz-adv-x="1505" 
d="M-37 0l393 1362h631q133 0 236 -38.5t165.5 -106t94.5 -157.5t30.5 -192.5t-32.5 -212.5q-28 -104 -71.5 -196t-112.5 -177.5t-156 -147t-206 -98t-257 -36.5h-715zM408 285h256q189 0 290 91.5t164 305.5q60 212 1 303.5t-242 91.5h-240zM694 1616l109 117l201 -131
l272 131l82 -117l-287 -152h-158z" />
    <glyph glyph-name="dcaron" unicode="&#x10f;" horiz-adv-x="1773" 
d="M659 1057q263 0 328 -183l164 560h352l-413 -1434h-340l38 141q-153 -174 -397 -174q-126 0 -209.5 46.5t-118 127t-33.5 182t36 218.5q142 516 593 516zM410 516q-47 -157 -10.5 -215.5t169.5 -58.5q121 0 187 48t110 167l37 129q21 106 -23 151t-159 45
q-132 0 -198 -56.5t-113 -209.5zM1536 866l137 570h287l-193 -570h-231z" />
    <glyph glyph-name="Dcroat" unicode="&#x110;" horiz-adv-x="1683" 
d="M68 561l69 238h238l162 563h630q133 0 236 -38.5t165.5 -106t94.5 -157.5t30.5 -192.5t-32.5 -212.5q-28 -104 -71.5 -196t-112.5 -177.5t-156 -147t-206 -98t-257 -36.5h-715l162 561h-237zM588 285h256q189 0 290 91.5t164 305.5q60 212 1 303.5t-242 91.5h-240
l-80 -278h281l-70 -238h-280z" />
    <glyph glyph-name="dcroat" unicode="&#x111;" horiz-adv-x="1413" 
d="M782 1325h338l31 109h352l-30 -109h176l-54 -184h-176l-329 -1141h-340l38 141q-153 -174 -397 -174q-126 0 -209.5 46.5t-118 127t-33.5 182t36 218.5q142 516 593 516q263 0 328 -183l78 267h-336zM410 516q-47 -157 -10.5 -215.5t169.5 -58.5q121 0 187 48t110 167
l37 129q21 106 -23 151t-159 45q-132 0 -198 -56.5t-113 -209.5z" />
    <glyph glyph-name="Emacron" unicode="&#x112;" horiz-adv-x="1294" 
d="M487 561l-79 -276h735l-82 -285h-1098l393 1362h1092l-82 -285h-729l-72 -252h666l-76 -264h-668zM516 1501l59 205h848l-59 -205h-848z" />
    <glyph glyph-name="emacron" unicode="&#x113;" horiz-adv-x="1208" 
d="M483 -33q-117 0 -206.5 30t-143.5 82.5t-81 125t-24 157.5t33 179q151 516 676 516q117 0 205.5 -30t140.5 -82t78 -122.5t24.5 -149.5t-26.5 -165q-6 -19 -17.5 -50.5t-13.5 -35.5h-766q-22 -119 20.5 -169t145.5 -50q88 0 138.5 25.5t87.5 80.5h342
q-30 -60 -63.5 -107.5t-85.5 -93t-115 -75.5t-152 -48t-197 -18zM373 1171l55 191h784l-55 -191h-784zM424 625h436q24 104 -15 152t-143 48q-101 0 -164.5 -42t-113.5 -158z" />
    <glyph glyph-name="Edotaccent" unicode="&#x116;" horiz-adv-x="1294" 
d="M487 561l-79 -276h735l-82 -285h-1098l393 1362h1092l-82 -285h-729l-72 -252h666l-76 -264h-668zM756 1491l59 215h367l-62 -215h-364z" />
    <glyph glyph-name="edotaccent" unicode="&#x117;" horiz-adv-x="1208" 
d="M483 -33q-117 0 -206.5 30t-143.5 82.5t-81 125t-24 157.5t33 179q151 516 676 516q117 0 205.5 -30t140.5 -82t78 -122.5t24.5 -149.5t-26.5 -165q-6 -19 -17.5 -50.5t-13.5 -35.5h-766q-22 -119 20.5 -169t145.5 -50q88 0 138.5 25.5t87.5 80.5h342
q-30 -60 -63.5 -107.5t-85.5 -93t-115 -75.5t-152 -48t-197 -18zM424 625h436q24 104 -15 152t-143 48q-101 0 -164.5 -42t-113.5 -158zM575 1149l62 213h367l-62 -213h-367z" />
    <glyph glyph-name="Eogonek" unicode="&#x118;" horiz-adv-x="1294" 
d="M487 561l-79 -276h735l-82 -285h-213q-28 -40 -35 -70q-16 -58 11.5 -91.5t78.5 -33.5q53 0 105 15l-58 -211q-61 -25 -145 -25q-132 0 -197 80.5t-30 200.5q22 76 75 135h-690l393 1362h1092l-82 -285h-729l-72 -252h666l-76 -264h-668z" />
    <glyph glyph-name="eogonek" unicode="&#x119;" horiz-adv-x="1208" 
d="M483 -33q-117 0 -206.5 30t-143.5 82.5t-81 125t-24 157.5t33 179q151 516 676 516q117 0 205.5 -30t140.5 -82t78 -122.5t24.5 -149.5t-26.5 -165q-6 -19 -17.5 -50.5t-13.5 -35.5h-766q-22 -119 20.5 -169t145.5 -50q88 0 138.5 25.5t87.5 80.5h342q-47 -95 -112 -165
t-161 -113q-42 -47 -57 -101q-16 -58 11.5 -91.5t78.5 -33.5q52 0 105 15l-58 -211q-61 -25 -145 -25q-132 0 -197.5 80.5t-30.5 200.5q13 52 54 106q-66 -4 -101 -4zM424 625h436q24 104 -15 152t-143 48q-101 0 -164.5 -42t-113.5 -158z" />
    <glyph glyph-name="Ecaron" unicode="&#x11a;" horiz-adv-x="1294" 
d="M487 561l-79 -276h735l-82 -285h-1098l393 1362h1092l-82 -285h-729l-72 -252h666l-76 -264h-668zM633 1616l108 117l201 -131l272 131l82 -117l-286 -152h-158z" />
    <glyph glyph-name="ecaron" unicode="&#x11b;" horiz-adv-x="1208" 
d="M483 -33q-117 0 -206.5 30t-143.5 82.5t-81 125t-24 157.5t33 179q151 516 676 516q117 0 205.5 -30t140.5 -82t78 -122.5t24.5 -149.5t-26.5 -165q-6 -19 -17.5 -50.5t-13.5 -35.5h-766q-22 -119 20.5 -169t145.5 -50q88 0 138.5 25.5t87.5 80.5h342
q-30 -60 -63.5 -107.5t-85.5 -93t-115 -75.5t-152 -48t-197 -18zM424 625h436q24 104 -15 152t-143 48q-101 0 -164.5 -42t-113.5 -158zM461 1292l108 115l201 -131l272 131l82 -117l-286 -149h-158z" />
    <glyph glyph-name="Gbreve" unicode="&#x11e;" horiz-adv-x="1583" 
d="M580 -33q-123 0 -220.5 36t-160 101.5t-95 155.5t-29.5 200.5t40 233.5q34 119 86 221t131.5 192.5t179.5 153.5t234.5 99.5t291.5 36.5q114 0 207.5 -18t157.5 -50.5t110.5 -77t67.5 -98.5t27.5 -115.5t-9.5 -126.5h-360q18 102 -41.5 154.5t-210.5 52.5
q-95 0 -168 -21.5t-136 -72t-111.5 -135.5t-86.5 -209q-67 -220 -15 -327t235 -107q168 0 269.5 67t166.5 207h-441l68 228h782l-215 -748h-299l60 229q-30 -51 -73 -94.5t-105 -83t-149 -62t-189 -22.5zM811 1696h193q-8 -42 18 -68t82 -26q116 0 151 94h195
q-10 -36 -25 -65.5t-43.5 -59.5t-66.5 -50t-96.5 -33t-131.5 -13t-128 13.5t-85 35.5t-49 51t-19 59.5t5 61.5z" />
    <glyph glyph-name="gbreve" unicode="&#x11f;" horiz-adv-x="1323" 
d="M397 -432q-136 0 -237.5 32t-157.5 87t-77 125t-5 149h342q-10 -74 29.5 -111.5t157.5 -37.5q121 0 184 39.5t98 152.5l45 158q-134 -131 -352 -131q-95 0 -169 27.5t-120.5 77.5t-70 117t-20.5 149t32 171q140 484 583 484q257 0 326 -168l39 133h354l-278 -963
q-54 -179 -133.5 -283t-217 -156t-352.5 -52zM414 535q-32 -94 -20 -148.5t56.5 -76t131.5 -21.5q124 0 188.5 49.5t106.5 173.5l22 74q23 107 -16 152.5t-156 45.5q-134 0 -201.5 -52.5t-111.5 -196.5zM565 1362h195q-9 -42 16.5 -68t81.5 -26q115 0 154 94h192
q-13 -46 -35 -81.5t-62 -69t-107.5 -52t-157.5 -18.5q-73 0 -128 13.5t-85.5 35.5t-49.5 51t-19 59.5t5 61.5z" />
    <glyph glyph-name="Gdotaccent" unicode="&#x120;" horiz-adv-x="1583" 
d="M580 -33q-123 0 -220.5 36t-160 101.5t-95 155.5t-29.5 200.5t40 233.5q34 119 86 221t131.5 192.5t179.5 153.5t234.5 99.5t291.5 36.5q114 0 207.5 -18t157.5 -50.5t110.5 -77t67.5 -98.5t27.5 -115.5t-9.5 -126.5h-360q18 102 -41.5 154.5t-210.5 52.5
q-95 0 -168 -21.5t-136 -72t-111.5 -135.5t-86.5 -209q-67 -220 -15 -327t235 -107q168 0 269.5 67t166.5 207h-441l68 228h782l-215 -748h-299l60 229q-30 -51 -73 -94.5t-105 -83t-149 -62t-189 -22.5zM891 1491l59 215h367l-62 -215h-364z" />
    <glyph glyph-name="gdotaccent" unicode="&#x121;" horiz-adv-x="1323" 
d="M397 -432q-136 0 -237.5 32t-157.5 87t-77 125t-5 149h342q-10 -74 29.5 -111.5t157.5 -37.5q121 0 184 39.5t98 152.5l45 158q-134 -131 -352 -131q-95 0 -169 27.5t-120.5 77.5t-70 117t-20.5 149t32 171q140 484 583 484q257 0 326 -168l39 133h354l-278 -963
q-54 -179 -133.5 -283t-217 -156t-352.5 -52zM414 535q-32 -94 -20 -148.5t56.5 -76t131.5 -21.5q124 0 188.5 49.5t106.5 173.5l22 74q23 107 -16 152.5t-156 45.5q-134 0 -201.5 -52.5t-111.5 -196.5zM655 1149l62 213h366l-61 -213h-367z" />
    <glyph glyph-name="uni0122" unicode="&#x122;" horiz-adv-x="1583" 
d="M580 -33q-123 0 -220.5 36t-160 101.5t-95 155.5t-29.5 200.5t40 233.5q34 119 86 221t131.5 192.5t179.5 153.5t234.5 99.5t291.5 36.5q114 0 207.5 -18t157.5 -50.5t110.5 -77t67.5 -98.5t27.5 -115.5t-9.5 -126.5h-360q18 102 -41.5 154.5t-210.5 52.5
q-95 0 -168 -21.5t-136 -72t-111.5 -135.5t-86.5 -209q-67 -220 -15 -327t235 -107q168 0 269.5 67t166.5 207h-441l68 228h782l-215 -748h-299l60 229q-30 -51 -73 -94.5t-105 -83t-149 -62t-189 -22.5zM328 -573l49 165h121l39 140h-121l51 172h315l-71 -250
q-16 -54 -37 -92.5t-55.5 -70.5t-87.5 -48t-125 -16h-78z" />
    <glyph glyph-name="uni0123" unicode="&#x123;" horiz-adv-x="1323" 
d="M397 -432q-136 0 -237.5 32t-157.5 87t-77 125t-5 149h342q-10 -74 29.5 -111.5t157.5 -37.5q121 0 184 39.5t98 152.5l45 158q-134 -131 -352 -131q-95 0 -169 27.5t-120.5 77.5t-70 117t-20.5 149t32 171q140 484 583 484q257 0 326 -168l39 133h354l-278 -963
q-54 -179 -133.5 -283t-217 -156t-352.5 -52zM414 535q-32 -94 -20 -148.5t56.5 -76t131.5 -21.5q124 0 188.5 49.5t106.5 173.5l22 74q23 107 -16 152.5t-156 45.5q-134 0 -201.5 -52.5t-111.5 -196.5zM692 1147l94 297q16 54 37 92.5t56 71t88 49t125 16.5h77l-53 -174
h-121l-49 -162h121l-59 -190h-316z" />
    <glyph glyph-name="Hbar" unicode="&#x126;" horiz-adv-x="1785" 
d="M262 1227h184l39 135h367l-39 -135h563l39 135h367l-39 -135h196l-69 -238h-197l-284 -989h-367l160 551h-564l-159 -551h-367l285 989h-184zM698 831h564l45 158h-564z" />
    <glyph glyph-name="hbar" unicode="&#x127;" horiz-adv-x="1347" 
d="M236 1325h161l31 109h354l-30 -109h350l-55 -184h-349l-82 -285q157 201 392 201q98 0 167.5 -33.5t102.5 -92t40.5 -138t-18.5 -170.5l-180 -623h-352l162 563q35 113 8 161t-125 48q-110 0 -179 -62.5t-124 -226.5l-139 -483h-355l328 1141h-162z" />
    <glyph glyph-name="Imacron" unicode="&#x12a;" horiz-adv-x="1036" 
d="M-49 0l82 285h239l230 792h-240l82 285h840l-82 -285h-240l-227 -792h237l-81 -285h-840zM381 1501l59 205h848l-59 -205h-848z" />
    <glyph glyph-name="imacron" unicode="&#x12b;" horiz-adv-x="546" 
d="M-49 0l295 1024h352l-295 -1024h-352zM72 1171l55 191h784l-55 -191h-784z" />
    <glyph glyph-name="Iogonek" unicode="&#x12e;" horiz-adv-x="1036" 
d="M-49 0l82 285h239l230 792h-240l82 285h840l-82 -285h-240l-227 -792h237l-81 -285h-189q-28 -40 -35 -70q-16 -58 11.5 -91.5t78.5 -33.5q53 0 105 15l-57 -211q-61 -25 -146 -25q-132 0 -197 80.5t-30 200.5q21 74 76 135h-457z" />
    <glyph glyph-name="iogonek" unicode="&#x12f;" horiz-adv-x="546" 
d="M274 1149l62 213h366l-61 -213h-367zM-133 -135q24 82 88 149l291 1010h352l-295 -1024h-166q-28 -40 -35 -70q-16 -58 12 -91.5t79 -33.5t104 15l-57 -211q-61 -25 -146 -25q-132 0 -197 80.5t-30 200.5z" />
    <glyph glyph-name="Idotaccent" unicode="&#x130;" horiz-adv-x="1036" 
d="M-49 0l82 285h239l230 792h-240l82 285h840l-82 -285h-240l-227 -792h237l-81 -285h-840zM621 1491l59 215h367l-62 -215h-364z" />
    <glyph glyph-name="dotlessi" unicode="&#x131;" horiz-adv-x="546" 
d="M-49 0l295 1024h352l-295 -1024h-352z" />
    <glyph glyph-name="uni0136" unicode="&#x136;" horiz-adv-x="1452" 
d="M-37 0l393 1362h363l-174 -600l125 117l536 483h480l-691 -580l299 -764l-6 -18h-403l-185 535l-290 -246l-84 -289h-363zM281 -573l49 165h121l38 140h-120l51 172h315l-71 -250q-16 -54 -37 -92.5t-56 -70.5t-88 -48t-125 -16h-77z" />
    <glyph glyph-name="uni0137" unicode="&#x137;" horiz-adv-x="1288" 
d="M741 0l-161 365l-211 -164l-58 -201h-352l414 1434h352l-250 -867q99 103 150 148l352 309h440l-2 -8l-565 -441l287 -575h-396zM180 -573l49 165h121l39 140h-121l51 172h316l-72 -250q-16 -54 -37 -92.5t-55.5 -70.5t-87.5 -48t-125 -16h-78z" />
    <glyph glyph-name="Lacute" unicode="&#x139;" horiz-adv-x="1138" 
d="M-37 0l393 1362h367l-311 -1077h612l-82 -285h-979zM281 1563l561 172l61 -215l-602 -43z" />
    <glyph glyph-name="lacute" unicode="&#x13a;" horiz-adv-x="563" 
d="M-41 0l414 1434h352l-414 -1434h-352zM289 1634l561 172l61 -215l-602 -43z" />
    <glyph glyph-name="uni013B" unicode="&#x13b;" horiz-adv-x="1138" 
d="M-37 0l393 1362h367l-311 -1077h612l-82 -285h-979zM117 -573l49 165h121l39 140h-121l51 172h315l-71 -250q-16 -54 -37 -92.5t-55.5 -70.5t-87.5 -48t-125 -16h-78z" />
    <glyph glyph-name="uni013C" unicode="&#x13c;" horiz-adv-x="563" 
d="M-41 0l414 1434h352l-414 -1434h-352zM-178 -573l49 165h121l39 140h-121l51 172h315l-71 -250q-16 -54 -37 -92.5t-55.5 -70.5t-87.5 -48t-125 -16h-78z" />
    <glyph glyph-name="Lcaron" unicode="&#x13d;" horiz-adv-x="1138" 
d="M-37 0l393 1362h367l-311 -1077h612l-82 -285h-979zM887 1137l137 569h287l-193 -569h-231z" />
    <glyph glyph-name="lcaron" unicode="&#x13e;" horiz-adv-x="1003" 
d="M-41 0l414 1434h352l-414 -1434h-352zM768 864l137 570h287l-193 -570h-231z" />
    <glyph glyph-name="Lslash" unicode="&#x141;" horiz-adv-x="1327" 
d="M102 678l273 96l170 588h366l-129 -444l361 126l-78 -268l-358 -127l-107 -364h612l-82 -285h-978l145 506l-272 -96z" />
    <glyph glyph-name="lslash" unicode="&#x142;" horiz-adv-x="950" 
d="M109 698l280 99l184 637h353l-146 -502l264 92l-77 -268l-262 -92l-193 -664h-352l151 528l-280 -98z" />
    <glyph glyph-name="Nacute" unicode="&#x143;" horiz-adv-x="1579" 
d="M1061 291l309 1071h344l-393 -1362h-569l-121 889q-13 96 -13 184l-311 -1073h-344l393 1362h570l123 -907q9 -70 12 -164zM786 1563l562 172l61 -215l-602 -43z" />
    <glyph glyph-name="nacute" unicode="&#x144;" horiz-adv-x="1288" 
d="M-53 0l295 1024h354l-49 -170q162 203 393 203q98 0 167.5 -33.5t103 -92t41 -138t-18.5 -170.5l-180 -623h-353l162 563q35 113 8 161t-125 48q-110 0 -179 -62.5t-124 -226.5h-2l-139 -483h-354zM514 1221l563 172l60 -213l-600 -43z" />
    <glyph glyph-name="uni0145" unicode="&#x145;" horiz-adv-x="1579" 
d="M1061 291l309 1071h344l-393 -1362h-569l-121 889q-13 96 -13 184l-311 -1073h-344l393 1362h570l123 -907q9 -70 12 -164zM340 -573l49 165h121l39 140h-121l51 172h316l-72 -250q-16 -54 -37 -92.5t-55.5 -70.5t-87.5 -48t-125 -16h-78z" />
    <glyph glyph-name="uni0146" unicode="&#x146;" horiz-adv-x="1288" 
d="M-53 0l295 1024h354l-49 -170q162 203 393 203q98 0 167.5 -33.5t103 -92t41 -138t-18.5 -170.5l-180 -623h-353l162 563q35 113 8 161t-125 48q-110 0 -179 -62.5t-124 -226.5h-2l-139 -483h-354zM182 -573l49 165h121l39 140h-121l52 172h315l-72 -250
q-16 -54 -37 -92.5t-55.5 -70.5t-87.5 -48t-125 -16h-78z" />
    <glyph glyph-name="Ncaron" unicode="&#x147;" horiz-adv-x="1579" 
d="M1061 291l309 1071h344l-393 -1362h-569l-121 889q-13 96 -13 184l-311 -1073h-344l393 1362h570l123 -907q9 -70 12 -164zM780 1616l109 117l201 -131l272 131l82 -117l-287 -152h-158z" />
    <glyph glyph-name="ncaron" unicode="&#x148;" horiz-adv-x="1288" 
d="M-53 0l295 1024h354l-49 -170q162 203 393 203q98 0 167.5 -33.5t103 -92t41 -138t-18.5 -170.5l-180 -623h-353l162 563q35 113 8 161t-125 48q-110 0 -179 -62.5t-124 -226.5h-2l-139 -483h-354zM508 1292l108 115l201 -131l273 131l81 -117l-286 -149h-158z" />
    <glyph glyph-name="Eng" unicode="&#x14a;" horiz-adv-x="1669" 
d="M1108 291l309 1071h344l-407 -1415q-61 -206 -182 -304t-347 -98h-186l80 279h254l51 176h-227l-123 889q-12 89 -12 184l-310 -1073h-346l393 1362h574l121 -907q10 -63 14 -164z" />
    <glyph glyph-name="eng" unicode="&#x14b;" horiz-adv-x="1277" 
d="M334 -410l80 279h245l201 694q34 110 5 159.5t-126 49.5q-106 0 -179 -66.5t-124 -224.5l-139 -481h-352l295 1024h352l-51 -178q160 211 397 211q192 0 266.5 -121.5t26.5 -312.5l-182 -629q-41 -137 -102.5 -223t-167 -133.5t-259.5 -47.5h-186z" />
    <glyph glyph-name="Omacron" unicode="&#x14c;" horiz-adv-x="1576" 
d="M664 -33q-150 0 -264.5 39.5t-183.5 108.5t-103 163t-31 202t39 225q210 692 893 692q151 0 266 -41t183 -111.5t102 -165t31 -200.5t-37 -220q-39 -124 -89 -224t-125.5 -189.5t-170 -149.5t-224 -94.5t-286.5 -34.5zM483 680q-70 -212 -20 -315t248 -103q109 0 185 23
t131.5 77t92 128t72.5 190q44 142 41.5 235.5t-66.5 139t-198 45.5q-109 0 -185.5 -23t-132.5 -77.5t-94 -128.5t-74 -191zM643 1501l59 205h848l-59 -205h-848z" />
    <glyph glyph-name="omacron" unicode="&#x14d;" horiz-adv-x="1275" 
d="M520 -33q-103 0 -186 21.5t-139.5 60t-94 91t-53 116t-12.5 134t24 145.5q24 88 61 163t96 142.5t135 114.5t180.5 74.5t228.5 27.5q101 0 183 -21t138.5 -59.5t94 -91t53 -116t13 -135t-24.5 -147.5q-22 -84 -58 -157t-94.5 -141t-134 -116t-181 -77t-229.5 -29z
M406 512q-24 -80 -27 -131.5t17 -82.5t59 -43.5t104 -12.5q132 0 198 56t113 214q24 80 27 131.5t-17 82.5t-59 43.5t-104 12.5q-132 0 -198.5 -56t-112.5 -214zM406 1171l55 191h784l-55 -191h-784z" />
    <glyph glyph-name="Ohungarumlaut" unicode="&#x150;" horiz-adv-x="1576" 
d="M664 -33q-150 0 -264.5 39.5t-183.5 108.5t-103 163t-31 202t39 225q210 692 893 692q151 0 266 -41t183 -111.5t102 -165t31 -200.5t-37 -220q-39 -124 -89 -224t-125.5 -189.5t-170 -149.5t-224 -94.5t-286.5 -34.5zM483 680q-70 -212 -20 -315t248 -103q109 0 185 23
t131.5 77t92 128t72.5 190q44 142 41.5 235.5t-66.5 139t-198 45.5q-109 0 -185.5 -23t-132.5 -77.5t-94 -128.5t-74 -191zM713 1497l258 275l153 -160l-352 -180zM1167 1509l258 277l154 -162l-352 -178z" />
    <glyph glyph-name="ohungarumlaut" unicode="&#x151;" horiz-adv-x="1275" 
d="M520 -33q-103 0 -186 21.5t-139.5 60t-94 91t-53 116t-12.5 134t24 145.5q24 88 61 163t96 142.5t135 114.5t180.5 74.5t228.5 27.5q101 0 183 -21t138.5 -59.5t94 -91t53 -116t13 -135t-24.5 -147.5q-22 -84 -58 -157t-94.5 -141t-134 -116t-181 -77t-229.5 -29z
M406 512q-24 -80 -27 -131.5t17 -82.5t59 -43.5t104 -12.5q132 0 198 56t113 214q24 80 27 131.5t-17 82.5t-59 43.5t-104 12.5q-132 0 -198.5 -56t-112.5 -214zM453 1186l258 274l153 -160l-352 -178zM907 1200l258 275l154 -160l-350 -180z" />
    <glyph glyph-name="OE" unicode="&#x152;" horiz-adv-x="2361" 
d="M1554 561l-79 -276h735l-82 -285h-1096l51 176q-79 -94 -200 -151.5t-281 -57.5q-135 0 -239 39t-166 107.5t-92.5 161t-26.5 199.5t39 222q35 117 85 217.5t123 191t162.5 154t208.5 101t256 37.5q172 0 278.5 -57.5t141.5 -157.5l53 180h1090l-82 -285h-729l-72 -252
h666l-76 -264h-668zM481 680q-41 -140 -36 -233t71 -140t201 -47q108 0 185 25.5t131.5 81.5t90 129t68.5 184q43 141 39 234.5t-69.5 140.5t-200.5 47q-105 0 -182 -25.5t-132.5 -81t-93.5 -130t-72 -185.5z" />
    <glyph glyph-name="oe" unicode="&#x153;" horiz-adv-x="1972" 
d="M504 -33q-120 0 -212.5 30t-146.5 83t-84.5 124.5t-28 154t24.5 171.5q23 87 60.5 162.5t97.5 143.5t136 116t180.5 76.5t226.5 28.5q249 0 350 -146q165 146 408 146q115 0 201.5 -30t136.5 -81t74.5 -121.5t22 -150t-27.5 -166.5q-15 -49 -31 -86h-768
q-22 -120 22 -169.5t146 -49.5q85 0 138.5 26.5t89.5 79.5h342q-37 -76 -84.5 -133t-119.5 -106.5t-176 -76t-237 -26.5q-242 0 -336 121q-150 -121 -405 -121zM403 512q-24 -79 -26.5 -131t18 -83t60 -43.5t104.5 -12.5q133 0 201 58.5t112 211.5q23 79 25 131t-18 83
t-59.5 43.5t-104.5 12.5q-131 0 -199.5 -58.5t-112.5 -211.5zM1186 627h438q24 103 -14.5 150.5t-141.5 47.5q-102 0 -167 -42.5t-115 -155.5z" />
    <glyph glyph-name="Racute" unicode="&#x154;" horiz-adv-x="1402" 
d="M1214 246q-16 -52 -25 -98t-11.5 -71.5t-6.5 -76.5h-366q-3 90 45 246l16 55q30 97 -11.5 145t-135.5 48h-248l-141 -494h-367l393 1362h703q95 0 170.5 -21.5t122.5 -60t75.5 -90.5t29.5 -113t-17 -129q-35 -131 -137 -214t-240 -109q244 -50 174 -303zM547 752h278
q100 0 157 41t83 131q25 84 -8 122.5t-129 38.5h-285zM649 1563l561 172l62 -215l-602 -43z" />
    <glyph glyph-name="racute" unicode="&#x155;" horiz-adv-x="851" 
d="M-55 0l297 1024h342l-60 -207q62 112 147.5 167.5t209.5 55.5h86l-99 -344h-127q-136 0 -202.5 -59.5t-116.5 -224.5l-119 -412h-358zM299 1221l563 172l60 -213l-600 -43z" />
    <glyph glyph-name="uni0156" unicode="&#x156;" horiz-adv-x="1402" 
d="M1214 246q-16 -52 -25 -98t-11.5 -71.5t-6.5 -76.5h-366q-3 90 45 246l16 55q30 97 -11.5 145t-135.5 48h-248l-141 -494h-367l393 1362h703q95 0 170.5 -21.5t122.5 -60t75.5 -90.5t29.5 -113t-17 -129q-35 -131 -137 -214t-240 -109q244 -50 174 -303zM240 -573l49 165
h121l39 140h-121l51 172h315l-71 -250q-16 -54 -37 -92.5t-56 -70.5t-88 -48t-125 -16h-77zM547 752h278q100 0 157 41t83 131q25 84 -8 122.5t-129 38.5h-285z" />
    <glyph glyph-name="uni0157" unicode="&#x157;" horiz-adv-x="851" 
d="M-55 0l297 1024h342l-60 -207q62 112 147.5 167.5t209.5 55.5h86l-99 -344h-127q-136 0 -202.5 -59.5t-116.5 -224.5l-119 -412h-358zM-190 -573l49 165h121l38 140h-120l51 172h315l-71 -250q-16 -54 -37 -92.5t-56 -70.5t-88 -48t-125 -16h-77z" />
    <glyph glyph-name="Rcaron" unicode="&#x158;" horiz-adv-x="1402" 
d="M1214 246q-16 -52 -25 -98t-11.5 -71.5t-6.5 -76.5h-366q-3 90 45 246l16 55q30 97 -11.5 145t-135.5 48h-248l-141 -494h-367l393 1362h703q95 0 170.5 -21.5t122.5 -60t75.5 -90.5t29.5 -113t-17 -129q-35 -131 -137 -214t-240 -109q244 -50 174 -303zM547 752h278
q100 0 157 41t83 131q25 84 -8 122.5t-129 38.5h-285zM643 1616l109 117l200 -131l273 131l82 -117l-287 -152h-158z" />
    <glyph glyph-name="rcaron" unicode="&#x159;" horiz-adv-x="851" 
d="M-55 0l297 1024h342l-60 -207q62 112 147.5 167.5t209.5 55.5h86l-99 -344h-127q-136 0 -202.5 -59.5t-116.5 -224.5l-119 -412h-358zM305 1292l109 115l200 -131l273 131l82 -117l-287 -149h-158z" />
    <glyph glyph-name="Sacute" unicode="&#x15a;" horiz-adv-x="1359" 
d="M397 442q-51 -215 213 -215q130 0 193.5 35.5t91.5 120.5q39 130 -115 152l-266 36q-189 26 -258.5 133t-19.5 281q52 190 221.5 301t453.5 111q103 0 186.5 -16t141.5 -45t99.5 -69.5t60 -90t23 -106t-10.5 -116.5h-354q18 95 -32 138t-167 43q-108 0 -172.5 -34
t-91.5 -112q-34 -118 108 -135l234 -31q224 -27 298 -135.5t17 -300.5q-27 -100 -77.5 -174.5t-133 -131.5t-206 -86.5t-285.5 -29.5q-94 0 -172 13.5t-134 38t-97.5 59.5t-65.5 76t-35.5 89t-10.5 97.5t13 103.5h350zM666 1563l561 172l61 -215l-602 -43z" />
    <glyph glyph-name="sacute" unicode="&#x15b;" horiz-adv-x="1112" 
d="M299 330q-15 -72 26 -112t138 -40q91 0 134.5 23t55.5 73q11 44 -12 75t-104 42l-193 29q-146 21 -199 107.5t-14 222.5q20 80 69.5 140t122.5 96t161.5 53.5t193.5 17.5q223 0 337 -81.5t89 -254.5h-318q12 67 -22.5 97t-120.5 30q-88 0 -133.5 -23t-58.5 -75
q-9 -40 13.5 -67.5t90.5 -35.5l186 -24q172 -23 230.5 -110t17.5 -234q-15 -57 -41 -102t-70 -85.5t-105 -67t-149.5 -42t-199.5 -15.5q-92 0 -166 14t-123.5 38.5t-85.5 58.5t-51.5 74.5t-21.5 85.5t4 92h319zM401 1221l564 172l59 -213l-600 -43z" />
    <glyph glyph-name="Scedilla" unicode="&#x15e;" horiz-adv-x="1359" 
d="M397 442q-51 -215 213 -215q130 0 193.5 35.5t91.5 120.5q39 130 -115 152l-266 36q-189 26 -258.5 133t-19.5 281q52 190 221.5 301t453.5 111q103 0 186.5 -16t141.5 -45t99.5 -69.5t60 -90t23 -106t-10.5 -116.5h-354q18 95 -32 138t-167 43q-108 0 -172.5 -34
t-91.5 -112q-34 -118 108 -135l234 -31q224 -27 298 -135.5t17 -300.5q-48 -180 -181 -286t-378 -130l-12 -155q-6 -89 -69 -148t-160 -59h-234l62 213h163l9 147q-107 10 -188 40.5t-127.5 75.5t-74 103t-27.5 122t13 132h350z" />
    <glyph glyph-name="scedilla" unicode="&#x15f;" horiz-adv-x="1112" 
d="M299 330q-15 -72 26 -112t138 -40q91 0 134.5 23t55.5 73q11 44 -12 75t-104 42l-193 29q-146 21 -199 107.5t-14 222.5q20 80 69.5 140t122.5 96t161.5 53.5t193.5 17.5q223 0 337 -81.5t89 -254.5h-318q12 67 -22.5 97t-120.5 30q-88 0 -133.5 -23t-58.5 -75
q-9 -40 13.5 -67.5t90.5 -35.5l186 -24q172 -23 230.5 -110t17.5 -234q-35 -127 -131.5 -204.5t-286.5 -99.5l-12 -159q-6 -89 -69 -148t-160 -59h-234l62 213h164l8 149q-108 10 -184 43t-114.5 83t-50.5 108t-1 125h319z" />
    <glyph glyph-name="Scaron" unicode="&#x160;" horiz-adv-x="1359" 
d="M397 442q-51 -215 213 -215q130 0 193.5 35.5t91.5 120.5q39 130 -115 152l-266 36q-189 26 -258.5 133t-19.5 281q52 190 221.5 301t453.5 111q103 0 186.5 -16t141.5 -45t99.5 -69.5t60 -90t23 -106t-10.5 -116.5h-354q18 95 -32 138t-167 43q-108 0 -172.5 -34
t-91.5 -112q-34 -118 108 -135l234 -31q224 -27 298 -135.5t17 -300.5q-27 -100 -77.5 -174.5t-133 -131.5t-206 -86.5t-285.5 -29.5q-94 0 -172 13.5t-134 38t-97.5 59.5t-65.5 76t-35.5 89t-10.5 97.5t13 103.5h350zM662 1616l108 117l201 -131l272 131l82 -117l-287 -152
h-157z" />
    <glyph glyph-name="scaron" unicode="&#x161;" horiz-adv-x="1112" 
d="M299 330q-15 -72 26 -112t138 -40q91 0 134.5 23t55.5 73q11 44 -12 75t-104 42l-193 29q-146 21 -199 107.5t-14 222.5q20 80 69.5 140t122.5 96t161.5 53.5t193.5 17.5q223 0 337 -81.5t89 -254.5h-318q12 67 -22.5 97t-120.5 30q-88 0 -133.5 -23t-58.5 -75
q-9 -40 13.5 -67.5t90.5 -35.5l186 -24q172 -23 230.5 -110t17.5 -234q-15 -57 -41 -102t-70 -85.5t-105 -67t-149.5 -42t-199.5 -15.5q-92 0 -166 14t-123.5 38.5t-85.5 58.5t-51.5 74.5t-21.5 85.5t4 92h319zM410 1292l108 115l201 -131l272 131l82 -117l-287 -149h-157z
" />
    <glyph glyph-name="uni0162" unicode="&#x162;" horiz-adv-x="1277" 
d="M309 0l314 1077h-439l82 285h1237l-82 -285h-436l-311 -1077h-27l-14 -182q-6 -89 -69.5 -148t-160.5 -59h-233l61 213h164l11 176h-97z" />
    <glyph glyph-name="uni0163" unicode="&#x163;" horiz-adv-x="884" 
d="M8 -391l62 213h163l13 215q-165 79 -109 325l125 398h-180l47 164l246 92l207 254h180l-70 -246h277l-78 -264h-275l-141 -481h273l-80 -279h-183l-14 -184q-6 -89 -69 -148t-160 -59h-234z" />
    <glyph glyph-name="Tcaron" unicode="&#x164;" horiz-adv-x="1277" 
d="M309 0l314 1077h-439l82 285h1237l-82 -285h-436l-311 -1077h-365zM618 1616l109 117l201 -131l272 131l82 -117l-287 -152h-157z" />
    <glyph glyph-name="tcaron" unicode="&#x165;" horiz-adv-x="983" 
d="M453 0q-400 0 -316 362l125 398h-180l47 164l246 92l207 254h180l-70 -246h277l-78 -264h-275l-141 -481h273l-80 -279h-215zM838 1116l63 318h287l-119 -318h-231z" />
    <glyph glyph-name="Tbar" unicode="&#x166;" horiz-adv-x="1277" 
d="M14 489l82 285h439l88 303h-439l82 285h1237l-82 -285h-436l-88 -303h436l-82 -285h-436l-141 -489h-365l142 489h-437z" />
    <glyph glyph-name="tbar" unicode="&#x167;" horiz-adv-x="876" 
d="M455 0q-153 0 -231.5 46t-90 135.5t26.5 221.5l12 41h-180l57 203h182l33 113h-182l49 164l234 92l219 256h180l-72 -248h279l-76 -264h-279l-32 -113h278l-59 -203h-279l-47 -165h246l-80 -279h-188z" />
    <glyph glyph-name="Umacron" unicode="&#x16a;" horiz-adv-x="1458" 
d="M106 535l236 827h363l-232 -797q-26 -89 -28.5 -147t21 -93t69 -49t122.5 -14q61 0 104.5 7.5t82.5 26t68.5 53t55.5 87t50 129.5l229 797h363l-250 -852q-86 -287 -260.5 -415t-491.5 -128q-316 0 -447.5 149.5t-54.5 418.5zM592 1501l59 205h848l-59 -205h-848z" />
    <glyph glyph-name="umacron" unicode="&#x16b;" horiz-adv-x="1277" 
d="M342 -33q-193 0 -268.5 122t-26.5 312l180 623h355l-164 -563q-35 -113 -7.5 -161t126.5 -48q98 0 164 51t118 180l160 541h354l-297 -1024h-342l47 180q-162 -213 -399 -213zM432 1171l55 191h785l-55 -191h-785z" />
    <glyph glyph-name="Uring" unicode="&#x16e;" horiz-adv-x="1458" 
d="M106 535l236 827h363l-232 -797q-26 -89 -28.5 -147t21 -93t69 -49t122.5 -14q61 0 104.5 7.5t82.5 26t68.5 53t55.5 87t50 129.5l229 797h363l-250 -852q-86 -287 -260.5 -415t-491.5 -128q-316 0 -447.5 149.5t-54.5 418.5zM821 1675q27 94 107.5 160t193.5 66
q117 0 167 -69.5t18 -172.5q-26 -96 -107 -162.5t-194 -66.5q-117 0 -167 70t-18 175zM979 1667q-11 -41 6.5 -62.5t54.5 -21.5q36 0 67 21.5t42 62.5t-6.5 61.5t-55.5 20.5q-36 0 -66.5 -21t-41.5 -61z" />
    <glyph glyph-name="uring" unicode="&#x16f;" horiz-adv-x="1277" 
d="M342 -33q-193 0 -268.5 122t-26.5 312l180 623h355l-164 -563q-35 -113 -7.5 -161t126.5 -48q98 0 164 51t118 180l160 541h354l-297 -1024h-342l47 180q-162 -213 -399 -213zM670 1321q18 72 83 123t154 51q91 0 133 -59t17 -140q-20 -72 -85.5 -122t-154.5 -50
q-91 0 -131.5 57t-15.5 140zM795 1311q-9 -34 5.5 -52t43.5 -18t53 18t33 52q10 32 -3.5 48.5t-43.5 16.5t-54 -16.5t-34 -48.5z" />
    <glyph glyph-name="Uhungarumlaut" unicode="&#x170;" horiz-adv-x="1458" 
d="M106 535l236 827h363l-232 -797q-26 -89 -28.5 -147t21 -93t69 -49t122.5 -14q61 0 104.5 7.5t82.5 26t68.5 53t55.5 87t50 129.5l229 797h363l-250 -852q-86 -287 -260.5 -415t-491.5 -128q-316 0 -447.5 149.5t-54.5 418.5zM662 1497l258 275l153 -160l-352 -180z
M1116 1509l258 277l154 -162l-352 -178z" />
    <glyph glyph-name="uhungarumlaut" unicode="&#x171;" horiz-adv-x="1277" 
d="M342 -33q-193 0 -268.5 122t-26.5 312l180 623h355l-164 -563q-35 -113 -7.5 -161t126.5 -48q98 0 164 51t118 180l160 541h354l-297 -1024h-342l47 180q-162 -213 -399 -213zM479 1186l258 274l154 -160l-352 -178zM934 1200l258 275l154 -160l-351 -180z" />
    <glyph glyph-name="Uogonek" unicode="&#x172;" horiz-adv-x="1458" 
d="M106 535l236 827h363l-232 -797q-26 -89 -28.5 -147t21 -93t69 -49t122.5 -14q61 0 104.5 7.5t82.5 26t68.5 53t55.5 87t50 129.5l229 797h363l-250 -852q-54 -177 -136.5 -291t-207.5 -174q-53 -53 -72 -115q-16 -58 11.5 -91.5t78.5 -33.5q52 0 105 15l-58 -211
q-61 -25 -145 -25q-132 0 -197 80.5t-30 200.5q18 61 55 110q-63 -8 -156 -8q-316 0 -447.5 149.5t-54.5 418.5z" />
    <glyph glyph-name="uogonek" unicode="&#x173;" horiz-adv-x="1277" 
d="M342 -33q-193 0 -268.5 122t-26.5 312l180 623h355l-164 -563q-35 -113 -7.5 -161t126.5 -48q98 0 164 51t118 180l160 541h354l-297 -1024h-170q-28 -40 -35 -70q-16 -58 12 -91.5t79 -33.5t104 15l-57 -211q-61 -25 -146 -25q-132 0 -197 80.5t-30 200.5q27 95 106 168
l39 147q-162 -213 -399 -213z" />
    <glyph glyph-name="Wcircumflex" unicode="&#x174;" horiz-adv-x="2185" 
d="M1509 225l525 1137h356l-627 -1362h-612l100 1063l-512 -1063h-610l158 1362h354l-131 -1137l559 1137h537zM1049 1599l309 142h158l217 -137l-121 -121l-201 129l-281 -137z" />
    <glyph glyph-name="wcircumflex" unicode="&#x175;" horiz-adv-x="1861" 
d="M115 0l43 1024h346l-47 -739l436 739h379l10 -737l373 737h346l-547 -1024h-487l12 662l-375 -662h-489zM797 1235l284 149h158l221 -151l-108 -117l-209 133l-262 -133z" />
    <glyph glyph-name="Ycircumflex" unicode="&#x176;" horiz-adv-x="1298" 
d="M205 1362h381l73 -447q20 -128 25 -231q58 88 162 231l328 447h413l-790 -969l-113 -393h-360l112 393zM594 1599l309 142h158l217 -137l-121 -121l-201 129l-280 -137z" />
    <glyph glyph-name="ycircumflex" unicode="&#x177;" horiz-adv-x="1202" 
d="M-197 -410l80 279h424l101 160h-209l-43 995h348l28 -594l7 -170l96 170l360 594h353l-621 -1024q-64 -107 -121.5 -177.5t-131.5 -126t-165 -81t-209 -25.5h-297zM465 1235l285 149h157l221 -151l-108 -117l-209 133l-262 -133z" />
    <glyph glyph-name="Ydieresis" unicode="&#x178;" horiz-adv-x="1298" 
d="M205 1362h381l73 -447q20 -128 25 -231q58 88 162 231l328 447h413l-790 -969l-113 -393h-360l112 393zM565 1491l60 215h299l-60 -215h-299zM983 1491l61 215h299l-61 -215h-299z" />
    <glyph glyph-name="Zacute" unicode="&#x179;" horiz-adv-x="1337" 
d="M-90 0l82 285l971 792h-721l82 285h1208l-82 -285l-975 -792h752l-82 -285h-1235zM643 1563l561 172l62 -215l-602 -43z" />
    <glyph glyph-name="zacute" unicode="&#x17a;" horiz-adv-x="1118" 
d="M-80 0l76 256l698 512h-544l73 256h971l-74 -256l-690 -512h547l-74 -256h-983zM451 1221l563 172l59 -213l-600 -43z" />
    <glyph glyph-name="Zdotaccent" unicode="&#x17b;" horiz-adv-x="1337" 
d="M-90 0l82 285l971 792h-721l82 285h1208l-82 -285l-975 -792h752l-82 -285h-1235zM760 1491l59 215h367l-62 -215h-364z" />
    <glyph glyph-name="zdotaccent" unicode="&#x17c;" horiz-adv-x="1118" 
d="M-80 0l76 256l698 512h-544l73 256h971l-74 -256l-690 -512h547l-74 -256h-983zM573 1149l62 213h366l-61 -213h-367z" />
    <glyph glyph-name="Zcaron" unicode="&#x17d;" horiz-adv-x="1337" 
d="M-90 0l82 285l971 792h-721l82 285h1208l-82 -285l-975 -792h752l-82 -285h-1235zM639 1616l109 117l200 -131l273 131l82 -117l-287 -152h-158z" />
    <glyph glyph-name="zcaron" unicode="&#x17e;" horiz-adv-x="1118" 
d="M-80 0l76 256l698 512h-544l73 256h971l-74 -256l-690 -512h547l-74 -256h-983zM459 1292l108 115l201 -131l272 131l82 -117l-286 -149h-158z" />
    <glyph glyph-name="florin" unicode="&#x192;" horiz-adv-x="1292" 
d="M-102 -410l82 279h305l178 620h-260l78 265h260l80 278q30 102 69.5 174t100 124.5t146 78t200.5 25.5h258l-80 -279h-307l-115 -401h260l-78 -265h-258l-143 -495q-31 -103 -70.5 -175t-100 -125t-146 -78.5t-201.5 -25.5h-258z" />
    <glyph glyph-name="uni01CD" unicode="&#x1cd;" horiz-adv-x="1501" 
d="M1348 0h-355l-14 256h-586l-162 -256h-372l858 1362h559zM565 528h400l-33 580zM739 1616l109 117l201 -131l272 131l82 -117l-287 -152h-158z" />
    <glyph glyph-name="uni01CE" unicode="&#x1ce;" horiz-adv-x="1312" 
d="M379 -33q-125 0 -206.5 47t-114 128t-30.5 182t38 217q24 89 55.5 161.5t80.5 140t110.5 113.5t147.5 73.5t189 27.5q259 0 322 -185l45 152h352l-295 -1024h-340l39 145q-154 -178 -393 -178zM408 516q-25 -80 -28.5 -132.5t16.5 -84t59 -44.5t104 -13q112 0 176.5 43
t106.5 151l45 150q22 112 -21.5 155t-154.5 41q-127 0 -191.5 -55.5t-111.5 -210.5zM635 1292l108 115l201 -131l273 131l81 -117l-286 -149h-158z" />
    <glyph glyph-name="uni01CF" unicode="&#x1cf;" horiz-adv-x="1036" 
d="M-49 0l82 285h239l230 792h-240l82 285h840l-82 -285h-240l-227 -792h237l-81 -285h-840zM498 1616l108 117l201 -131l272 131l82 -117l-287 -152h-157z" />
    <glyph glyph-name="uni01D0" unicode="&#x1d0;" horiz-adv-x="546" 
d="M-49 0l295 1024h352l-295 -1024h-352zM160 1292l108 115l201 -131l272 131l82 -117l-286 -149h-158z" />
    <glyph glyph-name="uni01D1" unicode="&#x1d1;" horiz-adv-x="1576" 
d="M664 -33q-150 0 -264.5 39.5t-183.5 108.5t-103 163t-31 202t39 225q210 692 893 692q151 0 266 -41t183 -111.5t102 -165t31 -200.5t-37 -220q-39 -124 -89 -224t-125.5 -189.5t-170 -149.5t-224 -94.5t-286.5 -34.5zM483 680q-70 -212 -20 -315t248 -103q109 0 185 23
t131.5 77t92 128t72.5 190q44 142 41.5 235.5t-66.5 139t-198 45.5q-109 0 -185.5 -23t-132.5 -77.5t-94 -128.5t-74 -191zM762 1616l108 117l201 -131l272 131l82 -117l-286 -152h-158z" />
    <glyph glyph-name="uni01D2" unicode="&#x1d2;" horiz-adv-x="1275" 
d="M520 -33q-103 0 -186 21.5t-139.5 60t-94 91t-53 116t-12.5 134t24 145.5q24 88 61 163t96 142.5t135 114.5t180.5 74.5t228.5 27.5q101 0 183 -21t138.5 -59.5t94 -91t53 -116t13 -135t-24.5 -147.5q-22 -84 -58 -157t-94.5 -141t-134 -116t-181 -77t-229.5 -29z
M406 512q-24 -80 -27 -131.5t17 -82.5t59 -43.5t104 -12.5q132 0 198 56t113 214q24 80 27 131.5t-17 82.5t-59 43.5t-104 12.5q-132 0 -198.5 -56t-112.5 -214zM492 1292l108 115l201 -131l272 131l82 -117l-287 -149h-157z" />
    <glyph glyph-name="uni01D3" unicode="&#x1d3;" horiz-adv-x="1458" 
d="M106 535l236 827h363l-232 -797q-26 -89 -28.5 -147t21 -93t69 -49t122.5 -14q61 0 104.5 7.5t82.5 26t68.5 53t55.5 87t50 129.5l229 797h363l-250 -852q-86 -287 -260.5 -415t-491.5 -128q-316 0 -447.5 149.5t-54.5 418.5zM709 1616l108 117l201 -131l272 131l82 -117
l-287 -152h-157z" />
    <glyph glyph-name="uni01D4" unicode="&#x1d4;" horiz-adv-x="1277" 
d="M342 -33q-193 0 -268.5 122t-26.5 312l180 623h355l-164 -563q-35 -113 -7.5 -161t126.5 -48q98 0 164 51t118 180l160 541h354l-297 -1024h-342l47 180q-162 -213 -399 -213zM518 1292l109 115l200 -131l273 131l82 -117l-287 -149h-158z" />
    <glyph glyph-name="uni01D5" unicode="&#x1d5;" horiz-adv-x="1458" 
d="M106 535l236 827h363l-232 -797q-26 -89 -28.5 -147t21 -93t69 -49t122.5 -14q61 0 104.5 7.5t82.5 26t68.5 53t55.5 87t50 129.5l229 797h363l-250 -852q-86 -287 -260.5 -415t-491.5 -128q-316 0 -447.5 149.5t-54.5 418.5zM655 1491l60 215h299l-60 -215h-299z
M692 1845l60 205h847l-59 -205h-848zM1073 1491l62 215h299l-62 -215h-299z" />
    <glyph glyph-name="uni01D6" unicode="&#x1d6;" horiz-adv-x="1277" 
d="M342 -33q-193 0 -268.5 122t-26.5 312l180 623h355l-164 -563q-35 -113 -7.5 -161t126.5 -48q98 0 164 51t118 180l160 541h354l-297 -1024h-342l47 180q-162 -213 -399 -213zM442 1149l62 213h299l-62 -213h-299zM528 1509l56 191h784l-55 -191h-785zM887 1149l61 213
h299l-61 -213h-299z" />
    <glyph glyph-name="uni01D7" unicode="&#x1d7;" horiz-adv-x="1458" 
d="M106 535l236 827h363l-232 -797q-26 -89 -28.5 -147t21 -93t69 -49t122.5 -14q61 0 104.5 7.5t82.5 26t68.5 53t55.5 87t50 129.5l229 797h363l-250 -852q-86 -287 -260.5 -415t-491.5 -128q-316 0 -447.5 149.5t-54.5 418.5zM655 1491l60 215h299l-60 -215h-299z
M813 1907l561 172l62 -215l-602 -43zM1073 1491l62 215h299l-62 -215h-299z" />
    <glyph glyph-name="uni01D8" unicode="&#x1d8;" horiz-adv-x="1277" 
d="M342 -33q-193 0 -268.5 122t-26.5 312l180 623h355l-164 -563q-35 -113 -7.5 -161t126.5 -48q98 0 164 51t118 180l160 541h354l-297 -1024h-342l47 180q-162 -213 -399 -213zM442 1149l62 213h299l-62 -213h-299zM608 1559l563 172l60 -213l-600 -43zM887 1149l61 213
h299l-61 -213h-299z" />
    <glyph glyph-name="uni01D9" unicode="&#x1d9;" horiz-adv-x="1458" 
d="M106 535l236 827h363l-232 -797q-26 -89 -28.5 -147t21 -93t69 -49t122.5 -14q61 0 104.5 7.5t82.5 26t68.5 53t55.5 87t50 129.5l229 797h363l-250 -852q-86 -287 -260.5 -415t-491.5 -128q-316 0 -447.5 149.5t-54.5 418.5zM655 1491l60 215h299l-60 -215h-299z
M809 1960l109 117l200 -131l273 131l82 -117l-287 -152h-158zM1073 1491l62 215h299l-62 -215h-299z" />
    <glyph glyph-name="uni01DA" unicode="&#x1da;" horiz-adv-x="1277" 
d="M342 -33q-193 0 -268.5 122t-26.5 312l180 623h355l-164 -563q-35 -113 -7.5 -161t126.5 -48q98 0 164 51t118 180l160 541h354l-297 -1024h-342l47 180q-162 -213 -399 -213zM442 1149l62 213h299l-62 -213h-299zM616 1630l109 115l201 -131l272 131l82 -117l-287 -149
h-157zM887 1149l61 213h299l-61 -213h-299z" />
    <glyph glyph-name="uni01DB" unicode="&#x1db;" horiz-adv-x="1458" 
d="M106 535l236 827h363l-232 -797q-26 -89 -28.5 -147t21 -93t69 -49t122.5 -14q61 0 104.5 7.5t82.5 26t68.5 53t55.5 87t50 129.5l229 797h363l-250 -852q-86 -287 -260.5 -415t-491.5 -128q-316 0 -447.5 149.5t-54.5 418.5zM655 1491l60 215h299l-60 -215h-299z
M817 1864l62 215l561 -172l-21 -86zM1073 1491l62 215h299l-62 -215h-299z" />
    <glyph glyph-name="uni01DC" unicode="&#x1dc;" horiz-adv-x="1277" 
d="M342 -33q-193 0 -268.5 122t-26.5 312l180 623h355l-164 -563q-35 -113 -7.5 -161t126.5 -48q98 0 164 51t118 180l160 541h354l-297 -1024h-342l47 180q-162 -213 -399 -213zM442 1149l62 213h299l-62 -213h-299zM623 1518l59 213l563 -172l-22 -84zM887 1149l61 213
h299l-61 -213h-299z" />
    <glyph glyph-name="uni0218" unicode="&#x218;" horiz-adv-x="1359" 
d="M397 442q-51 -215 213 -215q130 0 193.5 35.5t91.5 120.5q39 130 -115 152l-266 36q-189 26 -258.5 133t-19.5 281q52 190 221.5 301t453.5 111q103 0 186.5 -16t141.5 -45t99.5 -69.5t60 -90t23 -106t-10.5 -116.5h-354q18 95 -32 138t-167 43q-108 0 -172.5 -34
t-91.5 -112q-34 -118 108 -135l234 -31q224 -27 298 -135.5t17 -300.5q-27 -100 -77.5 -174.5t-133 -131.5t-206 -86.5t-285.5 -29.5q-94 0 -172 13.5t-134 38t-97.5 59.5t-65.5 76t-35.5 89t-10.5 97.5t13 103.5h350zM219 -573l49 165h121l39 140h-121l51 172h316l-72 -250
q-16 -54 -37 -92.5t-55.5 -70.5t-87.5 -48t-125 -16h-78z" />
    <glyph glyph-name="uni0219" unicode="&#x219;" horiz-adv-x="1112" 
d="M299 330q-15 -72 26 -112t138 -40q91 0 134.5 23t55.5 73q11 44 -12 75t-104 42l-193 29q-146 21 -199 107.5t-14 222.5q20 80 69.5 140t122.5 96t161.5 53.5t193.5 17.5q223 0 337 -81.5t89 -254.5h-318q12 67 -22.5 97t-120.5 30q-88 0 -133.5 -23t-58.5 -75
q-9 -40 13.5 -67.5t90.5 -35.5l186 -24q172 -23 230.5 -110t17.5 -234q-15 -57 -41 -102t-70 -85.5t-105 -67t-149.5 -42t-199.5 -15.5q-92 0 -166 14t-123.5 38.5t-85.5 58.5t-51.5 74.5t-21.5 85.5t4 92h319zM98 -573l49 165h121l39 140h-121l52 172h315l-72 -250
q-16 -54 -37 -92.5t-55.5 -70.5t-87.5 -48t-125 -16h-78z" />
    <glyph glyph-name="uni021A" unicode="&#x21a;" horiz-adv-x="1277" 
d="M309 0l314 1077h-439l82 285h1237l-82 -285h-436l-311 -1077h-365zM172 -571l49 165h121l39 140h-121l51 172h316l-72 -250q-16 -54 -37 -92.5t-55.5 -70.5t-87.5 -48t-125 -16h-78z" />
    <glyph glyph-name="uni021B" unicode="&#x21b;" horiz-adv-x="884" 
d="M453 0q-400 0 -316 362l125 398h-180l47 164l246 92l207 254h180l-70 -246h277l-78 -264h-275l-141 -481h273l-80 -279h-215zM10 -573l49 165h121l39 140h-121l52 172h315l-72 -250q-16 -54 -37 -92.5t-55.5 -70.5t-87.5 -48t-125 -16h-78z" />
    <glyph glyph-name="uni0237" unicode="&#x237;" horiz-adv-x="569" 
d="M-451 -410l80 279h305l332 1155h355l-297 -1030q-59 -206 -182.5 -305t-350.5 -99h-242z" />
    <glyph glyph-name="circumflex" unicode="&#x2c6;" horiz-adv-x="786" 
d="M270 1235l285 149h158l221 -151l-109 -117l-209 133l-262 -133z" />
    <glyph glyph-name="caron" unicode="&#x2c7;" horiz-adv-x="788" 
d="M287 1292l108 115l201 -131l272 131l82 -117l-286 -149h-158z" />
    <glyph glyph-name="breve" unicode="&#x2d8;" horiz-adv-x="763" 
d="M502 1362q-9 -42 16.5 -68t81.5 -26q115 0 154 94h192q-13 -46 -35 -81.5t-62 -69t-107.5 -52t-157.5 -18.5q-73 0 -128 13.5t-85.5 35.5t-49.5 51t-19 59.5t5 61.5h195z" />
    <glyph glyph-name="dotaccent" unicode="&#x2d9;" horiz-adv-x="489" 
d="M246 1149l61 213h367l-62 -213h-366z" />
    <glyph glyph-name="ring" unicode="&#x2da;" horiz-adv-x="524" 
d="M446 1124q-91 0 -131.5 57t-15.5 140q18 72 83.5 123t154.5 51q90 0 132 -59t17 -140q-20 -72 -85.5 -122t-154.5 -50zM424 1311q-9 -34 5.5 -52t43.5 -18t53 18t33 52q10 32 -3.5 48.5t-43.5 16.5t-54 -16.5t-34 -48.5z" />
    <glyph glyph-name="ogonek" unicode="&#x2db;" horiz-adv-x="575" 
d="M109 -416q-132 0 -197.5 80.5t-30.5 200.5q55 189 342 309l68 -51q-143 -85 -174 -193q-16 -58 11.5 -91.5t78.5 -33.5t104 15l-57 -211q-61 -25 -145 -25z" />
    <glyph glyph-name="tilde" unicode="&#x2dc;" horiz-adv-x="892" 
d="M813 1135q-50 0 -95 15.5t-72 34.5t-58 34.5t-56 15.5q-54 0 -73 -72l-8 -24h-209l18 59q51 184 252 184q52 0 96 -15.5t69 -34.5t55.5 -34.5t58.5 -15.5q53 0 75 72l6 24h209l-14 -53q-28 -96 -95 -143t-159 -47z" />
    <glyph glyph-name="hungarumlaut" unicode="&#x2dd;" horiz-adv-x="952" 
d="M668 1300l-353 -178l-59 64l258 274zM711 1200l258 275l153 -160l-350 -180z" />
    <glyph glyph-name="gravecomb" unicode="&#x300;" 
d="M287 1180l59 213l563 -172l-22 -84z" />
    <glyph glyph-name="acutecomb" unicode="&#x301;" 
d="M889 1180l-600 -43l-23 84l563 172z" />
    <glyph glyph-name="uni0302" unicode="&#x302;" 
d="M270 1235l285 149h158l221 -151l-109 -117l-209 133l-262 -133z" />
    <glyph glyph-name="tildecomb" unicode="&#x303;" 
d="M813 1135q-50 0 -95 15.5t-72 34.5t-58 34.5t-56 15.5q-54 0 -73 -72l-8 -24h-209l18 59q51 184 252 184q52 0 96 -15.5t69 -34.5t55.5 -34.5t58.5 -15.5q53 0 75 72l6 24h209l-14 -53q-28 -96 -95 -143t-159 -47z" />
    <glyph glyph-name="uni0304" unicode="&#x304;" 
d="M307 1362h785l-56 -191h-784z" />
    <glyph glyph-name="uni0306" unicode="&#x306;" 
d="M502 1362q-9 -42 16.5 -68t81.5 -26q115 0 154 94h192q-13 -46 -35 -81.5t-62 -69t-107.5 -52t-157.5 -18.5q-73 0 -128 13.5t-85.5 35.5t-49.5 51t-19 59.5t5 61.5h195z" />
    <glyph glyph-name="uni0307" unicode="&#x307;" 
d="M246 1149l61 213h367l-62 -213h-366z" />
    <glyph glyph-name="uni0308" unicode="&#x308;" 
d="M690 1149l62 213h299l-62 -213h-299zM246 1149l61 213h299l-61 -213h-299z" />
    <glyph glyph-name="uni030A" unicode="&#x30a;" 
d="M446 1124q-91 0 -131.5 57t-15.5 140q18 72 83.5 123t154.5 51q90 0 132 -59t17 -140q-20 -72 -85.5 -122t-154.5 -50zM424 1311q-9 -34 5.5 -52t43.5 -18t53 18t33 52q10 32 -3.5 48.5t-43.5 16.5t-54 -16.5t-34 -48.5z" />
    <glyph glyph-name="uni030B" unicode="&#x30b;" 
d="M668 1300l-353 -178l-59 64l258 274zM711 1200l258 275l153 -160l-350 -180z" />
    <glyph glyph-name="uni030C" unicode="&#x30c;" 
d="M287 1292l108 115l201 -131l272 131l82 -117l-286 -149h-158z" />
    <glyph glyph-name="uni0312" unicode="&#x312;" 
d="M621 1337l-60 -190h-315l94 297q16 54 37 92.5t55.5 71t87.5 49t125 16.5h78l-53 -174h-121l-49 -162h121z" />
    <glyph glyph-name="uni0326" unicode="&#x326;" 
d="M-164 -305l51 172h316l-72 -250q-16 -54 -37 -92.5t-55.5 -70.5t-87.5 -48t-125 -16h-78l49 166h121l39 139h-121z" />
    <glyph glyph-name="uni0327" unicode="&#x327;" 
d="M-199 -391l62 213h164l14 264h244l-21 -270q-6 -89 -69 -148t-160 -59h-234z" />
    <glyph glyph-name="uni0328" unicode="&#x328;" 
d="M109 -416q-132 0 -197.5 80.5t-30.5 200.5q55 189 342 309l68 -51q-143 -85 -174 -193q-16 -58 11.5 -91.5t78.5 -33.5t104 15l-57 -211q-61 -25 -145 -25z" />
    <glyph glyph-name="uni0394" unicode="&#x394;" horiz-adv-x="1546" 
d="M-82 0l80 274l727 1088h514l100 -1088l-79 -274h-1342zM379 272h598l-68 803z" />
    <glyph glyph-name="uni03A9" unicode="&#x3a9;" horiz-adv-x="1667" 
d="M-109 0l78 268h328q-57 30 -97 75t-64 107t-22 144.5t31 179.5q28 93 71.5 176.5t117.5 167t167 144t227 98t292 37.5q114 0 207.5 -20.5t158.5 -55.5t112.5 -84t72.5 -105.5t35 -119.5t4.5 -125t-23.5 -125q-54 -186 -164.5 -311t-263.5 -183h350l-77 -268h-1541z
M504 731q-43 -136 -42 -225.5t67.5 -133.5t209.5 -44q86 0 151.5 16.5t112.5 46.5t84.5 81.5t64 111.5t54.5 147q43 136 42 225.5t-67.5 134t-209.5 44.5q-107 0 -182.5 -23.5t-128.5 -77.5t-87.5 -123.5t-68.5 -179.5z" />
    <glyph glyph-name="pi" unicode="&#x3c0;" horiz-adv-x="1634" 
d="M172 760l76 264h1433l-75 -264h-263l-139 -481h230l-80 -279h-172q-402 0 -295 403l102 357h-196l-218 -760h-354l219 760h-268z" />
    <glyph glyph-name="Wgrave" unicode="&#x1e80;" horiz-adv-x="2185" 
d="M1509 225l525 1137h356l-627 -1362h-612l100 1063l-512 -1063h-610l158 1362h354l-131 -1137l559 1137h537zM1081 1520l62 215l561 -172l-21 -86z" />
    <glyph glyph-name="wgrave" unicode="&#x1e81;" horiz-adv-x="1861" 
d="M115 0l43 1024h346l-47 -739l436 739h379l10 -737l373 737h346l-547 -1024h-487l12 662l-375 -662h-489zM823 1180l60 213l563 -172l-23 -84z" />
    <glyph glyph-name="Wacute" unicode="&#x1e82;" horiz-adv-x="2185" 
d="M1509 225l525 1137h356l-627 -1362h-612l100 1063l-512 -1063h-610l158 1362h354l-131 -1137l559 1137h537zM1077 1563l561 172l62 -215l-602 -43z" />
    <glyph glyph-name="wacute" unicode="&#x1e83;" horiz-adv-x="1861" 
d="M115 0l43 1024h346l-47 -739l436 739h379l10 -737l373 737h346l-547 -1024h-487l12 662l-375 -662h-489zM811 1221l563 172l60 -213l-600 -43z" />
    <glyph glyph-name="Wdieresis" unicode="&#x1e84;" horiz-adv-x="2185" 
d="M1509 225l525 1137h356l-627 -1362h-612l100 1063l-512 -1063h-610l158 1362h354l-131 -1137l559 1137h537zM1018 1491l59 215h299l-59 -215h-299zM1436 1491l61 215h299l-61 -215h-299z" />
    <glyph glyph-name="wdieresis" unicode="&#x1e85;" horiz-adv-x="1861" 
d="M115 0l43 1024h346l-47 -739l436 739h379l10 -737l373 737h346l-547 -1024h-487l12 662l-375 -662h-489zM743 1149l62 213h299l-62 -213h-299zM1188 1149l61 213h299l-61 -213h-299z" />
    <glyph glyph-name="Ygrave" unicode="&#x1ef2;" horiz-adv-x="1298" 
d="M205 1362h381l73 -447q20 -128 25 -231q58 88 162 231l328 447h413l-790 -969l-113 -393h-360l112 393zM629 1520l61 215l561 -172l-20 -86z" />
    <glyph glyph-name="ygrave" unicode="&#x1ef3;" horiz-adv-x="1202" 
d="M-197 -410l80 279h424l101 160h-209l-43 995h348l28 -594l7 -170l96 170l360 594h353l-621 -1024q-64 -107 -121.5 -177.5t-131.5 -126t-165 -81t-209 -25.5h-297zM494 1180l59 213l563 -172l-22 -84z" />
    <glyph glyph-name="endash" unicode="&#x2013;" horiz-adv-x="1208" 
d="M94 649h1100l-66 -233h-1101z" />
    <glyph glyph-name="emdash" unicode="&#x2014;" horiz-adv-x="1650" 
d="M94 649h1542l-67 -233h-1540z" />
    <glyph glyph-name="quoteleft" unicode="&#x2018;" horiz-adv-x="477" 
d="M535 981l-84 -291h-318l127 445q33 111 100.5 169t204.5 58h78l-51 -180h-123l-57 -201h123z" />
    <glyph glyph-name="quoteright" unicode="&#x2019;" horiz-adv-x="477" 
d="M242 1071l84 291h317l-127 -444q-33 -111 -100.5 -169.5t-204.5 -58.5h-78l51 180h123l58 201h-123z" />
    <glyph glyph-name="quotesinglbase" unicode="&#x201a;" horiz-adv-x="477" 
d="M-63 16l83 291h318l-127 -444q-33 -111 -100.5 -169.5t-204.5 -58.5h-78l51 181h123l57 200h-122z" />
    <glyph glyph-name="quotedblleft" unicode="&#x201c;" horiz-adv-x="913" 
d="M535 981l-84 -291h-318l127 445q33 111 100.5 169t204.5 58h78l-51 -180h-123l-57 -201h123zM569 690l127 445q33 111 100.5 169t204.5 58h78l-51 -180h-123l-57 -201h123l-84 -291h-318z" />
    <glyph glyph-name="quotedblright" unicode="&#x201d;" horiz-adv-x="913" 
d="M678 1071l84 291h317l-127 -444q-33 -111 -100.5 -169.5t-204.5 -58.5h-78l52 180h122l58 201h-123zM133 690l51 180h123l58 201h-123l84 291h317l-127 -444q-33 -111 -100.5 -169.5t-204.5 -58.5h-78z" />
    <glyph glyph-name="quotedblbase" unicode="&#x201e;" horiz-adv-x="952" 
d="M-63 16l83 291h318l-127 -444q-33 -111 -100.5 -169.5t-204.5 -58.5h-78l51 181h123l57 200h-122zM305 -365l51 181h123l58 200h-123l84 291h317l-127 -444q-33 -111 -100.5 -169.5t-204.5 -58.5h-78z" />
    <glyph glyph-name="dagger" unicode="&#x2020;" horiz-adv-x="1308" 
d="M446 342l185 639h-322l80 272h320l96 334h323l-96 -334h318l-80 -272h-318l-184 -639h-322z" />
    <glyph glyph-name="daggerdbl" unicode="&#x2021;" horiz-adv-x="1310" 
d="M420 250l82 282h-322l80 271h320l65 229h-319l80 273h317l82 282h323l-81 -282h319l-80 -273h-317l-68 -229h320l-80 -271h-318l-82 -282h-321z" />
    <glyph glyph-name="bullet" unicode="&#x2022;" horiz-adv-x="815" 
d="M354 270q-107 0 -160 67.5t-28 174.5q26 108 106.5 175t186.5 67q109 0 161.5 -67.5t26.5 -174.5q-25 -108 -105.5 -175t-187.5 -67z" />
    <glyph glyph-name="ellipsis" unicode="&#x2026;" horiz-adv-x="1435" 
d="M-66 0l89 307h331l-88 -307h-332zM406 0l88 307h331l-88 -307h-331zM877 0l88 307h331l-88 -307h-331z" />
    <glyph glyph-name="perthousand" unicode="&#x2030;" horiz-adv-x="2549" 
d="M1675 0l168 588h627l-170 -588h-625zM-59 0l6 25l1470 1144h-454l-115 -397h-625l170 590h1295q59 0 88.5 -23t27.5 -65q0 -63 -100 -144l-1421 -1130h-342zM487 967h211l58 202h-211zM899 0l170 588h627l-170 -588h-627zM1163 195h211l60 202h-211zM1937 195h213l60 202
h-213z" />
    <glyph glyph-name="guilsinglleft" unicode="&#x2039;" horiz-adv-x="968" 
d="M113 535l520 489h383l-586 -530l291 -494h-342l-279 487z" />
    <glyph glyph-name="guilsinglright" unicode="&#x203a;" horiz-adv-x="968" 
d="M858 489l-520 -489h-383l586 530l-291 494h342l278 -487z" />
    <glyph glyph-name="Euro" unicode="&#x20ac;" horiz-adv-x="1912" 
d="M891 -33q-149 0 -263 36.5t-183.5 102.5t-102.5 153t-29 192h-166l50 172h950l-49 -172h-406q1 -105 65 -148t199 -43q179 0 274.5 68.5t158.5 232.5h374q-80 -217 -186 -343.5t-271.5 -188.5t-414.5 -62zM227 729l49 172h170q264 496 826 496q671 0 557 -586h-371
q35 154 -20 222.5t-228 68.5q-131 0 -223 -48.5t-158 -152.5h398l-49 -172h-951z" />
    <glyph glyph-name="trademark" unicode="&#x2122;" horiz-adv-x="1124" 
d="M1262 1368l-136 -467h-133l99 340l-195 -340h-147v342l-99 -342h-133l105 361h-105l-104 -361h-133l104 361h-147l30 106h600l-2 -309l176 309h220z" />
    <glyph glyph-name="arrowleft" unicode="&#x2190;" horiz-adv-x="1533" 
d="M899 1055l-362 -361h895v-233h-895l362 -363l-160 -159l-637 639l637 636z" />
    <glyph glyph-name="arrowup" unicode="&#x2191;" horiz-adv-x="1480" 
d="M741 1327l637 -637l-159 -160l-359 361v-891h-239v889l-359 -359l-160 160z" />
    <glyph glyph-name="arrowright" unicode="&#x2192;" horiz-adv-x="1533" 
d="M635 1055l160 159l637 -636l-637 -639l-160 159l362 363h-895v233h895z" />
    <glyph glyph-name="arrowdown" unicode="&#x2193;" horiz-adv-x="1480" 
d="M741 -59l-639 637l160 159l359 -358v889h239v-891l359 360l159 -159z" />
    <glyph glyph-name="uni2196" unicode="&#x2196;" horiz-adv-x="1228" 
d="M1004 799h-506l628 -629l-170 -170l-628 629v-506h-226v901h902v-225z" />
    <glyph glyph-name="uni2197" unicode="&#x2197;" horiz-adv-x="1228" 
d="M225 799v225h901v-901h-225v506l-629 -629l-170 170l629 629h-506z" />
    <glyph glyph-name="uni2198" unicode="&#x2198;" horiz-adv-x="1228" 
d="M225 225h506l-629 629l170 170l629 -629v506h225v-901h-901v225z" />
    <glyph glyph-name="uni2199" unicode="&#x2199;" horiz-adv-x="1228" 
d="M1004 225v-225h-902v901h226v-506l628 629l170 -170l-628 -629h506z" />
    <glyph glyph-name="partialdiff" unicode="&#x2202;" horiz-adv-x="1273" 
d="M55 524q146 510 604 510q127 0 207.5 -45.5t110.5 -130.5q48 158 -23.5 285.5t-232.5 202.5l197 217q267 -121 352 -355.5t-17 -580.5q-92 -333 -277 -496.5t-487 -163.5q-123 0 -215 29t-146 80t-80.5 121.5t-23.5 152t31 174.5zM401 512q-44 -148 -9 -209t165 -61
q133 0 205.5 63t114.5 207q43 141 6.5 205.5t-168.5 64.5q-131 0 -201 -60.5t-113 -209.5z" />
    <glyph glyph-name="product" unicode="&#x220f;" horiz-adv-x="1792" 
d="M1937 1587l-77 -272h-263l-497 -1725h-322l498 1725h-285l-497 -1725h-322l498 1725h-271l80 272h1458z" />
    <glyph glyph-name="summation" unicode="&#x2211;" horiz-adv-x="1452" 
d="M397 1315l80 272h1120l-77 -272h-781l361 -725l-750 -727h750l-78 -273h-1122l80 273l772 749z" />
    <glyph glyph-name="minus" unicode="&#x2212;" horiz-adv-x="1230" 
d="M215 649h881l-68 -233h-881z" />
    <glyph glyph-name="radical" unicode="&#x221a;" horiz-adv-x="2105" 
d="M295 -410l-139 889h282l111 -704l1112 1751h608l-80 -273h-387l-1057 -1663h-450z" />
    <glyph glyph-name="infinity" unicode="&#x221e;" horiz-adv-x="1914" 
d="M457 158q-179 0 -255.5 114t-23.5 285q43 152 170 254t301 102q90 0 157.5 -30.5t102 -83t43.5 -123t-18 -150.5q-45 -160 -172.5 -264t-304.5 -104zM387 537q-28 -84 8 -128t109 -44t132 43.5t87 128.5q25 83 -11 125.5t-110 42.5q-72 0 -131 -42.5t-84 -125.5zM991 557
q43 152 170 254t303 102q179 0 257.5 -112t27.5 -275q-46 -161 -173.5 -264.5t-305.5 -103.5q-179 0 -255.5 114t-23.5 285zM1200 537q-26 -84 9 -128t108 -44t133 43.5t86 128.5q26 83 -9.5 125.5t-111.5 42.5q-72 0 -130.5 -42t-84.5 -126z" />
    <glyph glyph-name="integral" unicode="&#x222b;" horiz-adv-x="1536" 
d="M-100 -410l82 285h317l586 1311q38 86 71 143.5t78 110t97.5 82.5t124.5 47.5t165 17.5h260l-82 -284h-317l-586 -1309q-38 -87 -71 -144.5t-78 -111t-97.5 -83.5t-124.5 -47.5t-165 -17.5h-260z" />
    <glyph glyph-name="approxequal" unicode="&#x2248;" horiz-adv-x="1140" 
d="M676 125q-46 0 -88 15.5t-72 37.5t-56.5 44.5t-53 38t-50.5 15.5q-30 0 -53 -21t-33 -60l-10 -58h-184l30 139q25 98 90.5 146.5t155.5 48.5q47 0 88 -15.5t70 -38t55 -45t53 -38t52 -15.5q64 0 88 84l10 56h182l-26 -129q-25 -98 -94.5 -151.5t-153.5 -53.5zM217 631
l31 139q25 98 90.5 146.5t155.5 48.5q47 0 88 -15.5t70 -38t54.5 -45t52.5 -38t52 -15.5q64 0 88 84l10 55h183l-27 -129q-25 -98 -94.5 -151.5t-153.5 -53.5q-56 0 -107 24t-82 52t-66 52t-64 24q-30 0 -53 -21.5t-33 -60.5l-11 -57h-184z" />
    <glyph glyph-name="notequal" unicode="&#x2260;" horiz-adv-x="1155" 
d="M127 16l123 183h-162l64 233h254l124 186h-321l65 234h412l119 178h221l-119 -178h170l-65 -234h-260l-125 -186h329l-65 -233h-420l-123 -183h-221z" />
    <glyph glyph-name="lessequal" unicode="&#x2264;" horiz-adv-x="1239" 
d="M1208 1016l-57 -207l-784 -121l712 -121l-57 -198l-842 159l53 183l41 145zM53 90l60 203h886l-57 -203h-889z" />
    <glyph glyph-name="greaterequal" unicode="&#x2265;" horiz-adv-x="1236" 
d="M319 1016l844 -160l-39 -137l-4 -10l-8 -33l-43 -148l-936 -159l62 206l790 123l-721 121zM53 90l58 203h888l-57 -203h-889z" />
    <glyph glyph-name="filledbox" unicode="&#x25a0;" horiz-adv-x="1568" 
d="M102 1362h1364v-1362h-1364v1362z" />
    <glyph glyph-name="triagup" unicode="&#x25b2;" horiz-adv-x="1728" 
d="M864 1362l762 -1362h-1524z" />
    <glyph glyph-name="lozenge" unicode="&#x25ca;" horiz-adv-x="1470" 
d="M465 0l-301 682l301 680h541l301 -680l-301 -682h-541zM492 682l243 -553l244 553l-244 551z" />
    <glyph glyph-name="uni25CF" unicode="&#x25cf;" horiz-adv-x="1640" 
d="M823 -37q-197 0 -363 96t-262 262t-96 363q0 146 56.5 278t153 228t230 152.5t281.5 56.5q146 0 278 -56.5t228 -152.5t152.5 -228t56.5 -278q0 -148 -56.5 -281.5t-152.5 -230t-228 -153t-278 -56.5z" />
    <glyph glyph-name="G.ss03" horiz-adv-x="1583" 
d="M580 -33q-123 0 -220.5 36t-160 102t-95 156t-29.5 200.5t40 232.5q34 119 86 221t131.5 192.5t179.5 153.5t234.5 99.5t291.5 36.5q114 0 207.5 -18t157.5 -50.5t110.5 -77t67.5 -98.5t27.5 -115.5t-9.5 -126.5h-360q18 102 -41.5 154.5t-210.5 52.5q-95 0 -168 -21.5
t-136 -72t-111.5 -135.5t-86.5 -209q-70 -229 -18 -331.5t238 -102.5q168 0 269.5 67t166.5 207h-441l68 228h514q123 0 178.5 -63.5t22.5 -182.5l-148 -502h-299l60 229q-30 -51 -73 -94.5t-105 -83t-149 -62t-189 -22.5z" />
    <glyph glyph-name="Gbreve.ss03" horiz-adv-x="1583" 
d="M580 -33q-123 0 -220.5 36t-160 102t-95 156t-29.5 200.5t40 232.5q34 119 86 221t131.5 192.5t179.5 153.5t234.5 99.5t291.5 36.5q114 0 207.5 -18t157.5 -50.5t110.5 -77t67.5 -98.5t27.5 -115.5t-9.5 -126.5h-360q18 102 -41.5 154.5t-210.5 52.5q-95 0 -168 -21.5
t-136 -72t-111.5 -135.5t-86.5 -209q-70 -229 -18 -331.5t238 -102.5q168 0 269.5 67t166.5 207h-441l68 228h514q123 0 178.5 -63.5t22.5 -182.5l-148 -502h-299l60 229q-30 -51 -73 -94.5t-105 -83t-149 -62t-189 -22.5zM811 1696h193q-8 -42 18 -68t82 -26q116 0 151 94
h195q-10 -36 -25 -65.5t-43.5 -59.5t-66.5 -50t-96.5 -33t-131.5 -13t-128 13.5t-85 35.5t-49 51t-19 59.5t5 61.5z" />
    <glyph glyph-name="uni0122.ss03" horiz-adv-x="1583" 
d="M580 -33q-123 0 -220.5 36t-160 102t-95 156t-29.5 200.5t40 232.5q34 119 86 221t131.5 192.5t179.5 153.5t234.5 99.5t291.5 36.5q114 0 207.5 -18t157.5 -50.5t110.5 -77t67.5 -98.5t27.5 -115.5t-9.5 -126.5h-360q18 102 -41.5 154.5t-210.5 52.5q-95 0 -168 -21.5
t-136 -72t-111.5 -135.5t-86.5 -209q-70 -229 -18 -331.5t238 -102.5q168 0 269.5 67t166.5 207h-441l68 228h514q123 0 178.5 -63.5t22.5 -182.5l-148 -502h-299l60 229q-30 -51 -73 -94.5t-105 -83t-149 -62t-189 -22.5zM328 -573l49 165h121l39 140h-121l51 172h315
l-71 -250q-16 -54 -37 -92.5t-55.5 -70.5t-87.5 -48t-125 -16h-78z" />
    <glyph glyph-name="Gdotaccent.ss03" horiz-adv-x="1583" 
d="M580 -33q-123 0 -220.5 36t-160 102t-95 156t-29.5 200.5t40 232.5q34 119 86 221t131.5 192.5t179.5 153.5t234.5 99.5t291.5 36.5q114 0 207.5 -18t157.5 -50.5t110.5 -77t67.5 -98.5t27.5 -115.5t-9.5 -126.5h-360q18 102 -41.5 154.5t-210.5 52.5q-95 0 -168 -21.5
t-136 -72t-111.5 -135.5t-86.5 -209q-70 -229 -18 -331.5t238 -102.5q168 0 269.5 67t166.5 207h-441l68 228h514q123 0 178.5 -63.5t22.5 -182.5l-148 -502h-299l60 229q-30 -51 -73 -94.5t-105 -83t-149 -62t-189 -22.5zM891 1491l59 215h367l-62 -215h-364z" />
    <glyph glyph-name="Q.ss03" horiz-adv-x="1576" 
d="M657 -33q-125 0 -225 27.5t-168 77t-112 117t-60.5 149t-10 172t35.5 186.5q36 118 85.5 217.5t126 191t172.5 154.5t228 100.5t289 37.5q148 0 261.5 -40.5t181.5 -110.5t102.5 -163.5t32 -199.5t-36.5 -219q-131 -427 -426 -588l84 -172l-279 -113l-80 193
q-104 -17 -201 -17zM481 680q-40 -137 -37.5 -230.5t66.5 -141.5t195 -48h40l-71 174l235 98l92 -190q64 50 109 132t82 206q43 141 41 234.5t-66.5 140.5t-199.5 47q-107 0 -185 -25.5t-134.5 -81t-94.5 -130t-72 -185.5z" />
    <glyph glyph-name="R.ss03" horiz-adv-x="1421" 
d="M-37 0l393 1362h707q116 0 201.5 -33t130 -91.5t58 -137t-14.5 -170.5q-57 -198 -175.5 -301.5t-316.5 -128.5l33 -213h270l-84 -287h-360q-74 0 -111 35t-43 108l-28 351h-152l-143 -494h-365zM545 752h278q100 0 157.5 42t84.5 130q23 82 -10.5 121.5t-128.5 39.5h-285
z" />
    <glyph glyph-name="Racute.ss03" horiz-adv-x="1421" 
d="M-37 0l393 1362h707q116 0 201.5 -33t130 -91.5t58 -137t-14.5 -170.5q-57 -198 -175.5 -301.5t-316.5 -128.5l33 -213h270l-84 -287h-360q-74 0 -111 35t-43 108l-28 351h-152l-143 -494h-365zM545 752h278q100 0 157.5 42t84.5 130q23 82 -10.5 121.5t-128.5 39.5h-285
zM686 1563l561 172l62 -215l-602 -43z" />
    <glyph glyph-name="Rcaron.ss03" horiz-adv-x="1421" 
d="M-37 0l393 1362h707q116 0 201.5 -33t130 -91.5t58 -137t-14.5 -170.5q-57 -198 -175.5 -301.5t-316.5 -128.5l33 -213h270l-84 -287h-360q-74 0 -111 35t-43 108l-28 351h-152l-143 -494h-365zM545 752h278q100 0 157.5 42t84.5 130q23 82 -10.5 121.5t-128.5 39.5h-285
zM680 1616l108 117l201 -131l273 131l81 -117l-286 -152h-158z" />
    <glyph glyph-name="uni0156.ss03" horiz-adv-x="1421" 
d="M-37 0l393 1362h707q116 0 201.5 -33t130 -91.5t58 -137t-14.5 -170.5q-57 -198 -175.5 -301.5t-316.5 -128.5l33 -213h270l-84 -287h-360q-74 0 -111 35t-43 108l-28 351h-152l-143 -494h-365zM240 -573l49 165h121l39 140h-121l51 172h315l-71 -250q-16 -54 -37 -92.5
t-56 -70.5t-88 -48t-125 -16h-77zM545 752h278q100 0 157.5 42t84.5 130q23 82 -10.5 121.5t-128.5 39.5h-285z" />
    <glyph glyph-name="i.loclTRK" horiz-adv-x="546" 
d="M-49 0l295 1024h352l-295 -1024h-352zM274 1149l62 213h366l-61 -213h-367z" />
    <glyph glyph-name="uni01CE.ss001" horiz-adv-x="1312" 
d="M379 -33q-125 0 -206.5 47t-114 128t-30.5 182t38 217q24 89 55.5 161.5t80.5 140t110.5 113.5t147.5 73.5t189 27.5q259 0 322 -185l45 152h352l-295 -1024h-340l39 145q-154 -178 -393 -178zM408 516q-25 -80 -28.5 -132.5t16.5 -84t59 -44.5t104 -13q112 0 176.5 43
t106.5 151l45 150q22 112 -21.5 155t-154.5 41q-127 0 -191.5 -55.5t-111.5 -210.5zM528 1292l109 115l201 -131l272 131l82 -117l-287 -149h-157z" />
    <glyph glyph-name="a.ss01" horiz-adv-x="1312" 
d="M379 -33q-125 0 -206.5 47t-114 128t-30.5 182t38 217q24 89 55.5 161.5t80.5 140t110.5 113.5t147.5 73.5t189 27.5q259 0 322 -185l45 152h352l-295 -1024h-340l39 145q-154 -178 -393 -178zM408 516q-25 -80 -28.5 -132.5t16.5 -84t59 -44.5t104 -13q112 0 176.5 43
t106.5 151l45 150q22 112 -21.5 155t-154.5 41q-127 0 -191.5 -55.5t-111.5 -210.5z" />
    <glyph glyph-name="aacute.ss01" horiz-adv-x="1312" 
d="M379 -33q-125 0 -206.5 47t-114 128t-30.5 182t38 217q24 89 55.5 161.5t80.5 140t110.5 113.5t147.5 73.5t189 27.5q259 0 322 -185l45 152h352l-295 -1024h-340l39 145q-154 -178 -393 -178zM408 516q-25 -80 -28.5 -132.5t16.5 -84t59 -44.5t104 -13q112 0 176.5 43
t106.5 151l45 150q22 112 -21.5 155t-154.5 41q-127 0 -191.5 -55.5t-111.5 -210.5zM520 1221l563 172l60 -213l-600 -43z" />
    <glyph glyph-name="abreve.ss01" horiz-adv-x="1312" 
d="M379 -33q-125 0 -206.5 47t-114 128t-30.5 182t38 217q24 89 55.5 161.5t80.5 140t110.5 113.5t147.5 73.5t189 27.5q259 0 322 -185l45 152h352l-295 -1024h-340l39 145q-154 -178 -393 -178zM408 516q-25 -80 -28.5 -132.5t16.5 -84t59 -44.5t104 -13q112 0 176.5 43
t106.5 151l45 150q22 112 -21.5 155t-154.5 41q-127 0 -191.5 -55.5t-111.5 -210.5zM553 1362h195q-9 -42 16.5 -68t81.5 -26q114 0 153 94h193q-10 -36 -25 -65.5t-43.5 -59.5t-66.5 -50t-96.5 -33t-131.5 -13t-128 13.5t-85 35.5t-49 51t-19 59.5t5 61.5z" />
    <glyph glyph-name="acircumflex.ss01" horiz-adv-x="1312" 
d="M379 -33q-125 0 -206.5 47t-114 128t-30.5 182t38 217q24 89 55.5 161.5t80.5 140t110.5 113.5t147.5 73.5t189 27.5q259 0 322 -185l45 152h352l-295 -1024h-340l39 145q-154 -178 -393 -178zM408 516q-25 -80 -28.5 -132.5t16.5 -84t59 -44.5t104 -13q112 0 176.5 43
t106.5 151l45 150q22 112 -21.5 155t-154.5 41q-127 0 -191.5 -55.5t-111.5 -210.5zM508 1235l285 149h157l221 -151l-108 -117l-209 133l-262 -133z" />
    <glyph glyph-name="adieresis.ss01" horiz-adv-x="1312" 
d="M379 -33q-125 0 -206.5 47t-114 128t-30.5 182t38 217q24 89 55.5 161.5t80.5 140t110.5 113.5t147.5 73.5t189 27.5q259 0 322 -185l45 152h352l-295 -1024h-340l39 145q-154 -178 -393 -178zM408 516q-25 -80 -28.5 -132.5t16.5 -84t59 -44.5t104 -13q112 0 176.5 43
t106.5 151l45 150q22 112 -21.5 155t-154.5 41q-127 0 -191.5 -55.5t-111.5 -210.5zM453 1149l61 213h299l-61 -213h-299zM897 1149l61 213h299l-61 -213h-299z" />
    <glyph glyph-name="agrave.ss01" horiz-adv-x="1312" 
d="M379 -33q-125 0 -206.5 47t-114 128t-30.5 182t38 217q24 89 55.5 161.5t80.5 140t110.5 113.5t147.5 73.5t189 27.5q259 0 322 -185l45 152h352l-295 -1024h-340l39 145q-154 -178 -393 -178zM408 516q-25 -80 -28.5 -132.5t16.5 -84t59 -44.5t104 -13q112 0 176.5 43
t106.5 151l45 150q22 112 -21.5 155t-154.5 41q-127 0 -191.5 -55.5t-111.5 -210.5zM535 1180l59 213l563 -172l-22 -84z" />
    <glyph glyph-name="amacron.ss01" horiz-adv-x="1312" 
d="M379 -33q-125 0 -206.5 47t-114 128t-30.5 182t38 217q24 89 55.5 161.5t80.5 140t110.5 113.5t147.5 73.5t189 27.5q259 0 322 -185l45 152h352l-295 -1024h-340l39 145q-154 -178 -393 -178zM408 516q-25 -80 -28.5 -132.5t16.5 -84t59 -44.5t104 -13q112 0 176.5 43
t106.5 151l45 150q22 112 -21.5 155t-154.5 41q-127 0 -191.5 -55.5t-111.5 -210.5zM442 1171l56 191h784l-55 -191h-785z" />
    <glyph glyph-name="aogonek.ss01" horiz-adv-x="1312" 
d="M379 -33q-125 0 -206.5 47t-114 128t-30.5 182t38 217q24 89 55.5 161.5t80.5 140t110.5 113.5t147.5 73.5t189 27.5q259 0 322 -185l45 152h352l-295 -1024h-162q-26 -38 -34 -70q-16 -58 11.5 -91.5t78.5 -33.5t104 15l-57 -211q-61 -25 -146 -25q-132 0 -197 80.5
t-30 200.5q27 89 98 160l33 120q-154 -178 -393 -178zM408 516q-25 -80 -28.5 -132.5t16.5 -84t59 -44.5t104 -13q112 0 176.5 43t106.5 151l45 150q22 112 -21.5 155t-154.5 41q-127 0 -191.5 -55.5t-111.5 -210.5z" />
    <glyph glyph-name="aring.ss01" horiz-adv-x="1312" 
d="M379 -33q-125 0 -206.5 47t-114 128t-30.5 182t38 217q24 89 55.5 161.5t80.5 140t110.5 113.5t147.5 73.5t189 27.5q259 0 322 -185l45 152h352l-295 -1024h-340l39 145q-154 -178 -393 -178zM408 516q-25 -80 -28.5 -132.5t16.5 -84t59 -44.5t104 -13q112 0 176.5 43
t106.5 151l45 150q22 112 -21.5 155t-154.5 41q-127 0 -191.5 -55.5t-111.5 -210.5zM680 1321q18 72 83.5 123t154.5 51q90 0 132 -59t17 -140q-20 -72 -85.5 -122t-154.5 -50q-91 0 -131.5 57t-15.5 140zM805 1311q-9 -34 5.5 -52t43.5 -18t53 18t33 52q10 32 -3.5 48.5
t-43.5 16.5t-54 -16.5t-34 -48.5z" />
    <glyph glyph-name="atilde.ss01" horiz-adv-x="1312" 
d="M379 -33q-125 0 -206.5 47t-114 128t-30.5 182t38 217q24 89 55.5 161.5t80.5 140t110.5 113.5t147.5 73.5t189 27.5q259 0 322 -185l45 152h352l-295 -1024h-340l39 145q-154 -178 -393 -178zM408 516q-25 -80 -28.5 -132.5t16.5 -84t59 -44.5t104 -13q112 0 176.5 43
t106.5 151l45 150q22 112 -21.5 155t-154.5 41q-127 0 -191.5 -55.5t-111.5 -210.5zM438 1139l19 59q51 184 252 184q52 0 96 -15.5t68.5 -34.5t55 -34.5t58.5 -15.5q54 0 76 72l6 24h209l-14 -53q-28 -96 -95 -143t-159 -47q-50 0 -95 15.5t-72 34.5t-58 34.5t-56 15.5
q-55 0 -74 -72l-8 -24h-209z" />
    <glyph glyph-name="g.ss02" horiz-adv-x="1261" 
d="M428 270q-89 0 -104 -59q-9 -28 6.5 -40.5t56.5 -12.5h338q179 0 259 -84t36 -226q-39 -151 -209 -219.5t-475 -68.5q-269 0 -385.5 66t-77.5 190q26 111 174 153q-54 23 -75 74t-5 107q25 84 102.5 138t180.5 72q-95 46 -128 130.5t-5 189.5q35 123 118 204.5t190 116.5
t237 35q133 0 214 -50.5t105 -125.5l49 164h299l-102 -354q-18 -62 -48 -116t-83 -107t-122.5 -90.5t-172.5 -61t-228 -25.5h-145zM176 -152q-19 -60 31.5 -86t181.5 -26q100 0 160.5 13t87 35.5t37.5 59.5q11 39 -10.5 59.5t-73.5 20.5h-305q-87 0 -109 -76zM459 651
q-23 -74 15 -108.5t144 -34.5q113 0 169.5 34t80.5 109q22 75 -16 111.5t-150 36.5q-104 0 -162 -35t-81 -113z" />
    <glyph glyph-name="gbreve.ss02" horiz-adv-x="1261" 
d="M428 270q-89 0 -104 -59q-9 -28 6.5 -40.5t56.5 -12.5h338q179 0 259 -84t36 -226q-39 -151 -209 -219.5t-475 -68.5q-269 0 -385.5 66t-77.5 190q26 111 174 153q-54 23 -75 74t-5 107q25 84 102.5 138t180.5 72q-95 46 -128 130.5t-5 189.5q35 123 118 204.5t190 116.5
t237 35q133 0 214 -50.5t105 -125.5l49 164h299l-102 -354q-18 -62 -48 -116t-83 -107t-122.5 -90.5t-172.5 -61t-228 -25.5h-145zM176 -152q-19 -60 31.5 -86t181.5 -26q100 0 160.5 13t87 35.5t37.5 59.5q11 39 -10.5 59.5t-73.5 20.5h-305q-87 0 -109 -76zM459 651
q-23 -74 15 -108.5t144 -34.5q113 0 169.5 34t80.5 109q22 75 -16 111.5t-150 36.5q-104 0 -162 -35t-81 -113zM535 1362h194q-9 -42 16.5 -68t81.5 -26q115 0 154 94h193q-10 -36 -25 -65.5t-43.5 -59.5t-66.5 -50t-96.5 -33t-131.5 -13t-128 13.5t-85 35.5t-49 51
t-19 59.5t5 61.5z" />
    <glyph glyph-name="uni0123.ss02" horiz-adv-x="1261" 
d="M428 270q-89 0 -104 -59q-9 -28 6.5 -40.5t56.5 -12.5h338q179 0 259 -84t36 -226q-39 -151 -209 -219.5t-475 -68.5q-269 0 -385.5 66t-77.5 190q26 111 174 153q-54 23 -75 74t-5 107q25 84 102.5 138t180.5 72q-95 46 -128 130.5t-5 189.5q35 123 118 204.5t190 116.5
t237 35q133 0 214 -50.5t105 -125.5l49 164h299l-102 -354q-18 -62 -48 -116t-83 -107t-122.5 -90.5t-172.5 -61t-228 -25.5h-145zM176 -152q-19 -60 31.5 -86t181.5 -26q100 0 160.5 13t87 35.5t37.5 59.5q11 39 -10.5 59.5t-73.5 20.5h-305q-87 0 -109 -76zM459 651
q-23 -74 15 -108.5t144 -34.5q113 0 169.5 34t80.5 109q22 75 -16 111.5t-150 36.5q-104 0 -162 -35t-81 -113zM662 1147l94 297q16 54 37 92.5t55.5 71t87.5 49t125 16.5h78l-54 -174h-120l-50 -162h121l-59 -190h-315z" />
    <glyph glyph-name="gdotaccent.ss02" horiz-adv-x="1261" 
d="M428 270q-89 0 -104 -59q-9 -28 6.5 -40.5t56.5 -12.5h338q179 0 259 -84t36 -226q-39 -151 -209 -219.5t-475 -68.5q-269 0 -385.5 66t-77.5 190q26 111 174 153q-54 23 -75 74t-5 107q25 84 102.5 138t180.5 72q-95 46 -128 130.5t-5 189.5q35 123 118 204.5t190 116.5
t237 35q133 0 214 -50.5t105 -125.5l49 164h299l-102 -354q-18 -62 -48 -116t-83 -107t-122.5 -90.5t-172.5 -61t-228 -25.5h-145zM176 -152q-19 -60 31.5 -86t181.5 -26q100 0 160.5 13t87 35.5t37.5 59.5q11 39 -10.5 59.5t-73.5 20.5h-305q-87 0 -109 -76zM459 651
q-23 -74 15 -108.5t144 -34.5q113 0 169.5 34t80.5 109q22 75 -16 111.5t-150 36.5q-104 0 -162 -35t-81 -113zM627 1149l61 213h367l-62 -213h-366z" />
    <glyph glyph-name="r_t.dlig" horiz-adv-x="1622" 
d="M1200 0q-226 0 -290 98.5t-3 304.5l162 564l262 305h178l-71 -248h278l-76 -264h-278l-139 -481h245l-79 -279h-189zM-55 0l297 1024h342l-60 -207q62 112 147.5 167.5t209.5 55.5h86l-99 -344h-127q-136 0 -202.5 -59.5t-116.5 -224.5l-119 -412h-358z" />
    <glyph glyph-name="r_t_t.dlig" horiz-adv-x="2353" 
d="M1194 0q-154 0 -232.5 46t-89.5 135.5t27 221.5l162 564l262 305h178l-69 -248h417l211 248h178l-69 -248h278l-77 -264h-279l-139 -481h246l-80 -279h-187q-154 0 -232.5 46t-89.5 135.5t27 221.5l103 357h-385l-140 -481h246l-80 -279h-186zM-55 0l297 1024h342
l-60 -207q62 112 147.5 167.5t209.5 55.5h86l-99 -344h-127q-136 0 -202.5 -59.5t-116.5 -224.5l-119 -412h-358z" />
    <glyph glyph-name="asterisk.case" horiz-adv-x="1566" 
d="M520 0l49 174l219 442l-358 -374l-158 -123l-118 168l159 123l449 247l-469 -90h-174l65 228h174l422 -88l-301 256l-88 122l197 150l88 -123l149 -373l37 449l51 174h234l-49 -174l-221 -445l360 377l158 123l118 -168l-157 -123l-449 -245l465 88h174l-65 -228h-174
l-424 92l307 -260l88 -123l-197 -149l-88 123l-151 373l-37 -449l-51 -174h-234z" />
    <glyph glyph-name="sterling.ss01" horiz-adv-x="1288" 
d="M639 444l-57 -194h483l-72 -250h-1022l72 250h186l56 194h-152l57 203h154l33 115h-152l58 205h153l19 65q30 102 69.5 174t100 124.5t146 78t200.5 25.5h368l-79 -279h-416l-56 -188h308l-60 -205h-305l-35 -115h308l-60 -203h-305z" />
    <glyph glyph-name="percent.ss04" horiz-adv-x="1628" 
d="M-33 0l6 25l1420 1337h309l-8 -25l-1418 -1337h-309zM264 1108q35 124 132 206.5t239 82.5q145 0 204.5 -93t16.5 -225q-34 -126 -131 -207t-240 -81q-145 0 -204.5 91t-16.5 226zM442 1094q-21 -66 -2.5 -97.5t82.5 -31.5q62 0 98.5 31t57.5 98q20 68 1 98.5t-81 30.5
q-65 0 -100 -30t-56 -99zM862 307q35 123 132 205t239 82q145 0 204.5 -92.5t16.5 -225.5q-34 -125 -131.5 -206.5t-239.5 -81.5q-145 0 -204.5 92t-16.5 227zM1040 293q-21 -66 -2.5 -97.5t82.5 -31.5q62 0 98.5 31t57.5 98q20 67 1.5 97t-81.5 30q-64 0 -100 -29.5
t-56 -97.5z" />
    <glyph glyph-name="uni2197.case" horiz-adv-x="1228" 
d="M225 1137v225h901v-901h-225v506l-629 -629l-170 170l629 629h-506z" />
    <glyph glyph-name="uni2196.case" horiz-adv-x="1228" 
d="M1004 1137h-506l628 -629l-170 -170l-628 629v-506h-226v901h902v-225z" />
    <glyph glyph-name="uni0308.case" 
d="M764 1491l61 215h299l-61 -215h-299zM346 1491l60 215h299l-60 -215h-299z" />
    <glyph glyph-name="uni0307.case" 
d="M346 1491l60 215h366l-61 -215h-365z" />
    <glyph glyph-name="gravecomb.case" 
d="M383 1520l61 215l562 -172l-21 -86z" />
    <glyph glyph-name="acutecomb.case" 
d="M987 1520l-602 -43l-20 86l561 172z" />
    <glyph glyph-name="uni030B.case" 
d="M758 1612l-352 -180l-60 65l258 275zM801 1509l258 277l153 -162l-352 -178z" />
    <glyph glyph-name="uni0302.case" 
d="M375 1599l309 142h158l217 -137l-121 -121l-201 129l-280 -137z" />
    <glyph glyph-name="uni030C.case" 
d="M381 1616l108 117l201 -131l273 131l81 -117l-286 -152h-158z" />
    <glyph glyph-name="uni0306.case" 
d="M596 1696q-8 -42 18 -68t82 -26q117 0 152 94h194q-13 -46 -35 -81.5t-62 -69t-107.5 -52t-157.5 -18.5q-73 0 -128 13.5t-85.5 35.5t-49.5 51t-19 59.5t5 61.5h193z" />
    <glyph glyph-name="uni030A.case" 
d="M584 1430q-117 0 -167 70t-18 175q27 94 107.5 160t193.5 66q117 0 167 -69.5t18 -172.5q-26 -96 -107 -162.5t-194 -66.5zM557 1667q-11 -41 6.5 -62.5t54.5 -21.5q36 0 67 21.5t42 62.5t-6.5 61.5t-54.5 20.5t-67.5 -21t-41.5 -61z" />
    <glyph glyph-name="tildecomb.case" 
d="M909 1473q-49 0 -93.5 15.5t-71 34.5t-57.5 34.5t-56 15.5q-54 0 -76 -72l-6 -24h-209l16 59q54 184 252 184q52 0 96.5 -15.5t69.5 -34.5t56 -34.5t59 -15.5q55 0 74 72l8 24h209l-17 -53q-27 -96 -94.5 -143t-159.5 -47z" />
    <glyph glyph-name="uni0304.case" 
d="M408 1706h847l-59 -205h-848z" />
    <glyph glyph-name="uni0312.case" 
d="M725 1677l-63 -221h-318l100 340q31 110 99.5 168.5t206.5 58.5h77l-53 -180h-121l-51 -166h123z" />
    </font>
</defs>
</svg>
