<?xml version="1.0" standalone="no"?>
<!DOCTYPE svg PUBLIC "-//W3C//DTD SVG 1.1//EN" "http://www.w3.org/Graphics/SVG/1.1/DTD/svg11.dtd" >
<svg xmlns="http://www.w3.org/2000/svg" xmlns:xlink="http://www.w3.org/1999/xlink" version="1.1">
<metadata>
Created by FontForge 20170731 at Mon Jul 17 14:58:50 2023
 By Aleksey,,,
Copyright (c) 2019 by Nick Losacco. All rights reserved.
</metadata>
<defs>
<font id="PPTelegraf-UltraboldOblique" horiz-adv-x="0" >
  <font-face 
    font-family="PP Telegraf Ultrabold Oblique"
    font-weight="800"
    font-style="oblique"
    font-stretch="normal"
    units-per-em="2048"
    panose-1="0 0 0 0 0 0 0 0 0 0"
    ascent="1638"
    descent="-410"
    x-height="1024"
    cap-height="1362"
    bbox="-717 -573 2761 2079"
    underline-thickness="61"
    underline-position="-255"
    slope="-30"
    unicode-range="U+0020-25CF"
  />
<missing-glyph horiz-adv-x="921" 
d="M756 1434v-1844h-584v1844h584zM307 -283h307v62h-188l129 86h59v61h-307v-61h129l-129 -86v-62zM307 -31h307v207h-307v-207zM307 287h307v209h-184v-103h62v41h61v-86h-184v148h-62v-209zM307 537h307v184h-61v-123h-246v-61zM307 641h185v129h122v61h-307v-61h123v-68
h-123v-61zM307 881h307v63h-122v129h-185v-192zM307 1120h307v62h-122v67h122v62h-305v-62h121v-67h-123v-62zM369 29v88h184v-88h-184zM369 944v66h61v-66h-61z" />
    <glyph glyph-name="f_f.liga" unicode="ff" horiz-adv-x="1566" 
d="M-88 0l438 760h-186l96 164l246 102l39 68q194 340 557 340h223l-145 -254h-289l-88 -156h420l30 53q205 357 568 357h280l-145 -254h-346l-88 -156h293l-154 -264h-238l-438 -760h-352l438 760h-369l-438 -760h-352z" />
    <glyph glyph-name="f_f_i.liga" unicode="ffi" horiz-adv-x="2060" 
d="M633 0l438 760h-369l-438 -760h-352l438 760h-186l96 164l246 102l39 68q194 340 557 340h223l-145 -254h-289l-88 -156h420l30 53q205 357 568 357h673l-145 -254h-739l-88 -156h268l-154 -264h-213l-438 -760h-352zM1319 0l592 1024h352l-592 -1024h-352z" />
    <glyph glyph-name="f_f_j.liga" unicode="ffj" horiz-adv-x="2066" 
d="M633 0l438 760h-369l-436 -760h-352l436 760h-186l96 164l246 102l39 68q197 340 559 340h223l-145 -254h-289l-92 -156h424l30 53q205 357 568 357h674l-146 -254h-739l-90 -156h268l-154 -264h-213l-438 -760h-352zM784 -410l162 279h307l666 1155h352l-596 -1030
q-79 -137 -167 -223.5t-207.5 -133.5t-272.5 -47h-244z" />
    <glyph glyph-name="f_f_l.liga" unicode="ffl" horiz-adv-x="2105" 
d="M-88 0l438 760h-186l96 164l246 102l39 68q194 340 557 340h223l-145 -254h-289l-88 -156h422l30 53q205 357 568 357h710l-827 -1434h-352l680 1180h-422l-88 -156h268l-154 -264h-215l-438 -760h-352l438 760h-369l-438 -760h-352z" />
    <glyph glyph-name="f_f_t.liga" unicode="fft" horiz-adv-x="2273" 
d="M-88 0l438 760h-186l96 164l246 102l39 68q194 340 557 340h223l-145 -254h-289l-88 -156h418l4 2l39 68q194 340 557 340h211l-146 -254h-276l-88 -156h397l283 248h178l-142 -248h279l-154 -264h-278l-279 -481h246l-160 -279h-188q-115 0 -180.5 25.5t-82 77.5
t4.5 125t80 175l215 371h-309l-447 -774h-352l446 774h-366l-449 -774h-352z" />
    <glyph glyph-name="f_i.liga" unicode="fi" horiz-adv-x="1372" 
d="M-88 0l438 760h-186l96 164l246 102l29 51q205 357 567 357h674l-146 -254h-739l-88 -156h268l-153 -264h-216l-438 -760h-352zM608 0l590 1024h354l-589 -1024h-355z" />
    <glyph glyph-name="f_j.liga" unicode="fj" horiz-adv-x="1411" 
d="M-86 0l436 760h-186l96 164l246 102l39 68q197 340 559 340h737l-145 -254h-803l-92 -156h338l-154 -264h-283l-436 -760h-352zM129 -410l162 279h307l666 1155h352l-596 -1030q-79 -137 -167 -223.5t-207.5 -133.5t-272.5 -47h-244z" />
    <glyph glyph-name="f_l.liga" unicode="fl" horiz-adv-x="1384" 
d="M-88 0l438 760h-186l96 164l246 102l29 51q205 357 567 357h710l-827 -1434h-352l680 1180h-422l-88 -156h268l-153 -264h-216l-438 -760h-352z" />
    <glyph glyph-name="f_t.liga" unicode="ft" horiz-adv-x="1554" 
d="M-88 0l438 760h-186l96 164l246 102l39 68q194 340 557 340h211l-146 -254h-276l-88 -156h397l281 248h180l-143 -248h278l-154 -264h-278l-277 -481h246l-162 -279h-186q-116 0 -181.5 25.5t-82.5 77.5t4.5 125t81.5 175l215 371h-309l-449 -774h-352z" />
    <glyph glyph-name="t_t.liga" unicode="tt" horiz-adv-x="1613" 
d="M307 0q-116 0 -181.5 25.5t-82.5 77.5t4.5 125t81.5 175l205 357h-180l96 164l260 92l293 256h180l-143 -248h415l285 248h180l-143 -248h278l-153 -264h-279l-276 -481h246l-162 -279h-187q-116 0 -181.5 25.5t-82.5 77.5t4.5 125t81.5 175l213 371h-385l-284 -495h245
l-161 -279h-187z" />
    <glyph glyph-name=".notdef" horiz-adv-x="921" 
d="M756 1434v-1844h-584v1844h584zM307 -283h307v62h-188l129 86h59v61h-307v-61h129l-129 -86v-62zM307 -31h307v207h-307v-207zM307 287h307v209h-184v-103h62v41h61v-86h-184v148h-62v-209zM307 537h307v184h-61v-123h-246v-61zM307 641h185v129h122v61h-307v-61h123v-68
h-123v-61zM307 881h307v63h-122v129h-185v-192zM307 1120h307v62h-122v67h122v62h-305v-62h121v-67h-123v-62zM369 29v88h184v-88h-184zM369 944v66h61v-66h-61z" />
    <glyph glyph-name=".null" 
 />
    <glyph glyph-name="nonmarkingreturn" horiz-adv-x="682" 
 />
    <glyph glyph-name="space" unicode=" " horiz-adv-x="526" 
 />
    <glyph glyph-name="space" unicode="&#xa0;" horiz-adv-x="526" 
 />
    <glyph glyph-name="exclam" unicode="!" horiz-adv-x="567" 
d="M141 461l457 901h356l-581 -901h-232zM-176 0l176 307h334l-178 -307h-332z" />
    <glyph glyph-name="quotedbl" unicode="&#x22;" horiz-adv-x="835" 
d="M580 1362h288l-358 -569h-231zM653 793l301 569h289l-358 -569h-232z" />
    <glyph glyph-name="numbersign" unicode="#" horiz-adv-x="1898" 
d="M-70 0l334 348h-254l127 219h336l229 240h-280l127 217h360l324 338h326l-324 -338h278l324 338h326l-324 -338h254l-127 -217h-334l-229 -240h278l-127 -219h-360l-334 -348h-325l333 348h-278l-334 -348h-326zM799 567h278l230 240h-279z" />
    <glyph glyph-name="dollar" unicode="$" horiz-adv-x="1314" 
d="M119 -256l131 231q-109 17 -176.5 62t-89.5 109t-11 138.5t54 157.5h350q-55 -112 -25 -163.5t156 -51.5q121 0 188.5 31.5t120.5 124.5q37 68 18.5 104t-90.5 50l-198 38q-377 71 -170 433q92 156 247 257t369 126l131 225h336l-139 -240q113 -28 171 -91.5t56 -147
t-49 -183.5h-356q23 54 25.5 90t-16 56t-51 27.5t-85.5 7.5q-99 0 -166 -30t-119 -116q-66 -112 70 -137l168 -33q116 -20 183 -59t87 -97t2 -132t-74 -171q-93 -163 -229.5 -258.5t-349.5 -124.5l-133 -233h-336z" />
    <glyph glyph-name="percent" unicode="%" horiz-adv-x="1785" 
d="M-207 0l14 25l1797 1144h-451l-227 -397h-635l340 590h1253q62 0 91.5 -22.5t27.5 -61.5q-3 -75 -133 -158l-1731 -1120h-346zM616 967h209l117 202h-209zM756 0l340 588h633l-340 -588h-633zM1081 195h209l115 202h-209z" />
    <glyph glyph-name="ampersand" unicode="&#x26;" horiz-adv-x="1509" 
d="M1202 551q-99 -141 -213 -252l121 -197l-246 -161l-108 176q-244 -150 -514 -150q-142 0 -237 51.5t-117 141t44 211.5q128 225 467 364q-49 166 41 318q101 178 255.5 261t369.5 83q204 0 284 -95t-6 -249q-124 -212 -430 -334l-147 -60l115 -186q27 32 71 94
q145 205 346 205h205l-127 -221h-174zM223 367q-50 -86 -15.5 -129t150.5 -43q142 0 295 88l-164 268q-107 -41 -171.5 -85t-94.5 -99zM680 840l125 47q104 40 162 74t88 86q39 71 20 99t-100 28q-85 0 -148.5 -33.5t-111.5 -116.5q-54 -93 -35 -184z" />
    <glyph glyph-name="quotesingle" unicode="'" horiz-adv-x="460" 
d="M580 1362h288l-358 -569h-231z" />
    <glyph glyph-name="parenleft" unicode="(" horiz-adv-x="913" 
d="M158 641q89 155 210 296.5t242.5 246t256.5 194.5t248 148.5t222 101.5l68 -160q-140 -79 -260 -160t-249.5 -189t-244 -243t-202.5 -288q-83 -144 -130.5 -288t-57.5 -265.5t0 -220t38 -181.5l-172 -100q-43 47 -78 120.5t-56 182.5t-17 229.5t49.5 273t132.5 302.5z
" />
    <glyph glyph-name="parenright" unicode=")" horiz-adv-x="915" 
d="M827 502q-89 -155 -210 -296.5t-242.5 -246t-256.5 -194.5t-248 -148.5t-222 -101.5l-68 159q140 79 260.5 160.5t250 189.5t244 243t202.5 288q83 144 130.5 288t57.5 265.5t-0.5 219.5t-38.5 181l172 101q43 -47 78 -120.5t56 -182.5t17 -229.5t-49.5 -273
t-132.5 -302.5z" />
    <glyph glyph-name="asterisk" unicode="*" horiz-adv-x="854" 
d="M430 1124l125 111l131 -182l154 309h153l-213 -309l357 182v-127l-353 -137l193 -131l-125 -105l-137 180l-154 -311h-151l213 311l-359 -186l2 129l350 139z" />
    <glyph glyph-name="plus" unicode="+" horiz-adv-x="1230" 
d="M256 649h299l186 326h285l-188 -326h299l-136 -233h-299l-186 -324h-283l187 324h-299z" />
    <glyph glyph-name="comma" unicode="," horiz-adv-x="493" 
d="M-197 16l168 291h318l-256 -444q-32 -54 -64 -92t-76 -70.5t-101.5 -49t-129.5 -16.5h-78l105 181h121l114 200h-121z" />
    <glyph glyph-name="hyphen" unicode="-" horiz-adv-x="991" 
d="M137 649h881l-137 -233h-881z" />
    <glyph glyph-name="period" unicode="." horiz-adv-x="509" 
d="M-205 0l176 307h334l-176 -307h-334z" />
    <glyph glyph-name="slash" unicode="/" horiz-adv-x="907" 
d="M-274 0l1282 1362h378l-1282 -1362h-378z" />
    <glyph glyph-name="zero" unicode="0" horiz-adv-x="1486" 
d="M489 -33q-137 0 -233 39.5t-143 109t-56 163.5t23.5 205t101.5 231q394 682 1010 682q114 0 199.5 -29.5t136 -81.5t74 -123t17.5 -155t-36.5 -177t-85.5 -188q-69 -119 -140 -214t-164.5 -184t-195.5 -148t-232 -94.5t-276 -35.5zM539 680q-56 -98 -86 -164.5
t-40.5 -117.5t8 -79.5t61 -42.5t116.5 -14q122 0 210.5 40.5t164 128t168.5 249.5q57 98 87.5 165.5t40.5 119t-8.5 80.5t-61 43t-116.5 14q-122 0 -210.5 -41.5t-163.5 -129t-170 -251.5z" />
    <glyph glyph-name="one" unicode="1" horiz-adv-x="1095" 
d="M-180 0l164 281h274l461 800h-275l164 281h250q175 0 227.5 -90t-34.5 -242l-433 -749h289l-162 -281h-925z" />
    <glyph glyph-name="two" unicode="2" horiz-adv-x="1449" 
d="M-172 0l164 281l952 460q202 99 270 220q49 85 23.5 124t-129.5 39q-108 0 -187 -32t-143.5 -97t-136.5 -180h-362q56 93 119.5 173t152 157t187 131.5t225.5 87.5t266 33q110 0 193.5 -24.5t131.5 -66.5t69 -97t11.5 -117t-45.5 -125q-49 -84 -127.5 -158.5t-223 -163.5
t-361.5 -190l-359 -174h701l-164 -281h-1227z" />
    <glyph glyph-name="three" unicode="3" horiz-adv-x="1378" 
d="M393 444q-59 -107 -31 -161t158 -54q117 0 204.5 49.5t154.5 163.5q125 215 -99 215q-104 0 -237 -53l-4 223l532 254h-608l162 281h1079l-164 -281l-608 -270q74 12 108 12q54 0 103.5 -14t90 -46t59.5 -79.5t6 -120.5t-64 -162q-45 -78 -97 -141t-123.5 -118.5
t-156 -93.5t-194 -59.5t-236.5 -21.5q-143 0 -246.5 37.5t-154.5 101.5t-50.5 151.5t56.5 186.5h360z" />
    <glyph glyph-name="four" unicode="4" horiz-adv-x="1427" 
d="M504 0l160 279h-742l160 280l1038 803h531l-465 -803h217l-162 -280h-217l-160 -279h-360zM412 559h413l326 561z" />
    <glyph glyph-name="five" unicode="5" horiz-adv-x="1382" 
d="M1735 1362l-164 -281h-774l-199 -305q97 58 191 87.5t219 29.5q133 0 217.5 -60.5t96 -168t-70.5 -254.5q-83 -145 -192.5 -240.5t-270.5 -149t-370 -53.5q-119 0 -208.5 25.5t-139.5 68t-73.5 97.5t-17 113.5t36.5 115.5h377q-35 -82 -2.5 -118t148.5 -36
q135 0 220.5 49t158.5 177q48 82 50 129.5t-35 66.5t-116 19q-93 0 -164.5 -28.5t-144.5 -84.5h-350l514 801h1063z" />
    <glyph glyph-name="six" unicode="6" horiz-adv-x="1372" 
d="M438 -33q-113 0 -198.5 26t-139.5 83t-68 141t21 205t121 270q408 705 1030 705q88 0 161.5 -22.5t121.5 -62.5t75 -91t26 -112t-29 -122h-359q31 79 3 112.5t-128 33.5q-158 0 -273 -87t-231 -286l-10 -17q193 136 410 136q131 0 216 -61.5t99 -172.5t-72 -266
q-111 -194 -307.5 -303t-468.5 -109zM408 442q-40 -69 -45 -114.5t33 -72t126 -26.5q129 0 214 52t147 161q65 109 40 162t-149 53q-129 0 -216 -51t-150 -164z" />
    <glyph glyph-name="seven" unicode="7" horiz-adv-x="1206" 
d="M379 1081l164 281h1108l-119 -207q-92 -57 -158.5 -101t-157 -110.5t-163 -129t-162 -150.5t-169.5 -182.5t-170.5 -218t-178.5 -263.5h-363q399 637 1080 1081h-711z" />
    <glyph glyph-name="eight" unicode="8" horiz-adv-x="1355" 
d="M414 -33q-152 0 -257.5 36t-152 97t-46 139t49.5 164q63 109 161.5 179.5t258.5 119.5q-148 102 -25 316q43 73 111 138.5t159 120t212 86.5t254 32q138 0 233.5 -33.5t137 -89.5t41.5 -128t-44 -151q-117 -222 -379 -293q89 -43 104 -142.5t-61 -240.5
q-29 -50 -68.5 -95t-105 -93t-145 -83t-193 -57t-245.5 -22zM369 399q-58 -100 -28 -145t155 -45q97 0 163.5 23t105.5 61.5t77 105.5q58 98 28.5 144.5t-153.5 46.5q-96 0 -163.5 -24.5t-107 -63t-77.5 -103.5zM717 977q-55 -94 -27.5 -136t148.5 -42q92 0 154.5 22.5
t98.5 58t72 97.5q55 94 26.5 136t-149.5 42q-70 0 -121.5 -11.5t-88.5 -36t-62 -54.5t-51 -76z" />
    <glyph glyph-name="nine" unicode="9" horiz-adv-x="1372" 
d="M1130 1397q113 0 198.5 -26t139.5 -83t68.5 -141t-20.5 -205t-121 -270q-408 -705 -1030 -705q-88 0 -161.5 22.5t-121.5 62.5t-75 91t-26 112t29 122h359q-31 -79 -3 -112.5t128 -33.5q157 0 272 86.5t231 286.5l11 17q-193 -136 -410 -136q-131 0 -216.5 61.5
t-99.5 172.5t72 266q111 194 307.5 303t468.5 109zM686 922q-65 -109 -40 -162t149 -53q129 0 216 51t150 164q40 69 45 114.5t-33 72t-126 26.5q-129 0 -214 -52t-147 -161z" />
    <glyph glyph-name="colon" unicode=":" horiz-adv-x="512" 
d="M-201 0l176 307h334l-176 -307h-334zM209 717l176 307h334l-176 -307h-334z" />
    <glyph glyph-name="semicolon" unicode=";" horiz-adv-x="509" 
d="M-197 16l168 291h318l-256 -444q-32 -54 -64 -92t-76 -70.5t-101.5 -49t-129.5 -16.5h-78l105 181h121l114 200h-121zM209 717l176 307h334l-176 -307h-334z" />
    <glyph glyph-name="less" unicode="&#x3c;" horiz-adv-x="1093" 
d="M678 94l-580 283l109 190h2l59 105l906 282l-144 -249l-674 -211l430 -207z" />
    <glyph glyph-name="equal" unicode="=" horiz-adv-x="1159" 
d="M375 852h805l-131 -234h-805zM2 199l131 233h805l-133 -233h-803z" />
    <glyph glyph-name="greater" unicode="&#x3e;" horiz-adv-x="1093" 
d="M430 954l580 -282l-109 -191h-2l-59 -104l-906 -283l144 250l674 211l-430 207z" />
    <glyph glyph-name="question" unicode="?" horiz-adv-x="1394" 
d="M510 473l127 219h115q160 0 249 49.5t160 173.5q44 77 45 120.5t-34.5 60t-110.5 16.5q-137 0 -228 -52.5t-182 -195.5h-364q60 96 114 166t134 143.5t167 120t208.5 76t263.5 29.5q119 0 206 -28.5t133 -78t63 -113.5t2 -136t-58 -146q-127 -221 -319 -322.5
t-464 -101.5h-227zM242 0l176 307h334l-179 -307h-331z" />
    <glyph glyph-name="at" unicode="@" horiz-adv-x="2230" 
d="M739 -410q-355 0 -553 122t-212 347.5t165 544.5q84 145 187.5 269t239 233t288.5 185.5t341 120.5t392 44q181 0 321.5 -33.5t235 -105t131.5 -175.5t6 -253t-135 -330q-312 -543 -852 -543h-247l77 172q-96 -91 -194.5 -135.5t-216.5 -44.5q-140 0 -204.5 70.5
t-51.5 184t92 249.5q143 250 312 382t388 132q128 0 187 -40t61 -120l76 129h330l-445 -770h35q98 0 214 90t224 277q107 185 128.5 317t-40 212t-188 116.5t-324.5 36.5q-386 0 -671 -182t-492 -541q-145 -252 -126 -422.5t168 -257t407 -86.5h381l-113 -195h-322zM883 516
q-60 -104 -70.5 -157.5t19.5 -73t110 -19.5q118 0 193.5 49.5t162.5 200.5q45 79 62 128.5t5.5 77t-43 37t-91.5 9.5q-118 0 -189.5 -50t-158.5 -202z" />
    <glyph glyph-name="A" unicode="A" horiz-adv-x="1505" 
d="M1206 0h-348l60 256h-586l-236 -256h-385l1254 1362h561zM582 528h399l135 580z" />
    <glyph glyph-name="B" unicode="B" horiz-adv-x="1406" 
d="M-182 0l786 1362h737q96 0 164.5 -32t99.5 -85t27 -125t-47 -149q-68 -124 -175 -185t-265 -84q120 -27 151 -117t-45 -229q-100 -176 -250 -266t-391 -90h-792zM336 270h321q168 0 256 152q26 45 28 78t-26.5 54t-89.5 21h-313zM649 811h312q158 0 237 141q37 60 19 100
t-91 40h-315z" />
    <glyph glyph-name="C" unicode="C" horiz-adv-x="1548" 
d="M535 -33q-181 0 -297 62t-155 166.5t-15 240t110 285.5q74 128 148 226t170.5 185.5t204 143.5t245.5 88.5t299 32.5q130 0 229 -31t156.5 -86.5t82.5 -129t13 -160t-59 -179.5h-369q81 166 45.5 228.5t-210.5 62.5q-81 0 -137.5 -8t-117.5 -33t-113 -71.5t-110 -122
t-123 -187.5q-70 -121 -97 -202t-11 -129.5t67.5 -68.5t143.5 -20q132 0 214 24t153 87t157 190h373q-57 -89 -105 -155t-106 -131t-115.5 -110t-129 -85t-151.5 -63.5t-177.5 -36.5t-212.5 -13z" />
    <glyph glyph-name="D" unicode="D" horiz-adv-x="1509" 
d="M-182 0l786 1362h572q138 0 237 -40.5t149 -111.5t62.5 -164t-15.5 -200.5t-91 -218.5q-58 -102 -118.5 -185t-148.5 -168t-185.5 -143t-228.5 -94.5t-278 -36.5h-741zM344 285h266q135 0 229 39t169 121.5t161 234.5q83 147 91.5 235.5t-47 125t-177.5 36.5h-233z" />
    <glyph glyph-name="E" unicode="E" horiz-adv-x="1296" 
d="M504 561l-158 -276h733l-164 -285h-1097l786 1362h1092l-164 -285h-729l-146 -252h668l-154 -264h-667z" />
    <glyph glyph-name="F" unicode="F" horiz-adv-x="1265" 
d="M-182 0l786 1362h1082l-164 -285h-719l-164 -282h647l-153 -265h-646l-307 -530h-362z" />
    <glyph glyph-name="G" unicode="G" horiz-adv-x="1585" 
d="M459 -33q-116 0 -204 35t-138 101.5t-64.5 156t15.5 205t104 242.5q399 690 1100 690q134 0 234 -26t157.5 -71.5t83 -107.5t17.5 -133t-46 -148h-360q50 109 8 158t-201 49q-97 0 -173.5 -18.5t-154.5 -66t-152 -134.5t-150 -219q-131 -224 -113.5 -330t201.5 -106
q167 0 291 62.5t233 213.5h-440l131 228h784l-432 -748h-295l119 209q-39 -43 -90 -82.5t-120.5 -77t-159.5 -60t-185 -22.5z" />
    <glyph glyph-name="H" unicode="H" horiz-adv-x="1523" 
d="M-182 0l786 1362h371l-307 -531h559l307 531h371l-787 -1362h-370l317 551h-559l-318 -551h-370z" />
    <glyph glyph-name="I" unicode="I" horiz-adv-x="1036" 
d="M-197 0l166 285h240l455 792h-238l164 285h842l-166 -285h-240l-455 -792h238l-164 -285h-842z" />
    <glyph glyph-name="J" unicode="J" horiz-adv-x="956" 
d="M-227 0l166 285h419l623 1077h365l-502 -866q-154 -268 -332 -382t-446 -114h-293z" />
    <glyph glyph-name="K" unicode="K" horiz-adv-x="1456" 
d="M-182 0l786 1362h363l-338 -586l178 144l639 442h491l-862 -586l76 -758l-10 -18h-373l-33 547l-395 -268l-160 -279h-362z" />
    <glyph glyph-name="L" unicode="L" horiz-adv-x="1140" 
d="M-182 0l786 1362h367l-623 -1077h613l-164 -285h-979z" />
    <glyph glyph-name="M" unicode="M" horiz-adv-x="2009" 
d="M2392 1362l-786 -1362h-367l657 1128l-985 -1128h-401l328 1139l-660 -1139h-360l786 1362h606l-243 -883l772 883h653z" />
    <glyph glyph-name="N" unicode="N" horiz-adv-x="1556" 
d="M975 291l618 1071h346l-786 -1362h-547l133 889q10 77 41 184l-618 -1073h-344l786 1362h545l-139 -907q-12 -74 -35 -164z" />
    <glyph glyph-name="O" unicode="O" horiz-adv-x="1576" 
d="M539 -33q-180 0 -296 61.5t-156.5 166t-16.5 242.5t114 292q90 155 186 269.5t222.5 208t288.5 142t358 48.5q144 0 247.5 -41t156.5 -113t66 -168t-16.5 -207.5t-97.5 -228.5q-77 -133 -154 -234t-172 -186t-201.5 -139t-239.5 -83.5t-289 -29.5zM535 680
q-133 -223 -114 -319.5t210 -96.5q151 0 253 39.5t182.5 126t174.5 250.5q54 93 82.5 159.5t35 118t-15 82t-69.5 45.5t-127 15q-150 0 -252 -40t-183.5 -127.5t-176.5 -252.5z" />
    <glyph glyph-name="P" unicode="P" horiz-adv-x="1361" 
d="M1245 1362q122 0 204 -41t114.5 -109.5t22.5 -158.5t-64 -187q-234 -422 -678 -422h-404l-256 -444h-366l786 1362h641zM600 723h277q103 0 166.5 40.5t123.5 145.5q54 95 35 135.5t-110 40.5h-281z" />
    <glyph glyph-name="Q" unicode="Q" horiz-adv-x="1597" 
d="M197 750q56 98 120.5 183t159.5 173t201.5 150t249 101.5t299.5 39.5q123 0 217.5 -30t150 -81.5t86 -119.5t31 -144t-21 -154.5t-64.5 -152.5q-59 -102 -120.5 -177t-128.5 -127t-134.5 -85t-150.5 -58h323l-155 -268h-707q-150 0 -255.5 41.5t-157 113t-62 167
t20.5 204.5t98 224zM543 694q-54 -93 -81.5 -156t-33.5 -112t18.5 -76.5t76.5 -41t139 -13.5q110 0 188 19t145 69t121 120.5t123 190.5q52 90 79.5 153t34 113.5t-16.5 80t-74 44.5t-136 15q-143 0 -242 -41t-174 -124t-167 -241z" />
    <glyph glyph-name="R" unicode="R" horiz-adv-x="1406" 
d="M1143 246q-31 -53 -53.5 -98t-33 -71.5t-28.5 -76.5h-366q26 104 112 246l33 55q42 68 39 111t-36.5 62.5t-96.5 19.5h-244l-285 -494h-366l786 1362h651q123 0 208 -38.5t121 -101.5t30.5 -145t-55.5 -168q-132 -229 -459 -284q48 -10 80.5 -31t50 -55.5t7 -90
t-51.5 -126.5zM616 752h269q108 0 178 39t123 129q49 88 25 126.5t-126 38.5h-274z" />
    <glyph glyph-name="S" unicode="S" horiz-adv-x="1355" 
d="M377 442q-56 -112 -22.5 -163.5t173.5 -51.5q136 0 206 31t124 125q75 132 -72 154l-239 38q-129 21 -189 80.5t-54 148t73 204.5q106 181 297 285t471 104q153 0 255.5 -35t145.5 -96t41.5 -140.5t-47.5 -171.5h-356q23 55 25.5 90.5t-18.5 55.5t-57.5 27.5t-97.5 7.5
q-114 0 -183.5 -29.5t-121.5 -116.5q-69 -117 70 -137l209 -33q153 -22 221 -83.5t60 -153.5t-83 -222q-55 -97 -122 -166.5t-161 -122.5t-222 -79.5t-291 -26.5q-131 0 -224 26.5t-142 71t-66.5 106t-4.5 130t52 143.5h350z" />
    <glyph glyph-name="T" unicode="T" horiz-adv-x="1280" 
d="M162 0l622 1077h-436l164 285h1237l-164 -285h-436l-623 -1077h-364z" />
    <glyph glyph-name="U" unicode="U" horiz-adv-x="1460" 
d="M119 551l469 811h364l-463 -797q-101 -175 -81 -239t180 -64q66 0 108.5 5.5t88 22.5t82 51t77.5 88t88 136l463 797h363l-498 -860q-116 -201 -233 -315t-269 -167t-369 -53q-320 0 -421.5 160t51.5 424z" />
    <glyph glyph-name="V" unicode="V" horiz-adv-x="1470" 
d="M172 0l344 1362h352l-217 -858q-25 -101 -61 -213q61 76 180 213l776 858h393l-1228 -1362h-539z" />
    <glyph glyph-name="W" unicode="W" horiz-adv-x="2199" 
d="M1436 227l852 1135h356l-1020 -1362h-612l407 1063l-819 -1063h-610l551 1362h354l-459 -1135l885 1135h539z" />
    <glyph glyph-name="X" unicode="X" horiz-adv-x="1550" 
d="M811 0l-86 416l-508 -416h-477l924 713l-134 649h385l91 -428l536 428h471l-946 -717l135 -645h-391z" />
    <glyph glyph-name="Y" unicode="Y" horiz-adv-x="1306" 
d="M455 1362h360l-47 -447q-8 -80 -43 -231q136 143 229 234l457 444h426l-1069 -969l-227 -393h-361l226 393z" />
    <glyph glyph-name="Z" unicode="Z" horiz-adv-x="1337" 
d="M-238 0l166 285l1184 792h-704l163 285h1207l-164 -285l-1188 -792h737l-166 -285h-1235z" />
    <glyph glyph-name="bracketleft" unicode="[" horiz-adv-x="1144" 
d="M-358 -410l159 279h2l832 1442l160 276h878l-160 -276h-487l-831 -1442h485l-160 -279h-878z" />
    <glyph glyph-name="backslash" unicode="\" horiz-adv-x="1523" 
d="M1208 0h-336l-368 1362h338z" />
    <glyph glyph-name="bracketright" unicode="]" horiz-adv-x="1144" 
d="M1608 1579l-160 -279h-2l-832 -1441l-159 -277h-879l160 277h487l832 1441h-486l160 279h879z" />
    <glyph glyph-name="asciicircum" unicode="^" horiz-adv-x="1183" 
d="M301 729l647 633h275l-86 -633h-217l57 420l-430 -420h-246z" />
    <glyph glyph-name="underscore" unicode="_" horiz-adv-x="989" 
d="M-240 0h881l-135 -233h-881z" />
    <glyph glyph-name="grave" unicode="`" horiz-adv-x="811" 
d="M510 1180l61 213l562 -172l-21 -84z" />
    <glyph glyph-name="a" unicode="a" horiz-adv-x="1206" 
d="M168 -27q-100 0 -169.5 46t-84.5 126t45 189q68 120 170.5 173.5t333.5 86.5l256 37q73 10 109.5 31t60.5 63q13 25 14.5 47t-26.5 36.5t-84 14.5q-97 0 -156.5 -29t-108.5 -110h-342q232 373 672 373q118 0 202.5 -26t131.5 -76.5t42.5 -133t-65.5 -188.5l-202 -350
q-90 -156 -125 -283h-307q17 100 77 203q-56 -60 -97 -96t-95 -70t-115.5 -49t-136.5 -15zM297 311q-55 -108 76 -108q96 0 201 72.5t178 205.5l20 39q-65 -35 -197 -63l-67 -13q-90 -19 -136 -47.5t-75 -85.5z" />
    <glyph glyph-name="b" unicode="b" horiz-adv-x="1351" 
d="M1094 1057q127 0 200.5 -49t88.5 -133t-14 -191t-99 -229q-50 -87 -99 -154.5t-115.5 -132.5t-139 -107.5t-166.5 -68t-201 -25.5q-269 0 -285 191l-90 -158h-362l825 1430h360l-297 -517q181 144 394 144zM469 512q-49 -84 -67 -137.5t-4.5 -83t50 -40t103.5 -9.5
q132 0 212 53.5t173 212.5q50 85 68 139t5 84.5t-49.5 41.5t-103.5 11q-134 0 -214 -56.5t-173 -215.5z" />
    <glyph glyph-name="c" unicode="c" horiz-adv-x="1228" 
d="M63 545q269 512 830 512q109 0 190.5 -28t126.5 -74.5t64 -106.5t8.5 -126t-45.5 -130h-346q51 100 29 145t-127 45q-63 0 -104 -7.5t-91 -33.5t-97.5 -82t-99.5 -147q-60 -104 -68.5 -163.5t25 -82t113.5 -22.5q113 0 185.5 41.5t144.5 148.5h346q-57 -95 -108.5 -162
t-118.5 -128t-141 -98t-171 -58t-215 -21q-120 0 -207 29.5t-134 82t-62 125t4 159t69 182.5z" />
    <glyph glyph-name="d" unicode="d" horiz-adv-x="1347" 
d="M801 1057q140 0 212.5 -51.5t78.5 -145.5l331 574h355l-828 -1434h-329l90 156q-199 -189 -449 -189q-128 0 -202 49t-89.5 133.5t13 191.5t98.5 228q49 86 97.5 153.5t114.5 132.5t138.5 107.5t166.5 68.5t202 26zM420 520q-40 -68 -59 -116t-19.5 -80t19 -50t52.5 -25
t87 -7q137 0 218 55.5t173 214.5q39 67 56 114t16.5 77.5t-21 48t-53.5 24t-86 6.5q-91 -1 -150.5 -21.5t-114.5 -76.5t-118 -164z" />
    <glyph glyph-name="e" unicode="e" horiz-adv-x="1210" 
d="M356 -33q-189 0 -287 78.5t-95 214.5t102 307q69 119 144.5 206t170.5 152.5t213 98.5t260 33q140 0 230.5 -47t121.5 -124.5t16 -175.5t-77 -202q-26 -48 -55 -84h-762q-43 -84 -40 -132.5t36.5 -67.5t103.5 -19q102 0 152 21.5t102 80.5h344q-51 -65 -94.5 -111
t-105 -92t-127.5 -74t-156 -45.5t-197 -17.5zM455 625h432q57 115 33.5 158.5t-129.5 43.5q-104 0 -177.5 -39.5t-158.5 -162.5z" />
    <glyph glyph-name="f" unicode="f" horiz-adv-x="847" 
d="M-88 0l438 760h-186l96 164l244 102l37 64q92 160 232.5 250t326.5 90h278l-145 -254h-344l-86 -152h293l-154 -264h-237l-439 -760h-354z" />
    <glyph glyph-name="g" unicode="g" horiz-adv-x="1325" 
d="M166 -432q-111 0 -197 22.5t-137 61t-77 89t-22 107t34 113.5h339q-16 -38 -19 -62t8 -45.5t49 -31.5t104 -10q52 0 86.5 3.5t71 14.5t65 32t58 55t59.5 85l76 133q-141 -104 -340 -104q-113 0 -190 44t-108 119.5t-13.5 182t87.5 227.5q129 225 296 339t399 114
q276 0 295 -180l84 143h354l-555 -963q-83 -142 -154 -229.5t-165 -149t-209.5 -86t-278.5 -24.5zM424 535q-59 -102 -63.5 -156.5t33.5 -73t126 -18.5q132 0 210 51t163 197q57 99 66 152t-26.5 75t-123.5 22q-93 0 -152 -18t-116 -72t-117 -159z" />
    <glyph glyph-name="h" unicode="h" horiz-adv-x="1298" 
d="M-184 0l823 1434h354l-317 -553q192 176 401 176q129 0 197.5 -62.5t67.5 -161.5t-66 -210l-361 -623h-352l326 565q71 121 58.5 165t-116.5 44q-72 0 -122.5 -17t-110 -72t-127.5 -159l-301 -526h-354z" />
    <glyph glyph-name="i" unicode="i" horiz-adv-x="548" 
d="M-197 0l590 1024h355l-590 -1024h-355zM461 1149l121 213h366l-123 -213h-364z" />
    <glyph glyph-name="j" unicode="j" horiz-adv-x="569" 
d="M-717 -410l162 279h303l668 1155h354l-596 -1030q-79 -137 -167 -223.5t-207.5 -133.5t-272.5 -47h-244zM483 1149l121 213h367l-123 -213h-365z" />
    <glyph glyph-name="k" unicode="k" horiz-adv-x="1288" 
d="M614 0l-55 362l-295 -192l-98 -170h-354l827 1434h354l-501 -869q137 115 194 158l422 301h463l-6 -8l-693 -451l119 -565h-377z" />
    <glyph glyph-name="l" unicode="l" horiz-adv-x="565" 
d="M-188 0l827 1434h354l-827 -1434h-354z" />
    <glyph glyph-name="m" unicode="m" horiz-adv-x="1976" 
d="M1567 565q69 121 56.5 165t-116.5 44q-70 0 -117 -18.5t-101 -75.5t-124 -170l-293 -510h-354l326 565q71 121 58.5 165t-116.5 44q-69 0 -115 -18.5t-99 -74.5t-123 -167l-295 -514h-355l592 1024h352l-81 -141q174 174 372 174q133 0 199.5 -59t66.5 -158
q211 217 455 217q135 0 203 -63t64 -161t-70 -210l-359 -623h-352z" />
    <glyph glyph-name="n" unicode="n" horiz-adv-x="1286" 
d="M-201 0l590 1024h354l-84 -147q193 180 406 180q129 0 197.5 -62.5t67.5 -161.5t-66 -210l-361 -623h-352l326 565q71 121 58.5 165t-116.5 44q-57 0 -98 -10t-88 -40.5t-94.5 -88t-104.5 -150.5l-280 -485h-355z" />
    <glyph glyph-name="o" unicode="o" horiz-adv-x="1288" 
d="M408 -33q-147 0 -245 47.5t-137 128t-27.5 187.5t73.5 227q60 115 134.5 202.5t173 156.5t226.5 105t281 36q144 0 240.5 -46t136 -126t27.5 -188.5t-77 -231.5q-44 -82 -96.5 -151.5t-126 -135t-157.5 -111t-193.5 -73t-232.5 -27.5zM414 512q-64 -109 -74.5 -167
t24 -80.5t123.5 -22.5q137 0 215 53.5t172 216.5q64 110 74.5 168.5t-24 81t-123.5 22.5q-69 0 -117 -10.5t-94 -41t-86.5 -82.5t-89.5 -138z" />
    <glyph glyph-name="p" unicode="p" horiz-adv-x="1337" 
d="M532 -33q-272 0 -288 193l-328 -570h-354l827 1434h330l-86 -152q201 185 442 185q128 0 202 -48.5t89.5 -132t-13 -191t-98.5 -230.5q-51 -87 -100 -155t-115.5 -133t-139 -107t-166.5 -67.5t-202 -25.5zM449 512q-66 -112 -74 -171.5t30 -79.5t130 -19q91 1 150 22
t114.5 77.5t120.5 166.5q67 113 75.5 173t-29 80.5t-128.5 20.5q-137 0 -217 -55.5t-172 -214.5z" />
    <glyph glyph-name="q" unicode="q" horiz-adv-x="1335" 
d="M262 -33q-128 0 -202 49t-89.5 133.5t13 191.5t98.5 228q49 86 97.5 153.5t114.5 132.5t138.5 107.5t166.5 68.5t202 26q140 0 212.5 -51.5t78.5 -145.5l94 164h354l-827 -1434h-355l299 521q-181 -144 -395 -144zM420 520q-40 -68 -59 -116t-19.5 -80t19 -50t52.5 -25
t87 -7q130 0 207.5 48.5t160.5 184.5l41 70q39 72 50 119t-5.5 73t-52 35.5t-98.5 9.5q-91 -1 -150.5 -21.5t-114.5 -76.5t-118 -164z" />
    <glyph glyph-name="r" unicode="r" horiz-adv-x="856" 
d="M-201 0l592 1024h342l-117 -201q94 110 194.5 163.5t227.5 53.5h86l-198 -344h-129q-132 0 -206.5 -45t-158.5 -178l-272 -473h-361z" />
    <glyph glyph-name="s" unicode="s" horiz-adv-x="1114" 
d="M246 330q-38 -78 -8 -115t129 -37q97 0 144.5 21t72.5 73q50 101 -95 129l-167 31q-97 17 -141.5 67.5t-37 122t59.5 160.5q157 275 606 275q223 0 320.5 -81.5t35.5 -254.5h-319q31 75 6.5 101t-113.5 26q-94 0 -144.5 -19.5t-76.5 -76.5q-39 -94 90 -115l160 -25
q113 -19 165.5 -72t47.5 -128.5t-61 -171.5q-38 -65 -85.5 -112t-120.5 -85t-178.5 -57t-244.5 -19q-109 0 -188 20t-123 53.5t-63.5 80.5t-16 98.5t25.5 110.5h320z" />
    <glyph glyph-name="t" unicode="t" horiz-adv-x="894" 
d="M303 0q-98 0 -162 25.5t-87.5 70.5t-16.5 103t45 125l252 436h-180l96 164l282 92l267 250h180l-139 -242h274l-151 -264h-275l-278 -481h297l-160 -279h-244z" />
    <glyph glyph-name="u" unicode="u" horiz-adv-x="1286" 
d="M221 -33q-97 0 -160.5 37t-86 97.5t-10 139.5t60.5 162l360 621h352l-325 -565q-71 -120 -59.5 -163.5t114.5 -43.5q77 0 129.5 17.5t115.5 78t134 176.5l289 500h354l-592 -1024h-334l117 203q-226 -236 -459 -236z" />
    <glyph glyph-name="v" unicode="v" horiz-adv-x="1210" 
d="M299 1024h338l-188 -741l665 741h387l-930 -1024h-524z" />
    <glyph glyph-name="w" unicode="w" horiz-adv-x="1869" 
d="M-29 0l340 1024h336l-256 -723l635 723h389l-198 -719l571 719h364l-841 -1024h-488l201 653l-563 -653h-490z" />
    <glyph glyph-name="x" unicode="x" horiz-adv-x="1146" 
d="M-301 0l704 528l-118 496h348l43 -272l344 272h418l-699 -545l125 -479h-344l-49 270l-340 -270h-432z" />
    <glyph glyph-name="y" unicode="y" horiz-adv-x="1210" 
d="M-459 -410l160 279h405l148 160h-193l244 995h340l-143 -594l-35 -149l129 149l532 594h373l-917 -1024q-96 -107 -173.5 -177.5t-167.5 -126t-188.5 -81t-216.5 -25.5h-297z" />
    <glyph glyph-name="z" unicode="z" horiz-adv-x="1116" 
d="M-227 0l147 256l842 512h-541l148 256h972l-149 -256l-834 -512h545l-149 -256h-981z" />
    <glyph glyph-name="braceleft" unicode="{" horiz-adv-x="952" 
d="M43 440l160 279h59q86 0 148 43.5t118 140.5l152 262q65 113 146.5 196.5t162 131t178.5 75.5t182 37t187 9l-109 -187q-62 -2 -100 -7.5t-85 -23.5t-85 -52.5t-83 -93.5t-95 -146l-129 -227q-44 -77 -82.5 -125t-83.5 -77t-90.5 -43t-116.5 -24l-37 -63q196 -42 56 -285
l-119 -205q-48 -82 -64.5 -144t-1.5 -100t49.5 -57.5t88.5 -21.5l-107 -187q-113 0 -194.5 26t-125.5 72.5t-57.5 109.5t4.5 138.5t66 157.5l121 207q57 95 45 139.5t-99 44.5h-59z" />
    <glyph glyph-name="bar" unicode="|" horiz-adv-x="696" 
d="M-393 -410l1151 1997h364l-1153 -1997h-362z" />
    <glyph glyph-name="braceright" unicode="}" horiz-adv-x="954" 
d="M991 717l-160 -279h-59q-86 0 -148 -43.5t-118 -140.5l-152 -262q-65 -113 -146.5 -196.5t-162 -131t-178.5 -75.5t-182 -37t-187 -9l109 187q62 2 100 7.5t85 23.5t85 52.5t83 93.5t95 146l129 228q44 77 82.5 125t84 77t90.5 42.5t116 23.5l37 63q-195 42 -55 285
l118 205q48 82 64.5 144t2 100t-49 57.5t-88.5 21.5l106 187q113 0 194.5 -26t125.5 -72.5t57.5 -109.5t-4.5 -138.5t-66 -157.5l-120 -207q-57 -95 -45.5 -139.5t98.5 -44.5h59z" />
    <glyph glyph-name="asciitilde" unicode="~" horiz-adv-x="1153" 
d="M702 342q-50 0 -93.5 22t-70 48.5t-59 48.5t-61.5 22q-33 0 -64.5 -24.5t-54.5 -69.5l-23 -41h-186l60 119q103 205 294 205q42 0 78 -14.5t61 -35.5t47.5 -42t48 -35.5t52.5 -14.5q31 0 63.5 25t55.5 68l20 43h189l-55 -109q-50 -103 -130.5 -159t-171.5 -56z" />
    <glyph glyph-name="exclamdown" unicode="&#xa1;" horiz-adv-x="567" 
d="M428 565l-457 -901h-356l582 901h231zM236 719l178 307h331l-176 -307h-333z" />
    <glyph glyph-name="cent" unicode="&#xa2;" horiz-adv-x="1134" 
d="M162 -35l160 279q-105 28 -155 97.5t-42 166.5t68 211q205 391 612 432l141 246h268l-153 -264q89 -28 134 -90t43.5 -136t-42.5 -149h-297q44 85 25.5 123.5t-109.5 38.5q-43 0 -71.5 -3.5t-64 -16.5t-64.5 -37t-63.5 -67t-70.5 -106q-50 -89 -57 -139t22 -69t97 -19
q97 0 159 36t123 128h295q-54 -90 -103.5 -153t-113 -116.5t-143 -84.5t-178.5 -42l-154 -266h-266z" />
    <glyph glyph-name="sterling" unicode="&#xa3;" horiz-adv-x="1288" 
d="M705 612l-211 -362h481l-146 -250h-1019l143 250h186l211 362h-153l116 205h152l125 215q61 104 118 174t130 124t163.5 79t206.5 25h383l-159 -279h-416l-197 -338h305l-116 -205h-303z" />
    <glyph glyph-name="yen" unicode="&#xa5;" horiz-adv-x="1306" 
d="M180 0l115 201h-324l105 182h323l7 10l4 74h-285l106 182h187l37 713h372l-59 -447q-15 -105 -55 -251q124 136 241 254l457 444h426l-786 -713h190l-106 -182h-285l-82 -74l-6 -10h323l-104 -182h-324l-116 -201h-361z" />
    <glyph glyph-name="brokenbar" unicode="&#xa6;" horiz-adv-x="696" 
d="M279 756l479 831h364l-481 -831h-362zM-393 -410l479 832h365l-482 -832h-362z" />
    <glyph glyph-name="section" unicode="&#xa7;" horiz-adv-x="1296" 
d="M72 -63q-41 -79 -14 -122.5t130 -43.5q100 0 158 25t98 93q53 98 -55 113l-147 23q-162 22 -206.5 126t42.5 252q48 84 106 138.5t138 86t171 45t224 17.5q102 4 157.5 31.5t90.5 85.5q54 94 -58 113l-162 24q-95 15 -149 62t-59 124t55 183q76 132 234.5 213.5
t377.5 81.5q117 0 196 -26t113.5 -73t32.5 -110.5t-41 -141.5h-286q26 52 17.5 83.5t-39.5 44t-89 12.5q-86 0 -143.5 -24t-94.5 -87q-52 -88 56 -102l137 -19q173 -20 220.5 -123.5t-44.5 -267.5q-66 -112 -147.5 -176t-203 -94.5t-308.5 -32.5q-96 -3 -146 -24.5
t-82 -77.5q-54 -90 54 -101l137 -20q83 -10 138.5 -45t76.5 -86.5t11.5 -118t-50.5 -139.5q-58 -102 -132.5 -165t-195.5 -99.5t-291 -36.5q-119 0 -200.5 30t-118 81.5t-35 120t42.5 147.5h283z" />
    <glyph glyph-name="dieresis" unicode="&#xa8;" horiz-adv-x="868" 
d="M874 1149l123 213h299l-122 -213h-300zM432 1149l121 213h299l-121 -213h-299z" />
    <glyph glyph-name="copyright" unicode="&#xa9;" horiz-adv-x="1832" 
d="M670 -37q-215 0 -347 98t-146 268.5t112 401.5q81 138 191.5 256.5t246 212t300 146.5t337.5 53q106 0 194.5 -26t152 -73t101 -116t44.5 -152.5t-21 -185.5t-92 -211q-81 -141 -191 -261t-245.5 -213t-299.5 -145.5t-337 -52.5zM522 721q-73 -127 -91 -229.5t16 -169.5
t111.5 -102.5t193.5 -35.5q229 0 430.5 121t328.5 338q73 126 91 228t-16 169t-111 102.5t-191 35.5q-232 0 -435 -121t-327 -336zM647 688q59 100 132.5 174t183.5 124t237 50q117 0 182.5 -39t70.5 -107t-44 -159h-227q26 50 26 76.5t-20.5 35.5t-65.5 9q-79 0 -131 -33
t-110 -135q-41 -71 -46.5 -108t16.5 -48.5t75 -11.5q67 0 112.5 25.5t91.5 95.5h230q-82 -139 -211 -222t-301 -83q-130 0 -195.5 48.5t-64.5 127.5t59 180z" />
    <glyph glyph-name="guillemotleft" unicode="&#xab;" horiz-adv-x="1611" 
d="M762 535l639 489h403l-733 -549l143 -475h-321l-158 487zM94 487l27 48l639 489h403l-733 -549l143 -475h-321z" />
    <glyph glyph-name="logicalnot" unicode="&#xac;" horiz-adv-x="1228" 
d="M254 649h881l-134 -233h-2l-127 -221h-290l127 221h-588z" />
    <glyph glyph-name="registered" unicode="&#xae;" horiz-adv-x="1312" 
d="M610 338q-154 0 -247 72t-100 197.5t87 295.5q125 218 341.5 357t436.5 139q154 0 244.5 -71.5t94.5 -195.5t-87 -290q-128 -224 -340 -364t-430 -140zM516 627l283 489h256q89 0 114 -39t-16 -112q-26 -45 -77.5 -74.5t-117.5 -36.5q57 -6 69 -31.5t-15 -77.5l-13 -22
q-5 -11 -13 -26.5t-12 -23t-9 -20t-9 -26.5h-149q4 38 43 98l12 18q34 52 -24 52h-72l-98 -168h-152zM522 872q-88 -151 -50.5 -254.5t187.5 -103.5q149 0 304 102t245 256q88 152 49 253.5t-186 101.5q-152 0 -306 -100.5t-243 -254.5zM829 907h80q54 0 80 47q23 41 -26 41
h-82z" />
    <glyph glyph-name="macron" unicode="&#xaf;" horiz-adv-x="907" 
d="M553 1362h784l-110 -191h-785z" />
    <glyph glyph-name="degree" unicode="&#xb0;" horiz-adv-x="958" 
d="M618 711q-88 0 -147.5 33t-82 87.5t-12.5 125.5t54 147q94 162 247 262t329 100q89 0 149 -32t83.5 -85t14.5 -122t-51 -142q-97 -169 -251 -271.5t-333 -102.5zM647 1092q-35 -58 -34.5 -98.5t27 -58t73.5 -17.5q74 0 146.5 44t123.5 130q95 165 -74 165
q-167 0 -262 -165z" />
    <glyph glyph-name="plusminus" unicode="&#xb1;" horiz-adv-x="1230" 
d="M219 604l115 203h317l125 217h252l-125 -217h316l-117 -203h-316l-122 -213h-252l123 213h-316zM-78 90l115 203h885l-117 -203h-883z" />
    <glyph glyph-name="acute" unicode="&#xb4;" horiz-adv-x="770" 
d="M1094 1180l-602 -43l-21 84l561 172z" />
    <glyph glyph-name="uni00B5" unicode="&#xb5;" horiz-adv-x="1288" 
d="M225 -33q-55 0 -108 17l-228 -394h-335l469 805q1 1 2 4t2 4l356 617h352l-323 -561q-69 -120 -56.5 -163.5t119.5 -43.5q70 0 119.5 16t109 70t125.5 154l304 528h354l-590 -1020h-317l139 242q-242 -275 -494 -275z" />
    <glyph glyph-name="paragraph" unicode="&#xb6;" horiz-adv-x="1796" 
d="M594 444q-232 0 -291.5 138.5t70.5 359.5q40 70 85 127.5t108.5 113.5t135.5 94t168 61.5t205 23.5h537l-1024 -1772h-369l494 854h-119zM733 -410l1024 1772h367l-1024 -1772h-367z" />
    <glyph glyph-name="periodcentered" unicode="&#xb7;" horiz-adv-x="509" 
d="M2 358l176 308h334l-176 -308h-334z" />
    <glyph glyph-name="cedilla" unicode="&#xb8;" horiz-adv-x="530" 
d="M-459 -391l123 213h164l90 264h244l-99 -270q-32 -89 -111.5 -148t-176.5 -59h-234z" />
    <glyph glyph-name="guillemotright" unicode="&#xbb;" horiz-adv-x="1611" 
d="M852 489l-639 -489h-403l733 549l-144 475h322l158 -487zM453 0l733 549l-144 475h322l158 -487l-27 -48l-639 -489h-403z" />
    <glyph glyph-name="questiondown" unicode="&#xbf;" horiz-adv-x="1415" 
d="M885 551l-127 -219h-115q-160 0 -249.5 -49.5t-160.5 -173.5q-44 -77 -44.5 -120.5t35 -60t110.5 -16.5q137 0 227.5 52.5t181.5 195.5h365q-60 -96 -114 -166t-134 -143.5t-167 -120t-208.5 -76t-263.5 -29.5q-119 0 -206 28.5t-133 78t-63 113.5t-2 136t58 146
q127 221 318.5 322.5t463.5 101.5h228zM643 717l178 307h332l-176 -307h-334z" />
    <glyph glyph-name="Agrave" unicode="&#xc0;" horiz-adv-x="1505" 
d="M1206 0h-348l60 256h-586l-236 -256h-385l1254 1362h561zM582 528h399l135 580zM1063 1520l59 215l564 -172l-23 -86z" />
    <glyph glyph-name="Aacute" unicode="&#xc1;" horiz-adv-x="1505" 
d="M1206 0h-348l60 256h-586l-236 -256h-385l1254 1362h561zM582 528h399l135 580zM1051 1563l563 172l59 -215l-600 -43z" />
    <glyph glyph-name="Acircumflex" unicode="&#xc2;" horiz-adv-x="1505" 
d="M1206 0h-348l60 256h-586l-236 -256h-385l1254 1362h561zM582 528h399l135 580zM1022 1597l356 134h158l172 -125l-135 -123l-168 125l-322 -144z" />
    <glyph glyph-name="Atilde" unicode="&#xc3;" horiz-adv-x="1505" 
d="M1206 0h-348l60 256h-586l-236 -256h-385l1254 1362h561zM582 528h399l135 580zM946 1477l35 59q105 184 303 184q43 0 76.5 -10.5t54.5 -25t39 -29t38.5 -25t43.5 -10.5q54 0 94 72l15 24h208l-28 -53q-55 -96 -136 -143t-173 -47q-50 0 -90.5 15.5t-62 34.5t-48 34.5
t-51.5 15.5q-52 0 -95 -72l-14 -24h-209z" />
    <glyph glyph-name="Adieresis" unicode="&#xc4;" horiz-adv-x="1505" 
d="M1206 0h-348l60 256h-586l-236 -256h-385l1254 1362h561zM582 528h399l135 580zM981 1491l123 215h299l-123 -215h-299zM1399 1491l123 215h299l-123 -215h-299z" />
    <glyph glyph-name="Aring" unicode="&#xc5;" horiz-adv-x="1505" 
d="M1206 0h-348l60 256h-586l-236 -256h-385l1254 1362h561zM582 528h399l135 580zM1196 1683q52 91 149 155.5t211 64.5q121 0 155.5 -72.5t-28.5 -179.5q-54 -93 -151 -157t-211 -64q-122 0 -155.5 72t30.5 181zM1350 1667q-23 -43 -11 -63.5t52 -20.5q88 0 137 84
q24 43 12 62.5t-53 19.5q-87 0 -137 -82z" />
    <glyph glyph-name="AE" unicode="&#xc6;" horiz-adv-x="2258" 
d="M782 0l148 256h-529l-309 -256h-368l-9 12l1624 1350h1319l-164 -285h-727l-145 -252h666l-154 -264h-666l-159 -276h733l-164 -285h-1096zM729 528h358l330 572z" />
    <glyph glyph-name="Ccedilla" unicode="&#xc7;" horiz-adv-x="1548" 
d="M49 -391l123 213h164l53 158q-178 31 -262 141t-68 265.5t119 334.5q74 128 148 226t170.5 185.5t204 143.5t245.5 88.5t299 32.5q130 0 229 -31t156.5 -86.5t82.5 -129t13 -160t-59 -179.5h-369q81 166 45.5 228.5t-210.5 62.5q-81 0 -137.5 -8t-117.5 -33t-113 -71.5
t-110 -122t-123 -187.5q-70 -121 -97 -202t-11 -129.5t67.5 -68.5t143.5 -20q132 0 214 24t153 87t157 190h373q-75 -118 -138 -199.5t-144 -157.5t-168 -122t-201.5 -76t-253.5 -37l-56 -153q-32 -89 -111.5 -148t-176.5 -59h-234z" />
    <glyph glyph-name="Egrave" unicode="&#xc8;" horiz-adv-x="1296" 
d="M504 561l-158 -276h733l-164 -285h-1097l786 1362h1092l-164 -285h-729l-146 -252h668l-154 -264h-667zM944 1520l60 215l563 -172l-23 -86z" />
    <glyph glyph-name="Eacute" unicode="&#xc9;" horiz-adv-x="1296" 
d="M504 561l-158 -276h733l-164 -285h-1097l786 1362h1092l-164 -285h-729l-146 -252h668l-154 -264h-667zM934 1563l563 172l59 -215l-600 -43z" />
    <glyph glyph-name="Ecircumflex" unicode="&#xca;" horiz-adv-x="1296" 
d="M504 561l-158 -276h733l-164 -285h-1097l786 1362h1092l-164 -285h-729l-146 -252h668l-154 -264h-667zM905 1597l357 134h157l172 -125l-135 -123l-168 125l-321 -144z" />
    <glyph glyph-name="Edieresis" unicode="&#xcb;" horiz-adv-x="1296" 
d="M504 561l-158 -276h733l-164 -285h-1097l786 1362h1092l-164 -285h-729l-146 -252h668l-154 -264h-667zM864 1491l123 215h299l-123 -215h-299zM1282 1491l123 215h299l-123 -215h-299z" />
    <glyph glyph-name="Igrave" unicode="&#xcc;" horiz-adv-x="1036" 
d="M-197 0l166 285h240l455 792h-238l164 285h842l-166 -285h-240l-455 -792h238l-164 -285h-842zM809 1520l59 215l564 -172l-23 -86z" />
    <glyph glyph-name="Iacute" unicode="&#xcd;" horiz-adv-x="1036" 
d="M-197 0l166 285h240l455 792h-238l164 285h842l-166 -285h-240l-455 -792h238l-164 -285h-842zM797 1563l563 172l59 -215l-600 -43z" />
    <glyph glyph-name="Icircumflex" unicode="&#xce;" horiz-adv-x="1036" 
d="M-197 0l166 285h240l455 792h-238l164 285h842l-166 -285h-240l-455 -792h238l-164 -285h-842zM768 1597l356 134h158l172 -125l-135 -123l-168 125l-322 -144z" />
    <glyph glyph-name="Idieresis" unicode="&#xcf;" horiz-adv-x="1036" 
d="M-197 0l166 285h240l455 792h-238l164 285h842l-166 -285h-240l-455 -792h238l-164 -285h-842zM727 1491l123 215h299l-123 -215h-299zM1145 1491l123 215h299l-123 -215h-299z" />
    <glyph glyph-name="Eth" unicode="&#xd0;" horiz-adv-x="1705" 
d="M84 561l137 238h256l326 563h571q138 0 237 -40.5t149 -111.5t62.5 -164t-15.5 -200.5t-91 -218.5q-58 -102 -118.5 -185t-148.5 -168.5t-185 -143t-228 -94t-278 -36.5h-742l324 561h-256zM543 285h266q135 0 229 39t169 121.5t161 234.5q83 147 91.5 235.5t-47 125
t-177.5 36.5h-234l-161 -278h262l-137 -238h-263z" />
    <glyph glyph-name="Ntilde" unicode="&#xd1;" horiz-adv-x="1556" 
d="M975 291l618 1071h346l-786 -1362h-547l133 889q10 77 41 184l-618 -1073h-344l786 1362h545l-139 -907q-12 -74 -35 -164zM975 1477l35 59q105 184 303 184q43 0 76.5 -10.5t54.5 -25t39 -29t38.5 -25t43.5 -10.5q54 0 94 72l14 24h209l-29 -53q-55 -96 -136 -143
t-173 -47q-50 0 -90.5 15.5t-62 34.5t-48 34.5t-51.5 15.5q-51 0 -94 -72l-14 -24h-209z" />
    <glyph glyph-name="Ograve" unicode="&#xd2;" horiz-adv-x="1576" 
d="M539 -33q-180 0 -296 61.5t-156.5 166t-16.5 242.5t114 292q90 155 186 269.5t222.5 208t288.5 142t358 48.5q144 0 247.5 -41t156.5 -113t66 -168t-16.5 -207.5t-97.5 -228.5q-77 -133 -154 -234t-172 -186t-201.5 -139t-239.5 -83.5t-289 -29.5zM535 680
q-133 -223 -114 -319.5t210 -96.5q151 0 253 39.5t182.5 126t174.5 250.5q54 93 82.5 159.5t35 118t-15 82t-69.5 45.5t-127 15q-150 0 -252 -40t-183.5 -127.5t-176.5 -252.5zM1065 1520l59 215l564 -172l-23 -86z" />
    <glyph glyph-name="Oacute" unicode="&#xd3;" horiz-adv-x="1576" 
d="M539 -33q-180 0 -296 61.5t-156.5 166t-16.5 242.5t114 292q90 155 186 269.5t222.5 208t288.5 142t358 48.5q144 0 247.5 -41t156.5 -113t66 -168t-16.5 -207.5t-97.5 -228.5q-77 -133 -154 -234t-172 -186t-201.5 -139t-239.5 -83.5t-289 -29.5zM535 680
q-133 -223 -114 -319.5t210 -96.5q151 0 253 39.5t182.5 126t174.5 250.5q54 93 82.5 159.5t35 118t-15 82t-69.5 45.5t-127 15q-150 0 -252 -40t-183.5 -127.5t-176.5 -252.5zM1053 1563l563 172l59 -215l-600 -43z" />
    <glyph glyph-name="Ocircumflex" unicode="&#xd4;" horiz-adv-x="1576" 
d="M539 -33q-180 0 -296 61.5t-156.5 166t-16.5 242.5t114 292q90 155 186 269.5t222.5 208t288.5 142t358 48.5q144 0 247.5 -41t156.5 -113t66 -168t-16.5 -207.5t-97.5 -228.5q-77 -133 -154 -234t-172 -186t-201.5 -139t-239.5 -83.5t-289 -29.5zM535 680
q-133 -223 -114 -319.5t210 -96.5q151 0 253 39.5t182.5 126t174.5 250.5q54 93 82.5 159.5t35 118t-15 82t-69.5 45.5t-127 15q-150 0 -252 -40t-183.5 -127.5t-176.5 -252.5zM1024 1597l356 134h158l172 -125l-135 -123l-168 125l-322 -144z" />
    <glyph glyph-name="Otilde" unicode="&#xd5;" horiz-adv-x="1576" 
d="M539 -33q-180 0 -296 61.5t-156.5 166t-16.5 242.5t114 292q90 155 186 269.5t222.5 208t288.5 142t358 48.5q144 0 247.5 -41t156.5 -113t66 -168t-16.5 -207.5t-97.5 -228.5q-77 -133 -154 -234t-172 -186t-201.5 -139t-239.5 -83.5t-289 -29.5zM535 680
q-133 -223 -114 -319.5t210 -96.5q151 0 253 39.5t182.5 126t174.5 250.5q54 93 82.5 159.5t35 118t-15 82t-69.5 45.5t-127 15q-150 0 -252 -40t-183.5 -127.5t-176.5 -252.5zM946 1477l35 59q105 184 303 184q43 0 76.5 -10.5t54.5 -25t39 -29t38.5 -25t43.5 -10.5
q54 0 94 72l15 24h208l-28 -53q-55 -96 -136 -143t-173 -47q-50 0 -90.5 15.5t-62 34.5t-48 34.5t-51.5 15.5q-52 0 -95 -72l-14 -24h-209z" />
    <glyph glyph-name="Odieresis" unicode="&#xd6;" horiz-adv-x="1576" 
d="M539 -33q-180 0 -296 61.5t-156.5 166t-16.5 242.5t114 292q90 155 186 269.5t222.5 208t288.5 142t358 48.5q144 0 247.5 -41t156.5 -113t66 -168t-16.5 -207.5t-97.5 -228.5q-77 -133 -154 -234t-172 -186t-201.5 -139t-239.5 -83.5t-289 -29.5zM535 680
q-133 -223 -114 -319.5t210 -96.5q151 0 253 39.5t182.5 126t174.5 250.5q54 93 82.5 159.5t35 118t-15 82t-69.5 45.5t-127 15q-150 0 -252 -40t-183.5 -127.5t-176.5 -252.5zM983 1491l123 215h299l-123 -215h-299zM1401 1491l123 215h299l-123 -215h-299z" />
    <glyph glyph-name="multiply" unicode="&#xd7;" horiz-adv-x="1331" 
d="M629 997l123 -284l475 301l108 -189l-495 -315l129 -299l-234 -135l-125 289l-477 -304l-108 189l497 317l-127 295z" />
    <glyph glyph-name="Oslash" unicode="&#xd8;" horiz-adv-x="1576" 
d="M-182 -291l356 367q-118 103 -114.5 275.5t124.5 377.5q90 155 186 269.5t222.5 208t288.5 142t358 48.5q108 0 197 -25l262 270l164 -92l-258 -266q114 -106 109.5 -276.5t-118.5 -368.5q-77 -133 -154 -234t-172 -186t-201.5 -139t-239.5 -83.5t-289 -29.5
q-105 0 -195 23l-362 -373zM428 338l741 762h-22q-150 0 -252 -40t-183.5 -127.5t-176.5 -252.5q-75 -132 -102 -214t-5 -128zM610 264h21q151 0 253 39.5t182.5 126t174.5 250.5q76 131 104 214.5t7 131.5z" />
    <glyph glyph-name="Ugrave" unicode="&#xd9;" horiz-adv-x="1460" 
d="M119 551l469 811h364l-463 -797q-101 -175 -81 -239t180 -64q66 0 108.5 5.5t88 22.5t82 51t77.5 88t88 136l463 797h363l-498 -860q-116 -201 -233 -315t-269 -167t-369 -53q-320 0 -421.5 160t51.5 424zM1022 1520l59 215l564 -172l-23 -86z" />
    <glyph glyph-name="Uacute" unicode="&#xda;" horiz-adv-x="1460" 
d="M119 551l469 811h364l-463 -797q-101 -175 -81 -239t180 -64q66 0 108.5 5.5t88 22.5t82 51t77.5 88t88 136l463 797h363l-498 -860q-116 -201 -233 -315t-269 -167t-369 -53q-320 0 -421.5 160t51.5 424zM1010 1563l563 172l59 -215l-600 -43z" />
    <glyph glyph-name="Ucircumflex" unicode="&#xdb;" horiz-adv-x="1460" 
d="M119 551l469 811h364l-463 -797q-101 -175 -81 -239t180 -64q66 0 108.5 5.5t88 22.5t82 51t77.5 88t88 136l463 797h363l-498 -860q-116 -201 -233 -315t-269 -167t-369 -53q-320 0 -421.5 160t51.5 424zM983 1597l356 134h158l172 -125l-135 -123l-168 125l-322 -144z
" />
    <glyph glyph-name="Udieresis" unicode="&#xdc;" horiz-adv-x="1460" 
d="M119 551l469 811h364l-463 -797q-101 -175 -81 -239t180 -64q66 0 108.5 5.5t88 22.5t82 51t77.5 88t88 136l463 797h363l-498 -860q-116 -201 -233 -315t-269 -167t-369 -53q-320 0 -421.5 160t51.5 424zM940 1491l123 215h299l-123 -215h-299zM1358 1491l123 215h299
l-123 -215h-299z" />
    <glyph glyph-name="Yacute" unicode="&#xdd;" horiz-adv-x="1306" 
d="M455 1362h360l-47 -447q-8 -80 -43 -231q136 143 229 234l457 444h426l-1069 -969l-227 -393h-361l226 393zM911 1563l564 172l59 -215l-600 -43z" />
    <glyph glyph-name="Thorn" unicode="&#xde;" horiz-adv-x="1355" 
d="M-182 0l786 1362h365l-127 -221h303q120 0 198 -39.5t106.5 -106t15 -154.5t-69.5 -186q-249 -432 -686 -432h-398l-129 -223h-364zM471 500h277q97 0 164.5 44t125.5 142q53 89 35.5 132.5t-112.5 43.5h-281z" />
    <glyph glyph-name="germandbls" unicode="&#xdf;" horiz-adv-x="1398" 
d="M326 883q166 286 370 399t531 113q140 0 235.5 -34t136 -91t38.5 -129.5t-48 -151.5q-66 -113 -187 -190t-263 -97q81 -16 122 -61t36 -123.5t-64 -181.5q-196 -336 -641 -336h-260l155 270h168q162 0 250 152q47 75 29 114t-111 39h-159l153 263h148q158 0 243 141
q43 77 16 111t-134 34q-130 0 -227.5 -55t-178.5 -197l-506 -872h-360z" />
    <glyph glyph-name="agrave" unicode="&#xe0;" horiz-adv-x="1333" 
d="M260 -33q-128 0 -201.5 49.5t-88 134t14 191.5t97.5 227q49 86 97.5 153t114.5 132t138 108t166 69t201 26q138 0 209 -52t77 -147l97 166h354l-590 -1024h-328l97 168q-211 -201 -455 -201zM418 520q-39 -68 -58 -116t-20 -80t18 -50.5t52.5 -26t87.5 -7.5
q135 0 216 56.5t173 215.5q49 84 66 138t2 83.5t-50.5 40t-101.5 10.5q-92 -1 -150.5 -21.5t-114 -76.5t-120.5 -166zM733 1180l62 213l561 -172l-21 -84z" />
    <glyph glyph-name="aacute" unicode="&#xe1;" horiz-adv-x="1333" 
d="M260 -33q-128 0 -201.5 49.5t-88 134t14 191.5t97.5 227q49 86 97.5 153t114.5 132t138 108t166 69t201 26q138 0 209 -52t77 -147l97 166h354l-590 -1024h-328l97 168q-211 -201 -455 -201zM418 520q-39 -68 -58 -116t-20 -80t18 -50.5t52.5 -26t87.5 -7.5
q135 0 216 56.5t173 215.5q49 84 66 138t2 83.5t-50.5 40t-101.5 10.5q-92 -1 -150.5 -21.5t-114 -76.5t-120.5 -166zM709 1221l561 172l61 -213l-602 -43z" />
    <glyph glyph-name="acircumflex" unicode="&#xe2;" horiz-adv-x="1333" 
d="M260 -33q-128 0 -201.5 49.5t-88 134t14 191.5t97.5 227q49 86 97.5 153t114.5 132t138 108t166 69t201 26q138 0 209 -52t77 -147l97 166h354l-590 -1024h-328l97 168q-211 -201 -455 -201zM418 520q-39 -68 -58 -116t-20 -80t18 -50.5t52.5 -26t87.5 -7.5
q135 0 216 56.5t173 215.5q49 84 66 138t2 83.5t-50.5 40t-101.5 10.5q-92 -1 -150.5 -21.5t-114 -76.5t-120.5 -166zM713 1237l307 147h158l178 -151l-113 -117l-182 131l-287 -131z" />
    <glyph glyph-name="atilde" unicode="&#xe3;" horiz-adv-x="1333" 
d="M260 -33q-128 0 -201.5 49.5t-88 134t14 191.5t97.5 227q49 86 97.5 153t114.5 132t138 108t166 69t201 26q138 0 209 -52t77 -147l97 166h354l-590 -1024h-328l97 168q-211 -201 -455 -201zM418 520q-39 -68 -58 -116t-20 -80t18 -50.5t52.5 -26t87.5 -7.5
q135 0 216 56.5t173 215.5q49 84 66 138t2 83.5t-50.5 40t-101.5 10.5q-92 -1 -150.5 -21.5t-114 -76.5t-120.5 -166zM616 1139l35 59q105 184 303 184q43 0 76.5 -10.5t54.5 -25t39 -29t38.5 -25t43.5 -10.5q54 0 94 72l15 24h209l-29 -53q-55 -96 -136 -143t-173 -47
q-50 0 -90.5 15.5t-62 34.5t-48 34.5t-51.5 15.5q-51 0 -94 -72l-15 -24h-209z" />
    <glyph glyph-name="adieresis" unicode="&#xe4;" horiz-adv-x="1333" 
d="M260 -33q-128 0 -201.5 49.5t-88 134t14 191.5t97.5 227q49 86 97.5 153t114.5 132t138 108t166 69t201 26q138 0 209 -52t77 -147l97 166h354l-590 -1024h-328l97 168q-211 -201 -455 -201zM418 520q-39 -68 -58 -116t-20 -80t18 -50.5t52.5 -26t87.5 -7.5
q135 0 216 56.5t173 215.5q49 84 66 138t2 83.5t-50.5 40t-101.5 10.5q-92 -1 -150.5 -21.5t-114 -76.5t-120.5 -166zM637 1149l121 213h299l-121 -213h-299zM1079 1149l123 213h299l-123 -213h-299z" />
    <glyph glyph-name="aring" unicode="&#xe5;" horiz-adv-x="1333" 
d="M260 -33q-128 0 -201.5 49.5t-88 134t14 191.5t97.5 227q49 86 97.5 153t114.5 132t138 108t166 69t201 26q138 0 209 -52t77 -147l97 166h354l-590 -1024h-328l97 168q-211 -201 -455 -201zM418 520q-39 -68 -58 -116t-20 -80t18 -50.5t52.5 -26t87.5 -7.5
q135 0 216 56.5t173 215.5q49 84 66 138t2 83.5t-50.5 40t-101.5 10.5q-92 -1 -150.5 -21.5t-114 -76.5t-120.5 -166zM905 1333q37 67 116 114.5t169 47.5q95 0 127.5 -62.5t-17.5 -148.5q-39 -67 -118 -113.5t-170 -46.5q-94 0 -125 60.5t18 148.5zM1030 1311
q-19 -35 -9.5 -52.5t40.5 -17.5q70 0 110 70q20 34 10.5 49.5t-40.5 15.5q-69 0 -111 -65z" />
    <glyph glyph-name="ae" unicode="&#xe6;" horiz-adv-x="1933" 
d="M174 -27q-104 0 -175.5 44t-88 121t40.5 181q71 125 174 180.5t334 90.5l254 41q75 12 111.5 32.5t62.5 61.5q30 46 7.5 72t-106.5 26q-97 0 -156 -29t-108 -110h-342q108 173 277 273t401 100q235 0 301 -107q194 107 438 107q141 0 230 -45.5t118 -122.5t12 -175
t-81 -206q-18 -32 -55 -86h-768q-30 -64 -36 -108t11.5 -67.5t48.5 -33.5t80 -10q98 0 155 25t103 81h342q-49 -64 -94.5 -111t-108.5 -93t-132 -74.5t-161.5 -46t-201.5 -17.5q-159 0 -251 55t-114 154q-115 -100 -250 -151.5t-272 -51.5zM293 311q-30 -54 -11 -81t76 -27
q103 0 210 72t180 206l20 39q-13 -7 -26.5 -13t-23.5 -10t-24.5 -9t-22.5 -7.5t-24.5 -7t-23 -6t-26.5 -6t-26 -6.5l-67 -15q-86 -19 -133 -47.5t-78 -81.5zM1176 627h440q40 74 37.5 118t-35.5 62t-102 18q-104 0 -181 -41.5t-159 -156.5z" />
    <glyph glyph-name="ccedilla" unicode="&#xe7;" horiz-adv-x="1228" 
d="M63 545q269 512 830 512q109 0 190.5 -28t126.5 -74.5t64 -106.5t8.5 -126t-45.5 -130h-346q51 100 29 145t-127 45q-63 0 -104 -7.5t-91 -33.5t-97.5 -82t-99.5 -147q-60 -104 -68.5 -163.5t25 -82t113.5 -22.5q113 0 185.5 41.5t144.5 148.5h346q-66 -108 -125 -182
t-136 -137t-172.5 -98t-215.5 -46l-58 -155q-32 -89 -111.5 -148t-176.5 -59h-234l123 213h164l53 155q-142 26 -211.5 108t-63 200t79.5 260z" />
    <glyph glyph-name="egrave" unicode="&#xe8;" horiz-adv-x="1210" 
d="M356 -33q-189 0 -287 78.5t-95 214.5t102 307q69 119 144.5 206t170.5 152.5t213 98.5t260 33q140 0 230.5 -47t121.5 -124.5t16 -175.5t-77 -202q-26 -48 -55 -84h-762q-43 -84 -40 -132.5t36.5 -67.5t103.5 -19q102 0 152 21.5t102 80.5h344q-51 -65 -94.5 -111
t-105 -92t-127.5 -74t-156 -45.5t-197 -17.5zM455 625h432q57 115 33.5 158.5t-129.5 43.5q-104 0 -177.5 -39.5t-158.5 -162.5zM637 1180l61 213l562 -172l-21 -84z" />
    <glyph glyph-name="eacute" unicode="&#xe9;" horiz-adv-x="1210" 
d="M356 -33q-189 0 -287 78.5t-95 214.5t102 307q69 119 144.5 206t170.5 152.5t213 98.5t260 33q140 0 230.5 -47t121.5 -124.5t16 -175.5t-77 -202q-26 -48 -55 -84h-762q-43 -84 -40 -132.5t36.5 -67.5t103.5 -19q102 0 152 21.5t102 80.5h344q-51 -65 -94.5 -111
t-105 -92t-127.5 -74t-156 -45.5t-197 -17.5zM455 625h432q57 115 33.5 158.5t-129.5 43.5q-104 0 -177.5 -39.5t-158.5 -162.5zM614 1221l562 172l61 -213l-602 -43z" />
    <glyph glyph-name="ecircumflex" unicode="&#xea;" horiz-adv-x="1210" 
d="M356 -33q-189 0 -287 78.5t-95 214.5t102 307q69 119 144.5 206t170.5 152.5t213 98.5t260 33q140 0 230.5 -47t121.5 -124.5t16 -175.5t-77 -202q-26 -48 -55 -84h-762q-43 -84 -40 -132.5t36.5 -67.5t103.5 -19q102 0 152 21.5t102 80.5h344q-51 -65 -94.5 -111
t-105 -92t-127.5 -74t-156 -45.5t-197 -17.5zM455 625h432q57 115 33.5 158.5t-129.5 43.5q-104 0 -177.5 -39.5t-158.5 -162.5zM616 1237l308 147h157l179 -151l-113 -117l-182 131l-287 -131z" />
    <glyph glyph-name="edieresis" unicode="&#xeb;" horiz-adv-x="1210" 
d="M356 -33q-189 0 -287 78.5t-95 214.5t102 307q69 119 144.5 206t170.5 152.5t213 98.5t260 33q140 0 230.5 -47t121.5 -124.5t16 -175.5t-77 -202q-26 -48 -55 -84h-762q-43 -84 -40 -132.5t36.5 -67.5t103.5 -19q102 0 152 21.5t102 80.5h344q-51 -65 -94.5 -111
t-105 -92t-127.5 -74t-156 -45.5t-197 -17.5zM455 625h432q57 115 33.5 158.5t-129.5 43.5q-104 0 -177.5 -39.5t-158.5 -162.5zM541 1149l121 213h299l-121 -213h-299zM983 1149l123 213h299l-123 -213h-299z" />
    <glyph glyph-name="igrave" unicode="&#xec;" horiz-adv-x="548" 
d="M-197 0l590 1024h355l-590 -1024h-355zM367 1180l61 213l561 -172l-20 -84z" />
    <glyph glyph-name="iacute" unicode="&#xed;" horiz-adv-x="548" 
d="M-197 0l590 1024h355l-590 -1024h-355zM342 1221l561 172l62 -213l-603 -43z" />
    <glyph glyph-name="icircumflex" unicode="&#xee;" horiz-adv-x="548" 
d="M-197 0l590 1024h355l-590 -1024h-355zM346 1237l307 147h158l178 -151l-112 -117l-183 131l-286 -131z" />
    <glyph glyph-name="idieresis" unicode="&#xef;" horiz-adv-x="548" 
d="M-197 0l590 1024h355l-590 -1024h-355zM270 1149l121 213h299l-121 -213h-299zM713 1149l123 213h299l-123 -213h-299z" />
    <glyph glyph-name="eth" unicode="&#xf0;" horiz-adv-x="1275" 
d="M61 537q143 245 321.5 371t403.5 126q147 0 215.5 -44.5t73.5 -131.5q93 163 80 301l-129 -74l-76 132l150 86q-29 39 -74 67l195 193q81 -44 133 -111l155 90l76 -131l-158 -92q29 -90 29.5 -192.5t-37.5 -226t-112 -251.5q-113 -194 -222.5 -325t-229.5 -210.5
t-247 -113t-284 -33.5q-185 0 -276.5 77.5t-85 205t98.5 287.5zM399 512q-88 -151 -70.5 -210.5t148.5 -59.5q134 0 223.5 62t173.5 208q86 146 68.5 208t-151.5 62q-131 0 -218 -59.5t-174 -210.5z" />
    <glyph glyph-name="ntilde" unicode="&#xf1;" horiz-adv-x="1296" 
d="M-197 0l590 1024h355l-84 -147q193 180 405 180q129 0 197.5 -62.5t67.5 -161.5t-66 -210l-361 -623h-352l326 565q71 121 58.5 165t-116.5 44q-57 0 -98 -10t-88 -40.5t-94.5 -88t-104.5 -150.5l-280 -485h-355zM608 1139l35 59q105 184 303 184q43 0 76.5 -10.5
t54.5 -25t39 -29t38.5 -25t43.5 -10.5q54 0 94 72l15 24h209l-29 -53q-55 -96 -136 -143t-173 -47q-50 0 -90.5 15.5t-62 34.5t-48 34.5t-51.5 15.5q-52 0 -95 -72l-14 -24h-209z" />
    <glyph glyph-name="ograve" unicode="&#xf2;" horiz-adv-x="1288" 
d="M408 -33q-147 0 -245 47.5t-137 128t-27.5 187.5t73.5 227q60 115 134.5 202.5t173 156.5t226.5 105t281 36q144 0 240.5 -46t136 -126t27.5 -188.5t-77 -231.5q-44 -82 -96.5 -151.5t-126 -135t-157.5 -111t-193.5 -73t-232.5 -27.5zM414 512q-64 -109 -74.5 -167
t24 -80.5t123.5 -22.5q137 0 215 53.5t172 216.5q64 110 74.5 168.5t-24 81t-123.5 22.5q-69 0 -117 -10.5t-94 -41t-86.5 -82.5t-89.5 -138zM672 1180l61 213l561 -172l-20 -84z" />
    <glyph glyph-name="oacute" unicode="&#xf3;" horiz-adv-x="1288" 
d="M408 -33q-147 0 -245 47.5t-137 128t-27.5 187.5t73.5 227q60 115 134.5 202.5t173 156.5t226.5 105t281 36q144 0 240.5 -46t136 -126t27.5 -188.5t-77 -231.5q-44 -82 -96.5 -151.5t-126 -135t-157.5 -111t-193.5 -73t-232.5 -27.5zM414 512q-64 -109 -74.5 -167
t24 -80.5t123.5 -22.5q137 0 215 53.5t172 216.5q64 110 74.5 168.5t-24 81t-123.5 22.5q-69 0 -117 -10.5t-94 -41t-86.5 -82.5t-89.5 -138zM649 1221l561 172l62 -213l-602 -43z" />
    <glyph glyph-name="ocircumflex" unicode="&#xf4;" horiz-adv-x="1288" 
d="M408 -33q-147 0 -245 47.5t-137 128t-27.5 187.5t73.5 227q60 115 134.5 202.5t173 156.5t226.5 105t281 36q144 0 240.5 -46t136 -126t27.5 -188.5t-77 -231.5q-44 -82 -96.5 -151.5t-126 -135t-157.5 -111t-193.5 -73t-232.5 -27.5zM414 512q-64 -109 -74.5 -167
t24 -80.5t123.5 -22.5q137 0 215 53.5t172 216.5q64 110 74.5 168.5t-24 81t-123.5 22.5q-69 0 -117 -10.5t-94 -41t-86.5 -82.5t-89.5 -138zM651 1237l307 147h158l178 -151l-112 -117l-183 131l-286 -131z" />
    <glyph glyph-name="otilde" unicode="&#xf5;" horiz-adv-x="1288" 
d="M408 -33q-147 0 -245 47.5t-137 128t-27.5 187.5t73.5 227q60 115 134.5 202.5t173 156.5t226.5 105t281 36q144 0 240.5 -46t136 -126t27.5 -188.5t-77 -231.5q-44 -82 -96.5 -151.5t-126 -135t-157.5 -111t-193.5 -73t-232.5 -27.5zM414 512q-64 -109 -74.5 -167
t24 -80.5t123.5 -22.5q137 0 215 53.5t172 216.5q64 110 74.5 168.5t-24 81t-123.5 22.5q-69 0 -117 -10.5t-94 -41t-86.5 -82.5t-89.5 -138zM557 1139l35 59q105 184 303 184q43 0 76.5 -10.5t54.5 -25t39 -29t38.5 -25t43.5 -10.5q54 0 94 72l14 24h209l-28 -53
q-55 -96 -136.5 -143t-173.5 -47q-50 0 -90.5 15.5t-62 34.5t-48 34.5t-51.5 15.5q-51 0 -94 -72l-14 -24h-209z" />
    <glyph glyph-name="odieresis" unicode="&#xf6;" horiz-adv-x="1288" 
d="M408 -33q-147 0 -245 47.5t-137 128t-27.5 187.5t73.5 227q60 115 134.5 202.5t173 156.5t226.5 105t281 36q144 0 240.5 -46t136 -126t27.5 -188.5t-77 -231.5q-44 -82 -96.5 -151.5t-126 -135t-157.5 -111t-193.5 -73t-232.5 -27.5zM414 512q-64 -109 -74.5 -167
t24 -80.5t123.5 -22.5q137 0 215 53.5t172 216.5q64 110 74.5 168.5t-24 81t-123.5 22.5q-69 0 -117 -10.5t-94 -41t-86.5 -82.5t-89.5 -138zM575 1149l121 213h299l-121 -213h-299zM1018 1149l123 213h299l-123 -213h-299z" />
    <glyph glyph-name="divide" unicode="&#xf7;" horiz-adv-x="1355" 
d="M831 760q-71 0 -89 47t20 108q37 64 104 108t138 44t89 -47t-20 -107q-36 -65 -103.5 -109t-138.5 -44zM129 418l135 233h998l-136 -233h-997zM322 156q38 64 105 107.5t138 43.5t89 -46.5t-21 -106.5q-37 -65 -104 -109.5t-138 -44.5t-89 47t20 109z" />
    <glyph glyph-name="oslash" unicode="&#xf8;" horiz-adv-x="1288" 
d="M-242 -203l314 281q-77 83 -76.5 207t76.5 272q60 115 134.5 202.5t173 156.5t226.5 105t281 36q143 0 233 -43l264 237l91 -86l-250 -223q72 -81 69.5 -205.5t-80.5 -271.5q-44 -82 -96.5 -151.5t-126 -135t-157.5 -111t-193.5 -73t-232.5 -27.5q-135 0 -230 39
l-330 -295zM336 313l522 469q-16 2 -57 2q-69 0 -117 -10.5t-94 -41t-86.5 -82.5t-89.5 -138q-81 -138 -78 -199zM442 244q14 -2 45 -2q137 0 215 53.5t172 216.5q72 123 78 186z" />
    <glyph glyph-name="ugrave" unicode="&#xf9;" horiz-adv-x="1286" 
d="M221 -33q-97 0 -160.5 37t-86 97.5t-10 139.5t60.5 162l360 621h352l-325 -565q-71 -120 -59.5 -163.5t114.5 -43.5q77 0 129.5 17.5t115.5 78t134 176.5l289 500h354l-592 -1024h-334l117 203q-226 -236 -459 -236zM733 1180l62 213l561 -172l-21 -84z" />
    <glyph glyph-name="uacute" unicode="&#xfa;" horiz-adv-x="1286" 
d="M221 -33q-97 0 -160.5 37t-86 97.5t-10 139.5t60.5 162l360 621h352l-325 -565q-71 -120 -59.5 -163.5t114.5 -43.5q77 0 129.5 17.5t115.5 78t134 176.5l289 500h354l-592 -1024h-334l117 203q-226 -236 -459 -236zM709 1221l561 172l61 -213l-602 -43z" />
    <glyph glyph-name="ucircumflex" unicode="&#xfb;" horiz-adv-x="1286" 
d="M221 -33q-97 0 -160.5 37t-86 97.5t-10 139.5t60.5 162l360 621h352l-325 -565q-71 -120 -59.5 -163.5t114.5 -43.5q77 0 129.5 17.5t115.5 78t134 176.5l289 500h354l-592 -1024h-334l117 203q-226 -236 -459 -236zM713 1237l307 147h158l178 -151l-113 -117l-182 131
l-287 -131z" />
    <glyph glyph-name="udieresis" unicode="&#xfc;" horiz-adv-x="1286" 
d="M221 -33q-97 0 -160.5 37t-86 97.5t-10 139.5t60.5 162l360 621h352l-325 -565q-71 -120 -59.5 -163.5t114.5 -43.5q77 0 129.5 17.5t115.5 78t134 176.5l289 500h354l-592 -1024h-334l117 203q-226 -236 -459 -236zM637 1149l121 213h299l-121 -213h-299zM1079 1149
l123 213h299l-123 -213h-299z" />
    <glyph glyph-name="yacute" unicode="&#xfd;" horiz-adv-x="1210" 
d="M-459 -410l160 279h405l148 160h-193l244 995h340l-143 -594l-35 -149l129 149l532 594h373l-917 -1024q-96 -107 -173.5 -177.5t-167.5 -126t-188.5 -81t-216.5 -25.5h-297zM674 1221l561 172l61 -213l-602 -43z" />
    <glyph glyph-name="thorn" unicode="&#xfe;" horiz-adv-x="1335" 
d="M530 -33q-272 0 -288 193l-328 -570h-352l1065 1844h352l-299 -519q178 142 393 142q128 0 202 -48.5t89.5 -132t-13 -191t-98.5 -230.5q-51 -87 -100 -155t-115.5 -133t-139 -107t-166.5 -67.5t-202 -25.5zM438 496q-37 -64 -53.5 -108.5t-15.5 -73.5t22 -45t54.5 -22
t86.5 -5q92 1 151 22t114.5 77.5t120.5 166.5q67 113 75.5 173t-29 80.5t-128.5 20.5q-137 0 -216.5 -55t-170.5 -213z" />
    <glyph glyph-name="ydieresis" unicode="&#xff;" horiz-adv-x="1210" 
d="M-459 -410l160 279h405l148 160h-193l244 995h340l-143 -594l-35 -149l129 149l532 594h373l-917 -1024q-96 -107 -173.5 -177.5t-167.5 -126t-188.5 -81t-216.5 -25.5h-297zM600 1149l121 213h299l-121 -213h-299zM1042 1149l123 213h299l-123 -213h-299z" />
    <glyph glyph-name="Amacron" unicode="&#x100;" horiz-adv-x="1505" 
d="M1206 0h-348l60 256h-586l-236 -256h-385l1254 1362h561zM582 528h399l135 580zM922 1501l116 205h850l-119 -205h-847z" />
    <glyph glyph-name="amacron" unicode="&#x101;" horiz-adv-x="1333" 
d="M260 -33q-128 0 -201.5 49.5t-88 134t14 191.5t97.5 227q49 86 97.5 153t114.5 132t138 108t166 69t201 26q138 0 209 -52t77 -147l97 166h354l-590 -1024h-328l97 168q-211 -201 -455 -201zM418 520q-39 -68 -58 -116t-20 -80t18 -50.5t52.5 -26t87.5 -7.5
q135 0 216 56.5t173 215.5q49 84 66 138t2 83.5t-50.5 40t-101.5 10.5q-92 -1 -150.5 -21.5t-114 -76.5t-120.5 -166zM629 1171l110 191h785l-111 -191h-784z" />
    <glyph glyph-name="Abreve" unicode="&#x102;" horiz-adv-x="1505" 
d="M1206 0h-348l60 256h-586l-236 -256h-385l1254 1362h561zM582 528h399l135 580zM1139 1696h192q-21 -41 -1.5 -67.5t75.5 -26.5q121 0 178 94h195q-24 -48 -53 -84t-75 -69t-116.5 -50.5t-161.5 -17.5q-92 0 -151.5 20t-81.5 53.5t-21.5 70.5t21.5 77z" />
    <glyph glyph-name="abreve" unicode="&#x103;" horiz-adv-x="1333" 
d="M260 -33q-128 0 -201.5 49.5t-88 134t14 191.5t97.5 227q49 86 97.5 153t114.5 132t138 108t166 69t201 26q138 0 209 -52t77 -147l97 166h354l-590 -1024h-328l97 168q-211 -201 -455 -201zM418 520q-39 -68 -58 -116t-20 -80t18 -50.5t52.5 -26t87.5 -7.5
q135 0 216 56.5t173 215.5q49 84 66 138t2 83.5t-50.5 40t-101.5 10.5q-92 -1 -150.5 -21.5t-114 -76.5t-120.5 -166zM1100 1362h194q-23 -41 -3.5 -67.5t75.5 -26.5q121 0 180 94h193q-23 -48 -51.5 -84t-75 -69t-117 -50.5t-162.5 -17.5q-91 0 -150.5 20t-81.5 53
t-22 70.5t21 77.5z" />
    <glyph glyph-name="Aogonek" unicode="&#x104;" horiz-adv-x="1505" 
d="M1206 0h-270q-32 -37 -51 -68q-30 -60 -12 -93.5t69 -33.5q50 0 109 15l-121 -211q-67 -25 -152 -25q-84 0 -136 42.5t-55.5 109.5t38.5 149q75 124 256 213l37 158h-586l-236 -256h-385l1254 1362h561zM582 528h399l135 580z" />
    <glyph glyph-name="aogonek" unicode="&#x105;" horiz-adv-x="1333" 
d="M498 240q135 0 216 56.5t173 215.5q49 84 66 138t2 83.5t-50.5 40t-101.5 10.5q-92 -1 -150.5 -21.5t-114 -76.5t-120.5 -166q-39 -68 -58 -116t-20 -80t18 -50.5t52.5 -26t87.5 -7.5zM47 -115q37 59 82 99q-106 33 -143.5 121.5t-10.5 207t107 256.5q49 86 97.5 153
t114.5 132t138 108t166 69t201 26q138 0 209 -52t77 -147l97 166h354l-590 -1024h-328l97 168q-181 -169 -381 -197q-15 -18 -27 -39q-30 -60 -11.5 -93.5t69.5 -33.5q49 0 108 15l-121 -211q-67 -25 -151 -25q-129 0 -175.5 90.5t21.5 210.5z" />
    <glyph glyph-name="Cacute" unicode="&#x106;" horiz-adv-x="1548" 
d="M535 -33q-181 0 -297 62t-155 166.5t-15 240t110 285.5q74 128 148 226t170.5 185.5t204 143.5t245.5 88.5t299 32.5q130 0 229 -31t156.5 -86.5t82.5 -129t13 -160t-59 -179.5h-369q81 166 45.5 228.5t-210.5 62.5q-81 0 -137.5 -8t-117.5 -33t-113 -71.5t-110 -122
t-123 -187.5q-70 -121 -97 -202t-11 -129.5t67.5 -68.5t143.5 -20q132 0 214 24t153 87t157 190h373q-57 -89 -105 -155t-106 -131t-115.5 -110t-129 -85t-151.5 -63.5t-177.5 -36.5t-212.5 -13zM1051 1563l563 172l59 -215l-600 -43z" />
    <glyph glyph-name="cacute" unicode="&#x107;" horiz-adv-x="1228" 
d="M63 545q269 512 830 512q109 0 190.5 -28t126.5 -74.5t64 -106.5t8.5 -126t-45.5 -130h-346q51 100 29 145t-127 45q-63 0 -104 -7.5t-91 -33.5t-97.5 -82t-99.5 -147q-60 -104 -68.5 -163.5t25 -82t113.5 -22.5q113 0 185.5 41.5t144.5 148.5h346q-57 -95 -108.5 -162
t-118.5 -128t-141 -98t-171 -58t-215 -21q-120 0 -207 29.5t-134 82t-62 125t4 159t69 182.5zM653 1221l561 172l62 -213l-602 -43z" />
    <glyph glyph-name="Cdotaccent" unicode="&#x10a;" horiz-adv-x="1548" 
d="M535 -33q-181 0 -297 62t-155 166.5t-15 240t110 285.5q74 128 148 226t170.5 185.5t204 143.5t245.5 88.5t299 32.5q130 0 229 -31t156.5 -86.5t82.5 -129t13 -160t-59 -179.5h-369q81 166 45.5 228.5t-210.5 62.5q-81 0 -137.5 -8t-117.5 -33t-113 -71.5t-110 -122
t-123 -187.5q-70 -121 -97 -202t-11 -129.5t67.5 -68.5t143.5 -20q132 0 214 24t153 87t157 190h373q-57 -89 -105 -155t-106 -131t-115.5 -110t-129 -85t-151.5 -63.5t-177.5 -36.5t-212.5 -13zM1157 1491l123 215h365l-121 -215h-367z" />
    <glyph glyph-name="cdotaccent" unicode="&#x10b;" horiz-adv-x="1228" 
d="M63 545q269 512 830 512q109 0 190.5 -28t126.5 -74.5t64 -106.5t8.5 -126t-45.5 -130h-346q51 100 29 145t-127 45q-63 0 -104 -7.5t-91 -33.5t-97.5 -82t-99.5 -147q-60 -104 -68.5 -163.5t25 -82t113.5 -22.5q113 0 185.5 41.5t144.5 148.5h346q-57 -95 -108.5 -162
t-118.5 -128t-141 -98t-171 -58t-215 -21q-120 0 -207 29.5t-134 82t-62 125t4 159t69 182.5zM772 1149l121 213h367l-123 -213h-365z" />
    <glyph glyph-name="Ccaron" unicode="&#x10c;" horiz-adv-x="1548" 
d="M535 -33q-181 0 -297 62t-155 166.5t-15 240t110 285.5q74 128 148 226t170.5 185.5t204 143.5t245.5 88.5t299 32.5q130 0 229 -31t156.5 -86.5t82.5 -129t13 -160t-59 -179.5h-369q81 166 45.5 228.5t-210.5 62.5q-81 0 -137.5 -8t-117.5 -33t-113 -71.5t-110 -122
t-123 -187.5q-70 -121 -97 -202t-11 -129.5t67.5 -68.5t143.5 -20q132 0 214 24t153 87t157 190h373q-57 -89 -105 -155t-106 -131t-115.5 -110t-129 -85t-151.5 -63.5t-177.5 -36.5t-212.5 -13zM1071 1618l113 115l166 -131l307 131l61 -117l-313 -150h-158z" />
    <glyph glyph-name="ccaron" unicode="&#x10d;" horiz-adv-x="1228" 
d="M63 545q269 512 830 512q109 0 190.5 -28t126.5 -74.5t64 -106.5t8.5 -126t-45.5 -130h-346q51 100 29 145t-127 45q-63 0 -104 -7.5t-91 -33.5t-97.5 -82t-99.5 -147q-60 -104 -68.5 -163.5t25 -82t113.5 -22.5q113 0 185.5 41.5t144.5 148.5h346q-57 -95 -108.5 -162
t-118.5 -128t-141 -98t-171 -58t-215 -21q-120 0 -207 29.5t-134 82t-62 125t4 159t69 182.5zM696 1292l113 115l166 -131l307 131l61 -119l-313 -147h-158z" />
    <glyph glyph-name="Dcaron" unicode="&#x10e;" horiz-adv-x="1509" 
d="M-182 0l786 1362h572q138 0 237 -40.5t149 -111.5t62.5 -164t-15.5 -200.5t-91 -218.5q-58 -102 -118.5 -185t-148.5 -168t-185.5 -143t-228.5 -94.5t-278 -36.5h-741zM344 285h266q135 0 229 39t169 121.5t161 234.5q83 147 91.5 235.5t-47 125t-177.5 36.5h-233z
M973 1618l112 115l166 -131l308 131l61 -117l-313 -150h-158z" />
    <glyph glyph-name="dcaron" unicode="&#x10f;" horiz-adv-x="1785" 
d="M801 1057q140 0 212.5 -51.5t78.5 -145.5l331 574h355l-828 -1434h-329l90 156q-199 -189 -449 -189q-128 0 -202 49t-89.5 133.5t13 191.5t98.5 228q49 86 97.5 153.5t114.5 132.5t138.5 107.5t166.5 68.5t202 26zM420 520q-40 -68 -59 -116t-19.5 -80t19 -50t52.5 -25
t87 -7q137 0 218 55.5t173 214.5q39 67 56 114t16.5 77.5t-21 48t-53.5 24t-86 6.5q-91 -1 -150.5 -21.5t-114.5 -76.5t-118 -164zM1645 866l301 570h288l-358 -570h-231z" />
    <glyph glyph-name="Dcroat" unicode="&#x110;" horiz-adv-x="1705" 
d="M84 561l137 238h256l326 563h571q138 0 237 -40.5t149 -111.5t62.5 -164t-15.5 -200.5t-91 -218.5q-58 -102 -118.5 -185t-148.5 -168.5t-185 -143t-228 -94t-278 -36.5h-742l324 561h-256zM543 285h266q135 0 229 39t169 121.5t161 234.5q83 147 91.5 235.5t-47 125
t-177.5 36.5h-234l-161 -278h262l-137 -238h-263z" />
    <glyph glyph-name="dcroat" unicode="&#x111;" horiz-adv-x="1419" 
d="M1024 1325h336l63 109h355l-64 -109h176l-108 -184h-174l-658 -1141h-329l90 156q-199 -189 -449 -189q-128 0 -202 49t-89.5 133.5t13 191.5t98.5 228q49 86 97.5 153.5t114.5 132.5t138.5 107.5t166.5 68.5t202 26q140 0 212.5 -51.5t78.5 -145.5l161 281h-335z
M420 520q-40 -68 -59 -116t-19.5 -80t19 -50t52.5 -25t87 -7q137 0 218 55.5t173 214.5q39 67 56 114t16.5 77.5t-21 48t-53.5 24t-86 6.5q-91 -1 -150.5 -21.5t-114.5 -76.5t-118 -164z" />
    <glyph glyph-name="Emacron" unicode="&#x112;" horiz-adv-x="1296" 
d="M504 561l-158 -276h733l-164 -285h-1097l786 1362h1092l-164 -285h-729l-146 -252h668l-154 -264h-667zM805 1501l117 205h850l-119 -205h-848z" />
    <glyph glyph-name="emacron" unicode="&#x113;" horiz-adv-x="1210" 
d="M356 -33q-189 0 -287 78.5t-95 214.5t102 307q69 119 144.5 206t170.5 152.5t213 98.5t260 33q140 0 230.5 -47t121.5 -124.5t16 -175.5t-77 -202q-26 -48 -55 -84h-762q-43 -84 -40 -132.5t36.5 -67.5t103.5 -19q102 0 152 21.5t102 80.5h344q-51 -65 -94.5 -111
t-105 -92t-127.5 -74t-156 -45.5t-197 -17.5zM455 625h432q57 115 33.5 158.5t-129.5 43.5q-104 0 -177.5 -39.5t-158.5 -162.5zM535 1171l110 191h785l-111 -191h-784z" />
    <glyph glyph-name="Edotaccent" unicode="&#x116;" horiz-adv-x="1296" 
d="M504 561l-158 -276h733l-164 -285h-1097l786 1362h1092l-164 -285h-729l-146 -252h668l-154 -264h-667zM1040 1491l123 215h365l-121 -215h-367z" />
    <glyph glyph-name="edotaccent" unicode="&#x117;" horiz-adv-x="1210" 
d="M356 -33q-189 0 -287 78.5t-95 214.5t102 307q69 119 144.5 206t170.5 152.5t213 98.5t260 33q140 0 230.5 -47t121.5 -124.5t16 -175.5t-77 -202q-26 -48 -55 -84h-762q-43 -84 -40 -132.5t36.5 -67.5t103.5 -19q102 0 152 21.5t102 80.5h344q-51 -65 -94.5 -111
t-105 -92t-127.5 -74t-156 -45.5t-197 -17.5zM455 625h432q57 115 33.5 158.5t-129.5 43.5q-104 0 -177.5 -39.5t-158.5 -162.5zM731 1149l121 213h367l-123 -213h-365z" />
    <glyph glyph-name="Eogonek" unicode="&#x118;" horiz-adv-x="1296" 
d="M504 561l-158 -276h733l-164 -285h-200q-32 -37 -51 -68q-30 -60 -12 -93.5t69 -33.5q49 0 108 15l-120 -211q-67 -25 -152 -25q-129 0 -175.5 90.5t21.5 210.5q43 68 101 115h-686l786 1362h1092l-164 -285h-729l-146 -252h668l-154 -264h-667z" />
    <glyph glyph-name="eogonek" unicode="&#x119;" horiz-adv-x="1210" 
d="M356 -33q-189 0 -287 78.5t-95 214.5t102 307q69 119 144.5 206t170.5 152.5t213 98.5t260 33q140 0 230.5 -47t121.5 -124.5t16 -175.5t-77 -202q-26 -48 -55 -84h-762q-43 -84 -40 -132.5t36.5 -67.5t103.5 -19q102 0 152 21.5t102 80.5h344q-79 -104 -159.5 -173.5
t-186.5 -110.5q-51 -44 -76 -91q-30 -60 -11.5 -93.5t69.5 -33.5q50 0 108 15l-121 -211q-67 -25 -151 -25q-129 0 -175.5 90.5t21.5 210.5q20 34 66 84q-20 -2 -64 -2zM455 625h432q57 115 33.5 158.5t-129.5 43.5q-104 0 -177.5 -39.5t-158.5 -162.5z" />
    <glyph glyph-name="Ecaron" unicode="&#x11a;" horiz-adv-x="1296" 
d="M504 561l-158 -276h733l-164 -285h-1097l786 1362h1092l-164 -285h-729l-146 -252h668l-154 -264h-667zM954 1618l113 115l166 -131l307 131l62 -117l-314 -150h-158z" />
    <glyph glyph-name="ecaron" unicode="&#x11b;" horiz-adv-x="1210" 
d="M356 -33q-189 0 -287 78.5t-95 214.5t102 307q69 119 144.5 206t170.5 152.5t213 98.5t260 33q140 0 230.5 -47t121.5 -124.5t16 -175.5t-77 -202q-26 -48 -55 -84h-762q-43 -84 -40 -132.5t36.5 -67.5t103.5 -19q102 0 152 21.5t102 80.5h344q-51 -65 -94.5 -111
t-105 -92t-127.5 -74t-156 -45.5t-197 -17.5zM455 625h432q57 115 33.5 158.5t-129.5 43.5q-104 0 -177.5 -39.5t-158.5 -162.5zM657 1292l113 115l166 -131l307 131l62 -119l-314 -147h-157z" />
    <glyph glyph-name="Gbreve" unicode="&#x11e;" horiz-adv-x="1585" 
d="M459 -33q-116 0 -204 35t-138 101.5t-64.5 156t15.5 205t104 242.5q399 690 1100 690q134 0 234 -26t157.5 -71.5t83 -107.5t17.5 -133t-46 -148h-360q50 109 8 158t-201 49q-97 0 -173.5 -18.5t-154.5 -66t-152 -134.5t-150 -219q-131 -224 -113.5 -330t201.5 -106
q167 0 291 62.5t233 213.5h-440l131 228h784l-432 -748h-295l119 209q-39 -43 -90 -82.5t-120.5 -77t-159.5 -60t-185 -22.5zM1157 1696h193q-21 -41 -2 -67.5t75 -26.5q122 0 179 94h194q-24 -48 -52.5 -84t-75 -69t-116.5 -50.5t-161 -17.5q-74 0 -127.5 13.5t-81 35.5
t-39 51t-7.5 59.5t21 61.5z" />
    <glyph glyph-name="gbreve" unicode="&#x11f;" horiz-adv-x="1325" 
d="M166 -432q-111 0 -197 22.5t-137 61t-77 89t-22 107t34 113.5h339q-16 -38 -19 -62t8 -45.5t49 -31.5t104 -10q52 0 86.5 3.5t71 14.5t65 32t58 55t59.5 85l76 133q-141 -104 -340 -104q-113 0 -190 44t-108 119.5t-13.5 182t87.5 227.5q129 225 296 339t399 114
q276 0 295 -180l84 143h354l-555 -963q-83 -142 -154 -229.5t-165 -149t-209.5 -86t-278.5 -24.5zM424 535q-59 -102 -63.5 -156.5t33.5 -73t126 -18.5q132 0 210 51t163 197q57 99 66 152t-26.5 75t-123.5 22q-93 0 -152 -18t-116 -72t-117 -159zM813 1362h195
q-23 -41 -4 -67.5t75 -26.5q122 0 181 94h192q-23 -48 -51.5 -84t-74.5 -69t-116.5 -50.5t-162.5 -17.5q-91 0 -150.5 20t-82 53t-22.5 70.5t21 77.5z" />
    <glyph glyph-name="Gdotaccent" unicode="&#x120;" horiz-adv-x="1585" 
d="M459 -33q-116 0 -204 35t-138 101.5t-64.5 156t15.5 205t104 242.5q399 690 1100 690q134 0 234 -26t157.5 -71.5t83 -107.5t17.5 -133t-46 -148h-360q50 109 8 158t-201 49q-97 0 -173.5 -18.5t-154.5 -66t-152 -134.5t-150 -219q-131 -224 -113.5 -330t201.5 -106
q167 0 291 62.5t233 213.5h-440l131 228h784l-432 -748h-295l119 209q-39 -43 -90 -82.5t-120.5 -77t-159.5 -60t-185 -22.5zM1176 1491l122 215h365l-121 -215h-366z" />
    <glyph glyph-name="gdotaccent" unicode="&#x121;" horiz-adv-x="1325" 
d="M166 -432q-111 0 -197 22.5t-137 61t-77 89t-22 107t34 113.5h339q-16 -38 -19 -62t8 -45.5t49 -31.5t104 -10q52 0 86.5 3.5t71 14.5t65 32t58 55t59.5 85l76 133q-141 -104 -340 -104q-113 0 -190 44t-108 119.5t-13.5 182t87.5 227.5q129 225 296 339t399 114
q276 0 295 -180l84 143h354l-555 -963q-83 -142 -154 -229.5t-165 -149t-209.5 -86t-278.5 -24.5zM424 535q-59 -102 -63.5 -156.5t33.5 -73t126 -18.5q132 0 210 51t163 197q57 99 66 152t-26.5 75t-123.5 22q-93 0 -152 -18t-116 -72t-117 -159zM844 1149l121 213h366
l-123 -213h-364z" />
    <glyph glyph-name="uni0122" unicode="&#x122;" horiz-adv-x="1585" 
d="M459 -33q-116 0 -204 35t-138 101.5t-64.5 156t15.5 205t104 242.5q399 690 1100 690q134 0 234 -26t157.5 -71.5t83 -107.5t17.5 -133t-46 -148h-360q50 109 8 158t-201 49q-97 0 -173.5 -18.5t-154.5 -66t-152 -134.5t-150 -219q-131 -224 -113.5 -330t201.5 -106
q167 0 291 62.5t233 213.5h-440l131 228h784l-432 -748h-295l119 209q-39 -43 -90 -82.5t-120.5 -77t-159.5 -60t-185 -22.5zM27 -573l98 165h121l78 140h-121l100 172h318l-148 -254q-63 -109 -147 -166t-222 -57h-77z" />
    <glyph glyph-name="uni0123" unicode="&#x123;" horiz-adv-x="1325" 
d="M166 -432q-111 0 -197 22.5t-137 61t-77 89t-22 107t34 113.5h339q-16 -38 -19 -62t8 -45.5t49 -31.5t104 -10q52 0 86.5 3.5t71 14.5t65 32t58 55t59.5 85l76 133q-141 -104 -340 -104q-113 0 -190 44t-108 119.5t-13.5 182t87.5 227.5q129 225 296 339t399 114
q276 0 295 -180l84 143h354l-555 -963q-83 -142 -154 -229.5t-165 -149t-209.5 -86t-278.5 -24.5zM424 535q-59 -102 -63.5 -156.5t33.5 -73t126 -18.5q132 0 210 51t163 197q57 99 66 152t-26.5 75t-123.5 22q-93 0 -152 -18t-116 -72t-117 -159zM889 1145l190 330
q42 73 86.5 120t117.5 78t167 31h78l-105 -182h-120l-99 -170h121l-119 -207h-317z" />
    <glyph glyph-name="Hbar" unicode="&#x126;" horiz-adv-x="1785" 
d="M469 1227h186l78 135h371l-78 -135h559l78 135h371l-78 -135h190l-137 -238h-190l-572 -989h-370l317 551h-559l-318 -551h-370l571 989h-186zM797 831h559l92 158h-559z" />
    <glyph glyph-name="hbar" unicode="&#x127;" horiz-adv-x="1355" 
d="M471 1325h164l61 109h355l-62 -109h348l-108 -184h-346l-150 -260q192 176 402 176q97 0 161 -37t87 -97.5t10.5 -138.5t-60.5 -161l-360 -623h-352l325 565q71 121 59 165t-116 44q-53 0 -93 -9t-84 -35t-88.5 -75.5t-95.5 -128.5l-301 -526h-354l655 1141h-163z" />
    <glyph glyph-name="Imacron" unicode="&#x12a;" horiz-adv-x="1036" 
d="M-197 0l166 285h240l455 792h-238l164 285h842l-166 -285h-240l-455 -792h238l-164 -285h-842zM668 1501l116 205h850l-118 -205h-848z" />
    <glyph glyph-name="imacron" unicode="&#x12b;" horiz-adv-x="548" 
d="M-197 0l590 1024h355l-590 -1024h-355zM262 1171l111 191h784l-110 -191h-785z" />
    <glyph glyph-name="Iogonek" unicode="&#x12e;" horiz-adv-x="1036" 
d="M-197 0l166 285h240l455 792h-238l164 285h842l-166 -285h-240l-455 -792h238l-164 -285h-174q-32 -37 -51 -68q-30 -60 -12 -93.5t69 -33.5t109 15l-121 -211q-67 -25 -152 -25q-84 0 -136 42.5t-55.5 109.5t38.5 149q44 70 100 115h-457z" />
    <glyph glyph-name="iogonek" unicode="&#x12f;" horiz-adv-x="548" 
d="M461 1149l121 213h366l-123 -213h-364zM-307 -115q44 72 121 131l579 1008h355l-590 -1024h-154q-32 -37 -51 -68q-30 -60 -12 -93.5t69 -33.5q50 0 109 15l-121 -211q-67 -25 -152 -25q-84 0 -136 42.5t-55.5 109.5t38.5 149z" />
    <glyph glyph-name="Idotaccent" unicode="&#x130;" horiz-adv-x="1036" 
d="M-197 0l166 285h240l455 792h-238l164 285h842l-166 -285h-240l-455 -792h238l-164 -285h-842zM903 1491l123 215h365l-121 -215h-367z" />
    <glyph glyph-name="dotlessi" unicode="&#x131;" horiz-adv-x="548" 
d="M-197 0l590 1024h355l-590 -1024h-355z" />
    <glyph glyph-name="uni0136" unicode="&#x136;" horiz-adv-x="1456" 
d="M-182 0l786 1362h363l-338 -586l178 144l639 442h491l-862 -586l76 -758l-10 -18h-373l-33 547l-395 -268l-160 -279h-362zM-18 -573l98 165h121l78 140h-121l100 172h317l-147 -254q-63 -109 -147 -166t-222 -57h-77z" />
    <glyph glyph-name="uni0137" unicode="&#x137;" horiz-adv-x="1288" 
d="M614 0l-55 362l-295 -192l-98 -170h-354l827 1434h354l-501 -869q137 115 194 158l422 301h463l-6 -8l-693 -451l119 -565h-377zM-119 -573l99 165h120l78 140h-121l101 172h317l-147 -254q-63 -109 -147 -166t-222 -57h-78z" />
    <glyph glyph-name="Lacute" unicode="&#x139;" horiz-adv-x="1140" 
d="M-182 0l786 1362h367l-623 -1077h613l-164 -285h-979zM575 1563l564 172l59 -215l-600 -43z" />
    <glyph glyph-name="lacute" unicode="&#x13a;" horiz-adv-x="565" 
d="M-188 0l827 1434h354l-827 -1434h-354zM604 1634l563 172l60 -215l-600 -43z" />
    <glyph glyph-name="uni013B" unicode="&#x13b;" horiz-adv-x="1140" 
d="M-182 0l786 1362h367l-623 -1077h613l-164 -285h-979zM-182 -573l98 165h121l78 140h-121l100 172h318l-148 -254q-64 -110 -147 -166.5t-221 -56.5h-78z" />
    <glyph glyph-name="uni013C" unicode="&#x13c;" horiz-adv-x="565" 
d="M-188 0l827 1434h354l-827 -1434h-354zM-479 -573l98 165h121l78 140h-121l100 172h318l-148 -254q-64 -110 -147 -166.5t-221 -56.5h-78z" />
    <glyph glyph-name="Lcaron" unicode="&#x13d;" horiz-adv-x="1140" 
d="M-182 0l786 1362h367l-623 -1077h613l-164 -285h-979zM1069 1137l301 569h289l-359 -569h-231z" />
    <glyph glyph-name="lcaron" unicode="&#x13e;" horiz-adv-x="1011" 
d="M-188 0l827 1434h354l-827 -1434h-354zM870 864l301 570h289l-358 -570h-232z" />
    <glyph glyph-name="Lslash" unicode="&#x141;" horiz-adv-x="1349" 
d="M152 678l327 104l334 580h367l-252 -436l368 118l-153 -268l-369 -119l-217 -372h612l-163 -285h-979l297 514l-328 -104z" />
    <glyph glyph-name="lslash" unicode="&#x142;" horiz-adv-x="950" 
d="M164 698l313 99l367 637h354l-289 -500l285 90l-156 -268l-282 -90l-385 -666h-355l306 528l-314 -98z" />
    <glyph glyph-name="Nacute" unicode="&#x143;" horiz-adv-x="1556" 
d="M975 291l618 1071h346l-786 -1362h-547l133 889q10 77 41 184l-618 -1073h-344l786 1362h545l-139 -907q-12 -74 -35 -164zM1081 1563l564 172l59 -215l-600 -43z" />
    <glyph glyph-name="nacute" unicode="&#x144;" horiz-adv-x="1296" 
d="M-197 0l590 1024h355l-84 -147q193 180 405 180q129 0 197.5 -62.5t67.5 -161.5t-66 -210l-361 -623h-352l326 565q71 121 58.5 165t-116.5 44q-57 0 -98 -10t-88 -40.5t-94.5 -88t-104.5 -150.5l-280 -485h-355zM700 1221l562 172l61 -213l-602 -43z" />
    <glyph glyph-name="uni0145" unicode="&#x145;" horiz-adv-x="1556" 
d="M975 291l618 1071h346l-786 -1362h-547l133 889q10 77 41 184l-618 -1073h-344l786 1362h545l-139 -907q-12 -74 -35 -164zM39 -573l98 165h121l78 140h-121l100 172h318l-148 -254q-64 -110 -147 -166.5t-221 -56.5h-78z" />
    <glyph glyph-name="uni0146" unicode="&#x146;" horiz-adv-x="1296" 
d="M-197 0l590 1024h355l-84 -147q193 180 405 180q129 0 197.5 -62.5t67.5 -161.5t-66 -210l-361 -623h-352l326 565q71 121 58.5 165t-116.5 44q-57 0 -98 -10t-88 -40.5t-94.5 -88t-104.5 -150.5l-280 -485h-355zM-123 -573l98 165h121l78 140h-121l101 172h317
l-147 -254q-63 -109 -147 -166t-222 -57h-78z" />
    <glyph glyph-name="Ncaron" unicode="&#x147;" horiz-adv-x="1556" 
d="M975 291l618 1071h346l-786 -1362h-547l133 889q10 77 41 184l-618 -1073h-344l786 1362h545l-139 -907q-12 -74 -35 -164zM1102 1618l112 115l166 -131l308 131l61 -117l-313 -150h-158z" />
    <glyph glyph-name="ncaron" unicode="&#x148;" horiz-adv-x="1296" 
d="M-197 0l590 1024h355l-84 -147q193 180 405 180q129 0 197.5 -62.5t67.5 -161.5t-66 -210l-361 -623h-352l326 565q71 121 58.5 165t-116.5 44q-57 0 -98 -10t-88 -40.5t-94.5 -88t-104.5 -150.5l-280 -485h-355zM743 1292l113 115l166 -131l307 131l62 -119l-314 -147
h-157z" />
    <glyph glyph-name="Eng" unicode="&#x14a;" horiz-adv-x="1650" 
d="M1024 291l618 1071h347l-818 -1415q-119 -206 -268 -304t-375 -98h-186l160 279h254l100 176h-207l135 889q10 77 41 184l-620 -1073h-344l786 1362h551l-139 -907q-6 -51 -35 -164z" />
    <glyph glyph-name="eng" unicode="&#x14b;" horiz-adv-x="1286" 
d="M68 -410l161 279h246l402 694q67 119 53 164t-115 45q-105 0 -191.5 -56.5t-181.5 -209.5l-290 -506h-353l590 1024h352l-94 -162q208 195 424 195q126 0 193 -63.5t65 -162.5t-65 -208l-365 -629q-80 -137 -166.5 -223t-205 -133.5t-271.5 -47.5h-188z" />
    <glyph glyph-name="Omacron" unicode="&#x14c;" horiz-adv-x="1576" 
d="M539 -33q-180 0 -296 61.5t-156.5 166t-16.5 242.5t114 292q90 155 186 269.5t222.5 208t288.5 142t358 48.5q144 0 247.5 -41t156.5 -113t66 -168t-16.5 -207.5t-97.5 -228.5q-77 -133 -154 -234t-172 -186t-201.5 -139t-239.5 -83.5t-289 -29.5zM535 680
q-133 -223 -114 -319.5t210 -96.5q151 0 253 39.5t182.5 126t174.5 250.5q54 93 82.5 159.5t35 118t-15 82t-69.5 45.5t-127 15q-150 0 -252 -40t-183.5 -127.5t-176.5 -252.5zM924 1501l116 205h850l-118 -205h-848z" />
    <glyph glyph-name="omacron" unicode="&#x14d;" horiz-adv-x="1288" 
d="M408 -33q-147 0 -245 47.5t-137 128t-27.5 187.5t73.5 227q60 115 134.5 202.5t173 156.5t226.5 105t281 36q144 0 240.5 -46t136 -126t27.5 -188.5t-77 -231.5q-44 -82 -96.5 -151.5t-126 -135t-157.5 -111t-193.5 -73t-232.5 -27.5zM414 512q-64 -109 -74.5 -167
t24 -80.5t123.5 -22.5q137 0 215 53.5t172 216.5q64 110 74.5 168.5t-24 81t-123.5 22.5q-69 0 -117 -10.5t-94 -41t-86.5 -82.5t-89.5 -138zM569 1171l111 191h784l-110 -191h-785z" />
    <glyph glyph-name="Ohungarumlaut" unicode="&#x150;" horiz-adv-x="1576" 
d="M539 -33q-180 0 -296 61.5t-156.5 166t-16.5 242.5t114 292q90 155 186 269.5t222.5 208t288.5 142t358 48.5q144 0 247.5 -41t156.5 -113t66 -168t-16.5 -207.5t-97.5 -228.5q-77 -133 -154 -234t-172 -186t-201.5 -139t-239.5 -83.5t-289 -29.5zM535 680
q-133 -223 -114 -319.5t210 -96.5q151 0 253 39.5t182.5 126t174.5 250.5q54 93 82.5 159.5t35 118t-15 82t-69.5 45.5t-127 15q-150 0 -252 -40t-183.5 -127.5t-176.5 -252.5zM1018 1497l258 275l154 -160l-351 -180zM1475 1509l258 277l153 -162l-352 -178z" />
    <glyph glyph-name="ohungarumlaut" unicode="&#x151;" horiz-adv-x="1288" 
d="M408 -33q-147 0 -245 47.5t-137 128t-27.5 187.5t73.5 227q60 115 134.5 202.5t173 156.5t226.5 105t281 36q144 0 240.5 -46t136 -126t27.5 -188.5t-77 -231.5q-44 -82 -96.5 -151.5t-126 -135t-157.5 -111t-193.5 -73t-232.5 -27.5zM414 512q-64 -109 -74.5 -167
t24 -80.5t123.5 -22.5q137 0 215 53.5t172 216.5q64 110 74.5 168.5t-24 81t-123.5 22.5q-69 0 -117 -10.5t-94 -41t-86.5 -82.5t-89.5 -138zM653 1186l258 274l154 -160l-352 -178zM1108 1200l258 275l154 -160l-351 -180z" />
    <glyph glyph-name="OE" unicode="&#x152;" horiz-adv-x="2361" 
d="M1569 561l-158 -276h733l-164 -285h-1095l102 176q-96 -89 -224 -149t-280 -60q-166 0 -271.5 60.5t-140 163.5t-9 238t111.5 284q71 122 147.5 222.5t171.5 188t199 146.5t230 93t264 34q174 0 274.5 -58.5t106.5 -156.5l104 180h1090l-164 -285h-729l-146 -252h668
l-154 -264h-667zM530 680q-128 -218 -104.5 -319t219.5 -101q111 0 195 23.5t154 78.5t125.5 128.5t121.5 189.5q132 220 109 321t-220 101q-140 0 -245 -46t-185.5 -134.5t-169.5 -241.5z" />
    <glyph glyph-name="oe" unicode="&#x153;" horiz-adv-x="1982" 
d="M393 -33q-120 0 -206 30.5t-132 84.5t-60.5 127t5 159.5t68.5 180.5q57 110 133.5 198.5t177.5 160t233 110.5t285 39q247 0 317 -137q188 137 418 137q146 0 238.5 -45.5t123 -122.5t13.5 -175t-80 -206q-22 -39 -55 -86h-768q-30 -64 -36.5 -108t11 -68t48.5 -33.5
t81 -9.5q97 0 154.5 25t103.5 81h342q-63 -81 -122.5 -137t-142 -106t-190.5 -74.5t-243 -24.5q-227 0 -297 117q-169 -117 -420 -117zM410 512q-62 -107 -72 -166t25.5 -81.5t123.5 -22.5q136 0 219 58t171 212q63 108 72.5 167t-26.5 81t-124 22q-135 0 -217.5 -58
t-171.5 -212zM1225 627h438q38 74 38 118t-33.5 62t-102.5 18q-105 0 -181.5 -41t-158.5 -157z" />
    <glyph glyph-name="Racute" unicode="&#x154;" horiz-adv-x="1406" 
d="M1143 246q-31 -53 -53.5 -98t-33 -71.5t-28.5 -76.5h-366q26 104 112 246l33 55q42 68 39 111t-36.5 62.5t-96.5 19.5h-244l-285 -494h-366l786 1362h651q123 0 208 -38.5t121 -101.5t30.5 -145t-55.5 -168q-132 -229 -459 -284q48 -10 80.5 -31t50 -55.5t7 -90
t-51.5 -126.5zM616 752h269q108 0 178 39t123 129q49 88 25 126.5t-126 38.5h-274zM905 1563l563 172l60 -215l-600 -43z" />
    <glyph glyph-name="racute" unicode="&#x155;" horiz-adv-x="856" 
d="M-201 0l592 1024h342l-117 -201q94 110 194.5 163.5t227.5 53.5h86l-198 -344h-129q-132 0 -206.5 -45t-158.5 -178l-272 -473h-361zM492 1221l561 172l61 -213l-602 -43z" />
    <glyph glyph-name="uni0156" unicode="&#x156;" horiz-adv-x="1406" 
d="M1143 246q-31 -53 -53.5 -98t-33 -71.5t-28.5 -76.5h-366q26 104 112 246l33 55q42 68 39 111t-36.5 62.5t-96.5 19.5h-244l-285 -494h-366l786 1362h651q123 0 208 -38.5t121 -101.5t30.5 -145t-55.5 -168q-132 -229 -459 -284q48 -10 80.5 -31t50 -55.5t7 -90
t-51.5 -126.5zM-59 -573l98 165h121l78 140h-121l100 172h318l-148 -254q-63 -109 -147 -166t-222 -57h-77zM616 752h269q108 0 178 39t123 129q49 88 25 126.5t-126 38.5h-274z" />
    <glyph glyph-name="uni0157" unicode="&#x157;" horiz-adv-x="856" 
d="M-201 0l592 1024h342l-117 -201q94 110 194.5 163.5t227.5 53.5h86l-198 -344h-129q-132 0 -206.5 -45t-158.5 -178l-272 -473h-361zM-492 -573l99 165h121l77 140h-120l100 172h317l-147 -254q-63 -109 -147 -166t-222 -57h-78z" />
    <glyph glyph-name="Rcaron" unicode="&#x158;" horiz-adv-x="1406" 
d="M1143 246q-31 -53 -53.5 -98t-33 -71.5t-28.5 -76.5h-366q26 104 112 246l33 55q42 68 39 111t-36.5 62.5t-96.5 19.5h-244l-285 -494h-366l786 1362h651q123 0 208 -38.5t121 -101.5t30.5 -145t-55.5 -168q-132 -229 -459 -284q48 -10 80.5 -31t50 -55.5t7 -90
t-51.5 -126.5zM616 752h269q108 0 178 39t123 129q49 88 25 126.5t-126 38.5h-274zM926 1618l112 115l166 -131l307 131l62 -117l-313 -150h-158z" />
    <glyph glyph-name="rcaron" unicode="&#x159;" horiz-adv-x="856" 
d="M-201 0l592 1024h342l-117 -201q94 110 194.5 163.5t227.5 53.5h86l-198 -344h-129q-132 0 -206.5 -45t-158.5 -178l-272 -473h-361zM535 1292l112 115l166 -131l307 131l62 -119l-314 -147h-157z" />
    <glyph glyph-name="Sacute" unicode="&#x15a;" horiz-adv-x="1355" 
d="M377 442q-56 -112 -22.5 -163.5t173.5 -51.5q136 0 206 31t124 125q75 132 -72 154l-239 38q-129 21 -189 80.5t-54 148t73 204.5q106 181 297 285t471 104q153 0 255.5 -35t145.5 -96t41.5 -140.5t-47.5 -171.5h-356q23 55 25.5 90.5t-18.5 55.5t-57.5 27.5t-97.5 7.5
q-114 0 -183.5 -29.5t-121.5 -116.5q-69 -117 70 -137l209 -33q153 -22 221 -83.5t60 -153.5t-83 -222q-55 -97 -122 -166.5t-161 -122.5t-222 -79.5t-291 -26.5q-131 0 -224 26.5t-142 71t-66.5 106t-4.5 130t52 143.5h350zM956 1563l564 172l59 -215l-600 -43z" />
    <glyph glyph-name="sacute" unicode="&#x15b;" horiz-adv-x="1114" 
d="M246 330q-38 -78 -8 -115t129 -37q97 0 144.5 21t72.5 73q50 101 -95 129l-167 31q-97 17 -141.5 67.5t-37 122t59.5 160.5q157 275 606 275q223 0 320.5 -81.5t35.5 -254.5h-319q31 75 6.5 101t-113.5 26q-94 0 -144.5 -19.5t-76.5 -76.5q-39 -94 90 -115l160 -25
q113 -19 165.5 -72t47.5 -128.5t-61 -171.5q-38 -65 -85.5 -112t-120.5 -85t-178.5 -57t-244.5 -19q-109 0 -188 20t-123 53.5t-63.5 80.5t-16 98.5t25.5 110.5h320zM569 1221l561 172l62 -213l-602 -43z" />
    <glyph glyph-name="Scedilla" unicode="&#x15e;" horiz-adv-x="1355" 
d="M377 442q-56 -112 -22.5 -163.5t173.5 -51.5q136 0 206 31t124 125q75 132 -72 154l-239 38q-129 21 -189 80.5t-54 148t73 204.5q106 181 297 285t471 104q153 0 255.5 -35t145.5 -96t41.5 -140.5t-47.5 -171.5h-356q23 55 25.5 90.5t-18.5 55.5t-57.5 27.5t-97.5 7.5
q-114 0 -183.5 -29.5t-121.5 -116.5q-69 -117 70 -137l209 -33q153 -22 221 -83.5t60 -153.5t-83 -222q-101 -178 -259 -275.5t-417 -115.5l-55 -153q-32 -89 -112 -148t-177 -59h-233l123 213h164l51 149q-123 14 -200.5 58.5t-103 109.5t-16 141t53.5 162h350z" />
    <glyph glyph-name="scedilla" unicode="&#x15f;" horiz-adv-x="1114" 
d="M246 330q-38 -78 -8 -115t129 -37q97 0 144.5 21t72.5 73q50 101 -95 129l-167 31q-97 17 -141.5 67.5t-37 122t59.5 160.5q157 275 606 275q223 0 320.5 -81.5t35.5 -254.5h-319q31 75 6.5 101t-113.5 26q-94 0 -144.5 -19.5t-76.5 -76.5q-39 -94 90 -115l160 -25
q113 -19 165.5 -72t47.5 -128.5t-61 -171.5q-44 -76 -101 -127.5t-155 -89.5t-234 -50l-57 -157q-32 -89 -112 -148t-177 -59h-234l123 213h164l51 149q-103 11 -169 44.5t-92 83.5t-26 107t25 124h320z" />
    <glyph glyph-name="Scaron" unicode="&#x160;" horiz-adv-x="1355" 
d="M377 442q-56 -112 -22.5 -163.5t173.5 -51.5q136 0 206 31t124 125q75 132 -72 154l-239 38q-129 21 -189 80.5t-54 148t73 204.5q106 181 297 285t471 104q153 0 255.5 -35t145.5 -96t41.5 -140.5t-47.5 -171.5h-356q23 55 25.5 90.5t-18.5 55.5t-57.5 27.5t-97.5 7.5
q-114 0 -183.5 -29.5t-121.5 -116.5q-69 -117 70 -137l209 -33q153 -22 221 -83.5t60 -153.5t-83 -222q-55 -97 -122 -166.5t-161 -122.5t-222 -79.5t-291 -26.5q-131 0 -224 26.5t-142 71t-66.5 106t-4.5 130t52 143.5h350zM977 1618l113 115l165 -131l308 131l61 -117
l-313 -150h-158z" />
    <glyph glyph-name="scaron" unicode="&#x161;" horiz-adv-x="1114" 
d="M246 330q-38 -78 -8 -115t129 -37q97 0 144.5 21t72.5 73q50 101 -95 129l-167 31q-97 17 -141.5 67.5t-37 122t59.5 160.5q157 275 606 275q223 0 320.5 -81.5t35.5 -254.5h-319q31 75 6.5 101t-113.5 26q-94 0 -144.5 -19.5t-76.5 -76.5q-39 -94 90 -115l160 -25
q113 -19 165.5 -72t47.5 -128.5t-61 -171.5q-38 -65 -85.5 -112t-120.5 -85t-178.5 -57t-244.5 -19q-109 0 -188 20t-123 53.5t-63.5 80.5t-16 98.5t25.5 110.5h320zM612 1292l113 115l166 -131l307 131l62 -119l-314 -147h-158z" />
    <glyph glyph-name="uni0162" unicode="&#x162;" horiz-adv-x="1280" 
d="M162 0l622 1077h-436l164 285h1237l-164 -285h-436l-623 -1077h-26l-66 -182q-32 -89 -112 -148t-177 -59h-233l123 213h164l59 176h-96z" />
    <glyph glyph-name="uni0163" unicode="&#x163;" horiz-adv-x="894" 
d="M-254 -391l123 213h164l76 219q-68 42 -73.5 118.5t46.5 164.5l252 436h-180l96 164l282 92l267 250h180l-139 -242h274l-151 -264h-275l-278 -481h297l-160 -279h-211l-68 -184q-32 -89 -111.5 -148t-176.5 -59h-234z" />
    <glyph glyph-name="Tcaron" unicode="&#x164;" horiz-adv-x="1280" 
d="M162 0l622 1077h-436l164 285h1237l-164 -285h-436l-623 -1077h-364zM938 1618l113 115l166 -131l307 131l61 -117l-313 -150h-158z" />
    <glyph glyph-name="tcaron" unicode="&#x165;" horiz-adv-x="980" 
d="M303 0q-98 0 -162 25.5t-87.5 70.5t-16.5 103t45 125l252 436h-180l96 164l282 92l267 250h180l-139 -242h274l-151 -264h-275l-278 -481h297l-160 -279h-244zM1010 1116l153 318h287l-211 -318h-229z" />
    <glyph glyph-name="Tbar" unicode="&#x166;" horiz-adv-x="1280" 
d="M8 489l166 285h434l176 303h-436l164 285h1237l-164 -285h-436l-176 -303h438l-166 -285h-436l-283 -489h-364l282 489h-436z" />
    <glyph glyph-name="tbar" unicode="&#x167;" horiz-adv-x="878" 
d="M309 0q-116 0 -181.5 25.5t-82.5 77.5t4.5 125t81.5 175l23 41h-181l117 203h180l66 113h-180l94 164l262 92l293 256h180l-143 -248h278l-153 -264h-279l-65 -113h278l-117 -203h-278l-96 -165h245l-159 -279h-187z" />
    <glyph glyph-name="Umacron" unicode="&#x16a;" horiz-adv-x="1460" 
d="M119 551l469 811h364l-463 -797q-101 -175 -81 -239t180 -64q66 0 108.5 5.5t88 22.5t82 51t77.5 88t88 136l463 797h363l-498 -860q-116 -201 -233 -315t-269 -167t-369 -53q-320 0 -421.5 160t51.5 424zM881 1501l116 205h850l-118 -205h-848z" />
    <glyph glyph-name="umacron" unicode="&#x16b;" horiz-adv-x="1286" 
d="M221 -33q-97 0 -160.5 37t-86 97.5t-10 139.5t60.5 162l360 621h352l-325 -565q-71 -120 -59.5 -163.5t114.5 -43.5q77 0 129.5 17.5t115.5 78t134 176.5l289 500h354l-592 -1024h-334l117 203q-226 -236 -459 -236zM629 1171l110 191h785l-111 -191h-784z" />
    <glyph glyph-name="Uring" unicode="&#x16e;" horiz-adv-x="1460" 
d="M119 551l469 811h364l-463 -797q-101 -175 -81 -239t180 -64q66 0 108.5 5.5t88 22.5t82 51t77.5 88t88 136l463 797h363l-498 -860q-116 -201 -233 -315t-269 -167t-369 -53q-320 0 -421.5 160t51.5 424zM1155 1683q52 91 149.5 155.5t211.5 64.5q121 0 155 -72.5
t-29 -179.5q-54 -93 -151 -157t-211 -64q-122 0 -155.5 72t30.5 181zM1309 1667q-23 -43 -11 -63.5t52 -20.5q88 0 137 84q24 43 12 62.5t-53 19.5q-87 0 -137 -82z" />
    <glyph glyph-name="uring" unicode="&#x16f;" horiz-adv-x="1286" 
d="M221 -33q-97 0 -160.5 37t-86 97.5t-10 139.5t60.5 162l360 621h352l-325 -565q-71 -120 -59.5 -163.5t114.5 -43.5q77 0 129.5 17.5t115.5 78t134 176.5l289 500h354l-592 -1024h-334l117 203q-226 -236 -459 -236zM905 1333q37 67 116 114.5t169 47.5q95 0 127.5 -62.5
t-17.5 -148.5q-39 -67 -118 -113.5t-170 -46.5q-94 0 -125 60.5t18 148.5zM1030 1311q-19 -35 -9.5 -52.5t40.5 -17.5q70 0 110 70q20 34 10.5 49.5t-40.5 15.5q-69 0 -111 -65z" />
    <glyph glyph-name="Uhungarumlaut" unicode="&#x170;" horiz-adv-x="1460" 
d="M119 551l469 811h364l-463 -797q-101 -175 -81 -239t180 -64q66 0 108.5 5.5t88 22.5t82 51t77.5 88t88 136l463 797h363l-498 -860q-116 -201 -233 -315t-269 -167t-369 -53q-320 0 -421.5 160t51.5 424zM975 1497l258 275l153 -160l-350 -180zM1432 1509l258 277
l153 -162l-352 -178z" />
    <glyph glyph-name="uhungarumlaut" unicode="&#x171;" horiz-adv-x="1286" 
d="M221 -33q-97 0 -160.5 37t-86 97.5t-10 139.5t60.5 162l360 621h352l-325 -565q-71 -120 -59.5 -163.5t114.5 -43.5q77 0 129.5 17.5t115.5 78t134 176.5l289 500h354l-592 -1024h-334l117 203q-226 -236 -459 -236zM713 1186l258 274l153 -160l-352 -178zM1167 1200
l258 275l154 -160l-350 -180z" />
    <glyph glyph-name="Uogonek" unicode="&#x172;" horiz-adv-x="1460" 
d="M119 551l469 811h364l-463 -797q-101 -175 -81 -239t180 -64q66 0 108.5 5.5t88 22.5t82 51t77.5 88t88 136l463 797h363l-498 -860q-112 -196 -226.5 -309t-261.5 -168q-50 -44 -77 -93q-30 -60 -12 -93.5t69 -33.5q50 0 109 15l-121 -211q-67 -25 -152 -25
q-84 0 -136 42.5t-55.5 109.5t38.5 149q26 45 67 86q-74 -4 -113 -4q-320 0 -421.5 160t51.5 424z" />
    <glyph glyph-name="uogonek" unicode="&#x173;" horiz-adv-x="1286" 
d="M221 -33q-97 0 -160.5 37t-86 97.5t-10 139.5t60.5 162l360 621h352l-325 -565q-71 -120 -59.5 -163.5t114.5 -43.5q77 0 129.5 17.5t115.5 78t134 176.5l289 500h354l-592 -1024h-156q-32 -37 -51 -68q-30 -60 -11.5 -93.5t69.5 -33.5q50 0 108 15l-121 -211
q-67 -25 -151 -25q-129 0 -175.5 90.5t21.5 210.5q51 87 158 158l92 160q-226 -236 -459 -236z" />
    <glyph glyph-name="Wcircumflex" unicode="&#x174;" horiz-adv-x="2199" 
d="M1436 227l852 1135h356l-1020 -1362h-612l407 1063l-819 -1063h-610l551 1362h354l-459 -1135l885 1135h539zM1352 1597l356 134h158l172 -125l-135 -123l-168 125l-322 -144z" />
    <glyph glyph-name="wcircumflex" unicode="&#x175;" horiz-adv-x="1869" 
d="M-29 0l340 1024h336l-256 -723l635 723h389l-198 -719l571 719h364l-841 -1024h-488l201 653l-563 -653h-490zM1008 1237l307 147h158l178 -151l-113 -117l-182 131l-287 -131z" />
    <glyph glyph-name="Ycircumflex" unicode="&#x176;" horiz-adv-x="1306" 
d="M455 1362h360l-47 -447q-8 -80 -43 -231q136 143 229 234l457 444h426l-1069 -969l-227 -393h-361l226 393zM883 1597l356 134h158l172 -125l-135 -123l-168 125l-322 -144z" />
    <glyph glyph-name="ycircumflex" unicode="&#x177;" horiz-adv-x="1210" 
d="M-459 -410l160 279h405l148 160h-193l244 995h340l-143 -594l-35 -149l129 149l532 594h373l-917 -1024q-96 -107 -173.5 -177.5t-167.5 -126t-188.5 -81t-216.5 -25.5h-297zM676 1237l307 147h158l178 -151l-113 -117l-182 131l-287 -131z" />
    <glyph glyph-name="Ydieresis" unicode="&#x178;" horiz-adv-x="1306" 
d="M455 1362h360l-47 -447q-8 -80 -43 -231q136 143 229 234l457 444h426l-1069 -969l-227 -393h-361l226 393zM842 1491l123 215h299l-123 -215h-299zM1260 1491l122 215h299l-122 -215h-299z" />
    <glyph glyph-name="Zacute" unicode="&#x179;" horiz-adv-x="1337" 
d="M-238 0l166 285l1184 792h-704l163 285h1207l-164 -285l-1188 -792h737l-166 -285h-1235zM938 1563l563 172l60 -215l-600 -43z" />
    <glyph glyph-name="zacute" unicode="&#x17a;" horiz-adv-x="1116" 
d="M-227 0l147 256l842 512h-541l148 256h972l-149 -256l-834 -512h545l-149 -256h-981zM637 1221l561 172l62 -213l-603 -43z" />
    <glyph glyph-name="Zdotaccent" unicode="&#x17b;" horiz-adv-x="1337" 
d="M-238 0l166 285l1184 792h-704l163 285h1207l-164 -285l-1188 -792h737l-166 -285h-1235zM1044 1491l123 215h365l-121 -215h-367z" />
    <glyph glyph-name="zdotaccent" unicode="&#x17c;" horiz-adv-x="1116" 
d="M-227 0l147 256l842 512h-541l148 256h972l-149 -256l-834 -512h545l-149 -256h-981zM756 1149l121 213h366l-123 -213h-364z" />
    <glyph glyph-name="Zcaron" unicode="&#x17d;" horiz-adv-x="1337" 
d="M-238 0l166 285l1184 792h-704l163 285h1207l-164 -285l-1188 -792h737l-166 -285h-1235zM958 1618l113 115l166 -131l307 131l62 -117l-314 -150h-157z" />
    <glyph glyph-name="zcaron" unicode="&#x17e;" horiz-adv-x="1116" 
d="M-227 0l147 256l842 512h-541l148 256h972l-149 -256l-834 -512h545l-149 -256h-981zM680 1292l113 115l165 -131l308 131l61 -119l-313 -147h-158z" />
    <glyph glyph-name="florin" unicode="&#x192;" horiz-adv-x="1292" 
d="M-369 -410l162 279h305l359 620h-260l153 265h258l162 278q60 104 117.5 174.5t131 124t164 78.5t206.5 25h272l-162 -279h-305l-231 -401h260l-154 -265h-258l-287 -495q-61 -105 -118.5 -175.5t-130.5 -124.5t-163.5 -79t-205.5 -25h-275z" />
    <glyph glyph-name="uni01CD" unicode="&#x1cd;" horiz-adv-x="1505" 
d="M1206 0h-348l60 256h-586l-236 -256h-385l1254 1362h561zM582 528h399l135 580zM1071 1618l113 115l166 -131l307 131l61 -117l-313 -150h-158z" />
    <glyph glyph-name="uni01CE" unicode="&#x1ce;" horiz-adv-x="1333" 
d="M260 -33q-128 0 -201.5 49.5t-88 134t14 191.5t97.5 227q49 86 97.5 153t114.5 132t138 108t166 69t201 26q138 0 209 -52t77 -147l97 166h354l-590 -1024h-328l97 168q-211 -201 -455 -201zM418 520q-39 -68 -58 -116t-20 -80t18 -50.5t52.5 -26t87.5 -7.5
q135 0 216 56.5t173 215.5q49 84 66 138t2 83.5t-50.5 40t-101.5 10.5q-92 -1 -150.5 -21.5t-114 -76.5t-120.5 -166zM1079 1292l113 115l166 -131l307 131l61 -119l-313 -147h-158z" />
    <glyph glyph-name="uni01CF" unicode="&#x1cf;" horiz-adv-x="1036" 
d="M-197 0l166 285h240l455 792h-238l164 285h842l-166 -285h-240l-455 -792h238l-164 -285h-842zM817 1618l113 115l166 -131l307 131l61 -117l-313 -150h-158z" />
    <glyph glyph-name="uni01D0" unicode="&#x1d0;" horiz-adv-x="548" 
d="M-197 0l590 1024h355l-590 -1024h-355zM385 1292l113 115l166 -131l307 131l61 -119l-313 -147h-158z" />
    <glyph glyph-name="uni01D1" unicode="&#x1d1;" horiz-adv-x="1576" 
d="M539 -33q-180 0 -296 61.5t-156.5 166t-16.5 242.5t114 292q90 155 186 269.5t222.5 208t288.5 142t358 48.5q144 0 247.5 -41t156.5 -113t66 -168t-16.5 -207.5t-97.5 -228.5q-77 -133 -154 -234t-172 -186t-201.5 -139t-239.5 -83.5t-289 -29.5zM535 680
q-133 -223 -114 -319.5t210 -96.5q151 0 253 39.5t182.5 126t174.5 250.5q54 93 82.5 159.5t35 118t-15 82t-69.5 45.5t-127 15q-150 0 -252 -40t-183.5 -127.5t-176.5 -252.5zM1073 1618l113 115l166 -131l307 131l61 -117l-313 -150h-158z" />
    <glyph glyph-name="uni01D2" unicode="&#x1d2;" horiz-adv-x="1288" 
d="M408 -33q-147 0 -245 47.5t-137 128t-27.5 187.5t73.5 227q60 115 134.5 202.5t173 156.5t226.5 105t281 36q144 0 240.5 -46t136 -126t27.5 -188.5t-77 -231.5q-44 -82 -96.5 -151.5t-126 -135t-157.5 -111t-193.5 -73t-232.5 -27.5zM414 512q-64 -109 -74.5 -167
t24 -80.5t123.5 -22.5q137 0 215 53.5t172 216.5q64 110 74.5 168.5t-24 81t-123.5 22.5q-69 0 -117 -10.5t-94 -41t-86.5 -82.5t-89.5 -138zM692 1292l113 115l166 -131l307 131l61 -119l-313 -147h-158z" />
    <glyph glyph-name="uni01D3" unicode="&#x1d3;" horiz-adv-x="1460" 
d="M119 551l469 811h364l-463 -797q-101 -175 -81 -239t180 -64q66 0 108.5 5.5t88 22.5t82 51t77.5 88t88 136l463 797h363l-498 -860q-116 -201 -233 -315t-269 -167t-369 -53q-320 0 -421.5 160t51.5 424zM1030 1618l113 115l166 -131l307 131l61 -117l-313 -150h-158z
" />
    <glyph glyph-name="uni01D4" unicode="&#x1d4;" horiz-adv-x="1286" 
d="M221 -33q-97 0 -160.5 37t-86 97.5t-10 139.5t60.5 162l360 621h352l-325 -565q-71 -120 -59.5 -163.5t114.5 -43.5q77 0 129.5 17.5t115.5 78t134 176.5l289 500h354l-592 -1024h-334l117 203q-226 -236 -459 -236zM752 1292l112 115l166 -131l307 131l62 -119
l-314 -147h-157z" />
    <glyph glyph-name="uni01D5" unicode="&#x1d5;" horiz-adv-x="1460" 
d="M119 551l469 811h364l-463 -797q-101 -175 -81 -239t180 -64q66 0 108.5 5.5t88 22.5t82 51t77.5 88t88 136l463 797h363l-498 -860q-116 -201 -233 -315t-269 -167t-369 -53q-320 0 -421.5 160t51.5 424zM940 1491l123 215h299l-123 -215h-299zM1079 1845l117 205h850
l-119 -205h-848zM1358 1491l123 215h299l-123 -215h-299z" />
    <glyph glyph-name="uni01D6" unicode="&#x1d6;" horiz-adv-x="1286" 
d="M221 -33q-97 0 -160.5 37t-86 97.5t-10 139.5t60.5 162l360 621h352l-325 -565q-71 -120 -59.5 -163.5t114.5 -43.5q77 0 129.5 17.5t115.5 78t134 176.5l289 500h354l-592 -1024h-334l117 203q-226 -236 -459 -236zM637 1149l121 213h299l-121 -213h-299zM823 1509
l111 191h784l-110 -191h-785zM1079 1149l123 213h299l-123 -213h-299z" />
    <glyph glyph-name="uni01D7" unicode="&#x1d7;" horiz-adv-x="1460" 
d="M119 551l469 811h364l-463 -797q-101 -175 -81 -239t180 -64q66 0 108.5 5.5t88 22.5t82 51t77.5 88t88 136l463 797h363l-498 -860q-116 -201 -233 -315t-269 -167t-369 -53q-320 0 -421.5 160t51.5 424zM940 1491l123 215h299l-123 -215h-299zM1208 1907l564 172
l59 -215l-600 -43zM1358 1491l123 215h299l-123 -215h-299z" />
    <glyph glyph-name="uni01D8" unicode="&#x1d8;" horiz-adv-x="1286" 
d="M221 -33q-97 0 -160.5 37t-86 97.5t-10 139.5t60.5 162l360 621h352l-325 -565q-71 -120 -59.5 -163.5t114.5 -43.5q77 0 129.5 17.5t115.5 78t134 176.5l289 500h354l-592 -1024h-334l117 203q-226 -236 -459 -236zM637 1149l121 213h299l-121 -213h-299zM903 1559
l561 172l62 -213l-602 -43zM1079 1149l123 213h299l-123 -213h-299z" />
    <glyph glyph-name="uni01D9" unicode="&#x1d9;" horiz-adv-x="1460" 
d="M119 551l469 811h364l-463 -797q-101 -175 -81 -239t180 -64q66 0 108.5 5.5t88 22.5t82 51t77.5 88t88 136l463 797h363l-498 -860q-116 -201 -233 -315t-269 -167t-369 -53q-320 0 -421.5 160t51.5 424zM940 1491l123 215h299l-123 -215h-299zM1229 1962l112 115
l166 -131l308 131l61 -117l-313 -150h-158zM1358 1491l123 215h299l-123 -215h-299z" />
    <glyph glyph-name="uni01DA" unicode="&#x1da;" horiz-adv-x="1286" 
d="M221 -33q-97 0 -160.5 37t-86 97.5t-10 139.5t60.5 162l360 621h352l-325 -565q-71 -120 -59.5 -163.5t114.5 -43.5q77 0 129.5 17.5t115.5 78t134 176.5l289 500h354l-592 -1024h-334l117 203q-226 -236 -459 -236zM637 1149l121 213h299l-121 -213h-299zM946 1630
l113 115l166 -131l307 131l61 -119l-313 -147h-158zM1079 1149l123 213h299l-123 -213h-299z" />
    <glyph glyph-name="uni01DB" unicode="&#x1db;" horiz-adv-x="1460" 
d="M119 551l469 811h364l-463 -797q-101 -175 -81 -239t180 -64q66 0 108.5 5.5t88 22.5t82 51t77.5 88t88 136l463 797h363l-498 -860q-116 -201 -233 -315t-269 -167t-369 -53q-320 0 -421.5 160t51.5 424zM940 1491l123 215h299l-123 -215h-299zM1221 1864l59 215
l563 -172l-22 -86zM1358 1491l123 215h299l-123 -215h-299z" />
    <glyph glyph-name="uni01DC" unicode="&#x1dc;" horiz-adv-x="1286" 
d="M221 -33q-97 0 -160.5 37t-86 97.5t-10 139.5t60.5 162l360 621h352l-325 -565q-71 -120 -59.5 -163.5t114.5 -43.5q77 0 129.5 17.5t115.5 78t134 176.5l289 500h354l-592 -1024h-334l117 203q-226 -236 -459 -236zM637 1149l121 213h299l-121 -213h-299zM928 1518
l61 213l561 -172l-20 -84zM1079 1149l123 213h299l-123 -213h-299z" />
    <glyph glyph-name="uni0218" unicode="&#x218;" horiz-adv-x="1355" 
d="M377 442q-56 -112 -22.5 -163.5t173.5 -51.5q136 0 206 31t124 125q75 132 -72 154l-239 38q-129 21 -189 80.5t-54 148t73 204.5q106 181 297 285t471 104q153 0 255.5 -35t145.5 -96t41.5 -140.5t-47.5 -171.5h-356q23 55 25.5 90.5t-18.5 55.5t-57.5 27.5t-97.5 7.5
q-114 0 -183.5 -29.5t-121.5 -116.5q-69 -117 70 -137l209 -33q153 -22 221 -83.5t60 -153.5t-83 -222q-55 -97 -122 -166.5t-161 -122.5t-222 -79.5t-291 -26.5q-131 0 -224 26.5t-142 71t-66.5 106t-4.5 130t52 143.5h350zM-86 -573l98 165h121l78 140h-121l100 172h318
l-148 -254q-64 -110 -147 -166.5t-221 -56.5h-78z" />
    <glyph glyph-name="uni0219" unicode="&#x219;" horiz-adv-x="1114" 
d="M246 330q-38 -78 -8 -115t129 -37q97 0 144.5 21t72.5 73q50 101 -95 129l-167 31q-97 17 -141.5 67.5t-37 122t59.5 160.5q157 275 606 275q223 0 320.5 -81.5t35.5 -254.5h-319q31 75 6.5 101t-113.5 26q-94 0 -144.5 -19.5t-76.5 -76.5q-39 -94 90 -115l160 -25
q113 -19 165.5 -72t47.5 -128.5t-61 -171.5q-38 -65 -85.5 -112t-120.5 -85t-178.5 -57t-244.5 -19q-109 0 -188 20t-123 53.5t-63.5 80.5t-16 98.5t25.5 110.5h320zM-190 -573l98 165h121l77 140h-120l100 172h317l-147 -254q-63 -109 -147 -166t-222 -57h-77z" />
    <glyph glyph-name="uni021A" unicode="&#x21a;" horiz-adv-x="1280" 
d="M162 0l622 1077h-436l164 285h1237l-164 -285h-436l-623 -1077h-364zM-129 -571l98 165h121l78 140h-121l100 172h318l-148 -254q-64 -110 -147 -166.5t-221 -56.5h-78z" />
    <glyph glyph-name="uni021B" unicode="&#x21b;" horiz-adv-x="894" 
d="M303 0q-98 0 -162 25.5t-87.5 70.5t-16.5 103t45 125l252 436h-180l96 164l282 92l267 250h180l-139 -242h274l-151 -264h-275l-278 -481h297l-160 -279h-244zM-295 -573l98 165h121l78 140h-121l101 172h317l-147 -254q-63 -109 -147 -166t-222 -57h-78z" />
    <glyph glyph-name="uni0237" unicode="&#x237;" horiz-adv-x="569" 
d="M-717 -410l162 279h303l668 1155h354l-596 -1030q-79 -137 -167 -223.5t-207.5 -133.5t-272.5 -47h-244z" />
    <glyph glyph-name="circumflex" unicode="&#x2c6;" horiz-adv-x="770" 
d="M481 1237l307 147h158l178 -151l-112 -117l-183 131l-286 -131z" />
    <glyph glyph-name="caron" unicode="&#x2c7;" horiz-adv-x="772" 
d="M512 1292l113 115l166 -131l307 131l61 -119l-313 -147h-158z" />
    <glyph glyph-name="breve" unicode="&#x2d8;" horiz-adv-x="763" 
d="M748 1362q-23 -41 -4 -67.5t75 -26.5q121 0 180 94h193q-23 -48 -51.5 -84t-75 -69t-117 -50.5t-162.5 -17.5q-91 0 -150.5 20t-81.5 53t-22 70.5t21 77.5h195z" />
    <glyph glyph-name="dotaccent" unicode="&#x2d9;" horiz-adv-x="489" 
d="M432 1149l121 213h367l-123 -213h-365z" />
    <glyph glyph-name="ring" unicode="&#x2da;" horiz-adv-x="546" 
d="M643 1124q-94 0 -124.5 60.5t18.5 148.5q37 67 115.5 114.5t168.5 47.5q95 0 128 -62.5t-17 -148.5q-39 -67 -118.5 -113.5t-170.5 -46.5zM662 1311q-19 -35 -10 -52.5t40 -17.5q71 0 111 70q20 34 10 49.5t-41 15.5q-68 0 -110 -65z" />
    <glyph glyph-name="ogonek" unicode="&#x2db;" horiz-adv-x="587" 
d="M-147 -416q-129 0 -175.5 90.5t21.5 210.5q57 94 162.5 160.5t275.5 128.5l53 -51q-169 -82 -231 -191q-30 -60 -12 -93.5t69 -33.5q50 0 109 15l-121 -211q-67 -25 -151 -25z" />
    <glyph glyph-name="tilde" unicode="&#x2dc;" horiz-adv-x="894" 
d="M993 1135q-50 0 -90.5 15.5t-62 34.5t-48 34.5t-51.5 15.5q-51 0 -94 -72l-14 -24h-209l35 59q105 184 303 184q43 0 76.5 -10.5t54.5 -25t39 -29t38.5 -25t43.5 -10.5q54 0 94 72l14 24h209l-28 -53q-55 -96 -136.5 -143t-173.5 -47z" />
    <glyph glyph-name="hungarumlaut" unicode="&#x2dd;" horiz-adv-x="915" 
d="M862 1300l-352 -178l-59 64l258 274zM905 1200l258 275l154 -160l-350 -180z" />
    <glyph glyph-name="gravecomb" unicode="&#x300;" 
d="M510 1180l61 213l562 -172l-21 -84z" />
    <glyph glyph-name="acutecomb" unicode="&#x301;" 
d="M1094 1180l-602 -43l-21 84l561 172z" />
    <glyph glyph-name="uni0302" unicode="&#x302;" 
d="M481 1237l307 147h158l178 -151l-112 -117l-183 131l-286 -131z" />
    <glyph glyph-name="tildecomb" unicode="&#x303;" 
d="M993 1135q-50 0 -90.5 15.5t-62 34.5t-48 34.5t-51.5 15.5q-51 0 -94 -72l-14 -24h-209l35 59q105 184 303 184q43 0 76.5 -10.5t54.5 -25t39 -29t38.5 -25t43.5 -10.5q54 0 94 72l14 24h209l-28 -53q-55 -96 -136.5 -143t-173.5 -47z" />
    <glyph glyph-name="uni0304" unicode="&#x304;" 
d="M553 1362h784l-110 -191h-785z" />
    <glyph glyph-name="uni0306" unicode="&#x306;" 
d="M748 1362q-23 -41 -4 -67.5t75 -26.5q121 0 180 94h193q-23 -48 -51.5 -84t-75 -69t-117 -50.5t-162.5 -17.5q-91 0 -150.5 20t-81.5 53t-22 70.5t21 77.5h195z" />
    <glyph glyph-name="uni0307" unicode="&#x307;" 
d="M432 1149l121 213h367l-123 -213h-365z" />
    <glyph glyph-name="uni0308" unicode="&#x308;" 
d="M874 1149l123 213h299l-122 -213h-300zM432 1149l121 213h299l-121 -213h-299z" />
    <glyph glyph-name="uni030A" unicode="&#x30a;" 
d="M643 1124q-94 0 -124.5 60.5t18.5 148.5q37 67 115.5 114.5t168.5 47.5q95 0 128 -62.5t-17 -148.5q-39 -67 -118.5 -113.5t-170.5 -46.5zM662 1311q-19 -35 -10 -52.5t40 -17.5q71 0 111 70q20 34 10 49.5t-41 15.5q-68 0 -110 -65z" />
    <glyph glyph-name="uni030B" unicode="&#x30b;" 
d="M862 1300l-352 -178l-59 64l258 274zM905 1200l258 275l154 -160l-350 -180z" />
    <glyph glyph-name="uni030C" unicode="&#x30c;" 
d="M512 1292l113 115l166 -131l307 131l61 -119l-313 -147h-158z" />
    <glyph glyph-name="uni0312" unicode="&#x312;" 
d="M864 1352l-119 -207h-317l190 330q42 73 86.5 120t117.5 78t167 31h78l-104 -182h-121l-99 -170h121z" />
    <glyph glyph-name="uni0326" unicode="&#x326;" 
d="M-389 -268l100 172h318l-148 -254q-64 -110 -147 -166.5t-221 -56.5h-78l98 165h121l78 140h-121z" />
    <glyph glyph-name="uni0327" unicode="&#x327;" 
d="M-459 -391l123 213h164l90 264h244l-99 -270q-32 -89 -111.5 -148t-176.5 -59h-234z" />
    <glyph glyph-name="uni0328" unicode="&#x328;" 
d="M-147 -416q-129 0 -175.5 90.5t21.5 210.5q57 94 162.5 160.5t275.5 128.5l53 -51q-169 -82 -231 -191q-30 -60 -12 -93.5t69 -33.5q50 0 109 15l-121 -211q-67 -25 -151 -25z" />
    <glyph glyph-name="uni0394" unicode="&#x394;" horiz-adv-x="1546" 
d="M-264 0l160 274l1040 1088h512l-213 -1088l-160 -274h-1339zM283 272h600l164 805z" />
    <glyph glyph-name="uni03A9" unicode="&#x3a9;" horiz-adv-x="1667" 
d="M-281 0l156 268h318q-47 31 -75 75.5t-36.5 106.5t16 147t82.5 185q360 615 1024 615q114 0 203 -20t147 -55.5t94.5 -84t49 -104.5t7 -119t-27.5 -127t-59 -127q-219 -377 -563 -492h358l-153 -268h-1541zM526 731q-46 -78 -72.5 -134t-39 -103t-5 -77t35 -51t76 -29.5
t122.5 -8.5q110 0 189.5 20t148 70.5t124 122.5t124.5 190q53 93 80 156t34 113t-17 78t-76 42.5t-140 14.5q-110 0 -190 -20.5t-148.5 -71.5t-124 -123.5t-121.5 -188.5z" />
    <glyph glyph-name="pi" unicode="&#x3c0;" horiz-adv-x="1634" 
d="M244 760l153 264h1434l-154 -264h-260l-278 -481h229l-160 -279h-172q-133 0 -196.5 52.5t-57 142.5t75.5 208l205 357h-195l-438 -760h-354l438 760h-270z" />
    <glyph glyph-name="Wgrave" unicode="&#x1e80;" horiz-adv-x="2199" 
d="M1436 227l852 1135h356l-1020 -1362h-612l407 1063l-819 -1063h-610l551 1362h354l-459 -1135l885 1135h539zM1391 1520l59 215l563 -172l-22 -86z" />
    <glyph glyph-name="wgrave" unicode="&#x1e81;" horiz-adv-x="1869" 
d="M-29 0l340 1024h336l-256 -723l635 723h389l-198 -719l571 719h364l-841 -1024h-488l201 653l-563 -653h-490zM1028 1180l62 213l561 -172l-21 -84z" />
    <glyph glyph-name="Wacute" unicode="&#x1e82;" horiz-adv-x="2199" 
d="M1436 227l852 1135h356l-1020 -1362h-612l407 1063l-819 -1063h-610l551 1362h354l-459 -1135l885 1135h539zM1378 1563l564 172l59 -215l-600 -43z" />
    <glyph glyph-name="wacute" unicode="&#x1e83;" horiz-adv-x="1869" 
d="M-29 0l340 1024h336l-256 -723l635 723h389l-198 -719l571 719h364l-841 -1024h-488l201 653l-563 -653h-490zM1006 1221l561 172l61 -213l-602 -43z" />
    <glyph glyph-name="Wdieresis" unicode="&#x1e84;" horiz-adv-x="2199" 
d="M1436 227l852 1135h356l-1020 -1362h-612l407 1063l-819 -1063h-610l551 1362h354l-459 -1135l885 1135h539zM1309 1491l123 215h299l-123 -215h-299zM1726 1491l123 215h299l-123 -215h-299z" />
    <glyph glyph-name="wdieresis" unicode="&#x1e85;" horiz-adv-x="1869" 
d="M-29 0l340 1024h336l-256 -723l635 723h389l-198 -719l571 719h364l-841 -1024h-488l201 653l-563 -653h-490zM932 1149l121 213h299l-121 -213h-299zM1374 1149l123 213h299l-123 -213h-299z" />
    <glyph glyph-name="Ygrave" unicode="&#x1ef2;" horiz-adv-x="1306" 
d="M455 1362h360l-47 -447q-8 -80 -43 -231q136 143 229 234l457 444h426l-1069 -969l-227 -393h-361l226 393zM924 1520l59 215l563 -172l-22 -86z" />
    <glyph glyph-name="ygrave" unicode="&#x1ef3;" horiz-adv-x="1210" 
d="M-459 -410l160 279h405l148 160h-193l244 995h340l-143 -594l-35 -149l129 149l532 594h373l-917 -1024q-96 -107 -173.5 -177.5t-167.5 -126t-188.5 -81t-216.5 -25.5h-297zM696 1180l62 213l561 -172l-21 -84z" />
    <glyph glyph-name="endash" unicode="&#x2013;" horiz-adv-x="1208" 
d="M135 649h1100l-133 -233h-1102z" />
    <glyph glyph-name="emdash" unicode="&#x2014;" horiz-adv-x="1650" 
d="M135 649h1540l-133 -233h-1540z" />
    <glyph glyph-name="quoteleft" unicode="&#x2018;" horiz-adv-x="493" 
d="M678 981l-168 -291h-317l256 445q43 72 87 118.5t116.5 77.5t166.5 31h78l-104 -180h-121l-115 -201h121z" />
    <glyph glyph-name="quoteright" unicode="&#x2019;" horiz-adv-x="493" 
d="M414 1071l168 291h317l-256 -444q-32 -54 -64 -92t-76 -70.5t-101.5 -49t-129.5 -16.5h-77l104 180h121l115 201h-121z" />
    <glyph glyph-name="quotesinglbase" unicode="&#x201a;" horiz-adv-x="493" 
d="M-197 16l168 291h318l-256 -444q-32 -54 -64 -92t-76 -70.5t-101.5 -49t-129.5 -16.5h-78l105 181h121l114 200h-121z" />
    <glyph glyph-name="quotedblleft" unicode="&#x201c;" horiz-adv-x="929" 
d="M678 981l-168 -291h-317l256 445q43 72 87 118.5t116.5 77.5t166.5 31h78l-104 -180h-121l-115 -201h121zM629 690l256 445q43 72 87 118.5t116.5 77.5t166.5 31h78l-104 -180h-121l-115 -201h121l-168 -291h-317z" />
    <glyph glyph-name="quotedblright" unicode="&#x201d;" horiz-adv-x="929" 
d="M850 1071l168 291h317l-256 -444q-32 -54 -64 -92t-75.5 -70.5t-101 -49t-129.5 -16.5h-78l104 180h121l115 201h-121zM195 690l104 180h121l115 201h-121l168 291h317l-256 -444q-32 -54 -64 -92t-76 -70.5t-101.5 -49t-129.5 -16.5h-77z" />
    <glyph glyph-name="quotedblbase" unicode="&#x201e;" horiz-adv-x="985" 
d="M-197 16l168 291h318l-256 -444q-32 -54 -64 -92t-76 -70.5t-101.5 -49t-129.5 -16.5h-78l105 181h121l114 200h-121zM78 -365l104 181h121l115 200h-121l168 291h317l-256 -444q-32 -54 -64 -92t-75.5 -70.5t-101 -49t-129.5 -16.5h-78z" />
    <glyph glyph-name="dagger" unicode="&#x2020;" horiz-adv-x="1308" 
d="M393 342l369 639h-316l158 272h316l192 334h332l-193 -334h314l-158 -272h-313l-369 -639h-332z" />
    <glyph glyph-name="daggerdbl" unicode="&#x2021;" horiz-adv-x="1310" 
d="M342 250l162 282h-316l156 271h315l134 229h-316l158 273h315l162 282h332l-164 -282h315l-157 -273h-314l-133 -229h314l-156 -271h-313l-164 -282h-330z" />
    <glyph glyph-name="bullet" unicode="&#x2022;" horiz-adv-x="815" 
d="M301 270q-108 0 -146.5 67.5t11.5 174.5q52 108 146 175t200 67q108 0 146.5 -67.5t-11.5 -174.5q-52 -108 -146 -175t-200 -67z" />
    <glyph glyph-name="ellipsis" unicode="&#x2026;" horiz-adv-x="1452" 
d="M-205 0l176 307h334l-176 -307h-334zM266 0l176 307h334l-176 -307h-334zM737 0l176 307h334l-176 -307h-334z" />
    <glyph glyph-name="perthousand" unicode="&#x2030;" horiz-adv-x="2566" 
d="M1536 0l340 588h633l-338 -588h-635zM-207 0l14 25l1797 1144h-451l-227 -397h-635l340 590h1253q62 0 91.5 -22.5t27.5 -61.5q-3 -75 -133 -158l-1731 -1120h-346zM616 967h209l117 202h-209zM756 0l340 588h633l-340 -588h-633zM1081 195h209l115 202h-209zM1860 195
h213l116 202h-213z" />
    <glyph glyph-name="guilsinglleft" unicode="&#x2039;" horiz-adv-x="968" 
d="M121 535l639 489h403l-733 -549l143 -475h-321l-158 487z" />
    <glyph glyph-name="guilsinglright" unicode="&#x203a;" horiz-adv-x="968" 
d="M852 489l-639 -489h-403l733 549l-144 475h322l158 -487z" />
    <glyph glyph-name="Euro" unicode="&#x20ac;" horiz-adv-x="1912" 
d="M750 -33q-116 0 -206.5 24t-147 67.5t-89.5 104t-33 133t23 155.5h-166l98 172h951l-101 -172h-401q-33 -114 16 -152.5t191 -38.5q183 0 295 65t225 236h375q-144 -220 -282 -345.5t-318 -187t-430 -61.5zM291 729l98 172h168q93 119 191.5 207t215.5 154.5t254.5 100.5
t294.5 34q168 0 279 -42.5t159 -119.5t39.5 -184.5t-73.5 -239.5h-371q81 163 46 227t-212 64q-133 0 -237.5 -46.5t-202.5 -154.5h399l-98 -172h-950z" />
    <glyph glyph-name="trademark" unicode="&#x2122;" horiz-adv-x="1126" 
d="M1509 1368l-268 -467h-135l197 340l-293 -340h-146l97 342l-197 -342h-131l207 361h-105l-209 -361h-133l209 361h-147l61 106h594l-90 -309l266 309h223z" />
    <glyph glyph-name="arrowleft" unicode="&#x2190;" horiz-adv-x="1533" 
d="M899 1055l-362 -361h895v-233h-895l362 -363l-160 -159l-637 639l637 636z" />
    <glyph glyph-name="arrowup" unicode="&#x2191;" horiz-adv-x="1480" 
d="M741 1327l637 -637l-159 -160l-359 361v-891h-239v889l-359 -359l-160 160z" />
    <glyph glyph-name="arrowright" unicode="&#x2192;" horiz-adv-x="1533" 
d="M635 1055l160 159l637 -636l-637 -639l-160 159l362 363h-895v233h895z" />
    <glyph glyph-name="arrowdown" unicode="&#x2193;" horiz-adv-x="1480" 
d="M741 -59l-639 637l160 159l359 -358v889h239v-891l359 360l159 -159z" />
    <glyph glyph-name="uni2196" unicode="&#x2196;" horiz-adv-x="1228" 
d="M1004 799h-506l628 -629l-170 -170l-628 629v-506h-226v901h902v-225z" />
    <glyph glyph-name="uni2197" unicode="&#x2197;" horiz-adv-x="1228" 
d="M225 799v225h901v-901h-225v506l-629 -629l-170 170l629 629h-506z" />
    <glyph glyph-name="uni2198" unicode="&#x2198;" horiz-adv-x="1228" 
d="M225 225h506l-629 629l170 170l629 -629v506h225v-901h-901v225z" />
    <glyph glyph-name="uni2199" unicode="&#x2199;" horiz-adv-x="1228" 
d="M1004 225v-225h-902v901h226v-506l628 629l170 -170l-628 -629h506z" />
    <glyph glyph-name="partialdiff" unicode="&#x2202;" horiz-adv-x="1271" 
d="M61 537q67 115 135.5 200t158 155t202 106t246.5 36q128 0 197.5 -46t74.5 -130q95 172 68.5 297t-164.5 199l242 209q226 -118 243 -359.5t-186 -597.5q-184 -321 -412 -480t-528 -159q-150 0 -242 44.5t-119.5 123t-6 180.5t90.5 222zM399 512q-88 -151 -70.5 -210.5
t148.5 -59.5q134 0 223.5 62t173.5 208q86 146 68.5 208t-151.5 62q-131 0 -218 -59.5t-174 -210.5z" />
    <glyph glyph-name="product" unicode="&#x220f;" horiz-adv-x="1792" 
d="M2245 1587l-158 -272h-252l-995 -1725h-332l995 1725h-274l-996 -1725h-329l993 1725h-268l157 272h1459z" />
    <glyph glyph-name="summation" unicode="&#x2211;" horiz-adv-x="1456" 
d="M633 1315l155 272h1123l-158 -272h-790l161 -725l-940 -727h731l-157 -273h-1120l157 273l985 770z" />
    <glyph glyph-name="minus" unicode="&#x2212;" horiz-adv-x="1230" 
d="M256 649h881l-136 -233h-880z" />
    <glyph glyph-name="radical" unicode="&#x221a;" horiz-adv-x="2111" 
d="M31 -410l119 889h276l-90 -678l1593 1725h635l-158 -273h-389l-1536 -1663h-450z" />
    <glyph glyph-name="infinity" unicode="&#x221e;" horiz-adv-x="1912" 
d="M365 158q-181 0 -229.5 116.5t57.5 296.5q86 150 234.5 246t322.5 96q182 0 232 -115.5t-50 -287.5q-91 -158 -240.5 -255t-326.5 -97zM393 537q-102 -172 66 -172t270 172q36 62 32.5 99t-30.5 53t-76 16q-74 0 -143.5 -40t-118.5 -128zM1006 571q86 150 234.5 246
t322.5 96q182 0 232 -115.5t-50 -287.5q-91 -158 -240.5 -255t-326.5 -97q-181 0 -229.5 116.5t57.5 296.5zM1206 537q-102 -172 66 -172t270 172q36 62 32.5 99t-30.5 53t-76 16q-74 0 -143.5 -40t-118.5 -128z" />
    <glyph glyph-name="integral" unicode="&#x222b;" horiz-adv-x="1540" 
d="M-362 -410l163 285h314l962 1311q79 107 141.5 174.5t140.5 122.5t168.5 79.5t205.5 24.5h262l-164 -284h-313l-963 -1309q-80 -108 -142.5 -176t-141 -123.5t-168.5 -80t-205 -24.5h-260z" />
    <glyph glyph-name="approxequal" unicode="&#x2248;" horiz-adv-x="1150" 
d="M592 133q-41 0 -77 14.5t-61.5 35.5t-49 41.5t-48.5 35t-49 14.5q-33 0 -64.5 -24.5t-54.5 -69.5l-22 -41h-186l59 119q103 205 295 205q42 0 78 -14.5t61 -35.5t47.5 -41.5t48 -35t52.5 -14.5q31 0 63 24.5t55 67.5l21 43h188l-55 -109q-50 -103 -130 -159t-171 -56z
M264 633l60 119q103 204 294 204q42 0 78 -14.5t61 -35t47.5 -41.5t48 -35.5t52.5 -14.5q32 0 64 24.5t55 67.5l20 43h189l-55 -108q-50 -103 -130 -159t-171 -56q-41 0 -77 14.5t-61.5 35.5t-49 41.5t-48.5 35t-49 14.5q-33 0 -64.5 -24.5t-54.5 -69.5l-22 -41h-187z" />
    <glyph glyph-name="notequal" unicode="&#x2260;" horiz-adv-x="1155" 
d="M-20 16l174 183h-152l131 233h244l180 186h-313l131 234h405l170 178h224l-170 -178h176l-131 -234h-269l-180 -186h338l-133 -233h-428l-174 -183h-223z" />
    <glyph glyph-name="lessequal" unicode="&#x2264;" horiz-adv-x="1241" 
d="M1356 1016l-117 -211l-821 -121l680 -121l-115 -194l-797 159l105 179l86 149zM-68 90l117 203h889l-117 -203h-889z" />
    <glyph glyph-name="greaterequal" unicode="&#x2265;" horiz-adv-x="1236" 
d="M467 1016l797 -160l-76 -131l-115 -197l-979 -159l121 213l819 120l-678 121zM-68 90l117 203h887l-115 -203h-889z" />
    <glyph glyph-name="filledbox" unicode="&#x25a0;" horiz-adv-x="1568" 
d="M102 1362h1364v-1362h-1364v1362z" />
    <glyph glyph-name="triagup" unicode="&#x25b2;" horiz-adv-x="1728" 
d="M864 1362l762 -1362h-1524z" />
    <glyph glyph-name="lozenge" unicode="&#x25ca;" horiz-adv-x="1470" 
d="M465 0l-301 682l301 680h541l301 -680l-301 -682h-541zM492 682l243 -553l244 553l-244 551z" />
    <glyph glyph-name="uni25CF" unicode="&#x25cf;" horiz-adv-x="1640" 
d="M823 -37q-197 0 -363 96t-262 262t-96 363q0 146 56.5 278t153 228t230 152.5t281.5 56.5q146 0 278 -56.5t228 -152.5t152.5 -228t56.5 -278q0 -148 -56.5 -281.5t-152.5 -230t-228 -153t-278 -56.5z" />
    <glyph glyph-name="G.ss03" horiz-adv-x="1585" 
d="M459 -33q-116 0 -204 35.5t-138.5 102t-65 156t16 205t104.5 241.5q399 690 1100 690q134 0 234 -26t157.5 -71.5t83 -107.5t17.5 -133t-46 -148h-360q50 109 8 158t-201 49q-97 0 -173.5 -18.5t-154.5 -66t-152 -134.5t-150 -219q-93 -163 -114 -257t27 -136.5
t175 -42.5q167 0 291 62.5t233 213.5h-440l131 228h505q79 0 126.5 -25.5t56 -77t-36.5 -129.5l-299 -516h-295l119 209q-39 -43 -90 -82.5t-120.5 -77t-159.5 -60t-185 -22.5z" />
    <glyph glyph-name="Gbreve.ss03" horiz-adv-x="1585" 
d="M459 -33q-116 0 -204 35.5t-138.5 102t-65 156t16 205t104.5 241.5q399 690 1100 690q134 0 234 -26t157.5 -71.5t83 -107.5t17.5 -133t-46 -148h-360q50 109 8 158t-201 49q-97 0 -173.5 -18.5t-154.5 -66t-152 -134.5t-150 -219q-93 -163 -114 -257t27 -136.5
t175 -42.5q167 0 291 62.5t233 213.5h-440l131 228h505q79 0 126.5 -25.5t56 -77t-36.5 -129.5l-299 -516h-295l119 209q-39 -43 -90 -82.5t-120.5 -77t-159.5 -60t-185 -22.5zM1157 1696h193q-21 -41 -2 -67.5t75 -26.5q122 0 179 94h194q-24 -48 -52.5 -84t-75 -69
t-116.5 -50.5t-161 -17.5q-74 0 -127.5 13.5t-81 35.5t-39 51t-7.5 59.5t21 61.5z" />
    <glyph glyph-name="uni0122.ss03" horiz-adv-x="1585" 
d="M459 -33q-116 0 -204 35.5t-138.5 102t-65 156t16 205t104.5 241.5q399 690 1100 690q134 0 234 -26t157.5 -71.5t83 -107.5t17.5 -133t-46 -148h-360q50 109 8 158t-201 49q-97 0 -173.5 -18.5t-154.5 -66t-152 -134.5t-150 -219q-93 -163 -114 -257t27 -136.5
t175 -42.5q167 0 291 62.5t233 213.5h-440l131 228h505q79 0 126.5 -25.5t56 -77t-36.5 -129.5l-299 -516h-295l119 209q-39 -43 -90 -82.5t-120.5 -77t-159.5 -60t-185 -22.5zM29 -573l98 165h121l78 140h-121l100 172h318l-148 -254q-63 -109 -147 -166t-222 -57h-77z" />
    <glyph glyph-name="Gdotaccent.ss03" horiz-adv-x="1585" 
d="M459 -33q-116 0 -204 35.5t-138.5 102t-65 156t16 205t104.5 241.5q399 690 1100 690q134 0 234 -26t157.5 -71.5t83 -107.5t17.5 -133t-46 -148h-360q50 109 8 158t-201 49q-97 0 -173.5 -18.5t-154.5 -66t-152 -134.5t-150 -219q-93 -163 -114 -257t27 -136.5
t175 -42.5q167 0 291 62.5t233 213.5h-440l131 228h505q79 0 126.5 -25.5t56 -77t-36.5 -129.5l-299 -516h-295l119 209q-39 -43 -90 -82.5t-120.5 -77t-159.5 -60t-185 -22.5zM1178 1491l122 215h365l-121 -215h-366z" />
    <glyph glyph-name="Q.ss03" horiz-adv-x="1574" 
d="M526 -33q-176 0 -290 61t-154 163.5t-17.5 237.5t109.5 284q72 124 147.5 222.5t173.5 187t208 147.5t249 93t297 34q138 0 238.5 -40.5t153 -112t66.5 -166t-14.5 -205t-95.5 -226.5q-128 -222 -274.5 -371.5t-339.5 -226.5l39 -182l-311 -72l-25 180q-68 -8 -160 -8z
M530 680q-50 -88 -77.5 -153t-35 -117t12 -84t66 -49t122.5 -17h29l-24 174l266 68l37 -178q89 47 162 132t153 224q134 220 115.5 321t-211.5 101q-111 0 -197 -24t-159 -78t-132.5 -129.5t-126.5 -190.5z" />
    <glyph glyph-name="R.ss03" horiz-adv-x="1421" 
d="M-182 0l786 1362h656q95 0 167.5 -24.5t115 -67.5t59.5 -99.5t4.5 -124t-52.5 -137.5q-114 -196 -260 -292.5t-354 -116.5l-29 -213h273l-164 -287h-352q-74 0 -100 35t-11 108l72 351h-162l-285 -494h-364zM616 752h265q108 0 180.5 42t124.5 130q46 82 20.5 121.5
t-123.5 39.5h-274z" />
    <glyph glyph-name="Racute.ss03" horiz-adv-x="1421" 
d="M-182 0l786 1362h656q95 0 167.5 -24.5t115 -67.5t59.5 -99.5t4.5 -124t-52.5 -137.5q-114 -196 -260 -292.5t-354 -116.5l-29 -213h273l-164 -287h-352q-74 0 -100 35t-11 108l72 351h-162l-285 -494h-364zM616 752h265q108 0 180.5 42t124.5 130q46 82 20.5 121.5
t-123.5 39.5h-274zM979 1563l563 172l60 -215l-601 -43z" />
    <glyph glyph-name="Rcaron.ss03" horiz-adv-x="1421" 
d="M-182 0l786 1362h656q95 0 167.5 -24.5t115 -67.5t59.5 -99.5t4.5 -124t-52.5 -137.5q-114 -196 -260 -292.5t-354 -116.5l-29 -213h273l-164 -287h-352q-74 0 -100 35t-11 108l72 351h-162l-285 -494h-364zM616 752h265q108 0 180.5 42t124.5 130q46 82 20.5 121.5
t-123.5 39.5h-274zM999 1618l113 115l166 -131l307 131l62 -117l-314 -150h-157z" />
    <glyph glyph-name="uni0156.ss03" horiz-adv-x="1421" 
d="M-182 0l786 1362h656q95 0 167.5 -24.5t115 -67.5t59.5 -99.5t4.5 -124t-52.5 -137.5q-114 -196 -260 -292.5t-354 -116.5l-29 -213h273l-164 -287h-352q-74 0 -100 35t-11 108l72 351h-162l-285 -494h-364zM-61 -573l98 165h121l78 140h-121l100 172h317l-147 -254
q-63 -109 -147 -166t-222 -57h-77zM616 752h265q108 0 180.5 42t124.5 130q46 82 20.5 121.5t-123.5 39.5h-274z" />
    <glyph glyph-name="i.loclTRK" horiz-adv-x="548" 
d="M-197 0l590 1024h355l-590 -1024h-355zM461 1149l121 213h366l-123 -213h-364z" />
    <glyph glyph-name="uni01CE.ss001" horiz-adv-x="1333" 
d="M260 -33q-128 0 -201.5 49.5t-88 134t14 191.5t97.5 227q49 86 97.5 153t114.5 132t138 108t166 69t201 26q138 0 209 -52t77 -147l97 166h354l-590 -1024h-328l97 168q-211 -201 -455 -201zM418 520q-39 -68 -58 -116t-20 -80t18 -50.5t52.5 -26t87.5 -7.5
q135 0 216 56.5t173 215.5q49 84 66 138t2 83.5t-50.5 40t-101.5 10.5q-92 -1 -150.5 -21.5t-114 -76.5t-120.5 -166zM752 1292l112 115l166 -131l307 131l62 -119l-314 -147h-157z" />
    <glyph glyph-name="a.ss01" horiz-adv-x="1333" 
d="M260 -33q-128 0 -201.5 49.5t-88 134t14 191.5t97.5 227q49 86 97.5 153t114.5 132t138 108t166 69t201 26q138 0 209 -52t77 -147l97 166h354l-590 -1024h-328l97 168q-211 -201 -455 -201zM418 520q-39 -68 -58 -116t-20 -80t18 -50.5t52.5 -26t87.5 -7.5
q135 0 216 56.5t173 215.5q49 84 66 138t2 83.5t-50.5 40t-101.5 10.5q-92 -1 -150.5 -21.5t-114 -76.5t-120.5 -166z" />
    <glyph glyph-name="aacute.ss01" horiz-adv-x="1333" 
d="M260 -33q-128 0 -201.5 49.5t-88 134t14 191.5t97.5 227q49 86 97.5 153t114.5 132t138 108t166 69t201 26q138 0 209 -52t77 -147l97 166h354l-590 -1024h-328l97 168q-211 -201 -455 -201zM418 520q-39 -68 -58 -116t-20 -80t18 -50.5t52.5 -26t87.5 -7.5
q135 0 216 56.5t173 215.5q49 84 66 138t2 83.5t-50.5 40t-101.5 10.5q-92 -1 -150.5 -21.5t-114 -76.5t-120.5 -166zM709 1221l561 172l61 -213l-602 -43z" />
    <glyph glyph-name="abreve.ss01" horiz-adv-x="1333" 
d="M260 -33q-128 0 -201.5 49.5t-88 134t14 191.5t97.5 227q49 86 97.5 153t114.5 132t138 108t166 69t201 26q138 0 209 -52t77 -147l97 166h354l-590 -1024h-328l97 168q-211 -201 -455 -201zM418 520q-39 -68 -58 -116t-20 -80t18 -50.5t52.5 -26t87.5 -7.5
q135 0 216 56.5t173 215.5q49 84 66 138t2 83.5t-50.5 40t-101.5 10.5q-92 -1 -150.5 -21.5t-114 -76.5t-120.5 -166zM795 1362h194q-23 -41 -3.5 -67.5t75.5 -26.5q121 0 180 94h193q-23 -48 -51.5 -84t-75 -69t-117 -50.5t-162.5 -17.5q-91 0 -150.5 20t-81.5 53t-22 70.5
t21 77.5z" />
    <glyph glyph-name="acircumflex.ss01" horiz-adv-x="1333" 
d="M260 -33q-128 0 -201.5 49.5t-88 134t14 191.5t97.5 227q49 86 97.5 153t114.5 132t138 108t166 69t201 26q138 0 209 -52t77 -147l97 166h354l-590 -1024h-328l97 168q-211 -201 -455 -201zM418 520q-39 -68 -58 -116t-20 -80t18 -50.5t52.5 -26t87.5 -7.5
q135 0 216 56.5t173 215.5q49 84 66 138t2 83.5t-50.5 40t-101.5 10.5q-92 -1 -150.5 -21.5t-114 -76.5t-120.5 -166zM713 1237l307 147h158l178 -151l-113 -117l-182 131l-287 -131z" />
    <glyph glyph-name="adieresis.ss01" horiz-adv-x="1333" 
d="M260 -33q-128 0 -201.5 49.5t-88 134t14 191.5t97.5 227q49 86 97.5 153t114.5 132t138 108t166 69t201 26q138 0 209 -52t77 -147l97 166h354l-590 -1024h-328l97 168q-211 -201 -455 -201zM418 520q-39 -68 -58 -116t-20 -80t18 -50.5t52.5 -26t87.5 -7.5
q135 0 216 56.5t173 215.5q49 84 66 138t2 83.5t-50.5 40t-101.5 10.5q-92 -1 -150.5 -21.5t-114 -76.5t-120.5 -166zM637 1149l121 213h299l-121 -213h-299zM1079 1149l123 213h299l-123 -213h-299z" />
    <glyph glyph-name="agrave.ss01" horiz-adv-x="1333" 
d="M260 -33q-128 0 -201.5 49.5t-88 134t14 191.5t97.5 227q49 86 97.5 153t114.5 132t138 108t166 69t201 26q138 0 209 -52t77 -147l97 166h354l-590 -1024h-328l97 168q-211 -201 -455 -201zM418 520q-39 -68 -58 -116t-20 -80t18 -50.5t52.5 -26t87.5 -7.5
q135 0 216 56.5t173 215.5q49 84 66 138t2 83.5t-50.5 40t-101.5 10.5q-92 -1 -150.5 -21.5t-114 -76.5t-120.5 -166zM733 1180l62 213l561 -172l-21 -84z" />
    <glyph glyph-name="amacron.ss01" horiz-adv-x="1333" 
d="M260 -33q-128 0 -201.5 49.5t-88 134t14 191.5t97.5 227q49 86 97.5 153t114.5 132t138 108t166 69t201 26q138 0 209 -52t77 -147l97 166h354l-590 -1024h-328l97 168q-211 -201 -455 -201zM418 520q-39 -68 -58 -116t-20 -80t18 -50.5t52.5 -26t87.5 -7.5
q135 0 216 56.5t173 215.5q49 84 66 138t2 83.5t-50.5 40t-101.5 10.5q-92 -1 -150.5 -21.5t-114 -76.5t-120.5 -166zM629 1171l110 191h785l-111 -191h-784z" />
    <glyph glyph-name="aogonek.ss01" horiz-adv-x="1333" 
d="M260 -33q-128 0 -201.5 49.5t-88 134t14 191.5t97.5 227q49 86 97.5 153t114.5 132t138 108t166 69t201 26q138 0 209 -52t77 -147l97 166h354l-590 -1024h-149q-35 -41 -52 -68q-30 -60 -11.5 -93.5t69.5 -33.5q49 0 108 15l-120 -211q-67 -25 -152 -25
q-129 0 -175.5 90.5t21.5 210.5q51 87 158 158l72 125q-211 -201 -455 -201zM418 520q-39 -68 -58 -116t-20 -80t18 -50.5t52.5 -26t87.5 -7.5q135 0 216 56.5t173 215.5q49 84 66 138t2 83.5t-50.5 40t-101.5 10.5q-92 -1 -150.5 -21.5t-114 -76.5t-120.5 -166z" />
    <glyph glyph-name="aring.ss01" horiz-adv-x="1333" 
d="M260 -33q-128 0 -201.5 49.5t-88 134t14 191.5t97.5 227q49 86 97.5 153t114.5 132t138 108t166 69t201 26q138 0 209 -52t77 -147l97 166h354l-590 -1024h-328l97 168q-211 -201 -455 -201zM418 520q-39 -68 -58 -116t-20 -80t18 -50.5t52.5 -26t87.5 -7.5
q135 0 216 56.5t173 215.5q49 84 66 138t2 83.5t-50.5 40t-101.5 10.5q-92 -1 -150.5 -21.5t-114 -76.5t-120.5 -166zM905 1333q37 67 116 114.5t169 47.5q95 0 127.5 -62.5t-17.5 -148.5q-39 -67 -118 -113.5t-170 -46.5q-94 0 -125 60.5t18 148.5zM1030 1311
q-19 -35 -9.5 -52.5t40.5 -17.5q70 0 110 70q20 34 10.5 49.5t-40.5 15.5q-69 0 -111 -65z" />
    <glyph glyph-name="atilde.ss01" horiz-adv-x="1333" 
d="M260 -33q-128 0 -201.5 49.5t-88 134t14 191.5t97.5 227q49 86 97.5 153t114.5 132t138 108t166 69t201 26q138 0 209 -52t77 -147l97 166h354l-590 -1024h-328l97 168q-211 -201 -455 -201zM418 520q-39 -68 -58 -116t-20 -80t18 -50.5t52.5 -26t87.5 -7.5
q135 0 216 56.5t173 215.5q49 84 66 138t2 83.5t-50.5 40t-101.5 10.5q-92 -1 -150.5 -21.5t-114 -76.5t-120.5 -166zM616 1139l35 59q105 184 303 184q43 0 76.5 -10.5t54.5 -25t39 -29t38.5 -25t43.5 -10.5q54 0 94 72l15 24h209l-29 -53q-55 -96 -136 -143t-173 -47
q-50 0 -90.5 15.5t-62 34.5t-48 34.5t-51.5 15.5q-51 0 -94 -72l-15 -24h-209z" />
    <glyph glyph-name="g.ss02" horiz-adv-x="1261" 
d="M360 270q-87 0 -122 -59q-33 -53 49 -53h291q191 0 260 -96.5t-17 -247.5q-78 -134 -256.5 -194t-478.5 -60q-276 0 -380.5 71.5t-29.5 204.5q53 90 215 133q-44 21 -50.5 75t24.5 108q49 85 142.5 138.5t201.5 69.5q-81 50 -90.5 140.5t49.5 187.5q101 176 270 262
t367 86q133 0 202 -50.5t76 -125.5l95 164h301l-203 -352l-2 -2q-46 -79 -109 -145t-154.5 -125t-221 -93.5t-283.5 -36.5h-146zM-14 -152q-36 -61 4.5 -86.5t175.5 -25.5q107 0 171.5 13.5t93.5 34.5t50 60q24 38 8.5 59t-69.5 21h-303q-46 0 -77 -17.5t-54 -58.5zM500 651
q-44 -77 -16 -110t134 -33q114 0 180 33t111 110q47 78 18.5 113t-141.5 35q-106 0 -172.5 -33.5t-113.5 -114.5z" />
    <glyph glyph-name="gbreve.ss02" horiz-adv-x="1261" 
d="M360 270q-87 0 -122 -59q-33 -53 49 -53h291q191 0 260 -96.5t-17 -247.5q-78 -134 -256.5 -194t-478.5 -60q-276 0 -380.5 71.5t-29.5 204.5q53 90 215 133q-44 21 -50.5 75t24.5 108q49 85 142.5 138.5t201.5 69.5q-81 50 -90.5 140.5t49.5 187.5q101 176 270 262
t367 86q133 0 202 -50.5t76 -125.5l95 164h301l-203 -352l-2 -2q-46 -79 -109 -145t-154.5 -125t-221 -93.5t-283.5 -36.5h-146zM-14 -152q-36 -61 4.5 -86.5t175.5 -25.5q107 0 171.5 13.5t93.5 34.5t50 60q24 38 8.5 59t-69.5 21h-303q-46 0 -77 -17.5t-54 -58.5zM500 651
q-44 -77 -16 -110t134 -33q114 0 180 33t111 110q47 78 18.5 113t-141.5 35q-106 0 -172.5 -33.5t-113.5 -114.5zM782 1362h195q-23 -41 -3.5 -67.5t75.5 -26.5q121 0 180 94h192q-23 -48 -51.5 -84t-74.5 -69t-116.5 -50.5t-162.5 -17.5q-91 0 -150.5 20t-82 53t-22.5 70.5
t21 77.5z" />
    <glyph glyph-name="uni0123.ss02" horiz-adv-x="1261" 
d="M360 270q-87 0 -122 -59q-33 -53 49 -53h291q191 0 260 -96.5t-17 -247.5q-78 -134 -256.5 -194t-478.5 -60q-276 0 -380.5 71.5t-29.5 204.5q53 90 215 133q-44 21 -50.5 75t24.5 108q49 85 142.5 138.5t201.5 69.5q-81 50 -90.5 140.5t49.5 187.5q101 176 270 262
t367 86q133 0 202 -50.5t76 -125.5l95 164h301l-203 -352l-2 -2q-46 -79 -109 -145t-154.5 -125t-221 -93.5t-283.5 -36.5h-146zM-14 -152q-36 -61 4.5 -86.5t175.5 -25.5q107 0 171.5 13.5t93.5 34.5t50 60q24 38 8.5 59t-69.5 21h-303q-46 0 -77 -17.5t-54 -58.5zM500 651
q-44 -77 -16 -110t134 -33q114 0 180 33t111 110q47 78 18.5 113t-141.5 35q-106 0 -172.5 -33.5t-113.5 -114.5zM858 1145l191 330q64 112 148 170.5t222 58.5h78l-104 -182h-121l-98 -170h120l-118 -207h-318z" />
    <glyph glyph-name="gdotaccent.ss02" horiz-adv-x="1261" 
d="M360 270q-87 0 -122 -59q-33 -53 49 -53h291q191 0 260 -96.5t-17 -247.5q-78 -134 -256.5 -194t-478.5 -60q-276 0 -380.5 71.5t-29.5 204.5q53 90 215 133q-44 21 -50.5 75t24.5 108q49 85 142.5 138.5t201.5 69.5q-81 50 -90.5 140.5t49.5 187.5q101 176 270 262
t367 86q133 0 202 -50.5t76 -125.5l95 164h301l-203 -352l-2 -2q-46 -79 -109 -145t-154.5 -125t-221 -93.5t-283.5 -36.5h-146zM-14 -152q-36 -61 4.5 -86.5t175.5 -25.5q107 0 171.5 13.5t93.5 34.5t50 60q24 38 8.5 59t-69.5 21h-303q-46 0 -77 -17.5t-54 -58.5zM500 651
q-44 -77 -16 -110t134 -33q114 0 180 33t111 110q47 78 18.5 113t-141.5 35q-106 0 -172.5 -33.5t-113.5 -114.5zM813 1149l121 213h366l-122 -213h-365z" />
    <glyph glyph-name="r_t.dlig" horiz-adv-x="1626" 
d="M1057 0q-116 0 -181.5 25.5t-82.5 77.5t4.5 125t81.5 175l323 564l350 305h181l-144 -248h279l-154 -264h-278l-279 -481h246l-160 -279h-186zM-201 0l592 1024h342l-117 -201q94 110 194.5 163.5t227.5 53.5h86l-198 -344h-129q-132 0 -206.5 -45t-158.5 -178l-272 -473
h-361z" />
    <glyph glyph-name="r_t_t.dlig" horiz-adv-x="2347" 
d="M1040 0q-115 0 -180.5 25.5t-82 77.5t4.5 125t80 175l326 564l350 305h178l-141 -248h416l284 248h179l-142 -248h279l-154 -264h-278l-279 -481h246l-160 -279h-188q-115 0 -180.5 25.5t-82.5 77.5t4 125t80 175l205 357h-383l-278 -481h246l-160 -279h-189zM-201 0
l592 1024h342l-117 -201q94 110 194.5 163.5t227.5 53.5h86l-198 -344h-129q-132 0 -206.5 -45t-158.5 -178l-272 -473h-361z" />
    <glyph glyph-name="asterisk.case" horiz-adv-x="1566" 
d="M369 0l100 174l346 438l-461 -370l-192 -123l-76 176l195 123l520 237l-490 -86h-174l131 226h174l396 -88l-226 260l-53 123l234 137l53 -123l47 -363l162 447l100 174h244l-101 -174l-352 -440l467 372l193 123l77 -176l-194 -123l-520 -235l487 86h174l-131 -226h-174
l-397 88l231 -260l51 -123l-233 -141l-53 123l-50 369l-161 -451l-101 -174h-243z" />
    <glyph glyph-name="sterling.ss01" horiz-adv-x="1288" 
d="M606 444l-112 -194h481l-146 -250h-1019l143 250h186l113 194h-154l117 203h154l65 115h-151l116 205h154l37 65q61 104 118 174t130 124t163.5 79t206.5 25h383l-159 -279h-416l-109 -188h303l-116 -205h-306l-65 -115h305l-117 -203h-305z" />
    <glyph glyph-name="percent.ss04" horiz-adv-x="1630" 
d="M-180 0l14 25l1804 1337h310l-15 -25l-1802 -1337h-311zM442 1124q68 119 182 196t255 77q97 0 148 -44.5t48 -120.5t-57 -169q-71 -122 -183.5 -197t-254.5 -75q-148 0 -185.5 95.5t47.5 237.5zM612 1094q-41 -68 -31.5 -98.5t74.5 -30.5q61 0 107 30.5t86 98.5
q39 70 28.5 99.5t-73.5 29.5q-65 0 -108 -29.5t-83 -99.5zM809 324q68 119 181.5 194.5t254.5 75.5q97 0 148 -44t48 -119.5t-57 -168.5q-71 -123 -182.5 -198.5t-253.5 -75.5q-98 0 -149 44.5t-48 121t58 170.5zM979 293q-40 -69 -30.5 -99t73.5 -30q63 0 107.5 30t84.5 99
t30 98t-73 29q-65 0 -108.5 -29t-83.5 -98z" />
    <glyph glyph-name="uni2197.case" horiz-adv-x="1228" 
d="M225 1137v225h901v-901h-225v506l-629 -629l-170 170l629 629h-506z" />
    <glyph glyph-name="uni2196.case" horiz-adv-x="1228" 
d="M1004 1137h-506l628 -629l-170 -170l-628 629v-506h-226v901h902v-225z" />
    <glyph glyph-name="uni0308.case" 
d="M1047 1491l122 215h299l-122 -215h-299zM629 1491l123 215h299l-123 -215h-299z" />
    <glyph glyph-name="uni0307.case" 
d="M629 1491l123 215h364l-121 -215h-366z" />
    <glyph glyph-name="gravecomb.case" 
d="M707 1520l59 215l563 -172l-22 -86z" />
    <glyph glyph-name="acutecomb.case" 
d="M1290 1520l-600 -43l-22 86l563 172z" />
    <glyph glyph-name="uni030B.case" 
d="M1040 1612l-350 -180l-61 65l258 275zM1085 1509l258 277l154 -162l-352 -178z" />
    <glyph glyph-name="uni0302.case" 
d="M688 1597l356 134h158l172 -125l-135 -123l-168 125l-321 -144z" />
    <glyph glyph-name="uni030C.case" 
d="M700 1618l113 115l166 -131l307 131l62 -117l-314 -150h-157z" />
    <glyph glyph-name="uni0306.case" 
d="M938 1696q-21 -41 -1.5 -67.5t75.5 -26.5q121 0 178 94h194q-24 -48 -52.5 -84t-75 -69t-116.5 -50.5t-161 -17.5q-74 0 -127.5 13.5t-81 35.5t-39 51t-7.5 59.5t21 61.5h193z" />
    <glyph glyph-name="uni030A.case" 
d="M862 1430q-122 0 -155.5 72t30.5 181q52 91 149.5 155.5t211.5 64.5q121 0 155.5 -72.5t-28.5 -179.5q-54 -92 -151.5 -156.5t-211.5 -64.5zM891 1667q-23 -43 -11 -63.5t52 -20.5q88 0 137 84q24 43 12 62.5t-53 19.5q-87 0 -137 -82z" />
    <glyph glyph-name="tildecomb.case" 
d="M1188 1473q-50 0 -90.5 15.5t-62 34.5t-48 34.5t-51.5 15.5q-51 0 -94 -72l-15 -24h-209l35 59q105 184 303 184q43 0 76.5 -10.5t54.5 -25t39 -29t38.5 -25t43.5 -10.5q55 0 95 72l14 24h209l-29 -53q-55 -96 -136 -143t-173 -47z" />
    <glyph glyph-name="uni0304.case" 
d="M752 1706h850l-119 -205h-848z" />
    <glyph glyph-name="uni0312.case" 
d="M1069 1708l-127 -219h-315l198 346q65 112 150.5 170.5t222.5 58.5h78l-105 -182h-122l-101 -174h121z" />
    </font>
</defs>
</svg>
